<?xml version="1.0" encoding="utf-8"?>
<!-- Generator: Adobe Illustrator 16.0.3, SVG Export Plug-In . SVG Version: 6.00 Build 0)  -->
<!DOCTYPE svg PUBLIC "-//W3C//DTD SVG 1.1//EN" "http://www.w3.org/Graphics/SVG/1.1/DTD/svg11.dtd">
<svg version="1.1" id="Layer_1" xmlns="http://www.w3.org/2000/svg" xmlns:xlink="http://www.w3.org/1999/xlink" x="0px" y="0px"
	 width="612px" height="792px" viewBox="0 0 612 792" enable-background="new 0 0 612 792" xml:space="preserve">
<g>
	<path d="M333.8,372.614l0.058-2.674l-37.602,3.917c0.259,0.794,0.468,1.643,0.628,2.539L333.8,372.614z"/>
	<path d="M284.267,362.147c0.066,0.018,2.878,0.817,5.865,3.119l-0.07-0.893l43.986-3.42l0.061-2.83l-50.484,3.896
		C283.837,362.062,284.049,362.1,284.267,362.147z"/>
	<path d="M295.726,372.43l38.164-3.976l0.048-2.328l-39.587,3.71c0.51,0.796,0.976,1.669,1.377,2.62L295.726,372.43z"/>
	<path d="M278.461,329.835l0.064,0.193c0.03,0.094,0.735,2.234,0.663,4.322c0.111,0.418,0.706,2.27,2.479,2.303l0.079,0.006
		c0.061,0.006,1.731,0.139,2.853-2.17l0.709-2.297l44.847-2.811l0.028,0.758c0.021,0.493,0.237,1.913,0.991,2.539
		c0.333,0.277,0.749,0.373,1.274,0.299l0.106-0.008c0.261-0.004,2.594-0.124,2.707-3.164l0.013-0.109
		c0.002-0.016,0.325-1.895-0.803-2.839l-3.16-3.024l-3.72,0.281l-21.349,1.328l-29.531,2.189l-0.183,0.553L278.461,329.835z
		 M332.89,329.545c0.475,0,0.861,0.386,0.861,0.861s-0.387,0.86-0.861,0.86c-0.477,0-0.861-0.385-0.861-0.86
		S332.413,329.545,332.89,329.545z M282.274,333.229c0.476,0,0.861,0.385,0.861,0.859c0,0.477-0.386,0.862-0.861,0.862
		s-0.861-0.386-0.861-0.862C281.413,333.614,281.799,333.229,282.274,333.229z"/>
	<path d="M293.652,368.82l-0.038-0.398l40.355-3.782l0.048-2.202l-43.226,3.361C291.777,366.629,292.761,367.627,293.652,368.82z"/>
	<polygon points="279.118,360.889 334.141,356.64 334.2,353.81 279.005,358.073 	"/>
	<path d="M297.091,377.859c0.015,0.135,0.034,0.266,0.046,0.404c0.013,0.106,0.26,2.4,0.143,4.642l25.228-2.808
		c2.563-0.999,6.96-2.876,11.25-5.466l0.012-0.53L297.091,377.859z"/>
	<path d="M330.226,333.81c-0.94-0.784-1.3-2.049-1.436-2.861l-42.372,2.654l-0.463,1.475c-1.331,2.8-3.415,3.06-4.14,3.06
		c-0.092,0-0.161-0.005-0.204-0.009c-1.865-0.046-2.974-1.342-3.521-2.494l0.854,20.963l55.288-4.27l0.061-2.83l-55.335,4.273
		l-0.113-1.473l55.479-4.283l0.061-2.828l-55.427,4.279l-0.113-1.473l55.571-4.291l0.06-2.83l-55.518,4.288l-0.113-1.472l55.662-4.3
		l0.061-2.829l-55.609,4.295l-0.113-1.473l55.755-4.305l0.026-1.229c-0.708,0.42-1.457,0.586-2.017,0.597
		C331.692,334.567,330.869,334.347,330.226,333.81z"/>
	<path d="M348.46,371.903c-0.951,1.306-2.675,3.193-3.505,4.084c0.898,1.416,2.779,4.83,1.665,7.115c0,0-2.344,9.077-24.877,12.415
		c0,0-17.797,2.942-34.804,0l0.431-0.503l-0.431-0.717c0,0,1.529-0.358,2.988-1.508c0,0,35.163,0.144,54.588-17.461
		c0,0,0.013,0.018,0.018,0.025c0.893-0.96,2.584-2.824,3.418-4.004c-0.03-0.031-0.052-0.053-0.052-0.053
		c1.759-2.439,3.875-6.889,3.875-6.889c2.906-6.71,0.826-12.667,0.826-12.667c-1.615-6.565-6.781-10.8-6.781-10.8
		c-0.037-1.111-0.897-1.758-0.897-1.758l-1.723-1.687l0.215-7.392c-0.538-3.982-4.019-4.808-4.019-4.808
		c-1.327-0.251-3.049-0.071-3.049-0.071l-1.221-1.22l-1.424,0.069l1.755,1.682c1.633,1.367,1.343,3.733,1.277,4.15
		c-0.069,1.597-0.634,2.668-1.358,3.368l-0.869,40.893c3.527-2.207,6.896-4.894,9.02-7.968c-0.651-0.734-1.762-1.9-1.762-1.9
		l0.968-18.623c4.665,4.055,4.845,10.263,4.845,10.263c0.249,4.326-2.024,8.427-3.073,10.07l0.029,0.019
		c-4.933,7.826-17.461,13.145-22.198,14.935c-4.075,1.584-12.982,4.377-27.144,5.416c0,0,0.794-0.713,1.324-3.105
		c0.172-2.311-0.11-4.911-0.112-4.94c-1.065-12.271-12.199-15.439-12.313-15.471c-9.482-2.072-13.668,3.996-13.709,4.059
		l-0.056,0.064c-6.255,5.842-2.573,16.147-2.535,16.251l-0.693,0.254c-0.04-0.107-3.872-10.843,2.697-17.019
		c0.299-0.414,3.029-3.978,8.622-4.66l-1.268-31.157l-2.743-2.343l-0.344,1.22c0.748,0.954,1.733,2.345,1.832,3.173
		c0.005,0.054,0.435,4.593,0.529,14.872l0.335,14.059l-0.738,0.018l-0.335-14.063c-0.094-10.246-0.521-14.761-0.524-14.805
		c-0.081-0.666-1.085-2.054-1.854-3.014l-1.438,0.191c-1.687,0.682-1.579,2.475-1.579,2.475l0.646,30.105l-3.661,2.164l0.646,1.029
		c-0.98,0.477-2.654,2.176-2.654,2.176l-0.934-0.574l-0.861,0.599l-1.818,3.517l0.67,0.525c-0.598,0.957-1.363,3.804-1.363,3.804
		l-0.86,0.502l-0.072,4.281l0.573,0.217l0.097,1.028c-0.503,0.167-1.459,1.339-1.459,1.339c-1.363,2.583,0.191,4.545,0.191,4.545
		l3.563,1.985c1.102-0.263,0.957,0.335,0.957,0.335l-0.693,0.574c-1.124,1.866,0.358,4.593,0.358,4.593l4.163,2.033
		c1.29-0.024,1.362-0.264,1.362-0.264c9.902,3.444,17.511,4.665,17.511,4.665c16.576,2.152,25.906,0.933,25.906,0.933
		c16.72-1.005,25.401-5.166,25.401-5.166c9.939-3.804,12.846-9.796,12.846-9.796c2.942-4.809,1.256-9.652,1.256-9.652
		C351.196,375.237,349.379,372.945,348.46,371.903z M271.845,385.327c0,0-1.769-6.411,2.87-11.864c0,0-3.923,7.702,4.594,12.918
		C279.309,386.381,273.854,385.997,271.845,385.327z M270.362,382.792c0,0-3.301-7.56,1.961-13.826c0,0,3.827-4.832,10.43-3.876
		c0,0,5.453,0.526,9.042,6.269c0,0,1.435,6.267-2.297,10.716c0,0,1.771-5.071-1.818-9.617c0,0-3.491-4.161-8.323-2.774
		C279.356,369.683,271.319,370.544,270.362,382.792z M281.987,380.447c-1.215,0-2.2-1.06-2.2-2.368s0.985-2.368,2.2-2.368
		s2.201,1.06,2.201,2.368S283.202,380.447,281.987,380.447z M284.905,386.763c0,0,8.563-2.871,7.941-13.3
		c0,0,3.671,5.981-0.781,13.3C292.065,386.763,285.241,386.858,284.905,386.763z"/>
</g>
</svg>
