<?xml version="1.0" encoding="utf-8"?>
<!-- Generator: Adobe Illustrator 16.0.3, SVG Export Plug-In . SVG Version: 6.00 Build 0)  -->
<!DOCTYPE svg PUBLIC "-//W3C//DTD SVG 1.1//EN" "http://www.w3.org/Graphics/SVG/1.1/DTD/svg11.dtd">
<svg version="1.1" id="Layer_1" xmlns="http://www.w3.org/2000/svg" xmlns:xlink="http://www.w3.org/1999/xlink" x="0px" y="0px"
	 width="612px" height="792px" viewBox="0 0 612 792" enable-background="new 0 0 612 792" xml:space="preserve">
<g>
	<path fill="#010101" d="M339.852,294.672h-56.795c-0.43,0-0.779,0.348-0.779,0.777v56.793c0,0.432,0.35,0.779,0.779,0.779h56.795
		c0.43,0,0.777-0.348,0.777-0.779v-56.793C340.629,295.02,340.281,294.672,339.852,294.672z M303.508,348.22
		c-6.395-2.138-11.376-6.565-14.35-12.065h0.001c-3.232-5.982-4.084-13.235-1.761-20.197c0.785-2.352,1.402-3.462,2.625-5.409
		c1.643-2.614,2.023-2.867,3.771-3.555c7.399-2.895,14.109-2.188,21.071,0.346c-8.277-1.64-16.682,3.091-19.425,11.306
		c-1.528,4.577-0.998,9.344,1.082,13.303c0.237,0.451,0.496,0.893,0.771,1.322c5.872,10.273,18.208,14.639,29.489,11.229
		C320.324,349.287,311.713,350.957,303.508,348.22z M315.864,321.949c1.155,2.186,0.321,4.893-1.864,6.051
		c-2.184,1.154-4.893,0.32-6.049-1.866c-1.155-2.187-0.32-4.892,1.865-6.048S314.708,319.764,315.864,321.949z M335.787,332.139
		c-0.893,2.667-1.805,4.4-3.462,6.776c-0.764,1.097-1.232,1.594-1.558,1.78c-7.504,4.289-16.902,2.814-24.106-0.354
		c8.787,2.672,18.153-2.126,21.08-10.889c1.49-4.463,1.028-9.105-0.924-13.004c-0.456-0.855-1.379-2.275-1.379-2.275
		c-6.248-9.816-18.63-13.75-29.777-9.951c6.533-5.233,15.502-7.154,24.033-4.307c6.495,2.17,11.53,6.701,14.484,12.316
		c0.003,0.006,0.007,0.015,0.01,0.021c0.002,0.008,0.008,0.013,0.012,0.019l-0.001,0.004
		C337.286,318.192,338.066,325.307,335.787,332.139z"/>
	<g>
		<g>
			<path fill="#010101" d="M345.173,360.139l-67.729-0.274c-1.264-0.005-2.288-1.036-2.283-2.299l0.275-67.729
				c0.005-1.264,1.038-2.288,2.302-2.283l67.729,0.274c1.263,0.005,2.286,1.037,2.281,2.302l-0.275,67.729
				C347.468,359.121,346.436,360.144,345.173,360.139z M278.363,356.67l65.913,0.268l0.268-65.916l-65.914-0.268L278.363,356.67z"/>
		</g>
		<rect x="279.781" y="285.051" fill="#010101" width="4.102" height="3.725"/>
		<rect x="339.589" y="285.051" fill="#010101" width="4.1" height="3.725"/>
		<rect x="279.781" y="358.402" fill="#010101" width="4.102" height="3.725"/>
		<rect x="339.589" y="358.402" fill="#010101" width="4.1" height="3.725"/>
	</g>
</g>
</svg>
