<?xml version="1.0" encoding="utf-8"?>
<!-- Generator: Adobe Illustrator 16.0.3, SVG Export Plug-In . SVG Version: 6.00 Build 0)  -->
<!DOCTYPE svg PUBLIC "-//W3C//DTD SVG 1.1//EN" "http://www.w3.org/Graphics/SVG/1.1/DTD/svg11.dtd">
<svg version="1.1" id="Layer_1" xmlns="http://www.w3.org/2000/svg" xmlns:xlink="http://www.w3.org/1999/xlink" x="0px" y="0px"
	 width="612px" height="792px" viewBox="0 0 612 792" enable-background="new 0 0 612 792" xml:space="preserve">
<g>
	<g>
		<circle cx="321.993" cy="376.13" r="7.733"/>
	</g>
	<g>
		<path fill="#010101" d="M307.926,366.94c0,0-10.605-7.768-21.064-9.736c0,0-5.87,10.298-4.504,24.222
			c0,0,11.446-4.177,23.581-3.412c0,0-1.049-4.466,1.999-10.768"/>
	</g>
	<g>
		<path fill="#010101" d="M315.828,392.07c0,0-5.682,11.848-5.691,22.492c0,0,11.203,3.869,24.639-0.04
			c0,0-6.213-10.482-7.703-22.545c0,0-4.189,1.85-10.947,0.023"/>
	</g>
	<g>
		<path fill="#010101" d="M305.629,381.085c0,0-12.872,2.676-21.338,9.123c0,0,3.72,11.258,14.977,19.564
			c0,0,4.563-11.298,13.251-19.797c0,0-4.018-2.21-6.656-8.692"/>
	</g>
	<g>
		<path fill="#010101" d="M330.545,390.512c0,0,5.291,12.03,13.361,18.966c0,0,10.242-5.979,16.02-18.713
			c0,0-12.002-2.115-22.121-8.848c0,0-1.332,4.392-7.121,8.323"/>
	</g>
	<g>
		<path fill="#010101" d="M338.783,378.66c0,0,12.742,3.214,23.176,1.104c0,0,1.566-11.751-4.938-24.142
			c0,0-9.039,8.178-20.564,12.033c0,0,2.648,3.746,2.199,10.729"/>
	</g>
	<g>
		<path fill="#010101" d="M333.826,364.777c0,0,10.527-7.871,15.465-17.292c0,0-8.133-8.626-21.852-11.391
			c0,0,0.652,12.176-3.623,23.55c0,0,4.578,0.308,9.713,5.056"/>
	</g>
	<g>
		<path fill="#010101" d="M320.332,359.528c0,0-0.4-13.137-5.287-22.595c0,0-11.733,1.713-21.862,11.362
			c0,0,10.337,6.454,17.202,16.482c0,0,2.877-3.572,9.719-5.049"/>
	</g>
	<g>
		<path fill="#010101" d="M321.996,393.493c-9.574,0-17.365-7.789-17.365-17.362c0-9.574,7.791-17.363,17.365-17.363
			c9.572,0,17.361,7.789,17.361,17.363C339.357,385.704,331.568,393.493,321.996,393.493z M321.996,362.767
			c-7.369,0-13.365,5.995-13.365,13.363c0,7.368,5.996,13.362,13.365,13.362c7.367,0,13.361-5.994,13.361-13.362
			C335.357,368.762,329.363,362.767,321.996,362.767z"/>
	</g>
</g>
</svg>
