<?xml version="1.0" encoding="utf-8"?>
<!-- Generator: Adobe Illustrator 16.0.3, SVG Export Plug-In . SVG Version: 6.00 Build 0)  -->
<!DOCTYPE svg PUBLIC "-//W3C//DTD SVG 1.1//EN" "http://www.w3.org/Graphics/SVG/1.1/DTD/svg11.dtd">
<svg version="1.1" id="Layer_1" xmlns="http://www.w3.org/2000/svg" xmlns:xlink="http://www.w3.org/1999/xlink" x="0px" y="0px"
	 width="612px" height="792px" viewBox="0 0 612 792" enable-background="new 0 0 612 792" xml:space="preserve">
<g>
	<g>
		<polygon points="282.124,392.215 278.269,396 247.388,364.529 251.241,360.75 		"/>
	</g>
	<g>
		
			<rect x="252.274" y="368.456" transform="matrix(0.7138 -0.7004 0.7004 0.7138 -189.6544 285.9173)" width="5.403" height="13.066"/>
	</g>
	<g>
		
			<rect x="266.356" y="382.54" transform="matrix(0.7138 -0.7004 0.7004 0.7138 -195.4882 299.8102)" width="5.402" height="13.068"/>
	</g>
	<g>
		<path d="M285.396,361.814c0-2.317-1.885-4.203-4.202-4.203c-2.316,0-4.201,1.886-4.201,4.203c0,2.316,1.885,4.201,4.201,4.201
			C283.512,366.016,285.396,364.131,285.396,361.814z M278.629,361.814c0-1.416,1.147-2.567,2.565-2.567
			c1.414,0,2.563,1.151,2.563,2.567s-1.149,2.566-2.563,2.566C279.776,364.381,278.629,363.23,278.629,361.814z"/>
		<path d="M308.35,339.977c0-2.318-1.884-4.204-4.201-4.204c-2.316,0-4.201,1.886-4.201,4.204c0,2.315,1.885,4.2,4.201,4.2
			C306.466,344.177,308.35,342.292,308.35,339.977z M301.582,339.977c0-1.417,1.148-2.567,2.566-2.567
			c1.414,0,2.564,1.15,2.564,2.567c0,1.415-1.15,2.566-2.564,2.566C302.73,342.543,301.582,341.392,301.582,339.977z"/>
		<path d="M304.532,315.283l-48.753,48.074l24.012,24.35l48.754-48.076L304.532,315.283z M294.45,363.018
			c-2.88,0.584-6.281-0.056-7.344-0.286c-0.065,0.422-0.175,0.831-0.324,1.221c3.28,2.058,6.994,2.717,6.994,2.717
			c-1.918,4.224-5.314,6.209-5.314,6.209c-2.167-1.866-3.731-4.84-4.247-5.9c-0.396,0.232-0.819,0.426-1.268,0.563
			c0.589,3.799,2.486,7.01,2.486,7.01c-4.455,1.295-8.175,0.012-8.175,0.012c0.003-2.976,1.338-6.223,1.76-7.174
			c-0.45-0.177-0.873-0.404-1.263-0.679c-2.687,2.778-4.104,6.264-4.104,6.264c-3.734-2.754-4.967-6.49-4.967-6.49
			c2.365-1.802,5.758-2.713,6.772-2.956c-0.107-0.358-0.184-0.73-0.222-1.113c-3.78-0.083-7.191,1.156-7.191,1.156
			c-0.454-4.618,1.493-8.035,1.493-8.035c2.837,0.535,5.7,2.351,6.652,2.996c0.232-0.354,0.5-0.68,0.799-0.976
			c-2.261-3.044-5.354-4.976-5.354-4.976c3.359-3.201,7.254-3.771,7.254-3.771c1.308,2.53,1.646,5.852,1.729,7.044
			c0.189-0.02,0.382-0.029,0.576-0.029c0.26,0,0.515,0.021,0.767,0.055c1.231-3.634,1.039-7.348,1.039-7.348
			c4.555,0.919,7.25,3.779,7.25,3.779c-1.291,2.464-3.729,4.601-4.705,5.398c0.326,0.347,0.613,0.73,0.852,1.147
			c3.624-1.329,6.416-3.846,6.416-3.846C294.971,359.12,294.45,363.018,294.45,363.018z M316.73,344.831
			c-1.917,4.224-5.315,6.209-5.315,6.209c-2.168-1.866-3.731-4.84-4.247-5.9c-0.396,0.232-0.819,0.425-1.267,0.563
			c0.589,3.798,2.486,7.01,2.486,7.01c-4.456,1.295-8.175,0.013-8.175,0.013c0.003-2.977,1.339-6.225,1.76-7.175
			c-0.449-0.177-0.873-0.404-1.263-0.679c-2.687,2.778-4.104,6.265-4.104,6.265c-3.734-2.754-4.966-6.49-4.966-6.49
			c2.364-1.802,5.758-2.713,6.771-2.956c-0.107-0.358-0.184-0.73-0.222-1.113c-3.781-0.083-7.193,1.156-7.193,1.156
			c-0.454-4.618,1.495-8.035,1.495-8.035c2.838,0.534,5.701,2.351,6.652,2.996c0.231-0.354,0.499-0.681,0.798-0.977
			c-2.261-3.043-5.353-4.976-5.353-4.976c3.36-3.2,7.254-3.77,7.254-3.77c1.307,2.529,1.646,5.85,1.729,7.042
			c0.189-0.019,0.382-0.028,0.576-0.028c0.261,0,0.515,0.021,0.767,0.055c1.23-3.634,1.039-7.347,1.039-7.347
			c4.554,0.918,7.249,3.779,7.249,3.779c-1.291,2.464-3.728,4.601-4.703,5.398c0.326,0.347,0.611,0.729,0.85,1.146
			c3.624-1.327,6.417-3.844,6.417-3.844c2.158,4.109,1.639,8.006,1.639,8.006c-2.88,0.585-6.281-0.055-7.345-0.285
			c-0.065,0.422-0.175,0.831-0.324,1.221C313.018,344.171,316.73,344.831,316.73,344.831z"/>
	</g>
	<g>
		
			<rect x="316.449" y="352.899" transform="matrix(0.7153 -0.6988 0.6988 0.7153 -157.8959 322.9672)" width="1.903" height="4.712"/>
	</g>
	<g>
		<polygon points="321.908,354.137 320.552,355.469 317.25,352.102 318.612,350.77 		"/>
	</g>
	<g>
		<polygon points="324.184,351.912 322.824,353.241 319.527,349.875 320.88,348.544 		"/>
	</g>
	<g>
		
			<rect x="323.243" y="346.246" transform="matrix(0.7143 -0.6999 0.6999 0.7143 -151.3461 326.4958)" width="1.898" height="4.715"/>
	</g>
	<g>
		<rect x="325.42" y="344.112" transform="matrix(0.715 -0.6991 0.6991 0.715 -149.2077 326.9138)" width="1.905" height="4.712"/>
	</g>
	<g>
		<rect x="327.695" y="341.884" transform="matrix(0.714 -0.7001 0.7001 0.714 -147.0268 328.54)" width="1.898" height="4.715"/>
	</g>
</g>
</svg>
