<?xml version="1.0" encoding="utf-8"?>
<!-- Generator: Adobe Illustrator 16.0.3, SVG Export Plug-In . SVG Version: 6.00 Build 0)  -->
<!DOCTYPE svg PUBLIC "-//W3C//DTD SVG 1.1//EN" "http://www.w3.org/Graphics/SVG/1.1/DTD/svg11.dtd">
<svg version="1.1" id="Layer_1" xmlns="http://www.w3.org/2000/svg" xmlns:xlink="http://www.w3.org/1999/xlink" x="0px" y="0px"
	 width="612px" height="792px" viewBox="0 0 612 792" enable-background="new 0 0 612 792" xml:space="preserve">
<g>
	<g>
		<path fill="#010101" d="M339.63,426.594l-68.521-0.008c-0.194-0.029-4.746-0.738-4.746-4.241l0.012-16.775l6.511-35.688
			c0.049-0.205,1.019-4.051,4.512-4.471l56.035-0.005c0.238,0.021,4.047,0.461,5.643,4.58l0.038,0.136l6.522,35.582l-0.014,15.337
			c-0.326,1.685-1.988,5.011-5.943,5.546L339.63,426.594z M271.28,425.088h68.247c3.57-0.511,4.486-3.783,4.604-4.272v-15.043
			l-6.484-35.307c-1.268-3.18-4.17-3.545-4.294-3.559l-55.864,0.005c-2.377,0.29-3.123,3.253-3.13,3.282l-6.489,35.578v16.572
			C267.869,424.417,270.861,425.015,271.28,425.088z"/>
	</g>
	<g>
		<rect x="274.609" y="412.285" fill="#010101" width="6.872" height="6.448"/>
	</g>
	<g>
		<rect x="282.619" y="412.285" fill="#010101" width="2.17" height="6.448"/>
	</g>
	<g>
		<rect x="285.871" y="412.285" fill="#010101" width="2.174" height="6.448"/>
	</g>
	<g>
		<rect x="288.889" y="412.285" fill="#010101" width="2.17" height="6.448"/>
	</g>
	<g>
		<rect x="291.817" y="412.285" fill="#010101" width="4.823" height="6.448"/>
	</g>
	<g>
		<path fill="#010101" d="M335.727,422.758h-60.064c-3.25,0-5.797-1.706-5.797-3.884v-8.93c0-2.178,2.546-3.884,5.797-3.884h60.064
			c3.25,0,5.797,1.706,5.797,3.884v8.93C341.523,421.052,338.977,422.758,335.727,422.758z M275.662,407.566
			c-2.326,0-4.291,1.089-4.291,2.378v8.93c0,1.289,1.965,2.378,4.291,2.378h60.064c2.326,0,4.291-1.089,4.291-2.378v-8.93
			c0-1.289-1.965-2.378-4.291-2.378H275.662z"/>
	</g>
	<g>
		<path fill="#010101" d="M336.753,419.239c0,0.449-0.364,0.814-0.814,0.814h-4.037c-0.45,0-0.814-0.365-0.814-0.814l0,0
			c0-0.451,0.364-0.814,0.814-0.814h4.037C336.389,418.425,336.753,418.788,336.753,419.239L336.753,419.239z"/>
	</g>
</g>
</svg>
