<?xml version="1.0" encoding="utf-8"?>
<!-- Generator: Adobe Illustrator 16.0.3, SVG Export Plug-In . SVG Version: 6.00 Build 0)  -->
<!DOCTYPE svg PUBLIC "-//W3C//DTD SVG 1.1//EN" "http://www.w3.org/Graphics/SVG/1.1/DTD/svg11.dtd">
<svg version="1.1" id="Layer_1" xmlns="http://www.w3.org/2000/svg" xmlns:xlink="http://www.w3.org/1999/xlink" x="0px" y="0px"
	 width="612px" height="792px" viewBox="0 0 612 792" enable-background="new 0 0 612 792" xml:space="preserve">
<path fill-rule="evenodd" clip-rule="evenodd" fill="none" d="M333.52,360.59c0.09-4.429,1.409-8.471,3.221-12.365
	c2.129-4.572,4.396-9.079,6.491-13.666c2.289-5.011,3.35-10.219,2.345-15.763c-2.373-13.088-15.063-22.887-29.623-19.911
	c-14.557,2.975-23.041,17.881-18.697,31.469c1.464,4.582,3.672,8.822,5.772,13.118c2.655,5.432,5.362,10.851,5.551,17.118
	C316.899,360.59,325.152,360.59,333.52,360.59z M321,370.884c3.074,0,6.148,0.001,9.223,0c2.004-0.002,3.27-1.223,3.264-3.139
	c-0.006-1.851-1.287-3.076-3.229-3.076c-6.148-0.003-12.298-0.003-18.447,0c-1.938,0-3.209,1.229-3.213,3.089
	c-0.004,1.875,1.259,3.123,3.18,3.125C314.852,370.888,317.926,370.884,321,370.884z"/>
<path fill-rule="evenodd" clip-rule="evenodd" d="M333.52,360.59c-8.367,0-16.62,0-24.939,0c-0.189-6.267-2.896-11.686-5.551-17.118
	c-2.101-4.296-4.308-8.536-5.772-13.118c-4.344-13.588,4.14-28.494,18.697-31.469c14.561-2.976,27.25,6.823,29.623,19.911
	c1.005,5.544-0.056,10.752-2.345,15.763c-2.095,4.586-4.362,9.094-6.491,13.666C334.929,352.12,333.609,356.162,333.52,360.59z
	 M314.131,354.416c4.479,0,8.881,0.009,13.283-0.027c0.219-0.002,0.568-0.364,0.633-0.616c0.938-3.648,2.371-7.105,3.986-10.496
	c2-4.202,4.061-8.377,5.957-12.625c1.418-3.176,2.062-6.54,1.498-10.034c-1.649-10.242-10.743-17.076-20.984-15.797
	c-11.076,1.383-18.484,12.716-15.288,23.414c1.303,4.36,3.46,8.35,5.462,12.406C310.855,345.048,312.967,349.479,314.131,354.416z"
	/>
<path fill-rule="evenodd" clip-rule="evenodd" d="M321,370.884c-3.074,0-6.148,0.003-9.223-0.001
	c-1.921-0.003-3.184-1.25-3.18-3.125c0.004-1.859,1.275-3.088,3.213-3.089c6.149-0.003,12.299-0.003,18.447,0
	c1.941,0,3.223,1.225,3.229,3.076c0.006,1.917-1.26,3.137-3.264,3.139C327.148,370.886,324.074,370.884,321,370.884z"/>
<path fill-rule="evenodd" clip-rule="evenodd" fill="#FFFFFF" d="M330.223,380.688c2.004-0.001,3.27-1.222,3.264-3.139
	c-0.006-1.851-1.287-3.075-3.229-3.076c-6.148-0.002-12.298-0.002-18.447,0c-1.938,0.001-3.209,1.229-3.213,3.089
	c-0.004,1.875,1.259,3.123,3.18,3.125"/>
<path fill-rule="evenodd" clip-rule="evenodd" d="M311.777,380.688c-1.921-0.003-3.184-1.25-3.18-3.125
	c0.004-1.86,1.275-3.088,3.213-3.089c6.149-0.002,12.299-0.002,18.447,0c1.941,0.001,3.223,1.225,3.229,3.076
	c0.006,1.917-1.26,3.138-3.264,3.139"/>
<path fill-rule="evenodd" clip-rule="evenodd" fill="none" d="M314.131,354.416c-1.164-4.937-3.275-9.368-5.453-13.775
	c-2.002-4.056-4.159-8.046-5.462-12.406c-3.196-10.698,4.212-22.03,15.288-23.414c10.241-1.279,19.335,5.555,20.984,15.797
	c0.563,3.494-0.08,6.858-1.498,10.034c-1.896,4.249-3.957,8.424-5.957,12.625c-1.615,3.391-3.048,6.847-3.986,10.496
	c-0.064,0.252-0.414,0.614-0.633,0.616C323.012,354.425,318.609,354.416,314.131,354.416z"/>
</svg>
