<?xml version="1.0" encoding="utf-8"?>
<!-- Generator: Adobe Illustrator 16.0.3, SVG Export Plug-In . SVG Version: 6.00 Build 0)  -->
<!DOCTYPE svg PUBLIC "-//W3C//DTD SVG 1.1//EN" "http://www.w3.org/Graphics/SVG/1.1/DTD/svg11.dtd">
<svg version="1.1" id="Layer_1" xmlns="http://www.w3.org/2000/svg" xmlns:xlink="http://www.w3.org/1999/xlink" x="0px" y="0px"
	 width="612px" height="792px" viewBox="0 0 612 792" enable-background="new 0 0 612 792" xml:space="preserve">
<g>
	<g>
		<rect x="285.951" y="366.349" width="15.607" height="4.304"/>
	</g>
	<g>
		<rect x="283.489" y="369.933" width="4.303" height="15.605"/>
	</g>
	<g>
		<rect x="336.604" y="437.948" width="15.606" height="4.302"/>
	</g>
	<g>
		<rect x="351.372" y="423.534" width="4.301" height="15.608"/>
	</g>
	<g>
		<path d="M293.318,396.429l21.583,0.088l0.086-21.583l-21.581-0.087L293.318,396.429z M294.602,376.384
			c0-0.142,0.113-0.255,0.254-0.255h18.596c0.142,0,0.256,0.113,0.256,0.255v18.594c0,0.143-0.114,0.255-0.256,0.255h-18.596
			c-0.141,0-0.254-0.112-0.254-0.255V376.384z"/>
		<rect x="339.616" y="408.564" width="4.148" height="25.196"/>
		<path d="M301.553,393.661c2.686,0.896,5.505,0.349,7.619-1.219c-3.693,1.117-7.733-0.312-9.654-3.676
			c-0.09-0.141-0.176-0.284-0.253-0.433c-0.682-1.296-0.854-2.857-0.354-4.356c0.899-2.689,3.649-4.239,6.359-3.7
			c-2.28-0.83-4.476-1.062-6.899-0.115c-0.572,0.226-0.698,0.31-1.233,1.164c-0.4,0.639-0.604,1.003-0.86,1.771
			c-0.761,2.279-0.482,4.655,0.576,6.613C297.828,391.512,299.458,392.96,301.553,393.661z"/>
		<path d="M348.758,402.646c0.047-0.095,0.101-0.283,0.101-0.539v-7.036c0-0.257-0.054-0.444-0.101-0.54h-29.165
			c-0.046,0.096-0.101,0.283-0.101,0.54v7.036c0,0.256,0.055,0.444,0.101,0.539H348.758z"/>
		<path d="M309.33,403.745c-2.518,0-4.567,2.05-4.567,4.569c0,2.518,2.05,4.567,4.567,4.567c2.52,0,4.569-2.05,4.569-4.567
			C313.899,405.795,311.85,403.745,309.33,403.745z M309.331,412.292c-2.197,0-3.978-1.782-3.978-3.978
			c0-2.197,1.78-3.978,3.978-3.978c2.195,0,3.978,1.78,3.978,3.978C313.309,410.51,311.526,412.292,309.331,412.292z"/>
		<circle cx="304.302" cy="385.746" r="1.465"/>
		<path d="M286.44,369.778v69.116h67.102v-69.116H286.44z M318.857,374.801h30.636v2.905h-30.636V374.801z M318.857,380.97h30.636
			v2.906h-30.636V380.97z M318.857,387.268h30.636v2.906h-30.636V387.268z M289.166,385.181c-0.74,0-1.336-0.599-1.336-1.338
			c0-0.736,0.596-1.335,1.336-1.335c0.739,0,1.336,0.599,1.336,1.335C290.502,384.582,289.905,385.181,289.166,385.181z
			 M289.166,379.947c-0.74,0-1.336-0.599-1.336-1.338c0-0.736,0.596-1.336,1.336-1.336c0.739,0,1.336,0.6,1.336,1.336
			C290.502,379.349,289.905,379.947,289.166,379.947z M289.166,374.838c-0.74,0-1.336-0.601-1.336-1.339
			c0-0.735,0.596-1.337,1.336-1.337c0.739,0,1.336,0.602,1.336,1.337C290.502,374.237,289.905,374.838,289.166,374.838z
			 M295.899,435.339h-3.063v-33.661h3.063V435.339z M301.281,435.339h-3.064v-33.661h3.064V435.339z M311.808,432.373
			c0,2.174,0,2.69-0.722,2.69h-4.44c-0.723,0-0.723-0.517-0.723-2.69v-12.317c0-2.172,0-2.688,0.723-2.688h4.44
			c0.722,0,0.722,0.517,0.722,2.688V432.373z M309.33,414.149c-3.218,0-5.836-2.617-5.836-5.835c0-3.22,2.618-5.837,5.836-5.837
			c3.219,0,5.838,2.617,5.838,5.837C315.168,411.532,312.549,414.149,309.33,414.149z M315.946,396.818
			c-0.002,0.412-0.34,0.747-0.752,0.745l-0.486-0.002v0.651h-1.343v-0.657l-18.239-0.074v0.731h-1.343v-0.735l-0.766-0.004
			c-0.413-0.001-0.749-0.339-0.747-0.752l0.09-22.177c0.003-0.412,0.339-0.749,0.754-0.745l0.669,0.002v-0.823h1.343v0.83
			l18.239,0.073v-0.903h1.343v0.907l0.582,0.002c0.413,0.003,0.748,0.341,0.746,0.753L315.946,396.818z M318.224,395.07
			c0-1.049,0.514-1.809,1.221-1.809h29.463c0.707,0,1.22,0.76,1.22,1.809v7.036c0,1.047-0.513,1.809-1.22,1.809h-29.463
			c-0.707,0-1.221-0.762-1.221-1.809V395.07z M336.695,411.006v0.785v22.457l-2.542-2.085v-20.372h-2.915v22.457l-2.542-2.085
			v-20.372H326v22.457l-2.542-2.085v-20.372h-2.608v22.457l-2.544-2.085v-20.372v-0.785v-3.537h18.39V411.006z M345.033,435.029
			h-6.687v-27.732h6.687V435.029z M349.216,436.422c-0.739,0-1.336-0.598-1.336-1.336c0-0.739,0.597-1.336,1.336-1.336
			c0.738,0,1.337,0.597,1.337,1.336C350.553,435.824,349.954,436.422,349.216,436.422z M349.216,431.189
			c-0.739,0-1.336-0.6-1.336-1.336c0-0.739,0.597-1.337,1.336-1.337c0.738,0,1.337,0.598,1.337,1.337
			C350.553,430.59,349.954,431.189,349.216,431.189z M349.216,426.079c-0.739,0-1.336-0.599-1.336-1.337
			c0-0.737,0.597-1.339,1.336-1.339c0.738,0,1.337,0.602,1.337,1.339C350.553,425.48,349.954,426.079,349.216,426.079z"/>
		<path d="M307.218,418.635c-0.015,0.331-0.025,0.815-0.025,1.421v12.317c0,0.607,0.011,1.093,0.025,1.422h3.296
			c0.015-0.329,0.025-0.814,0.025-1.422v-12.317c0-0.605-0.011-1.09-0.025-1.421H307.218z"/>
		<path d="M308.732,382.515c0,0,0.303,0.464,0.452,0.744c0.638,1.275,0.789,2.797,0.301,4.258c-0.957,2.869-4.023,4.439-6.901,3.564
			c2.359,1.037,5.437,1.521,7.895,0.117c0.104-0.062,0.259-0.225,0.509-0.584c0.541-0.776,0.841-1.344,1.135-2.219
			c0.745-2.237,0.488-4.564-0.521-6.503c-0.003-0.003-0.005-0.005-0.005-0.008c-0.001-0.002-0.002-0.004-0.003-0.006
			c-0.966-1.838-2.616-3.322-4.742-4.033c-2.793-0.932-5.729-0.304-7.868,1.41C302.633,378.012,306.687,379.301,308.732,382.515z"/>
	</g>
</g>
</svg>
