<?xml version="1.0" encoding="utf-8"?>
<!-- Generator: Adobe Illustrator 16.0.3, SVG Export Plug-In . SVG Version: 6.00 Build 0)  -->
<!DOCTYPE svg PUBLIC "-//W3C//DTD SVG 1.1//EN" "http://www.w3.org/Graphics/SVG/1.1/DTD/svg11.dtd">
<svg version="1.1" id="Layer_1" xmlns="http://www.w3.org/2000/svg" xmlns:xlink="http://www.w3.org/1999/xlink" x="0px" y="0px"
	 width="612px" height="792px" viewBox="0 0 612 792" enable-background="new 0 0 612 792" xml:space="preserve">
<g>
	<path d="M303.445,321.581c-0.453,0.454-1.188,0.454-1.643,0l-1.547-1.547c-0.453-0.453-0.453-1.189,0-1.643l7.141-7.14
		c0.453-0.454,1.188-0.454,1.643,0l1.547,1.547c0.453,0.454,0.453,1.189,0,1.643L303.445,321.581z"/>
	<path d="M295.196,360.122c3.582-4.887,15.74-15.244,17.224-17.051c1.377-1.678,10.994-18.373,10.994-18.373l-4.11-14.299
		l-16.217,16.216l-3.922-3.921l-0.011-0.011l-3.921-3.921l16.216-16.216l-14.298-4.11c0,0-16.696,9.616-18.374,10.993
		c-1.807,1.483-12.164,13.642-17.051,17.224c-4.576,3.354-11.949,5.974-15.549,16.531c-5.403,15.851,6.135,25.899,6.379,26.109
		c0.21,0.244,10.258,11.781,26.108,6.378C289.223,372.071,291.843,364.698,295.196,360.122z M293.07,325.598
		c0.454-0.454,1.189-0.454,1.644,0l1.547,1.547c0.453,0.453,0.453,1.189,0,1.643l-4.144,4.143l-3.189-3.189L293.07,325.598z
		 M287.093,331.577l3.189,3.189l-4.144,4.144c-0.453,0.454-1.189,0.454-1.643,0l-1.547-1.547c-0.454-0.454-0.454-1.189,0-1.643
		L287.093,331.577z M257.277,359.399c-1.36-2.726-1.537-5.73-0.729-8.435c0.878-2.943,2.922-5.532,5.887-7.012
		c1.002-0.5,1.553-0.658,2.565-0.889c1.36-0.311,1.562-0.271,2.34,0.07c3.287,1.438,5.204,3.806,6.618,6.837
		c-2.12-3.167-6.313-4.339-9.813-2.591c-1.95,0.973-3.303,2.664-3.903,4.593c-0.067,0.22-0.126,0.443-0.176,0.668
		c-1.405,5.155,1.14,10.488,5.831,13.002C262.306,365.109,259.023,362.892,257.277,359.399z M269.611,354.955
		c-0.329,1.067-1.459,1.665-2.527,1.336c-1.066-0.329-1.665-1.46-1.336-2.527c0.329-1.067,1.461-1.664,2.526-1.336
		C269.342,352.757,269.94,353.889,269.611,354.955z M272.719,364.569c-1.136,0.567-1.98,0.83-3.27,1.059
		c-0.593,0.107-0.901,0.116-1.064,0.072c-3.767-1.027-6.297-4.499-7.586-7.812c1.953,3.66,6.476,5.12,10.209,3.255
		c1.9-0.949,3.236-2.579,3.857-4.447c0.128-0.419,0.286-1.167,0.286-1.167c1.139-5.129-1.559-10.339-6.331-12.685
		c3.757,0.414,7.235,2.666,9.049,6.298c1.382,2.767,1.543,5.822,0.693,8.559c-0.001,0.003-0.003,0.006-0.004,0.009
		c-0.001,0.003-0.001,0.007-0.002,0.009l-0.002,0.001C277.651,360.596,275.629,363.116,272.719,364.569z"/>
</g>
</svg>
