<?xml version="1.0" encoding="utf-8"?>
<!-- Generator: Adobe Illustrator 16.0.3, SVG Export Plug-In . SVG Version: 6.00 Build 0)  -->
<!DOCTYPE svg PUBLIC "-//W3C//DTD SVG 1.1//EN" "http://www.w3.org/Graphics/SVG/1.1/DTD/svg11.dtd">
<svg version="1.1" id="Layer_1" xmlns="http://www.w3.org/2000/svg" xmlns:xlink="http://www.w3.org/1999/xlink" x="0px" y="0px"
	 width="612px" height="792px" viewBox="0 0 612 792" enable-background="new 0 0 612 792" xml:space="preserve">
<g>
	<path fill-rule="evenodd" clip-rule="evenodd" d="M299.108,405.216c-4.007,0-7.942,0-11.979,0c0-5.976,0-11.852,0-17.862
		c3.975,0,7.899,0,11.979,0C299.108,393.245,299.108,399.175,299.108,405.216z"/>
	<g>
		<path fill-rule="evenodd" clip-rule="evenodd" d="M306.32,369.196c-0.064,0.457-0.115,0.879-0.184,1.297
			c-0.537,3.213-2.073,5.871-4.551,7.963c-1.907,1.61-4.118,2.591-6.602,2.936c-0.33,0.047-0.66,0.094-0.99,0.14
			c-0.585,0-1.169,0-1.752,0c-0.085-0.019-0.172-0.05-0.258-0.057c-1.834-0.143-3.574-0.643-5.169-1.546
			c-3.684-2.089-5.953-5.21-6.707-9.4c-0.076-0.428-0.127-0.86-0.192-1.319c-2.166,0-4.325,0-6.485,0
			c0.849,3.634,2.045,7.158,3.915,10.496c6.841,12.221,24.534,12.208,31.351-0.055c1.851-3.328,3.05-6.814,3.888-10.454
			C310.501,369.196,308.415,369.196,306.32,369.196z"/>
		<path fill-rule="evenodd" clip-rule="evenodd" d="M292.634,379.736c5.916,0.327,11.695-4.297,11.916-11.102
			c0.188-5.811-4.332-11.559-11.248-11.728c-5.733-0.141-11.382,4.322-11.613,11.124
			C281.488,373.911,286.08,379.469,292.634,379.736z M286.187,365.926c0.475-0.973,1.042-1.877,1.94-2.536
			c0.934-0.687,2.174-0.666,3.086,0.051c0.922,0.722,1.51,1.684,1.963,2.728c0.51,1.179,0.918,2.404,1.446,3.575
			c0.282,0.625,0.677,1.216,1.108,1.751c0.547,0.679,1.069,0.653,1.663,0.016c0.695-0.744,1.077-1.666,1.447-2.594
			c0.111-0.279,0.206-0.563,0.32-0.881c0.554,0.198,1.086,0.387,1.682,0.597c-0.271,0.675-0.504,1.335-0.797,1.971
			c-0.474,1.022-1.046,1.979-1.983,2.666c-0.907,0.665-2.137,0.655-3.035-0.025c-0.934-0.706-1.539-1.659-1.992-2.703
			c-0.523-1.199-0.939-2.445-1.477-3.635c-0.281-0.625-0.676-1.215-1.104-1.755c-0.526-0.666-1.079-0.675-1.622-0.023
			c-0.425,0.511-0.777,1.092-1.098,1.679c-0.287,0.526-0.484,1.101-0.735,1.69c-0.551-0.209-1.071-0.408-1.65-0.628
			C285.631,367.209,285.88,366.553,286.187,365.926z"/>
		<path fill-rule="evenodd" clip-rule="evenodd" d="M306.355,347.963c0-5.738,0-11.289,0-16.81c-2.957,0-5.694,0-8.656,0
			c0,5.665,0,11.218,0,16.743c-3.223,0-6.218,0-9.438,0c0-5.646,0-11.197,0-16.748c-2.965,0-5.701,0-8.662,0
			c0,5.66,0,11.212,0,16.955c-3.708,0-7.19,0-10.639,0c0,2.808,0,10.187,0,12.854h3.116c0.138,1.19,0.221,2.25,0.389,3.295
			c0.171,1.077,0.368,2.144,0.583,3.204c2.288,0,4.574,0,6.874,0c0.047-0.346,0.09-0.667,0.133-0.986
			c0.335-2.474,1.313-4.675,2.912-6.572c2.105-2.499,4.775-4.053,8.02-4.578c0.418-0.066,0.838-0.124,1.256-0.185
			c0.583,0,1.167,0,1.752,0c0.418,0.061,0.839,0.118,1.256,0.185c3.244,0.525,5.916,2.079,8.02,4.579
			c1.599,1.9,2.578,4.101,2.911,6.573c0.042,0.32,0.086,0.641,0.135,0.986c2.215,0,4.421,0,6.64,0
			c0.419-2.118,0.735-4.285,0.998-6.501h3.195c0-2.822,0-10.198,0-12.995C313.544,347.963,310.057,347.963,306.355,347.963z"/>
	</g>
</g>
</svg>
