<?xml version="1.0" encoding="utf-8"?>
<!-- Generator: Adobe Illustrator 16.0.3, SVG Export Plug-In . SVG Version: 6.00 Build 0)  -->
<!DOCTYPE svg PUBLIC "-//W3C//DTD SVG 1.1//EN" "http://www.w3.org/Graphics/SVG/1.1/DTD/svg11.dtd">
<svg version="1.1" id="Layer_1" xmlns="http://www.w3.org/2000/svg" xmlns:xlink="http://www.w3.org/1999/xlink" x="0px" y="0px"
	 width="612px" height="792px" viewBox="0 0 612 792" enable-background="new 0 0 612 792" xml:space="preserve">
<g>
	<g>
		<ellipse fill="#010101" cx="306.534" cy="412.23" rx="29.789" ry="5.984"/>
	</g>
	<g>
		<path fill="#010101" d="M304.473,478.251c-0.001,0-0.002,0-0.003,0c-17.104-0.001-26.816-5.288-27.221-5.513l-0.771-0.429v-60.288
			l60.087,0.275v60.207l-1.021,0.345C324.908,476.433,314.455,478.251,304.473,478.251z M279.477,470.495
			c2.558,1.188,11.371,4.755,24.993,4.756c0,0,0.002,0,0.003,0c9.337,0,19.119-1.65,29.091-4.907v-55.061l-54.087-0.248V470.495z"/>
	</g>
	<g>
		<path fill="#010101" d="M304.799,434.245c-24.039,0-27.983-6.137-28.362-6.858l1.328-0.698l1.294-0.757
			c0.037,0.058,3.947,5.687,28.182,5.294c5.943,0.173,22.172-0.495,26.709-5.54l2.23,2.006c-6.393,7.107-28.043,6.559-28.959,6.533
			C306.392,434.238,305.584,434.245,304.799,434.245z"/>
	</g>
	<g>
		<path fill="#010101" d="M304.799,449.384c-24.039,0-27.983-6.137-28.362-6.858l1.328-0.698l1.294-0.757
			c0.037,0.058,3.947,5.688,28.182,5.294c5.943,0.172,22.172-0.495,26.709-5.54l2.23,2.006c-6.393,7.107-28.043,6.559-28.959,6.533
			C306.392,449.377,305.584,449.384,304.799,449.384z"/>
	</g>
	<g>
		<path fill="#010101" d="M304.799,464.665c-24.039,0-27.983-6.137-28.362-6.858l1.328-0.698l1.294-0.757
			c0.037,0.058,3.947,5.69,28.182,5.294c5.943,0.171,22.172-0.495,26.709-5.54l2.23,2.006c-6.393,7.107-28.043,6.56-28.959,6.533
			C306.392,464.658,305.584,464.665,304.799,464.665z"/>
	</g>
</g>
</svg>
