<?xml version="1.0" encoding="utf-8"?>
<!-- Generator: Adobe Illustrator 16.0.3, SVG Export Plug-In . SVG Version: 6.00 Build 0)  -->
<!DOCTYPE svg PUBLIC "-//W3C//DTD SVG 1.1//EN" "http://www.w3.org/Graphics/SVG/1.1/DTD/svg11.dtd">
<svg version="1.1" id="Layer_1" xmlns="http://www.w3.org/2000/svg" xmlns:xlink="http://www.w3.org/1999/xlink" x="0px" y="0px"
	 width="612px" height="792px" viewBox="0 0 612 792" enable-background="new 0 0 612 792" xml:space="preserve">
<g>
	<g>
		<g>
			<g>
				<path fill="#010101" d="M270.669,389.201c-2.512-4.781-3.153-10.535-1.306-16.059c3.311-9.918,13.454-15.628,23.448-13.649
					c-8.405-3.059-16.503-3.911-25.436-0.416c-2.114,0.829-2.57,1.135-4.556,4.291c-1.476,2.351-2.218,3.691-3.17,6.531
					c-2.805,8.403-1.775,17.16,2.126,24.382l0,0c3.588,6.641,9.602,11.984,17.326,14.564c9.904,3.305,20.299,1.291,28.096-4.492
					c-13.62,4.117-28.512-1.154-35.6-13.554C271.266,390.278,270.954,389.745,270.669,389.201"/>
			</g>
			<g>
				<path fill="#010101" d="M316.126,365.4L316.126,365.4c-3.565-6.779-9.646-12.249-17.487-14.868
					c-10.296-3.438-21.125-1.119-29.012,5.199c13.457-4.586,28.404,0.163,35.947,12.013c0,0,1.115,1.712,1.666,2.747
					c2.356,4.705,2.912,10.311,1.114,15.697c-3.534,10.58-14.842,16.371-25.45,13.146c8.698,3.824,20.044,5.604,29.104,0.428
					c0.392-0.227,0.959-0.826,1.879-2.148c2.001-2.87,3.101-4.963,4.178-8.183c2.753-8.247,1.813-16.835-1.917-23.979l0.002-0.003
					c-0.003-0.007-0.009-0.013-0.013-0.022C316.133,365.417,316.13,365.408,316.126,365.4z"/>
			</g>
			<g>
				<path fill="#010101" d="M284.463,382.182c1.396,2.639,4.665,3.646,7.303,2.253c2.641-1.398,3.647-4.666,2.252-7.305
					c-1.396-2.638-4.664-3.644-7.303-2.25C284.079,376.276,283.068,379.543,284.463,382.182z"/>
			</g>
		</g>
	</g>
	<polygon fill="#010101" points="309.511,358.026 319.954,354.99 324.597,362.408 317.472,370.742 306.82,368.562 	"/>
	<polygon fill="#010101" points="319.688,379.67 329.206,384.927 327.228,393.451 316.295,394.283 310.323,385.196 	"/>
	<polygon fill="#010101" points="310.223,400.982 313.354,411.396 305.98,416.108 297.579,409.061 299.664,398.389 	"/>
	<polygon fill="#010101" points="287.626,348.847 292.846,339.307 301.377,341.25 302.252,352.18 293.832,354.699 	"/>
	<polygon fill="#010101" points="265.352,360.01 261.691,349.771 268.814,344.688 277.563,351.296 273.85,359.261 	"/>
	<polygon fill="#010101" points="264.715,399.203 253.862,399.9 250.939,391.652 259.703,385.062 269.627,389.502 	"/>
	<polygon fill="#010101" points="257.765,378.848 248.633,372.943 251.198,364.577 262.162,364.505 267.49,373.985 	"/>
	<polygon fill="#010101" points="285,409.827 278.182,418.298 270.126,414.88 271.191,403.967 279.925,402.973 	"/>
</g>
</svg>
