<?xml version="1.0" encoding="utf-8"?>
<!-- Generator: Adobe Illustrator 16.0.3, SVG Export Plug-In . SVG Version: 6.00 Build 0)  -->
<!DOCTYPE svg PUBLIC "-//W3C//DTD SVG 1.1//EN" "http://www.w3.org/Graphics/SVG/1.1/DTD/svg11.dtd">
<svg version="1.1" id="Layer_1" xmlns="http://www.w3.org/2000/svg" xmlns:xlink="http://www.w3.org/1999/xlink" x="0px" y="0px"
	 width="612px" height="792px" viewBox="0 0 612 792" enable-background="new 0 0 612 792" xml:space="preserve">
<g>
	<rect x="302.511" y="294.188" fill="#010101" width="7.979" height="27.93"/>
	<rect x="292.535" y="304.163" fill="#010101" width="27.931" height="7.98"/>
	<path fill="#010101" d="M336.036,305.706l-0.252-3.46l7.483-10.557l-4.664-7.836l-13.184,1.754l-2.322-2.004l-1.72-12.748
		l-10.341-2.198l-6.22,10.028l-4.595,0.253l-9.323-7.319l-8.668,5.163l2.153,12.716l-2.071,2.588l-12.646,1.89l-2.895,9.172
		l11.119,8.055L277.749,314l-7.35,10.023l5.063,8.501l13.113-1.486l2.421,2.169l1.425,12.25l9.209,2.192l8.287-10.354l4.921,0.682
		l7.896,6.813l9.002-5.358l-1.99-12.818l2.005-2.322l11.981-1.491l2.498-9.84L336.036,305.706z M306.5,329.505
		c-11.793,0-21.352-9.561-21.352-21.352c0-11.792,9.559-21.352,21.352-21.352c11.793,0,21.352,9.56,21.352,21.352
		C327.853,319.944,318.294,329.505,306.5,329.505z"/>
</g>
</svg>
