<?xml version="1.0" encoding="utf-8"?>
<!-- Generator: Adobe Illustrator 16.0.3, SVG Export Plug-In . SVG Version: 6.00 Build 0)  -->
<!DOCTYPE svg PUBLIC "-//W3C//DTD SVG 1.1//EN" "http://www.w3.org/Graphics/SVG/1.1/DTD/svg11.dtd">
<svg version="1.1" id="Layer_1" xmlns="http://www.w3.org/2000/svg" xmlns:xlink="http://www.w3.org/1999/xlink" x="0px" y="0px"
	 width="612px" height="792px" viewBox="0 0 612 792" enable-background="new 0 0 612 792" xml:space="preserve">
<g>
	<g>
		<g>
			<path fill="#010101" d="M356.126,405.342h-79.198c-1.663,0-3.015-1.41-3.015-3.146v-52.098c0-1.735,1.352-3.146,3.015-3.146
				h79.198c1.663,0,3.018,1.411,3.018,3.146v52.098C359.144,403.932,357.789,405.342,356.126,405.342z M277.392,401.863h78.272
				v-51.433h-78.272V401.863z"/>
		</g>
		<g>
			<rect x="312.107" y="405.342" fill="#010101" width="8.842" height="5.799"/>
		</g>
		<g>
			<line fill="#FFFFFF" x1="301.355" y1="412.881" x2="331.701" y2="412.881"/>
			<path d="M331.701,414.619h-30.346c-0.961,0-1.739-0.779-1.739-1.738c0-0.961,0.778-1.74,1.739-1.74h30.346
				c0.96,0,1.739,0.779,1.739,1.74C333.44,413.84,332.661,414.619,331.701,414.619z"/>
		</g>
	</g>
	<g id="XMLID_3_">
		<path fill="#010101" d="M322.729,396.287c-0.024,0-0.051,0-0.076-0.001c-0.82-0.036-1.502-0.64-1.638-1.448l-4.911-29.122
			l-4.735,16.952c-0.206,0.737-0.87,1.253-1.636,1.27c-0.752,0.021-1.452-0.466-1.691-1.193l-3.811-11.535l-2.893,7.566
			c-0.258,0.674-0.904,1.118-1.626,1.118h-10.307c-0.962,0-1.739-0.778-1.739-1.739s0.777-1.739,1.739-1.739h9.11l4.211-11.011
			c0.263-0.688,0.89-1.154,1.665-1.118c0.736,0.017,1.381,0.495,1.612,1.193l3.55,10.751l5.294-18.953
			c0.22-0.784,0.938-1.314,1.769-1.269c0.813,0.043,1.487,0.645,1.622,1.448l4.858,28.813l5.083-19.428
			c0.198-0.752,0.871-1.282,1.647-1.298c0.768-0.028,1.472,0.485,1.701,1.229l2.956,9.643h9.163c0.96,0,1.74,0.778,1.74,1.739
			s-0.78,1.739-1.74,1.739h-10.45c-0.764,0-1.438-0.499-1.663-1.229l-1.537-5.017l-5.585,21.341
			C324.211,395.757,323.518,396.287,322.729,396.287z"/>
	</g>
</g>
</svg>
