<?xml version="1.0" encoding="utf-8"?>
<!-- Generator: Adobe Illustrator 16.0.3, SVG Export Plug-In . SVG Version: 6.00 Build 0)  -->
<!DOCTYPE svg PUBLIC "-//W3C//DTD SVG 1.1//EN" "http://www.w3.org/Graphics/SVG/1.1/DTD/svg11.dtd">
<svg version="1.1" id="Layer_1" xmlns="http://www.w3.org/2000/svg" xmlns:xlink="http://www.w3.org/1999/xlink" x="0px" y="0px"
	 width="612px" height="792px" viewBox="0 0 612 792" enable-background="new 0 0 612 792" xml:space="preserve">
<g>
	<path fill="#010101" d="M304.43,344.233c4.571,0,8.277,2.795,8.277,6.241v34.764c4.351,2.75,7.238,7.596,7.238,13.121
		c0,8.568-6.945,15.515-15.516,15.515s-15.516-6.946-15.516-15.515c0-5.525,2.888-10.372,7.235-13.121v-34.764
		C296.149,347.028,299.857,344.233,304.43,344.233 M304.43,339.102c-7.519,0-13.411,4.996-13.411,11.373v32.186
		c-4.575,3.896-7.235,9.578-7.235,15.7c0,11.384,9.262,20.646,20.646,20.646c11.384,0,20.647-9.263,20.647-20.646
		c0-6.123-2.66-11.806-7.238-15.701v-32.185C317.839,344.097,311.95,339.102,304.43,339.102L304.43,339.102z"/>
	<circle fill="#010101" cx="304.429" cy="398.4" r="12.004"/>
	<rect x="300.464" y="361.824" fill="#010101" width="7.934" height="28.832"/>
	<rect x="321.861" y="361.891" fill="#010101" width="6.355" height="3.366"/>
	<rect x="321.861" y="370.199" fill="#010101" width="6.355" height="3.367"/>
	<rect x="321.861" y="378.375" fill="#010101" width="6.355" height="3.366"/>
</g>
</svg>
