<svg xmlns="http://www.w3.org/2000/svg" viewBox="0 0 79.2 79.2"><defs><style>.cls-1{fill:#4d4d4d;}.cls-1,.cls-2,.cls-3{fill-rule:evenodd;}.cls-2{fill:#333;}</style></defs><title>Asset 3</title><g id="Layer_2" data-name="Layer 2"><g id="Layer_1-2" data-name="Layer 1"><path class="cls-1" d="M11.6,11.6a39.6,39.6,0,1,1,0,56,39.6,39.6,0,0,1,0-56Zm28-4.75A32.75,32.75,0,1,0,72.35,39.6,32.75,32.75,0,0,0,39.6,6.85Z"/><path class="cls-2" d="M39.6,1.28A38.32,38.32,0,1,0,77.92,39.6,38.32,38.32,0,0,0,39.6,1.28Zm0,4.85A33.47,33.47,0,1,1,6.13,39.6,33.47,33.47,0,0,1,39.6,6.13Z"/><path class="cls-3" d="M66.38,12.82a37.87,37.87,0,1,0,0,53.56,37.87,37.87,0,0,0,0-53.56Zm-2.79,2.79a33.92,33.92,0,1,1-48,0A33.92,33.92,0,0,1,63.59,15.61Z"/></g></g></svg>