<?xml version="1.0" encoding="utf-8"?>
<!-- Generator: Adobe Illustrator 20.1.0, SVG Export Plug-In . SVG Version: 6.00 Build 0)  -->
<svg version="1.1" id="Layer_1" xmlns="http://www.w3.org/2000/svg" xmlns:xlink="http://www.w3.org/1999/xlink" x="0px" y="0px"
	 viewBox="0 0 680 792" style="enable-background:new 0 0 680 792;" xml:space="preserve">
<style type="text/css">
	.st0{fill-rule:evenodd;clip-rule:evenodd;fill:#010101;}
	.st1{fill-rule:evenodd;clip-rule:evenodd;fill:#FFFFFF;}
</style>
<rect x="99.7" y="374.6" class="st0" width="475.1" height="36.2"/>
<path class="st1" d="M101.9,376.7v0.5v3.7v23.5v3.7v0.5h0.5h35.7h0.5h35.7h0.5h35.7h0.5h35.7h0.5h35.7h0.5h35.7h0.5h35.7h0.5h35.7
	h0.5h35.7h0.5h35.7h0.5h35.7h0.5H536h0.5h35.7h0.5v-4.2v-23.5v-3.7v-0.5h-0.5h-35.7H536h-35.7h-0.5h-35.7h-0.5H428h-0.5h-35.7h-0.5
	h-35.7h-0.5h-35.7h-0.5h-35.7h-0.5h-35.7h-0.5h-35.7h-0.5h-35.7h-0.5h-35.7h-0.5h-35.7H101.9L101.9,376.7z M102.4,380.9v-3.7h35.7
	v3.7h0.5v-3.7h35.7v3.7h0.5v-3.7h35.7v3.7h0.5v-3.7h35.7v3.7h0.5v-3.7h35.7v3.7h0.5v-3.7h35.7v3.7h0.5v-3.7h35.7v3.7h0.5v-3.7h35.7
	v3.7h0.5v-3.7h35.7v3.7h0.5v-3.7h35.7v3.7h0.5v-3.7h35.7v3.7h0.5v-3.7H536v3.7h0.5v-3.7h35.7v3.7v23.5v3.7h-35.7v-3.7H536v3.7h-35.7
	v-3.7h-0.5v3.7h-35.7v-3.7h-0.5v3.7H428v-3.7h-0.5v3.7h-35.7v-3.7h-0.5v3.7h-35.7v-3.7h-0.5v3.7h-35.7v-3.7h-0.5v3.7h-35.7v-3.7
	h-0.5v3.7h-35.7v-3.7h-0.5v3.7h-35.7v-3.7h-0.5v3.7h-35.7v-3.7h-0.5v3.7h-35.7v-3.7h-0.5v3.7h-35.7v-3.7V380.9z"/>
</svg>
