<?xml version="1.0" encoding="UTF-8" standalone="no"?>
<!-- Generator: Adobe Illustrator 20.1.0, SVG Export Plug-In . SVG Version: 6.00 Build 0)  -->

<svg
   xmlns:dc="http://purl.org/dc/elements/1.1/"
   xmlns:cc="http://creativecommons.org/ns#"
   xmlns:rdf="http://www.w3.org/1999/02/22-rdf-syntax-ns#"
   xmlns:svg="http://www.w3.org/2000/svg"
   xmlns="http://www.w3.org/2000/svg"
   xmlns:sodipodi="http://sodipodi.sourceforge.net/DTD/sodipodi-0.dtd"
   xmlns:inkscape="http://www.inkscape.org/namespaces/inkscape"
   version="1.1"
   id="Layer_1"
   x="0px"
   y="0px"
   viewBox="0 0 475.10001 36.200001"
   xml:space="preserve"
   inkscape:version="0.91 r13725"
   sodipodi:docname="cpu-memory-bar.svg.svg"
   width="475.10001"
   height="36.200001"><metadata
     id="metadata3391"><rdf:RDF><cc:Work
         rdf:about=""><dc:format>image/svg+xml</dc:format><dc:type
           rdf:resource="http://purl.org/dc/dcmitype/StillImage" /><dc:title></dc:title></cc:Work></rdf:RDF></metadata><defs
     id="defs3389" /><sodipodi:namedview
     pagecolor="#ffffff"
     bordercolor="#666666"
     borderopacity="1"
     objecttolerance="10"
     gridtolerance="10"
     guidetolerance="10"
     inkscape:pageopacity="0"
     inkscape:pageshadow="2"
     inkscape:window-width="810"
     inkscape:window-height="764"
     id="namedview3387"
     showgrid="false"
     fit-margin-top="0"
     fit-margin-left="0"
     fit-margin-right="0"
     fit-margin-bottom="0"
     inkscape:zoom="0.68434343"
     inkscape:cx="240.3"
     inkscape:cy="14.800007"
     inkscape:window-x="0"
     inkscape:window-y="0"
     inkscape:window-maximized="0"
     inkscape:current-layer="Layer_1" /><style
     type="text/css"
     id="style3381">
	.st0{fill-rule:evenodd;clip-rule:evenodd;fill:#010101;}
	.st1{fill-rule:evenodd;clip-rule:evenodd;fill:#FFFFFF;}
</style><rect
     x="0"
     y="0"
     class="st0"
     width="475.10001"
     height="36.200001"
     id="rect3383"
     style="clip-rule:evenodd;fill:#010101;fill-rule:evenodd" /><path
     class="st1"
     d="m 2.2000031,2.0999939 0,0.5 0,3.7 0,23.5000001 0,3.7 0,0.5 0.5,0 35.6999999,0 0.5,0 35.7,0 0.5,0 35.699997,0 0.5,0 35.7,0 0.5,0 35.7,0 0.5,0 35.7,0 0.5,0 35.7,0 0.5,0 35.7,0 0.5,0 35.7,0 0.5,0 35.7,0 0.5,0 35.7,0 0.5,0 35.4,0 0.5,0 35.7,0 0.5,0 0,-4.2 0,-23.5000001 0,-3.7 0,-0.5 -0.5,0 -35.7,0 -0.5,0 -35.7,0 -0.5,0 -35.7,0 -0.5,0 -35.6,0 -0.5,0 -35.7,0 -0.5,0 -35.7,0 -0.5,0 -35.7,0 -0.5,0 -35.7,0 -0.5,0 -35.7,0 -0.5,0 -35.7,0 -0.5,0 -35.699997,0 -0.5,0 -35.7,0 -0.5,0 -35.6999999,0 -0.3,0 0,0 z m 0.5,4.2 0,-3.7 35.6999999,0 0,3.7 0.5,0 0,-3.7 35.7,0 0,3.7 0.5,0 0,-3.7 35.699997,0 0,3.7 0.5,0 0,-3.7 35.7,0 0,3.7 0.5,0 0,-3.7 35.7,0 0,3.7 0.5,0 0,-3.7 35.7,0 0,3.7 0.5,0 0,-3.7 35.7,0 0,3.7 0.5,0 0,-3.7 35.7,0 0,3.7 0.5,0 0,-3.7 35.7,0 0,3.7 0.5,0 0,-3.7 35.7,0 0,3.7 0.5,0 0,-3.7 35.7,0 0,3.7 0.5,0 0,-3.7 35.4,0 0,3.7 0.5,0 0,-3.7 35.7,0 0,3.7 0,23.5000001 0,3.7 -35.7,0 0,-3.7 -0.5,0 0,3.7 -35.7,0 0,-3.7 -0.5,0 0,3.7 -35.7,0 0,-3.7 -0.5,0 0,3.7 -35.6,0 0,-3.7 -0.5,0 0,3.7 -35.7,0 0,-3.7 -0.5,0 0,3.7 -35.7,0 0,-3.7 -0.5,0 0,3.7 -35.7,0 0,-3.7 -0.5,0 0,3.7 -35.7,0 0,-3.7 -0.5,0 0,3.7 -35.7,0 0,-3.7 -0.5,0 0,3.7 -35.7,0 0,-3.7 -0.5,0 0,3.7 -35.699997,0 0,-3.7 -0.5,0 0,3.7 -35.7,0 0,-3.7 -0.5,0 0,3.7 -35.6999999,0 0,-3.7 0,-23.5000001 z"
     id="path3385"
     inkscape:connector-curvature="0"
     style="clip-rule:evenodd;fill:#ffffff;fill-rule:evenodd" /></svg>