<svg xmlns="http://www.w3.org/2000/svg" viewBox="0 0 18.7 18.7"><defs><style>.cls-1{fill:#fff;fill-rule:evenodd;}</style></defs><title>Asset 4</title><g id="Layer_2" data-name="Layer 2"><g id="Layer_1-2" data-name="Layer 1"><path class="cls-1" d="M16.18,0H2.52A2.52,2.52,0,0,0,0,2.52V16.18A2.52,2.52,0,0,0,2.52,18.7H9.26V12H7.53a.41.41,0,0,1-.41-.41V9.45A.41.41,0,0,1,7.52,9H9.26V7a3.4,3.4,0,0,1,3.63-3.73h1.77a.41.41,0,0,1,.41.41V5.46a.41.41,0,0,1-.41.41H13.57c-1.17,0-1.4.56-1.4,1.37V9h2.57a.41.41,0,0,1,.41.46l-.26,2.15a.41.41,0,0,1-.41.36H12.18V18.7h4a2.52,2.52,0,0,0,2.52-2.52V2.52A2.52,2.52,0,0,0,16.18,0Z"/></g></g></svg>