<?xml version="1.0" encoding="UTF-8" standalone="no"?>
<!-- Created with Inkscape (http://www.inkscape.org/) -->

<svg
   xmlns:dc="http://purl.org/dc/elements/1.1/"
   xmlns:cc="http://creativecommons.org/ns#"
   xmlns:rdf="http://www.w3.org/1999/02/22-rdf-syntax-ns#"
   xmlns:svg="http://www.w3.org/2000/svg"
   xmlns="http://www.w3.org/2000/svg"
   xmlns:sodipodi="http://sodipodi.sourceforge.net/DTD/sodipodi-0.dtd"
   xmlns:inkscape="http://www.inkscape.org/namespaces/inkscape"
   id="svg6909"
   version="1.1"
   inkscape:version="0.91 r13725"
   xml:space="preserve"
   width="40.231251"
   height="29.502501"
   viewBox="0 0 40.231251 29.5025"
   sodipodi:docname="GPU icon.svg"><metadata
     id="metadata6915"><rdf:RDF><cc:Work
         rdf:about=""><dc:format>image/svg+xml</dc:format><dc:type
           rdf:resource="http://purl.org/dc/dcmitype/StillImage" /><dc:title></dc:title></cc:Work></rdf:RDF></metadata><defs
     id="defs6913"><clipPath
       clipPathUnits="userSpaceOnUse"
       id="clipPath6939"><path
         d="m 0.003,839.446 701.948,0 0,109.838 -701.948,0 0,-109.838 z"
         id="path6941"
         inkscape:connector-curvature="0" /></clipPath><clipPath
       clipPathUnits="userSpaceOnUse"
       id="clipPath6975"><path
         d="M 0,975 702,975 702,0 0,0 0,975 Z"
         id="path6977"
         inkscape:connector-curvature="0" /></clipPath><clipPath
       clipPathUnits="userSpaceOnUse"
       id="clipPath6991"><path
         d="m 25.567,885.277 -0.863,-1.44 7.323,-13.688 0.862,1.44 0.432,3.319 -7.322,13.688 -0.432,-3.319 z"
         id="path6993"
         inkscape:connector-curvature="0" /></clipPath><clipPath
       clipPathUnits="userSpaceOnUse"
       id="clipPath7003"><path
         d="m 132.677,874.908 0.432,-3.319 0.862,-1.44 7.322,13.688 -0.862,1.44 -0.432,3.319 -7.322,-13.688 z"
         id="path7005"
         inkscape:connector-curvature="0" /></clipPath><clipPath
       clipPathUnits="userSpaceOnUse"
       id="clipPath7015"><path
         d="m 166.567,885.277 -0.863,-1.44 7.322,-13.688 0.863,1.44 0.431,3.319 -7.321,13.688 -0.432,-3.319 z"
         id="path7017"
         inkscape:connector-curvature="0" /></clipPath><clipPath
       clipPathUnits="userSpaceOnUse"
       id="clipPath7027"><path
         d="m 273.677,874.908 0.431,-3.319 0.864,-1.44 7.321,13.688 -0.863,1.44 -0.431,3.319 -7.322,-13.688 z"
         id="path7029"
         inkscape:connector-curvature="0" /></clipPath><clipPath
       clipPathUnits="userSpaceOnUse"
       id="clipPath7039"><path
         d="m 420.781,885.277 -0.864,-1.44 7.322,-13.688 0.863,1.44 0.431,3.319 -7.321,13.688 -0.431,-3.319 z"
         id="path7041"
         inkscape:connector-curvature="0" /></clipPath><clipPath
       clipPathUnits="userSpaceOnUse"
       id="clipPath7051"><path
         d="m 527.891,874.908 0.431,-3.319 0.863,-1.44 7.321,13.688 -0.863,1.44 -0.431,3.319 -7.321,-13.688 z"
         id="path7053"
         inkscape:connector-curvature="0" /></clipPath><clipPath
       clipPathUnits="userSpaceOnUse"
       id="clipPath7063"><path
         d="m 561.781,885.277 -0.863,-1.44 7.321,-13.688 0.863,1.44 0.432,3.319 -7.322,13.688 -0.431,-3.319 z"
         id="path7065"
         inkscape:connector-curvature="0" /></clipPath><clipPath
       clipPathUnits="userSpaceOnUse"
       id="clipPath7075"><path
         d="m 668.891,874.908 0.431,-3.319 0.863,-1.44 7.321,13.688 -0.863,1.44 -0.431,3.319 -7.321,-13.688 z"
         id="path7077"
         inkscape:connector-curvature="0" /></clipPath><clipPath
       clipPathUnits="userSpaceOnUse"
       id="clipPath7087"><path
         d="M 0,975 702,975 702,0 0,0 0,975 Z"
         id="path7089"
         inkscape:connector-curvature="0" /></clipPath><clipPath
       clipPathUnits="userSpaceOnUse"
       id="clipPath7125"><path
         d="M 0,975 702,975 702,0 0,0 0,975 Z"
         id="path7127"
         inkscape:connector-curvature="0" /></clipPath><clipPath
       clipPathUnits="userSpaceOnUse"
       id="clipPath7171"><path
         d="M 0,975 702,975 702,0 0,0 0,975 Z"
         id="path7173"
         inkscape:connector-curvature="0" /></clipPath><clipPath
       clipPathUnits="userSpaceOnUse"
       id="clipPath7197"><path
         d="M 0,975 702,975 702,0 0,0 0,975 Z"
         id="path7199"
         inkscape:connector-curvature="0" /></clipPath><clipPath
       clipPathUnits="userSpaceOnUse"
       id="clipPath7247"><path
         d="M 0,975 702,975 702,0 0,0 0,975 Z"
         id="path7249"
         inkscape:connector-curvature="0" /></clipPath><clipPath
       clipPathUnits="userSpaceOnUse"
       id="clipPath7285"><path
         d="M 0,975 702,975 702,0 0,0 0,975 Z"
         id="path7287"
         inkscape:connector-curvature="0" /></clipPath><clipPath
       clipPathUnits="userSpaceOnUse"
       id="clipPath7299"><path
         d="M 0,975 702,975 702,0 0,0 0,975 Z"
         id="path7301"
         inkscape:connector-curvature="0" /></clipPath><clipPath
       clipPathUnits="userSpaceOnUse"
       id="clipPath7315"><path
         d="M 0,975 702,975 702,0 0,0 0,975 Z"
         id="path7317"
         inkscape:connector-curvature="0" /></clipPath><clipPath
       clipPathUnits="userSpaceOnUse"
       id="clipPath7331"><path
         d="M 0,975 702,975 702,0 0,0 0,975 Z"
         id="path7333"
         inkscape:connector-curvature="0" /></clipPath><clipPath
       clipPathUnits="userSpaceOnUse"
       id="clipPath7353"><path
         d="M 0,975 702,975 702,0 0,0 0,975 Z"
         id="path7355"
         inkscape:connector-curvature="0" /></clipPath><clipPath
       clipPathUnits="userSpaceOnUse"
       id="clipPath7367"><path
         d="M 0,975 702,975 702,0 0,0 0,975 Z"
         id="path7369"
         inkscape:connector-curvature="0" /></clipPath><clipPath
       clipPathUnits="userSpaceOnUse"
       id="clipPath7383"><path
         d="M 0,975 702,975 702,0 0,0 0,975 Z"
         id="path7385"
         inkscape:connector-curvature="0" /></clipPath><clipPath
       clipPathUnits="userSpaceOnUse"
       id="clipPath7543"><path
         d="M 0,975 702,975 702,0 0,0 0,975 Z"
         id="path7545"
         inkscape:connector-curvature="0" /></clipPath><clipPath
       clipPathUnits="userSpaceOnUse"
       id="clipPath7561"><path
         d="M 0,975 702,975 702,0 0,0 0,975 Z"
         id="path7563"
         inkscape:connector-curvature="0" /></clipPath><clipPath
       clipPathUnits="userSpaceOnUse"
       id="clipPath7601"><path
         d="M 0,975 702,975 702,0 0,0 0,975 Z"
         id="path7603"
         inkscape:connector-curvature="0" /></clipPath></defs><sodipodi:namedview
     pagecolor="#ffffff"
     bordercolor="#666666"
     borderopacity="1"
     objecttolerance="10"
     gridtolerance="10"
     guidetolerance="10"
     inkscape:pageopacity="0"
     inkscape:pageshadow="2"
     inkscape:window-width="1873"
     inkscape:window-height="1176"
     id="namedview6911"
     showgrid="false"
     fit-margin-top="0"
     fit-margin-left="0"
     fit-margin-right="0"
     fit-margin-bottom="0"
     inkscape:zoom="1.3541064"
     inkscape:cx="-384.21275"
     inkscape:cy="-189.93326"
     inkscape:window-x="1327"
     inkscape:window-y="24"
     inkscape:window-maximized="1"
     inkscape:current-layer="g7381" /><g
     id="g6917"
     inkscape:groupmode="layer"
     inkscape:label="CPU Monitoring4 [Converted]"
     transform="matrix(1.25,0,0,-1.25,-464.73925,920.46888)"><path
       d="m 364.36,595.901 297.164,0 0,107.502 -297.164,0 0,-107.502 z"
       style="fill:#ffffff;fill-opacity:1;fill-rule:evenodd;stroke:#000000;stroke-width:3;stroke-linecap:butt;stroke-linejoin:miter;stroke-miterlimit:2.61299992;stroke-dasharray:none;stroke-opacity:1"
       id="path6925"
       inkscape:connector-curvature="0" /><path
       d="m 40.722,595.901 297.164,0 0,107.502 -297.164,0 0,-107.502 z"
       style="fill:#ffffff;fill-opacity:1;fill-rule:evenodd;stroke:#000000;stroke-width:3;stroke-linecap:butt;stroke-linejoin:miter;stroke-miterlimit:2.61299992;stroke-dasharray:none;stroke-opacity:1"
       id="path6927"
       inkscape:connector-curvature="0" /><path
       d="m 364.36,405.944 297.164,0 0,129.822 -297.164,0 0,-129.822 z"
       style="fill:#ffffff;fill-opacity:1;fill-rule:evenodd;stroke:#000000;stroke-width:3;stroke-linecap:butt;stroke-linejoin:miter;stroke-miterlimit:2.61299992;stroke-dasharray:none;stroke-opacity:1"
       id="path6929"
       inkscape:connector-curvature="0" /><path
       d="m 40.722,405.944 297.164,0 0,129.822 -297.164,0 0,-129.822 z"
       style="fill:#ffffff;fill-opacity:1;fill-rule:evenodd;stroke:#000000;stroke-width:3;stroke-linecap:butt;stroke-linejoin:miter;stroke-miterlimit:2.61299992;stroke-dasharray:none;stroke-opacity:1"
       id="path6931"
       inkscape:connector-curvature="0" /><path
       d="m 364.36,239.629 297.164,0 0,107.502 -297.164,0 0,-107.502 z"
       style="fill:#ffffff;fill-opacity:1;fill-rule:evenodd;stroke:#000000;stroke-width:3;stroke-linecap:butt;stroke-linejoin:miter;stroke-miterlimit:2.61299992;stroke-dasharray:none;stroke-opacity:1"
       id="path6933"
       inkscape:connector-curvature="0" /><text
       transform="matrix(1,0,0,-1,37.7677,919.5786)"
       style="font-variant:normal;font-weight:bold;font-stretch:condensed;font-size:8.67399979px;font-family:'Myriad Pro';-inkscape-font-specification:SupriaSans-CondBold;writing-mode:lr-tb;fill:#ffffff;fill-opacity:1;fill-rule:nonzero;stroke:none"
       id="text6959"><tspan
         x="0 6.5922399 13.856715 18.033245 25.570951 32.579544 41.106087 47.60725 51.775105 56.671577 60.778717 65.037651 72.575356 78.785942"
         y="0"
         sodipodi:role="line"
         id="tspan6961">PC NAME - INFO</tspan></text>
<text
       transform="matrix(1,0,0,-1,205.4092,884.3666)"
       style="font-variant:normal;font-weight:bold;font-stretch:condensed;font-size:9px;font-family:'Myriad Pro';-inkscape-font-specification:SupriaSans-CondBold;writing-mode:lr-tb;fill:#ffffff;fill-opacity:1;fill-rule:nonzero;stroke:none"
       id="text6983"><tspan
         x="0 4.2480001 6.3990002 12.213 18.080999 22.554001 24.705 30.627001 262.50299 266.88599 272.39401 278.31601"
         y="0"
         sodipodi:role="line"
         id="tspan6985">LIGHTINGFANS</tspan></text>
<text
       transform="matrix(1,0,0,-1,51.6969,885.3919)"
       style="font-variant:normal;font-weight:bold;font-stretch:condensed;font-size:9px;font-family:'Myriad Pro';-inkscape-font-specification:SupriaSans-CondBold;writing-mode:lr-tb;fill:#ffffff;fill-opacity:1;fill-rule:nonzero;stroke:none"
       id="text7115"><tspan
         x="0 4.4369998 9.3059998 13.743 18.216 22.643999 29.879999 31.788 37.655998 42.084 47.591999 51.84 56.313"
         y="0"
         sodipodi:role="line"
         id="tspan7117">SYSTEM HEALTH</tspan><tspan
         x="558.05402 560.20502 566.12701 570.51001"
         y="-0.098999999"
         sodipodi:role="line"
         id="tspan7119">INFO</tspan></text>
<text
       transform="matrix(1,0,0,-1,47.5917,684.121)"
       style="font-variant:normal;font-weight:bold;font-stretch:condensed;font-size:10.52589989px;font-family:'Myriad Pro';-inkscape-font-specification:SupriaSans-CondBold;writing-mode:lr-tb;fill:#000000;fill-opacity:1;fill-rule:nonzero;stroke:none"
       id="text7149"><tspan
         x="0 6.105022 13.357368 20.367617 25.54636 27.777849 34.703892 41.145744 49.608566"
         y="0"
         sodipodi:role="line"
         id="tspan7151">CODE NAME</tspan><tspan
         x="0 8.4628239 14.904675 20.914963 23.146454 28.377827 35.388077"
         y="26.251595"
         sodipodi:role="line"
         id="tspan7153">MAX TDP</tspan><tspan
         x="0 5.1892686 12.441614 18.546637 24.251673 29.430416 34.661789 36.89328 42.124653 47.819164 53.418941"
         y="52.503189"
         sodipodi:role="line"
         id="tspan7155">SOCKET TYPE</tspan><tspan
         x="0 5.1892686 10.420641 17.672987 23.778008 29.483046 31.714537 36.840649 42.503586 47.682327 54.934673 61.74493 66.923676 73.849716 79.954735"
         y="78.754784"
         sodipodi:role="line"
         id="tspan7157">STOCK FREQUENCY</tspan><tspan
         x="222.1386 229.14885 234.32759 239.51686 245.62187 251.28481 253.80051 259.40027 264.63165 267.14734 274.39969"
         y="0.0105259"
         sodipodi:role="line"
         id="tspan7159">DESCRIPTION</tspan><tspan
         x="222.1386 229.14885 234.32759 239.51686 245.62187 251.28481 253.80051 259.40027 264.63165 267.14734 274.39969"
         y="26.262119"
         sodipodi:role="line"
         id="tspan7161">DESCRIPTION</tspan><tspan
         x="222.1386 229.14885 234.32759 239.51686 245.62187 251.28481 253.80051 259.40027 264.63165 267.14734 274.39969"
         y="52.513714"
         sodipodi:role="line"
         id="tspan7163">DESCRIPTION</tspan><tspan
         x="222.1386 229.14885 234.32759 239.51686 245.62187 251.28481 253.80051 259.40027 264.63165 267.14734 274.39969"
         y="78.765312"
         sodipodi:role="line"
         id="tspan7165">DESCRIPTION</tspan></text>
<text
       transform="matrix(1,0,0,-1,47.5917,520.3726)"
       style="font-variant:normal;font-weight:bold;font-stretch:condensed;font-size:10.52589989px;font-family:'Myriad Pro';-inkscape-font-specification:SupriaSans-CondBold;writing-mode:lr-tb;fill:#000000;fill-opacity:1;fill-rule:nonzero;stroke:none"
       id="text7185"><tspan
         x="0 8.4628239 15.715169 22.725418 27.904161"
         y="0"
         sodipodi:role="line"
         id="tspan7187">MODEL</tspan><tspan
         x="0 6.105022 12.967909 15.483599 21.083378 26.272646 31.451389"
         y="26.251595"
         sodipodi:role="line"
         id="tspan7189">CHIPSET</tspan><tspan
         x="0 5.1892686 12.441614 19.251871 24.483244 31.34613 37.051167 42.714104 45.229794 52.24004 59.039772"
         y="52.503189"
         sodipodi:role="line"
         id="tspan7191">SOUTHBRIDGE</tspan></text>
<text
       transform="matrix(1,0,0,-1,47.5917,441.6284)"
       style="font-variant:normal;font-weight:bold;font-stretch:condensed;font-size:10.52589989px;font-family:'Myriad Pro';-inkscape-font-specification:SupriaSans-CondBold;writing-mode:lr-tb;fill:#000000;fill-opacity:1;fill-rule:nonzero;stroke:none"
       id="text7203"><tspan
         x="0 5.7050376 8.2207279 15.473073 20.662342 22.893833 28.767284 33.946026 39.608963 44.798229 47.313919 54.566265"
         y="0"
         sodipodi:role="line"
         id="tspan7205">BIOS VERSION</tspan><tspan
         x="222.1386 229.14885 234.32759 239.51686 245.62187 251.28481 253.80051 259.40027 264.63165 267.14734 274.39969"
         y="-78.744255"
         sodipodi:role="line"
         id="tspan7207">DESCRIPTION</tspan><tspan
         x="222.1386 229.14885 234.32759 239.51686 245.62187 251.28481 253.80051 259.40027 264.63165 267.14734 274.39969"
         y="-52.492664"
         sodipodi:role="line"
         id="tspan7209">DESCRIPTION</tspan><tspan
         x="222.1386 229.14885 234.32759 239.51686 245.62187 251.28481 253.80051 259.40027 264.63165 267.14734 274.39969"
         y="-26.24107"
         sodipodi:role="line"
         id="tspan7211">DESCRIPTION</tspan><tspan
         x="222.1386 229.14885 234.32759 239.51686 245.62187 251.28481 253.80051 259.40027 264.63165 267.14734 274.39969"
         y="0.0105259"
         sodipodi:role="line"
         id="tspan7213">DESCRIPTION</tspan><tspan
         x="0 5.7050376 8.2207279 15.473073 20.662342 22.893833 29.904081 36.345932 41.577305 222.1386 229.14885 234.32759 239.51686 245.62187 251.28481 253.80051 259.40027 264.63165 267.14734 274.39969"
         y="26.262119"
         sodipodi:role="line"
         id="tspan7215">BIOS DATEDESCRIPTION</tspan></text>
<text
       transform="matrix(1,0,0,-1,87.4837,366.2544)"
       style="font-variant:normal;font-weight:bold;font-stretch:condensed;font-size:13.26220036px;font-family:'Myriad Pro';-inkscape-font-specification:SupriaSans-CondBold;writing-mode:lr-tb;fill:#ffffff;fill-opacity:1;fill-rule:nonzero;stroke:none"
       id="text7217"><tspan
         x="0 7.6920762 10.437351 14.959762 17.771349 26.603973 33.739037 36.908703 44.30901"
         y="0"
         sodipodi:role="line"
         id="tspan7219">C:\ DRIVE</tspan></text>
<text
       transform="matrix(1,0,0,-1,149.5363,367.5356)"
       style="font-variant:normal;font-weight:bold;font-stretch:condensed;font-size:9.54819965px;font-family:'Myriad Pro';-inkscape-font-specification:SupriaSans-CondBold;writing-mode:lr-tb;fill:#ffffff;fill-opacity:1;fill-rule:nonzero;stroke:none"
       id="text7221"><tspan
         x="0 2.7116888 4.7359071 9.8155499 15.659048 20.79598 25.541435 27.565653 33.84837 39.691868 47.368622 52.066334 54.090553"
         y="0"
         sodipodi:role="line"
         id="tspan7223">( PART NAME )</tspan></text>
<text
       transform="matrix(1,0,0,-1,371.0543,684.121)"
       style="font-variant:normal;font-weight:bold;font-stretch:condensed;font-size:10.52589989px;font-family:'Myriad Pro';-inkscape-font-specification:SupriaSans-CondBold;writing-mode:lr-tb;fill:#000000;fill-opacity:1;fill-rule:nonzero;stroke:none"
       id="text7225"><tspan
         x="0 8.4628239 14.904675 20.914963 23.146454 28.377827 35.388077"
         y="0"
         sodipodi:role="line"
         id="tspan7227">MAX TDP</tspan><tspan
         x="0 7.0102496 12.188993 17.315105 23.756956 30.567213 35.535439 40.766811 42.998302 49.103325 54.071548 61.323895 67.428917"
         y="26.251595"
         sodipodi:role="line"
         id="tspan7229">DEFAULT CLOCK</tspan><tspan
         x="0 5.2313724 12.04163 17.704563 23.409601 30.661947 32.893436 38.998459 43.966682 51.219028 57.324051"
         y="52.503189"
         sodipodi:role="line"
         id="tspan7231">TURBO CLOCK</tspan><tspan
         x="0 6.8102574 13.7363 16.251989 21.378103 23.893793 29.072536 36.082787 38.314278 43.503544 50.366432 56.808281 63.818531 68.997276 74.66021"
         y="78.754784"
         sodipodi:role="line"
         id="tspan7233">UNIFIED SHADERS</tspan><tspan
         x="222.1386 229.14885 234.32759 239.51686 245.62187 251.28481 253.80051 259.40027 264.63165 267.14734 274.39969"
         y="0.0105259"
         sodipodi:role="line"
         id="tspan7235">DESCRIPTION</tspan><tspan
         x="222.1386 229.14885 234.32759 239.51686 245.62187 251.28481 253.80051 259.40027 264.63165 267.14734 274.39969"
         y="26.262119"
         sodipodi:role="line"
         id="tspan7237">DESCRIPTION</tspan><tspan
         x="222.1386 229.14885 234.32759 239.51686 245.62187 251.28481 253.80051 259.40027 264.63165 267.14734 274.39969"
         y="52.513714"
         sodipodi:role="line"
         id="tspan7239">DESCRIPTION</tspan><tspan
         x="222.1386 229.14885 234.32759 239.51686 245.62187 251.28481 253.80051 259.40027 264.63165 267.14734 274.39969"
         y="78.765312"
         sodipodi:role="line"
         id="tspan7241">DESCRIPTION</tspan></text>
<text
       transform="matrix(1,0,0,-1,371.0543,520.3726)"
       style="font-variant:normal;font-weight:bold;font-stretch:condensed;font-size:10.52589989px;font-family:'Myriad Pro';-inkscape-font-specification:SupriaSans-CondBold;writing-mode:lr-tb;fill:#000000;fill-opacity:1;fill-rule:nonzero;stroke:none"
       id="text7261"><tspan
         x="0 8.4628239 14.904675 21.830717 28.640974 33.767086 40.208939 46.313961 51.545334 58.355591 64.018524 69.197266"
         y="0"
         sodipodi:role="line"
         id="tspan7263">MANUFACTURER</tspan><tspan
         x="0 6.105022 12.546873 18.146652 24.588503 30.693525 33.209213 38.440586"
         y="26.251595"
         sodipodi:role="line"
         id="tspan7265">CAPACITY</tspan><tspan
         x="0 7.0102496 12.188993 17.315105 23.756956 30.567213 35.535439 40.766811 42.998302 48.124416 53.78735 58.966091 66.218437 73.028694 78.207436 85.133476 91.238503"
         y="52.503189"
         sodipodi:role="line"
         id="tspan7267">DEFAULT FREQUENCY</tspan><tspan
         x="0 5.2313724 10.925884 16.525663"
         y="78.754784"
         sodipodi:role="line"
         id="tspan7269">TYPE</tspan><tspan
         x="222.1386 229.14885 234.32759 239.51686 245.62187 251.28481 253.80051 259.40027 264.63165 267.14734 274.39969"
         y="0.0105259"
         sodipodi:role="line"
         id="tspan7271">DESCRIPTION</tspan><tspan
         x="222.1386 229.14885 234.32759 239.51686 245.62187 251.28481 253.80051 259.40027 264.63165 267.14734 274.39969"
         y="26.262119"
         sodipodi:role="line"
         id="tspan7273">DESCRIPTION</tspan><tspan
         x="222.1386 229.14885 234.32759 239.51686 245.62187 251.28481 253.80051 259.40027 264.63165 267.14734 274.39969"
         y="52.513714"
         sodipodi:role="line"
         id="tspan7275">DESCRIPTION</tspan><tspan
         x="222.1386 229.14885 234.32759 239.51686 245.62187 251.28481 253.80051 259.40027 264.63165 267.14734 274.39969"
         y="78.765312"
         sodipodi:role="line"
         id="tspan7277">DESCRIPTION</tspan><tspan
         x="0 5.2313724 7.7470622 16.209887 18.725576 25.651619 32.451351 222.1386 229.14885 234.32759 239.51686 245.62187 251.28481 253.80051 259.40027 264.63165 267.14734 274.39969"
         y="105.0169"
         sodipodi:role="line"
         id="tspan7279">TIMINGSDESCRIPTION</tspan></text>
<g
       id="g7281"><g
         id="g7283"
         clip-path="url(#clipPath7285)"><path
           d="m 113.94,179.137 474.193,0 0,30.742 -474.193,0 0,-30.742 z"
           style="fill:#000000;fill-opacity:1;fill-rule:evenodd;stroke:#000000;stroke-width:3;stroke-linecap:butt;stroke-linejoin:miter;stroke-miterlimit:2.61299992;stroke-dasharray:none;stroke-opacity:1"
           id="path7289"
           inkscape:connector-curvature="0" /></g></g><text
       transform="matrix(1,0,0,-1,295.4282,190.2787)"
       style="font-variant:normal;font-weight:bold;font-stretch:condensed;font-size:12.25790024px;font-family:'Myriad Pro';-inkscape-font-specification:SupriaSans-CondBold;writing-mode:lr-tb;fill:#ffffff;fill-opacity:1;fill-rule:nonzero;stroke:none"
       id="text7291"><tspan
         x="0 7.1095819 15.555275 23.620974 29.71315 37.214985 44.324566 50.416744 53.015419 60.431446 63.030121 69.073265 77.004128 83.52533 90.046532 98.492226 105.08698"
         y="0"
         sodipodi:role="line"
         id="tspan7293">CONTACT &amp; SUPPORT</tspan></text>
<g
       id="g7295"><g
         id="g7297"
         clip-path="url(#clipPath7299)"><g
           id="g7303"
           transform="translate(113.9394,167.7773)"><path
             d="M 0,0 198.335,0 180.766,-30.742 0,-30.742 0,0 Z"
             style="fill:#c32026;fill-opacity:1;fill-rule:evenodd;stroke:none"
             id="path7305"
             inkscape:connector-curvature="0" /></g></g></g><text
       transform="matrix(1,0,0,-1,150.5653,148.1774)"
       style="font-variant:normal;font-weight:bold;font-stretch:condensed;font-size:12.25790024px;font-family:'Myriad Pro';-inkscape-font-specification:SupriaSans-CondBold;writing-mode:lr-tb;fill:#ffffff;fill-opacity:1;fill-rule:nonzero;stroke:none"
       id="text7307"><tspan
         x="0 6.0431447 13.544979 19.330708 25.361595 31.404739 40.438812 47.438072 55.883766 61.975941 64.905579 72.01516 78.536362 85.64595 88.183334 95.292915 103.73861"
         y="0"
         sodipodi:role="line"
         id="tspan7309">SALES@XOTICPC.COM</tspan></text>
<g
       id="g7311"><g
         id="g7313"
         clip-path="url(#clipPath7315)"><g
           id="g7319"
           transform="translate(113.9394,125.676)"><path
             d="M 0,0 180.764,0 198.335,-30.742 0,-30.742 0,0 Z"
             style="fill:#c32026;fill-opacity:1;fill-rule:evenodd;stroke:none"
             id="path7321"
             inkscape:connector-curvature="0" /></g></g></g><text
       transform="matrix(1,0,0,-1,142.6711,106.0761)"
       style="font-variant:normal;font-weight:bold;font-stretch:condensed;font-size:12.25790024px;font-family:'Myriad Pro';-inkscape-font-specification:SupriaSans-CondBold;writing-mode:lr-tb;fill:#ffffff;fill-opacity:1;fill-rule:nonzero;stroke:none"
       id="text7323"><tspan
         x="0 6.0431447 13.974006 20.495209 27.016411 35.462105 42.056854 48.149033 57.183102 64.182365 72.628059 78.72023 81.649872 88.759453 95.280655 102.39024 104.92763 112.03721 120.4829"
         y="0"
         sodipodi:role="line"
         id="tspan7325">SUPPORT@XOTICPC.COM</tspan></text>
<g
       id="g7327"><g
         id="g7329"
         clip-path="url(#clipPath7331)"><g
           id="g7335"
           transform="translate(389.7967,167.7773)"><path
             d="m 0,0 198.336,0 0,-30.742 -180.766,0 L 0,0 Z"
             style="fill:#c32026;fill-opacity:1;fill-rule:evenodd;stroke:none"
             id="path7337"
             inkscape:connector-curvature="0" /></g><g
           id="g7339"
           transform="translate(407.3678,125.676)"><path
             d="m 0,0 180.764,0 0,-30.742 -198.335,0 L 0,0 Z"
             style="fill:#c32026;fill-opacity:1;fill-rule:evenodd;stroke:none"
             id="path7341"
             inkscape:connector-curvature="0" /></g></g></g><text
       transform="matrix(1,0,0,-1,455.5964,148.1774)"
       style="font-variant:normal;font-weight:bold;font-stretch:condensed;font-size:12.25790024px;font-family:'Myriad Pro';-inkscape-font-specification:SupriaSans-CondBold;writing-mode:lr-tb;fill:#ffffff;fill-opacity:1;fill-rule:nonzero;stroke:none"
       id="text7343"><tspan
         x="0 6.2883029 10.051478 16.339781 22.628084 28.916386 32.679562 38.967865 45.256168 51.544468 55.307644 61.595947 67.884247 74.172554"
         y="0"
         sodipodi:role="line"
         id="tspan7345">1-888-773-7821</tspan><tspan
         x="11.117915 16.903645 19.833282 26.673191 32.704079 35.302753 42.412334 50.404484 57.906319"
         y="42.105885"
         sodipodi:role="line"
         id="tspan7347">LIVE CHAT</tspan></text>
<g
       id="g7379"
       transform="translate(-214.4,0)"><g
         id="g7381"
         clip-path="url(#clipPath7383)"
         transform="translate(214.4,0)"><g
           id="g7387"
           transform="translate(328.9833,734.6095)"><path
             d="M 0,0 C 2.719,0 4.937,2.218 4.937,4.937 4.937,7.656 2.719,9.874 0,9.874 -2.719,9.874 -4.937,7.656 -4.937,4.937 -4.937,2.218 -2.719,0 0,0"
             style="fill:#666666;fill-opacity:1;fill-rule:evenodd;stroke:none"
             id="path7389"
             inkscape:connector-curvature="0" /></g><path
           d="m 328.095,741.785 1.777,0 0,1.194 -1.777,0 0,-1.194 z m 0,-5.672 1.777,0 0,4.876 -1.777,0 0,-4.876 z"
           style="fill:#ffffff;fill-opacity:1;fill-rule:evenodd;stroke:none"
           id="path7391"
           inkscape:connector-curvature="0" /><g
           id="g7393"
           transform="translate(652.4456,734.6095)"><path
             d="M 0,0 C 2.719,0 4.937,2.218 4.937,4.937 4.937,7.656 2.719,9.874 0,9.874 -2.719,9.874 -4.937,7.656 -4.937,4.937 -4.937,2.218 -2.719,0 0,0"
             style="fill:#666666;fill-opacity:1;fill-rule:evenodd;stroke:none"
             id="path7395"
             inkscape:connector-curvature="0" /></g><path
           d="m 651.557,741.785 1.777,0 0,1.194 -1.777,0 0,-1.194 z m 0,-5.672 1.777,0 0,4.876 -1.777,0 0,-4.876 z"
           style="fill:#ffffff;fill-opacity:1;fill-rule:evenodd;stroke:none"
           id="path7397"
           inkscape:connector-curvature="0" /><g
           id="g7399"
           transform="translate(328.9833,570.8611)"><path
             d="M 0,0 C 2.719,0 4.937,2.218 4.937,4.937 4.937,7.656 2.719,9.874 0,9.874 -2.719,9.874 -4.937,7.656 -4.937,4.937 -4.937,2.218 -2.719,0 0,0"
             style="fill:#666666;fill-opacity:1;fill-rule:evenodd;stroke:none"
             id="path7401"
             inkscape:connector-curvature="0" /></g><path
           d="m 328.095,578.037 1.777,0 0,1.194 -1.777,0 0,-1.194 z m 0,-5.672 1.777,0 0,4.876 -1.777,0 0,-4.876 z"
           style="fill:#ffffff;fill-opacity:1;fill-rule:evenodd;stroke:none"
           id="path7403"
           inkscape:connector-curvature="0" /><g
           id="g7405"
           transform="translate(652.4456,570.8611)"><path
             d="M 0,0 C 2.719,0 4.937,2.218 4.937,4.937 4.937,7.656 2.719,9.874 0,9.874 -2.719,9.874 -4.937,7.656 -4.937,4.937 -4.937,2.218 -2.719,0 0,0"
             style="fill:#666666;fill-opacity:1;fill-rule:evenodd;stroke:none"
             id="path7407"
             inkscape:connector-curvature="0" /></g><path
           d="m 651.557,578.037 1.777,0 0,1.194 -1.777,0 0,-1.194 z m 0,-5.672 1.777,0 0,4.876 -1.777,0 0,-4.876 z"
           style="fill:#ffffff;fill-opacity:1;fill-rule:evenodd;stroke:none"
           id="path7409"
           inkscape:connector-curvature="0" /><g
           id="g7411"
           transform="translate(328.9833,380.865)"><path
             d="M 0,0 C 2.719,0 4.937,2.218 4.937,4.937 4.937,7.656 2.719,9.874 0,9.874 -2.719,9.874 -4.937,7.656 -4.937,4.937 -4.937,2.218 -2.719,0 0,0"
             style="fill:#666666;fill-opacity:1;fill-rule:evenodd;stroke:none"
             id="path7413"
             inkscape:connector-curvature="0" /></g><path
           d="m 328.095,388.041 1.777,0 0,1.194 -1.777,0 0,-1.194 z m 0,-5.673 1.777,0 0,4.876 -1.777,0 0,-4.876 z"
           style="fill:#ffffff;fill-opacity:1;fill-rule:evenodd;stroke:none"
           id="path7415"
           inkscape:connector-curvature="0" /><path
           d="m 0.073,67.75 701.926,0 0,-67.754 -701.926,0 0,67.754 z"
           style="fill:#000000;fill-opacity:1;fill-rule:evenodd;stroke:none"
           id="path7417"
           inkscape:connector-curvature="0" /><g
           id="g7419"
           transform="translate(524.2603,41.0479)"><path
             d="m 0,0 c -0.5,-0.222 -1.018,-0.396 -1.55,-0.523 0.586,0.557 1.027,1.254 1.276,2.032 0.07,0.222 -0.171,0.414 -0.371,0.295 -0.74,-0.439 -1.538,-0.768 -2.37,-0.979 -0.048,-0.012 -0.098,-0.018 -0.148,-0.018 -0.152,0 -0.299,0.056 -0.415,0.158 -0.885,0.78 -2.024,1.21 -3.207,1.21 -0.511,0 -1.028,-0.08 -1.535,-0.237 -1.571,-0.487 -2.784,-1.784 -3.165,-3.383 -0.142,-0.6 -0.181,-1.2 -0.114,-1.784 0.007,-0.068 -0.024,-0.114 -0.044,-0.136 -0.035,-0.039 -0.083,-0.061 -0.134,-0.061 -0.005,0 -0.011,0 -0.017,0.001 -3.44,0.319 -6.542,1.976 -8.735,4.666 -0.111,0.138 -0.326,0.121 -0.415,-0.032 -0.429,-0.737 -0.656,-1.579 -0.656,-2.437 0,-1.313 0.528,-2.552 1.445,-3.454 -0.386,0.091 -0.759,0.235 -1.106,0.427 -0.168,0.094 -0.374,-0.026 -0.376,-0.218 -0.024,-1.952 1.118,-3.689 2.831,-4.471 -0.035,0 -0.07,-10e-4 -0.104,-10e-4 -0.271,0 -0.546,0.026 -0.817,0.078 -0.188,0.036 -0.347,-0.143 -0.289,-0.326 0.556,-1.735 2.05,-3.014 3.837,-3.304 -1.483,-0.996 -3.211,-1.521 -5.009,-1.521 l -0.56,0 c -0.173,0 -0.319,-0.112 -0.363,-0.28 -0.043,-0.164 0.036,-0.338 0.184,-0.424 2.026,-1.179 4.337,-1.802 6.684,-1.802 2.055,0 3.976,0.408 5.712,1.212 1.591,0.737 2.997,1.791 4.179,3.131 1.102,1.25 1.963,2.692 2.56,4.286 0.569,1.521 0.87,3.143 0.87,4.692 l 0,0.073 c 0,0.249 0.112,0.483 0.308,0.642 0.745,0.605 1.393,1.317 1.927,2.115 C 0.454,-0.162 0.232,0.103 0,0"
             style="fill:#ffffff;fill-opacity:1;fill-rule:evenodd;stroke:none"
             id="path7421"
             inkscape:connector-curvature="0" /></g><g
           id="g7423"
           transform="translate(572.9655,33.4976)"><path
             d="m 0,0 -7.226,-3.446 c -0.193,-0.092 -0.415,0.048 -0.415,0.261 l 0,7.109 c 0,0.216 0.228,0.356 0.421,0.258 L 0.006,0.521 C 0.221,0.412 0.217,0.104 0,0 m 3.712,9.725 -15.449,0 c -3.031,0 -5.489,-2.457 -5.489,-5.488 l 0,-7.723 c 0,-3.031 2.458,-5.488 5.489,-5.488 l 15.449,0 c 3.031,0 5.488,2.457 5.488,5.488 l 0,7.723 c 0,3.031 -2.457,5.488 -5.488,5.488"
             style="fill:#ffffff;fill-opacity:1;fill-rule:evenodd;stroke:none"
             id="path7425"
             inkscape:connector-curvature="0" /></g><g
           id="g7427"
           transform="translate(134.168,43.223)"><path
             d="m 0,0 -13.66,0 c -1.391,0 -2.519,-1.128 -2.519,-2.52 l 0,-13.659 c 0,-1.392 1.128,-2.52 2.519,-2.52 l 6.737,0 0.012,6.682 -1.736,0 c -0.226,0 -0.409,0.182 -0.41,0.408 l -0.008,2.154 c -0.001,0.227 0.183,0.411 0.409,0.411 l 1.733,0 0,2.081 c 0,2.416 1.475,3.731 3.63,3.731 l 1.768,0 c 0.226,0 0.41,-0.184 0.41,-0.41 l 0,-1.816 c 0,-0.226 -0.184,-0.41 -0.41,-0.41 l -1.085,0 c -1.172,0 -1.398,-0.557 -1.398,-1.374 l 0,-1.802 2.574,0 c 0.245,0 0.436,-0.214 0.407,-0.458 l -0.255,-2.154 c -0.025,-0.206 -0.2,-0.361 -0.407,-0.361 l -2.308,0 -0.011,-6.682 4.008,0 c 1.392,0 2.52,1.128 2.52,2.52 l 0,13.659 C 2.52,-1.128 1.392,0 0,0"
             style="fill:#ffffff;fill-opacity:1;fill-rule:evenodd;stroke:none"
             id="path7429"
             inkscape:connector-curvature="0" /></g><g
           id="g7431"
           transform="translate(185.6937,33.8737)"><path
             d="m 0,0 c 0,-1.534 -1.247,-2.782 -2.781,-2.782 -1.533,0 -2.781,1.248 -2.781,2.782 0,1.533 1.248,2.78 2.781,2.78 C -1.247,2.78 0,1.533 0,0 m 1.852,-7.315 -9.265,0 c -1.479,0 -2.682,1.203 -2.682,2.682 l 0,9.265 c 0,1.479 1.203,2.682 2.682,2.682 l 9.265,0 c 1.479,0 2.682,-1.203 2.682,-2.682 l 0,-9.265 c 0,-1.479 -1.203,-2.682 -2.682,-2.682 m -13.982,2.682 0,9.265 c 0,2.602 2.116,4.717 4.717,4.717 l 9.265,0 c 2.601,0 4.717,-2.115 4.717,-4.717 l 0,-9.265 c 0,-2.601 -2.116,-4.717 -4.717,-4.717 l -9.265,0 c -2.601,0 -4.717,2.116 -4.717,4.717 M 1.051,4.959 c 0,0.629 0.511,1.14 1.139,1.14 0.628,0 1.139,-0.511 1.139,-1.14 C 3.329,4.331 2.818,3.82 2.19,3.82 1.562,3.82 1.051,4.331 1.051,4.959 M -7.597,0 c 0,-2.656 2.161,-4.816 4.816,-4.816 2.656,0 4.816,2.16 4.816,4.816 0,2.655 -2.16,4.816 -4.816,4.816 -2.655,0 -4.816,-2.161 -4.816,-4.816"
             style="fill:#ffffff;fill-opacity:1;fill-rule:evenodd;stroke:none"
             id="path7433"
             inkscape:connector-curvature="0" /></g><g
           id="g7435"
           transform="translate(343.0074,38.9877)"><path
             d="m 0,0 0,0 -15.652,0 0,-3.989 -2.762,0 0,3.435 c 0,1.381 0.205,2.277 0.614,2.694 0.409,0.418 1.312,0.623 2.702,0.623 l 14.544,0 C 0.827,2.763 1.722,2.558 2.14,2.14 2.557,1.723 2.762,0.827 2.762,-0.554 l 0,-3.435 L 0,-3.989 0,0 Z m 0,-9.206 -15.652,0 0,3.989 -2.762,0 0,-3.436 c 0,-1.389 0.205,-2.293 0.614,-2.702 0.409,-0.409 1.312,-0.614 2.702,-0.614 l 14.544,0 c 1.381,0 2.276,0.205 2.694,0.614 0.417,0.409 0.622,1.313 0.622,2.702 l 0,3.436 -2.762,0 0,-3.989 z M 15.746,0 l 0,0 0,-11.969 -2.762,0 0,14.732 6.751,0 0,-2.763 -3.989,0 z m -6.752,0 -3.989,0 0,2.763 6.751,0 0,-14.732 -2.762,0 0,11.969 z m 16.488,2.763 0,0 0,-6.752 -2.763,0 0,6.752 2.763,0 z m 0,-14.732 -2.762,0 0,6.752 2.762,0 0,-6.752 z M 30.954,0 l 0,0 0,-3.989 -2.761,0 0,3.435 c 0,1.381 0.204,2.277 0.622,2.694 0.417,0.418 1.313,0.623 2.685,0.623 l 17.869,0 0,-2.763 -18.415,0 z m 0,-9.206 0,3.989 -2.761,0 0,-3.436 c 0,-1.381 0.204,-2.276 0.622,-2.693 0.417,-0.418 1.313,-0.623 2.685,-0.623 l 17.869,0 0,2.763 -18.415,0 z m -55.83,-2.763 4.723,0 -8.509,6.752 -4.092,0 -8.516,-6.752 4.706,0 5.158,3.99 1.389,0 5.141,-3.99 z m 0,14.732 0,0 4.714,0 -8.508,-6.736 -4.075,0 -8.542,6.736 4.723,0 5.158,-3.973 1.389,0 5.141,3.973 z"
             style="fill:#ffffff;fill-opacity:1;fill-rule:evenodd;stroke:none"
             id="path7437"
             inkscape:connector-curvature="0" /></g><g
           id="g7439"
           transform="translate(421.3619,29.7814)"><path
             d="m 0,0 0,3.989 -2.763,0 0,-3.435 c 0,-1.382 0.205,-2.277 0.623,-2.694 0.418,-0.418 1.313,-0.622 2.686,-0.622 l 17.868,0 0,2.762 L 0,0 Z m 0,9.206 0,0 0,-3.989 -2.763,0 0,3.436 c 0,1.38 0.205,2.276 0.623,2.693 0.418,0.418 1.313,0.623 2.686,0.623 l 17.868,0 0,-2.763 -18.414,0 z m -23.657,-11.968 0,3.989 15.098,0 c 1.474,0 2.378,0.119 2.702,0.35 0.409,0.298 0.614,1.1 0.614,2.412 l -21.176,0 0,-6.751 2.762,0 z m 18.414,7.979 0,0 0,3.436 c 0,1.38 -0.205,2.276 -0.623,2.693 -0.417,0.418 -1.312,0.623 -2.693,0.623 l -17.86,0 0,-6.752 21.176,0 z m -2.762,2.762 0,0 -15.652,0 0,1.227 15.652,0 0,-1.227 z"
             style="fill:#c32026;fill-opacity:1;fill-rule:evenodd;stroke:none"
             id="path7441"
             inkscape:connector-curvature="0" /></g><g
           id="g7443"
           transform="translate(303.2164,33.8729)"><path
             d="M 0,0 -2.844,-4.976 -6.144,0 -2.844,4.976 0,0 Z m -3.695,-6.464 0,0 -3.443,4.966 -4.057,-6.118 4.057,-4.873 3.443,6.025 z m 0,12.928 0,0 -3.443,6.025 -4.057,-4.872 4.057,-6.117 3.443,4.964 z M -8.176,0 -12.429,-6.133 -17.537,0 -12.429,6.134 -8.176,0 Z m -32.744,0 2.844,4.976 3.3,-4.976 -3.3,-4.976 L -40.92,0 Z m 3.695,-6.464 0,0 3.443,-6.025 4.056,4.873 -4.056,6.118 -3.443,-4.966 z m 0,12.928 0,0 3.443,-4.964 4.056,6.117 -4.056,4.872 -3.443,-6.025 z M -32.744,0 -28.491,6.134 -23.383,0 -28.491,-6.133 -32.744,0 Z m 12.284,-20.459 0,0 4.976,2.843 -4.976,3.3 -4.976,-3.3 4.976,-2.843 z m -6.464,3.694 -6.025,3.443 4.872,4.057 6.117,-4.057 -4.964,-3.443 z m 12.928,0 -4.965,3.443 6.117,4.057 4.873,-4.057 -6.025,-3.443 z m -6.464,4.482 0,0 6.134,4.252 -6.134,5.109 -6.134,-5.109 6.134,-4.252 z m 0,32.744 0,0 -4.976,-2.845 4.976,-3.298 4.976,3.298 -4.976,2.845 z m -6.464,-3.695 4.964,-3.443 -6.117,-4.057 -4.872,4.057 6.025,3.443 z m 12.928,0 6.025,-3.443 -4.873,-4.057 -6.117,4.057 4.965,3.443 z m -6.464,-4.481 0,0 -6.134,-4.253 6.134,-5.108 6.134,5.108 -6.134,4.253 z"
             style="fill:#c32026;fill-opacity:1;fill-rule:evenodd;stroke:none"
             id="path7445"
             inkscape:connector-curvature="0" /></g><g
           id="g7449"
           transform="translate(384.99,718.6745)"><path
             d="m 0,0 c -0.189,0.212 -0.372,0.435 -0.545,0.668 -1.021,1.173 -1.694,2.876 -1.873,4.764 -0.037,0.404 -0.052,0.71 -0.052,1.003 0,0.294 0.015,0.6 0.047,0.965 0.186,1.927 0.859,3.63 1.901,4.834 0.163,0.218 0.338,0.432 0.522,0.64 l -4.078,0 c -2.369,0 -4.294,-2.89 -4.294,-6.439 C -8.372,2.886 -6.447,0 -4.078,0 L 0,0 Z"
             style="fill:#c32026;fill-opacity:1;fill-rule:evenodd;stroke:none"
             id="path7451"
             inkscape:connector-curvature="0" /></g><g
           id="g7453"
           transform="translate(394.1782,725.6333)"><path
             d="m 0,0 c -0.043,0.082 -0.1,0.152 -0.16,0.22 l -0.139,0.111 c -0.081,0.065 -0.175,0.115 -0.273,0.151 -0.015,0.006 -0.031,0.011 -0.049,0.016 -0.058,0.021 -0.116,0.029 -0.176,0.036 -0.044,0.008 -0.089,0.017 -0.133,0.017 -0.592,0 -1.074,-0.483 -1.074,-1.075 0,-0.513 0.364,-0.942 0.846,-1.047 0.008,0 0.016,-0.003 0.021,-0.003 0.068,-0.016 0.136,-0.021 0.207,-0.021 0.11,0 0.214,0.021 0.314,0.05 l 0.042,0.015 c 0.314,0.113 0.548,0.359 0.655,0.661 0.003,0.01 0.005,0.023 0.01,0.034 l 0.024,0.193 C 0.144,-0.419 0.102,-0.196 0.005,-0.005 0.003,-0.005 0.003,-0.002 0,0"
             style="fill:#c32026;fill-opacity:1;fill-rule:evenodd;stroke:none"
             id="path7455"
             inkscape:connector-curvature="0" /></g><g
           id="g7457"
           transform="translate(397.9468,721.5423)"><path
             d="m 0,0 -0.186,-0.217 -0.285,0.033 c -0.749,0.09 -1.545,0.401 -2.23,0.742 0.208,-0.362 0.457,-0.658 0.692,-0.854 0.249,-0.209 0.367,-0.537 0.304,-0.854 -0.06,-0.314 -0.277,-0.563 -0.581,-0.665 -0.731,-0.246 -1.768,-0.537 -2.565,-0.537 -0.139,0 -0.272,0.011 -0.395,0.029 l -0.28,0.042 -0.124,0.259 c -0.338,0.715 -0.494,1.603 -0.565,2.392 -0.231,-0.391 -0.369,-0.789 -0.422,-1.116 -0.071,-0.438 -0.437,-0.755 -0.877,-0.755 -0.207,0 -0.409,0.076 -0.566,0.212 -0.723,0.613 -1.648,1.506 -1.962,2.274 l -0.107,0.261 0.157,0.239 c 0.508,0.762 1.34,1.435 2.056,1.925 -0.181,0.029 -0.364,0.047 -0.553,0.047 -0.335,0 -0.663,-0.047 -0.945,-0.138 -0.091,-0.032 -0.186,-0.045 -0.28,-0.045 -0.276,0 -0.53,0.123 -0.7,0.338 -0.165,0.21 -0.225,0.482 -0.163,0.744 0.223,0.924 0.598,2.155 1.138,2.781 l 0.185,0.215 0.283,-0.034 c 0.752,-0.086 1.546,-0.398 2.232,-0.739 -0.209,0.362 -0.456,0.655 -0.691,0.854 -0.249,0.21 -0.367,0.537 -0.307,0.854 0.061,0.315 0.281,0.563 0.584,0.665 0.859,0.289 2.145,0.635 2.96,0.509 l 0.28,-0.045 0.123,-0.257 c 0.338,-0.714 0.495,-1.603 0.563,-2.391 0.233,0.391 0.372,0.786 0.424,1.113 0.072,0.438 0.44,0.758 0.878,0.758 0.207,0 0.406,-0.077 0.566,-0.213 C -0.636,7.81 0.289,6.917 0.602,6.153 L 0.71,5.888 0.553,5.653 C 0.042,4.89 -0.788,4.214 -1.503,3.725 c 0.18,-0.029 0.364,-0.048 0.55,-0.048 0.338,0 0.662,0.051 0.948,0.142 C 0.348,3.932 0.744,3.813 0.972,3.526 1.14,3.313 1.197,3.041 1.134,2.779 0.914,1.857 0.538,0.626 0,0 m -2.037,10.006 -5.323,0 c -2.582,-1.069 -4.311,-3.644 -4.311,-6.439 0,-2.795 1.729,-5.366 4.311,-6.435 l 5.323,0 c 2.582,1.069 4.31,3.64 4.31,6.435 0,2.795 -1.728,5.37 -4.31,6.439"
             style="fill:#c32026;fill-opacity:1;fill-rule:evenodd;stroke:none"
             id="path7459"
             inkscape:connector-curvature="0" /></g><g
           id="g7461"
           transform="translate(401.8314,731.5481)"><path
             d="m 0,0 c -0.297,0 -0.537,0.241 -0.537,0.537 0,0.296 0.24,0.534 0.537,0.534 0.296,0 0.537,-0.238 0.537,-0.534 C 0.537,0.241 0.296,0 0,0 m 0,-13.948 c -0.297,0 -0.537,0.241 -0.537,0.537 0,0.296 0.24,0.537 0.537,0.537 0.296,0 0.537,-0.241 0.537,-0.537 0,-0.296 -0.241,-0.537 -0.537,-0.537 m -5.621,0.037 -0.095,-0.037 -5.735,0 -0.095,0.037 c -3.04,1.207 -5.084,4.209 -5.084,7.472 0,3.264 2.044,6.269 5.084,7.474 l 0.095,0.036 5.735,0 0.095,-0.036 c 3.041,-1.205 5.084,-4.21 5.084,-7.474 0,-3.263 -2.043,-6.265 -5.084,-7.472 m -5.644,-2.719 -0.538,0 0,0.537 -1.07,0 0,-0.537 -0.537,0 0,0.537 -1.075,0 0,-0.537 -0.537,0 0,0.537 -1.07,0 0,-0.537 -0.538,0 0,0.537 -1.074,0 0,-0.537 -0.533,0 0,0.537 -1.075,0 0,-0.537 -0.537,0 0,0.537 -1.071,0 0,-0.537 -0.537,0 0,0.537 -1.074,0 0,-0.537 -0.537,0 0,1.074 11.803,0 0,-1.074 z m -15.019,10.191 c 0,4.142 2.405,7.51 5.364,7.51 l 6.863,0 -1.124,-0.946 c -0.487,-0.411 -0.94,-0.896 -1.347,-1.437 -0.924,-1.067 -1.506,-2.557 -1.663,-4.223 -0.034,-0.366 -0.046,-0.641 -0.046,-0.904 0,-0.259 0.012,-0.534 0.041,-0.864 0.162,-1.705 0.747,-3.193 1.645,-4.23 0.43,-0.574 0.883,-1.058 1.37,-1.469 l 1.124,-0.946 -6.863,0 c -2.959,0 -5.364,3.368 -5.364,7.509 m 0,-7.509 c -0.296,0 -0.537,0.241 -0.537,0.537 0,0.296 0.241,0.537 0.537,0.537 0.296,0 0.534,-0.241 0.534,-0.537 0,-0.296 -0.238,-0.537 -0.534,-0.537 m 0,15.019 c 0.296,0 0.534,-0.238 0.534,-0.534 0,-0.296 -0.238,-0.537 -0.534,-0.537 -0.296,0 -0.537,0.241 -0.537,0.537 0,0.296 0.241,0.534 0.537,0.534 m -2.148,-2.145 -0.534,0 0,1.074 0.534,0 0,-1.074 z m 0,-11.266 -0.534,0 0,5.901 0.534,0 0,-5.901 z m 1.074,15.022 0,1.608 c 0,0.296 -0.241,0.537 -0.537,0.537 l -1.608,0 c -0.296,0 -0.537,-0.241 -0.537,-0.537 0,-0.296 0.241,-0.537 0.537,-0.537 l 1.071,0 0,-2.682 -1.608,0 0,-3.216 1.608,0 0,-1.612 -0.534,0 c -0.299,0 -0.537,-0.237 -0.537,-0.536 0,-0.296 0.238,-0.534 0.537,-0.534 l 0.534,0 0,-0.537 -1.608,0 0,-8.047 1.608,0 0,-0.537 -0.534,0 c -0.299,0 -0.537,-0.24 -0.537,-0.537 0,-0.295 0.238,-0.537 0.537,-0.537 l 0.534,0 0,-3.216 c 0,-0.299 0.241,-0.537 0.537,-0.537 0.296,0 0.537,0.238 0.537,0.537 l 0,2.682 3.219,0 0,-2.148 13.948,0 0,2.148 12.336,0 0,18.238 -29.503,0 z"
             style="fill:#c32026;fill-opacity:1;fill-rule:evenodd;stroke:none"
             id="path7463"
             inkscape:connector-curvature="0" /></g><g
           id="g7469"
           transform="translate(74.7641,381.0753)"><path
             d="m 0,0 c -0.983,0 -1.78,0.797 -1.78,1.78 0,0.984 0.797,1.781 1.78,1.781 0.983,0 1.78,-0.797 1.78,-1.781 C 1.78,0.797 0.983,0 0,0 m 0,-24.745 c -0.983,0 -1.78,0.797 -1.78,1.78 0,0.984 0.797,1.781 1.78,1.781 0.983,0 1.78,-0.797 1.78,-1.781 10e-4,-0.983 -0.797,-1.78 -1.78,-1.78 m -8.462,9.303 0.393,3.404 c 0.029,0.253 -0.036,0.483 -0.184,0.648 -0.229,0.257 -0.618,0.309 -0.964,0.114 l -5.383,-3.038 c -2.481,1.526 -4.137,4.264 -4.137,7.39 0,4.788 3.882,8.67 8.67,8.67 4.788,0 8.669,-3.882 8.669,-8.67 0,-4.239 -3.043,-7.765 -7.064,-8.518 m -12.151,-9.303 c -0.983,0 -1.78,0.797 -1.78,1.78 0,0.984 0.797,1.781 1.78,1.781 0.984,0 1.781,-0.797 1.781,-1.781 0,-0.983 -0.797,-1.78 -1.781,-1.78 m 0,28.306 c 0.984,0 1.781,-0.797 1.781,-1.781 0,-0.983 -0.797,-1.78 -1.781,-1.78 -0.983,0 -1.78,0.797 -1.78,1.78 0,0.984 0.797,1.781 1.78,1.781 M 3.388,3.101 c 0,1.517 -1.229,2.746 -2.746,2.746 l -21.97,0 c -1.517,0 -2.746,-1.229 -2.746,-2.746 l 0,-26.693 c 0,-1.517 1.229,-2.746 2.746,-2.746 l 21.97,0 c 1.517,0 2.746,1.229 2.746,2.746 l 0,26.693 z"
             style="fill:#c32026;fill-opacity:1;fill-rule:evenodd;stroke:none"
             id="path7471"
             inkscape:connector-curvature="0" /></g><g
           id="g7473"
           transform="translate(67.8223,374.1517)"><path
             d="m 0,0 c 0,-1.726 -1.4,-3.126 -3.126,-3.126 -1.726,0 -3.125,1.4 -3.125,3.126 0,1.727 1.399,3.125 3.125,3.125 C -1.4,3.125 0,1.727 0,0"
             style="fill:#c32026;fill-opacity:1;fill-rule:evenodd;stroke:none"
             id="path7475"
             inkscape:connector-curvature="0" /></g><path
           d="m 64.934,552.381 9.212,0 0,1.022 -9.212,0 0,-1.022 z"
           style="fill:#c32026;fill-opacity:1;fill-rule:evenodd;stroke:none"
           id="path7477"
           inkscape:connector-curvature="0" /><path
           d="m 56.231,550.844 2.047,0 0,2.559 -2.047,0 0,-2.559 z"
           style="fill:#c32026;fill-opacity:1;fill-rule:evenodd;stroke:none"
           id="path7479"
           inkscape:connector-curvature="0" /><path
           d="m 64.934,550.331 9.212,0 0,1.025 -9.212,0 0,-1.025 z"
           style="fill:#c32026;fill-opacity:1;fill-rule:evenodd;stroke:none"
           id="path7481"
           inkscape:connector-curvature="0" /><path
           d="m 63.396,552.381 0.512,0 0,1.022 -0.512,0 0,-1.022 z"
           style="fill:#c32026;fill-opacity:1;fill-rule:evenodd;stroke:none"
           id="path7483"
           inkscape:connector-curvature="0" /><path
           d="m 75.171,554.427 0.512,0 0,1.022 -0.512,0 0,-1.022 z"
           style="fill:#c32026;fill-opacity:1;fill-rule:evenodd;stroke:none"
           id="path7485"
           inkscape:connector-curvature="0" /><path
           d="m 75.171,552.381 0.512,0 0,1.022 -0.512,0 0,-1.022 z"
           style="fill:#c32026;fill-opacity:1;fill-rule:evenodd;stroke:none"
           id="path7487"
           inkscape:connector-curvature="0" /><g
           id="g7489"
           transform="translate(66.9804,564.1529)"><path
             d="m 0,0 1.025,0 0,0.513 -1.025,0 0,1.021 1.025,0 0,0.513 -1.025,0 0,1.025 1.025,0 0,1.022 1.022,0 0,1.024 1.025,0 0,-1.024 0.512,0 0,1.024 1.022,0 0,-1.024 0.513,0 0,1.024 1.025,0 0,-1.024 1.021,0 0,-1.022 1.026,0 0,-1.025 -1.026,0 0,-0.513 1.026,0 0,-1.021 -1.026,0 0,-0.513 1.026,0 0,-1.025 -1.026,0 0,-1.022 -1.021,0 0,-1.025 -1.025,0 0,1.025 -0.513,0 0,-1.025 -1.022,0 0,1.025 -0.512,0 0,-1.025 -1.025,0 0,1.025 -1.022,0 0,1.022 L 0,-1.025 0,0 Z m -0.15,-3.584 8.488,0 c 0.2,0 0.365,0.165 0.365,0.365 l 0,8.487 c 0,0.201 -0.165,0.363 -0.365,0.363 l -8.488,0 c -0.2,0 -0.362,-0.162 -0.362,-0.363 l 0,-8.487 c 0,-0.2 0.162,-0.365 0.362,-0.365"
             style="fill:#c32026;fill-opacity:1;fill-rule:evenodd;stroke:none"
             id="path7491"
             inkscape:connector-curvature="0" /></g><path
           d="m 63.396,554.427 0.512,0 0,1.022 -0.512,0 0,-1.022 z"
           style="fill:#c32026;fill-opacity:1;fill-rule:evenodd;stroke:none"
           id="path7493"
           inkscape:connector-curvature="0" /><path
           d="m 53.671,558.522 1.537,0 0,1.537 -1.537,0 0,-1.537 z"
           style="fill:#c32026;fill-opacity:1;fill-rule:evenodd;stroke:none"
           id="path7495"
           inkscape:connector-curvature="0" /><path
           d="m 75.171,556.475 0.512,0 0,1.025 -0.512,0 0,-1.025 z"
           style="fill:#c32026;fill-opacity:1;fill-rule:evenodd;stroke:none"
           id="path7497"
           inkscape:connector-curvature="0" /><path
           d="m 63.396,556.475 0.512,0 0,1.025 -0.512,0 0,-1.025 z"
           style="fill:#c32026;fill-opacity:1;fill-rule:evenodd;stroke:none"
           id="path7499"
           inkscape:connector-curvature="0" /><g
           id="g7501"
           transform="translate(77.7302,566.1995)"><path
             d="m 0,0 c -0.283,0 -0.513,0.231 -0.513,0.513 0,0.282 0.23,0.512 0.513,0.512 0.282,0 0.512,-0.23 0.512,-0.512 C 0.512,0.231 0.282,0 0,0 m 0,-3.581 c -0.283,0 -0.513,0.227 -0.513,0.509 0,0.283 0.23,0.513 0.513,0.513 0.282,0 0.512,-0.23 0.512,-0.513 0,-0.282 -0.23,-0.509 -0.512,-0.509 m -0.513,-7.169 c 0.283,0 0.513,-0.227 0.513,-0.509 0,-0.285 -0.23,-0.512 -0.513,-0.512 l -0.512,0 0,-1.026 0.512,0 c 0.283,0 0.513,-0.226 0.513,-0.512 0,-0.282 -0.23,-0.509 -0.513,-0.509 l -0.512,0 0,-1.025 0.512,0 c 0.283,0 0.513,-0.23 0.513,-0.513 0,-0.282 -0.23,-0.512 -0.513,-0.512 l -0.512,0 0,-1.022 -14.331,0 0,1.022 -0.512,0 c -0.283,0 -0.513,0.23 -0.513,0.512 0,0.283 0.23,0.513 0.513,0.513 l 0.512,0 0,1.025 -0.512,0 c -0.283,0 -0.513,0.227 -0.513,0.509 0,0.286 0.23,0.512 0.513,0.512 l 0.512,0 0,1.026 -0.512,0 c -0.283,0 -0.513,0.227 -0.513,0.512 0,0.282 0.23,0.509 0.513,0.509 l 0.512,0 0,1.026 -0.512,0 c -0.283,0 -0.513,0.229 -0.513,0.512 0,0.282 0.23,0.512 0.513,0.512 l 0.512,0 0,1.022 14.331,0 0,-1.022 0.512,0 C -0.23,-8.7 0,-8.93 0,-9.212 0,-9.495 -0.23,-9.724 -0.513,-9.724 l -0.512,0 0,-1.026 0.512,0 z m -15.355,9.728 c 0.282,0 0.512,-0.23 0.512,-0.512 0,-0.283 -0.23,-0.513 -0.512,-0.513 -0.283,0 -0.513,0.23 -0.513,0.513 0,0.282 0.23,0.512 0.513,0.512 m 0,2.047 c 0.282,0 0.512,-0.23 0.512,-0.512 0,-0.282 -0.23,-0.513 -0.512,-0.513 -0.283,0 -0.513,0.231 -0.513,0.513 0,0.282 0.23,0.512 0.513,0.512 m 1.534,-6.656 c 0.283,0 0.512,-0.227 0.512,-0.509 0,-0.283 -0.229,-0.513 -0.512,-0.513 -0.282,0 -0.509,0.23 -0.509,0.513 0,0.282 0.227,0.509 0.509,0.509 m 0,1.537 c 0.283,0 0.512,-0.23 0.512,-0.512 0,-0.282 -0.229,-0.512 -0.512,-0.512 -0.282,0 -0.509,0.23 -0.509,0.512 0,0.282 0.227,0.512 0.509,0.512 m 0,1.535 c 0.283,0 0.512,-0.23 0.512,-0.513 0,-0.282 -0.229,-0.509 -0.512,-0.509 -0.282,0 -0.509,0.227 -0.509,0.509 0,0.283 0.227,0.513 0.509,0.513 m 0,1.537 c 0.283,0 0.512,-0.23 0.512,-0.512 0,-0.283 -0.229,-0.513 -0.512,-0.513 -0.282,0 -0.509,0.23 -0.509,0.513 0,0.282 0.227,0.512 0.509,0.512 m 0,1.535 c 0.283,0 0.512,-0.23 0.512,-0.513 0,-0.282 -0.229,-0.512 -0.512,-0.512 -0.282,0 -0.509,0.23 -0.509,0.512 0,0.283 0.227,0.513 0.509,0.513 m 0,1.534 c 0.283,0 0.512,-0.227 0.512,-0.509 0,-0.283 -0.229,-0.513 -0.512,-0.513 -0.282,0 -0.509,0.23 -0.509,0.513 0,0.282 0.227,0.509 0.509,0.509 m 2.05,1.175 c 0,0.765 0.619,1.384 1.384,1.384 l 8.488,0 c 0.765,0 1.387,-0.619 1.387,-1.384 l 0,-8.488 c 0,-0.765 -0.622,-1.387 -1.387,-1.387 l -8.488,0 c -0.765,0 -1.384,0.622 -1.384,1.387 l 0,8.488 z m 1.022,3.943 1.025,0 0,-0.509 -1.025,0 0,0.509 z m 2.047,0 1.025,0 0,-0.509 -1.025,0 0,0.509 z m 2.05,0 1.022,0 0,-0.509 -1.022,0 0,0.509 z m 2.047,0 1.022,0 0,-0.509 -1.022,0 0,0.509 z m 2.046,0 1.025,0 0,-0.509 -1.025,0 0,0.509 z m -14.331,-13.305 -1.025,0 0,-0.513 c 0,-0.283 -0.229,-0.512 -0.513,-0.512 -0.282,0 -0.512,0.229 -0.512,0.512 l 0,0.513 -1.021,0 0,11.771 3.071,0 0,-11.771 z m -2.05,-4.097 c 0,0.283 0.23,0.513 0.512,0.513 0.284,0 0.513,-0.23 0.513,-0.513 0,-0.282 -0.229,-0.513 -0.513,-0.513 -0.282,0 -0.512,0.231 -0.512,0.513 m 1.538,-4.094 c 0.282,0 0.512,-0.23 0.512,-0.512 0,-0.282 -0.23,-0.513 -0.512,-0.513 l -0.513,0 0,-1.022 -4.093,0 0,1.022 -0.513,0 c -0.283,0 -0.512,0.231 -0.512,0.513 0,0.282 0.229,0.512 0.512,0.512 l 0.513,0 0,0.513 -0.513,0 c -0.283,0 -0.512,0.227 -0.512,0.509 0,0.286 0.229,0.512 0.512,0.512 l 0.513,0 0,1.026 4.093,0 0,-1.026 0.513,0 c 0.282,0 0.512,-0.226 0.512,-0.512 0,-0.282 -0.23,-0.509 -0.512,-0.509 l -0.513,0 0,-0.513 0.513,0 z m -3.585,4.094 c 0,-0.282 -0.229,-0.513 -0.512,-0.513 -0.282,0 -0.509,0.231 -0.509,0.513 0,0.283 0.227,0.513 0.509,0.513 0.283,0 0.512,-0.23 0.512,-0.513 m -3.581,5.119 3.581,0 0,-3.581 -3.581,0 0,3.581 z m 0.51,10.749 3.071,0 0,-8.703 -1.021,0 0,-0.509 c 0,-0.285 -0.23,-0.513 -0.513,-0.513 -0.283,0 -0.512,0.228 -0.512,0.513 l 0,0.509 -1.025,0 0,8.703 z m 4.097,-15.355 c 0.282,0 0.512,-0.23 0.512,-0.513 0,-0.282 -0.23,-0.513 -0.512,-0.513 -0.283,0 -0.513,0.231 -0.513,0.513 0,0.283 0.23,0.513 0.513,0.513 m -6.144,5.118 c -0.283,0 -0.513,0.23 -0.513,0.512 0,0.283 0.23,0.513 0.513,0.513 0.283,0 0.512,-0.23 0.512,-0.513 0,-0.282 -0.229,-0.512 -0.512,-0.512 m 0,-1.534 c -0.283,0 -0.513,0.227 -0.513,0.509 0,0.283 0.23,0.513 0.513,0.513 0.283,0 0.512,-0.23 0.512,-0.513 0,-0.282 -0.229,-0.509 -0.512,-0.509 m 0,-1.538 c -0.283,0 -0.513,0.231 -0.513,0.513 0,0.282 0.23,0.512 0.513,0.512 0.283,0 0.512,-0.23 0.512,-0.512 0,-0.282 -0.229,-0.513 -0.512,-0.513 m 27.13,14.334 0,0.509 c 0,0.286 -0.23,0.513 -0.512,0.513 -0.283,0 -0.513,-0.227 -0.513,-0.513 l 0,-0.509 -0.512,0 0,1.535 -11.259,0 0,-1.535 -0.512,0 0,0.509 c 0,0.286 -0.231,0.513 -0.513,0.513 -0.282,0 -0.513,-0.227 -0.513,-0.513 l 0,-0.509 -0.512,0 0,0.509 c 0,0.286 -0.227,0.513 -0.509,0.513 -0.283,0 -0.513,-0.227 -0.513,-0.513 l 0,-0.509 -13.309,0 0,-2.559 2.047,0 c 0.283,0 0.512,-0.23 0.512,-0.512 0,-0.283 -0.229,-0.513 -0.512,-0.513 l -2.047,0 0,-0.513 2.047,0 c 0.283,0 0.512,-0.227 0.512,-0.512 0,-0.282 -0.229,-0.509 -0.512,-0.509 l -2.047,0 0,-0.513 2.047,0 c 0.283,0 0.512,-0.23 0.512,-0.512 C -26.106,0.231 -26.335,0 -26.618,0 l -2.047,0 0,-10.237 2.047,0 c 0.283,0 0.512,-0.227 0.512,-0.513 0,-0.282 -0.229,-0.509 -0.512,-0.509 l -2.047,0 0,-0.512 2.047,0 c 0.283,0 0.512,-0.231 0.512,-0.513 0,-0.282 -0.229,-0.513 -0.512,-0.513 l -2.047,0 0,-0.512 2.047,0 c 0.283,0 0.512,-0.227 0.512,-0.509 0,-0.286 -0.229,-0.513 -0.512,-0.513 l -2.047,0 0,-0.512 2.047,0 c 0.283,0 0.512,-0.23 0.512,-0.513 0,-0.282 -0.229,-0.512 -0.512,-0.512 l -2.047,0 0,-0.51 2.047,0 c 0.283,0 0.512,-0.23 0.512,-0.512 0,-0.283 -0.229,-0.513 -0.512,-0.513 l -2.047,0 0,-1.534 30.712,0 0,25.593 -1.535,0 z"
             style="fill:#c32026;fill-opacity:1;fill-rule:evenodd;stroke:none"
             id="path7503"
             inkscape:connector-curvature="0" /></g><path
           d="m 54.184,564.153 1.025,0 0,6.653 -1.025,0 0,-6.653 z"
           style="fill:#c32026;fill-opacity:1;fill-rule:evenodd;stroke:none"
           id="path7505"
           inkscape:connector-curvature="0" /><path
           d="m 58.277,561.081 1.025,0 0,9.725 -1.025,0 0,-9.725 z"
           style="fill:#c32026;fill-opacity:1;fill-rule:evenodd;stroke:none"
           id="path7507"
           inkscape:connector-curvature="0" /><path
           d="m 75.171,550.331 0.512,0 0,1.025 -0.512,0 0,-1.025 z"
           style="fill:#c32026;fill-opacity:1;fill-rule:evenodd;stroke:none"
           id="path7509"
           inkscape:connector-curvature="0" /><path
           d="m 64.934,554.427 9.212,0 0,1.022 -9.212,0 0,-1.022 z"
           style="fill:#c32026;fill-opacity:1;fill-rule:evenodd;stroke:none"
           id="path7511"
           inkscape:connector-curvature="0" /><path
           d="m 63.396,550.331 0.512,0 0,1.025 -0.512,0 0,-1.025 z"
           style="fill:#c32026;fill-opacity:1;fill-rule:evenodd;stroke:none"
           id="path7513"
           inkscape:connector-curvature="0" /><path
           d="m 64.934,556.475 9.212,0 0,1.025 -9.212,0 0,-1.025 z"
           style="fill:#c32026;fill-opacity:1;fill-rule:evenodd;stroke:none"
           id="path7515"
           inkscape:connector-curvature="0" /><path
           d="m 69.027,563.128 4.096,0 0,4.096 -4.096,0 0,-4.096 z"
           style="fill:#c32026;fill-opacity:1;fill-rule:evenodd;stroke:none"
           id="path7517"
           inkscape:connector-curvature="0" /><path
           d="m 40.722,239.629 297.164,0 0,107.502 -297.164,0 0,-107.502 z"
           style="fill:#ffffff;fill-opacity:1;fill-rule:evenodd;stroke:#000000;stroke-width:3;stroke-linecap:butt;stroke-linejoin:miter;stroke-miterlimit:2.61299992;stroke-dasharray:none;stroke-opacity:1"
           id="path7519"
           inkscape:connector-curvature="0" /></g></g><text
       transform="matrix(1,0,0,-1,47.5917,330.3763)"
       style="font-variant:normal;font-weight:bold;font-stretch:condensed;font-size:10.52589989px;font-family:'Myriad Pro';-inkscape-font-specification:SupriaSans-CondBold;writing-mode:lr-tb;fill:#000000;fill-opacity:1;fill-rule:nonzero;stroke:none"
       id="text7521"><tspan
         x="0 5.2313724 10.925884 16.525663"
         y="0"
         sodipodi:role="line"
         id="tspan7523">TYPE</tspan><tspan
         x="0 5.1261134 10.789047 15.967791"
         y="26.251595"
         sodipodi:role="line"
         id="tspan7525">FREE</tspan><tspan
         x="0 6.8102574 11.999526 17.178268"
         y="52.503189"
         sodipodi:role="line"
         id="tspan7527">USED</tspan><tspan
         x="0 5.5997787 12.852124 21.757036 26.935778 32.598713 34.830204 42.08255 49.008591 51.240082 58.102966 65.355316 72.165573 77.828506"
         y="78.754784"
         sodipodi:role="line"
         id="tspan7529">POWER ON HOURS</tspan><tspan
         x="222.1386 229.14885 234.32759 239.51686 245.62187 251.28481 253.80051 259.40027 264.63165 267.14734 274.39969"
         y="0.0105259"
         sodipodi:role="line"
         id="tspan7531">DESCRIPTION</tspan><tspan
         x="222.1386 229.14885 234.32759 239.51686 245.62187 251.28481 253.80051 259.40027 264.63165 267.14734 274.39969"
         y="26.262119"
         sodipodi:role="line"
         id="tspan7533">DESCRIPTION</tspan><tspan
         x="222.1386 229.14885 234.32759 239.51686 245.62187 251.28481 253.80051 259.40027 264.63165 267.14734 274.39969"
         y="52.513714"
         sodipodi:role="line"
         id="tspan7535">DESCRIPTION</tspan><tspan
         x="222.1386 229.14885 234.32759 239.51686 245.62187 251.28481 253.80051 259.40027 264.63165 267.14734 274.39969"
         y="78.765312"
         sodipodi:role="line"
         id="tspan7537">DESCRIPTION</tspan></text>
<text
       transform="matrix(1,0,0,-1,410.9462,366.2544)"
       style="font-variant:normal;font-weight:bold;font-stretch:condensed;font-size:13.26220036px;font-family:'Myriad Pro';-inkscape-font-specification:SupriaSans-CondBold;writing-mode:lr-tb;fill:#ffffff;fill-opacity:1;fill-rule:nonzero;stroke:none"
       id="text7549"><tspan
         x="0 8.8326254 11.577901 16.100311 18.911898 27.744522 34.879585 38.049252 45.449558"
         y="0"
         sodipodi:role="line"
         id="tspan7551">D:\ DRIVE</tspan></text>
<text
       transform="matrix(1,0,0,-1,472.9989,367.5356)"
       style="font-variant:normal;font-weight:bold;font-stretch:condensed;font-size:9.54819965px;font-family:'Myriad Pro';-inkscape-font-specification:SupriaSans-CondBold;writing-mode:lr-tb;fill:#ffffff;fill-opacity:1;fill-rule:nonzero;stroke:none"
       id="text7553"><tspan
         x="0 2.7116888 4.7359071 9.8155499 15.659048 20.79598 25.541435 27.565653 33.84837 39.691868 47.368622 52.066334 54.090553"
         y="0"
         sodipodi:role="line"
         id="tspan7555">( PART NAME )</tspan></text>
<g
       id="g7557"><g
         id="g7559"
         clip-path="url(#clipPath7561)"><g
           id="g7565"
           transform="translate(652.4456,380.865)"><path
             d="M 0,0 C 2.719,0 4.937,2.218 4.937,4.937 4.937,7.656 2.719,9.874 0,9.874 -2.719,9.874 -4.937,7.656 -4.937,4.937 -4.937,2.218 -2.719,0 0,0"
             style="fill:#666666;fill-opacity:1;fill-rule:evenodd;stroke:none"
             id="path7567"
             inkscape:connector-curvature="0" /></g><path
           d="m 651.557,388.041 1.777,0 0,1.194 -1.777,0 0,-1.194 z m 0,-5.673 1.777,0 0,4.876 -1.777,0 0,-4.876 z"
           style="fill:#ffffff;fill-opacity:1;fill-rule:evenodd;stroke:none"
           id="path7569"
           inkscape:connector-curvature="0" /><g
           id="g7571"
           transform="translate(398.2266,381.0753)"><path
             d="m 0,0 c -0.983,0 -1.78,0.797 -1.78,1.78 0,0.984 0.797,1.781 1.78,1.781 0.983,0 1.78,-0.797 1.78,-1.781 C 1.78,0.797 0.983,0 0,0 m 0,-24.745 c -0.983,0 -1.78,0.797 -1.78,1.78 0,0.984 0.797,1.781 1.78,1.781 0.983,0 1.78,-0.797 1.78,-1.781 10e-4,-0.983 -0.797,-1.78 -1.78,-1.78 m -8.462,9.303 0.393,3.404 c 0.029,0.253 -0.036,0.483 -0.184,0.648 -0.229,0.257 -0.618,0.309 -0.964,0.114 l -5.383,-3.038 c -2.481,1.526 -4.137,4.264 -4.137,7.39 0,4.788 3.882,8.67 8.67,8.67 4.788,0 8.669,-3.882 8.669,-8.67 0,-4.239 -3.043,-7.765 -7.064,-8.518 m -12.151,-9.303 c -0.983,0 -1.78,0.797 -1.78,1.78 0,0.984 0.797,1.781 1.78,1.781 0.984,0 1.781,-0.797 1.781,-1.781 0,-0.983 -0.797,-1.78 -1.781,-1.78 m 0,28.306 c 0.984,0 1.781,-0.797 1.781,-1.781 0,-0.983 -0.797,-1.78 -1.781,-1.78 -0.983,0 -1.78,0.797 -1.78,1.78 0,0.984 0.797,1.781 1.78,1.781 M 3.388,3.101 c 0,1.517 -1.229,2.746 -2.746,2.746 l -21.97,0 c -1.517,0 -2.746,-1.229 -2.746,-2.746 l 0,-26.693 c 0,-1.517 1.229,-2.746 2.746,-2.746 l 21.97,0 c 1.517,0 2.746,1.229 2.746,2.746 l 0,26.693 z"
             style="fill:#c32026;fill-opacity:1;fill-rule:evenodd;stroke:none"
             id="path7573"
             inkscape:connector-curvature="0" /></g><g
           id="g7575"
           transform="translate(391.2849,374.1517)"><path
             d="m 0,0 c 0,-1.726 -1.4,-3.126 -3.125,-3.126 -1.727,0 -3.126,1.4 -3.126,3.126 0,1.727 1.399,3.125 3.126,3.125 C -1.4,3.125 0,1.727 0,0"
             style="fill:#c32026;fill-opacity:1;fill-rule:evenodd;stroke:none"
             id="path7577"
             inkscape:connector-curvature="0" /></g></g></g><text
       transform="matrix(1,0,0,-1,371.0543,330.3763)"
       style="font-variant:normal;font-weight:bold;font-stretch:condensed;font-size:10.52589989px;font-family:'Myriad Pro';-inkscape-font-specification:SupriaSans-CondBold;writing-mode:lr-tb;fill:#000000;fill-opacity:1;fill-rule:nonzero;stroke:none"
       id="text7579"><tspan
         x="0 5.2313724 10.925884 16.525663"
         y="0"
         sodipodi:role="line"
         id="tspan7581">TYPE</tspan><tspan
         x="0 5.1261134 10.789047 15.967791"
         y="26.251595"
         sodipodi:role="line"
         id="tspan7583">FREE</tspan><tspan
         x="0 6.8102574 11.999526 17.178268"
         y="52.503189"
         sodipodi:role="line"
         id="tspan7585">USED</tspan><tspan
         x="0 5.5997787 12.852124 21.757036 26.935778 32.598713 34.830204 42.08255 49.008591 51.240082 58.102966 65.355316 72.165573 77.828506"
         y="78.754784"
         sodipodi:role="line"
         id="tspan7587">POWER ON HOURS</tspan><tspan
         x="222.1386 229.14885 234.32759 239.51686 245.62187 251.28481 253.80051 259.40027 264.63165 267.14734 274.39969"
         y="0.0105259"
         sodipodi:role="line"
         id="tspan7589">DESCRIPTION</tspan><tspan
         x="222.1386 229.14885 234.32759 239.51686 245.62187 251.28481 253.80051 259.40027 264.63165 267.14734 274.39969"
         y="26.262119"
         sodipodi:role="line"
         id="tspan7591">DESCRIPTION</tspan><tspan
         x="222.1386 229.14885 234.32759 239.51686 245.62187 251.28481 253.80051 259.40027 264.63165 267.14734 274.39969"
         y="52.513714"
         sodipodi:role="line"
         id="tspan7593">DESCRIPTION</tspan><tspan
         x="222.1386 229.14885 234.32759 239.51686 245.62187 251.28481 253.80051 259.40027 264.63165 267.14734 274.39969"
         y="78.765312"
         sodipodi:role="line"
         id="tspan7595">DESCRIPTION</tspan></text>
<g
       id="g7597"><g
         id="g7599"
         clip-path="url(#clipPath7601)"><g
           id="g7605"
           transform="translate(395.31,567.9649)"><path
             d="m 0,0 c 0.025,-0.061 0.039,-0.121 0.039,-0.183 0.002,-0.062 -0.01,-0.121 -0.033,-0.181 -0.024,-0.059 -0.06,-0.113 -0.108,-0.16 l -0.772,-0.773 -0.705,0.705 0.799,0.799 c 0.045,0.046 0.096,0.077 0.153,0.096 0.056,0.019 0.114,0.026 0.175,0.021 0.06,-0.005 0.12,-0.022 0.181,-0.049 C -0.211,0.247 -0.157,0.21 -0.109,0.162 -0.061,0.114 -0.026,0.06 0,0 m -2.665,0.494 0.716,0.716 c 0.083,0.083 0.183,0.123 0.3,0.119 0.117,-0.004 0.227,-0.058 0.33,-0.161 C -1.214,1.063 -1.161,0.949 -1.163,0.827 -1.164,0.705 -1.209,0.601 -1.297,0.513 L -1.99,-0.181 -2.665,0.494 Z m 1.998,0.279 c 0.198,0.108 0.401,0.148 0.606,0.12 C 0.146,0.865 0.337,0.764 0.513,0.588 0.626,0.475 0.702,0.353 0.743,0.222 0.783,0.092 0.792,-0.043 0.771,-0.179 0.749,-0.316 0.702,-0.452 0.628,-0.586 0.553,-0.721 0.457,-0.846 0.339,-0.965 L -0.954,-2.258 -3.63,0.418 -2.198,1.85 c 0.094,0.094 0.198,0.158 0.313,0.193 0.116,0.035 0.232,0.047 0.349,0.035 0.117,-0.01 0.23,-0.043 0.341,-0.095 0.111,-0.053 0.207,-0.121 0.29,-0.204 0.131,-0.131 0.221,-0.286 0.27,-0.466 0.049,-0.179 0.038,-0.359 -0.032,-0.54 m -3.076,-3.068 0.969,0.968 1.375,-1.376 -0.429,-0.429 -0.301,0.301 c 0,-0.427 -0.142,-0.782 -0.427,-1.066 -0.175,-0.176 -0.376,-0.306 -0.601,-0.39 -0.224,-0.085 -0.455,-0.122 -0.693,-0.113 -0.238,0.008 -0.473,0.063 -0.707,0.164 -0.233,0.1 -0.447,0.247 -0.641,0.44 -0.183,0.184 -0.323,0.39 -0.418,0.619 -0.096,0.228 -0.146,0.462 -0.151,0.7 -0.005,0.239 0.036,0.474 0.123,0.703 0.086,0.23 0.222,0.438 0.409,0.625 0.251,0.25 0.519,0.414 0.804,0.487 0.286,0.075 0.563,0.068 0.831,-0.02 l -0.101,-0.675 c -0.201,0.065 -0.398,0.072 -0.59,0.021 -0.192,-0.052 -0.36,-0.149 -0.503,-0.292 -0.114,-0.113 -0.193,-0.241 -0.24,-0.383 -0.047,-0.142 -0.062,-0.287 -0.045,-0.437 0.017,-0.15 0.06,-0.297 0.132,-0.441 0.071,-0.145 0.168,-0.277 0.288,-0.398 0.126,-0.125 0.264,-0.222 0.413,-0.292 0.15,-0.069 0.299,-0.109 0.45,-0.119 0.151,-0.009 0.298,0.011 0.441,0.061 0.144,0.05 0.272,0.132 0.385,0.244 0.259,0.259 0.371,0.615 0.335,1.067 l -0.188,0.189 -0.539,-0.539 -0.381,0.381 z m 10.06,0.993 -0.56,-0.56 -0.823,0.823 0.56,0.56 0.823,-0.823 z m -1.12,-1.12 -0.56,-0.56 -0.823,0.823 0.56,0.561 0.823,-0.824 z m -1.12,-1.12 -0.56,-0.561 -0.824,0.824 0.561,0.561 0.823,-0.824 z m -1.12,-1.12 -0.56,-0.56 -0.824,0.823 0.56,0.56 0.824,-0.823 z m -1.121,-1.121 -0.56,-0.56 -0.823,0.824 0.56,0.56 0.823,-0.824 z m -1.12,-1.12 -0.56,-0.56 -0.824,0.823 0.561,0.561 0.823,-0.824 z m -1.12,-1.12 -0.56,-0.56 -0.824,0.823 0.561,0.56 0.823,-0.823 z m -1.12,-1.12 -0.561,-0.56 -0.823,0.823 0.561,0.56 0.823,-0.823 z m -13.156,-7.974 -3.925,3.925 L -1.374,4.04 2.551,0.115 -14.68,-17.117 Z m 9.818,4.636 -0.56,-0.56 -0.823,0.824 0.56,0.56 0.823,-0.824 z m -1.12,-1.12 -0.56,-0.56 -0.823,0.823 0.56,0.561 0.823,-0.824 z m -1.12,-1.12 -0.56,-0.56 -0.824,0.823 0.561,0.561 0.823,-0.824 z m -1.12,-1.12 -0.56,-0.56 -0.824,0.823 0.56,0.56 0.824,-0.823 z m -1.12,-1.12 -0.56,-0.561 -0.824,0.824 0.56,0.56 0.824,-0.823 z m -1.121,-1.121 -0.56,-0.56 -0.823,0.824 0.56,0.56 0.823,-0.824 z m -1.12,-1.12 -0.56,-0.56 -0.824,0.823 0.56,0.56 0.824,-0.823 z m -1.12,-1.12 -0.561,-0.561 -0.823,0.824 0.561,0.56 0.823,-0.823 z M 6.054,0.082 6.614,0.642 7.437,-0.182 6.878,-0.742 6.054,0.082 Z m -19.877,-21.524 -0.561,-0.561 -0.823,0.824 0.56,0.56 0.824,-0.823 z M 0.108,8.859 -23.424,-14.673 c -0.127,-0.126 -0.127,-0.331 0,-0.457 l 2.24,-2.241 c 0.127,-0.126 0.331,-0.126 0.458,0 l 0.984,0.984 c 0.277,0.278 0.728,0.278 1.006,0 0.277,-0.277 0.277,-0.728 0,-1.005 l -0.985,-0.984 c -0.126,-0.127 -0.125,-0.332 0,-0.458 l 0.869,-0.869 c 0.127,-0.126 0.331,-0.126 0.458,0 l 0.984,0.984 c 0.277,0.278 0.729,0.277 1.006,0 0.278,-0.277 0.278,-0.728 0,-1.006 l -0.984,-0.984 c -0.126,-0.126 -0.127,-0.331 0,-0.457 l 1.097,-1.097 c 0.126,-0.127 0.331,-0.126 0.457,0 l 0.968,-0.968 11.233,11.233 -0.968,0.968 1.066,1.066 0.968,-0.968 L 8.666,0.3 7.698,1.269 c 0.126,0.126 0.127,0.331 0,0.457 L 6.601,2.823 C 6.475,2.949 6.27,2.949 6.144,2.823 L 5.16,1.839 C 4.882,1.562 4.431,1.561 4.154,1.839 3.876,2.116 3.876,2.568 4.153,2.845 l 0.985,0.984 c 0.126,0.127 0.126,0.331 0,0.458 L 4.269,5.156 c -0.126,0.125 -0.331,0.126 -0.458,0 L 2.827,4.171 C 2.55,3.894 2.098,3.893 1.821,4.171 1.544,4.448 1.544,4.9 1.822,5.177 l 0.984,0.984 c 0.126,0.126 0.126,0.331 0,0.458 l -2.241,2.24 c -0.126,0.127 -0.331,0.127 -0.457,0"
             style="fill:#c32026;fill-opacity:1;fill-rule:evenodd;stroke:none"
             id="path7607"
             inkscape:connector-curvature="0" /></g><g
           id="g7617"
           transform="translate(391.6536,131.3546)"><path
             d="M 0,0 -5.645,-9.879 -12.197,0 -5.645,9.879 0,0 Z m -7.336,-12.832 0,0 -6.835,9.858 -8.053,-12.145 8.053,-9.674 6.835,11.961 z m 0,25.665 0,0 -6.835,11.961 -8.053,-9.673 8.053,-12.144 6.835,9.856 z M -16.231,0 -24.675,-12.176 -34.814,0 -24.675,12.177 -16.231,0 Z M -81.236,0 -75.589,9.879 -69.038,0 -75.589,-9.879 -81.236,0 Z m 7.336,-12.832 0,0 6.835,-11.961 8.053,9.674 -8.053,12.145 -6.835,-9.858 z m 0,25.665 0,0 6.835,-9.856 8.053,12.144 -8.053,9.673 L -73.9,12.833 Z M -65.005,0 -56.561,12.177 -46.42,0 -56.561,-12.176 -65.005,0 Z m 24.388,-40.616 0,0 9.877,5.646 -9.877,6.55 -9.879,-6.55 9.879,-5.646 z m -12.833,7.335 -11.96,6.834 9.671,8.054 12.145,-8.054 -9.856,-6.834 z m 25.665,0 -9.857,6.834 12.145,8.054 9.673,-8.054 -11.961,-6.834 z m -12.832,8.896 0,0 12.176,8.442 -12.176,10.142 -12.177,-10.142 12.177,-8.442 z m 0,65.003 0,0 -9.879,-5.646 9.879,-6.549 9.877,6.549 -9.877,5.646 z m -12.833,-7.335 9.856,-6.835 -12.145,-8.053 -9.671,8.053 11.96,6.835 z m 25.665,0 11.961,-6.835 -9.673,-8.053 -12.145,8.053 9.857,6.835 z m -12.832,-8.895 0,0 -12.177,-8.443 12.177,-10.141 12.176,10.141 -12.176,8.443 z"
             style="fill:#ffffff;fill-opacity:1;fill-rule:evenodd;stroke:none"
             id="path7619"
             inkscape:connector-curvature="0" /></g><g
           id="g7621"
           transform="translate(47.1058,675.7082)"><path
             d="M 0,0 282.809,0"
             style="fill:none;stroke:#bcbcbc;stroke-width:0.5;stroke-linecap:butt;stroke-linejoin:miter;stroke-miterlimit:2.61299992;stroke-dasharray:none;stroke-opacity:1"
             id="path7623"
             inkscape:connector-curvature="0" /></g><g
           id="g7625"
           transform="translate(47.1058,647.6075)"><path
             d="M 0,0 282.809,0"
             style="fill:none;stroke:#bcbcbc;stroke-width:0.5;stroke-linecap:butt;stroke-linejoin:miter;stroke-miterlimit:2.61299992;stroke-dasharray:none;stroke-opacity:1"
             id="path7627"
             inkscape:connector-curvature="0" /></g><g
           id="g7629"
           transform="translate(47.1058,622.539)"><path
             d="M 0,0 282.809,0"
             style="fill:none;stroke:#bcbcbc;stroke-width:0.5;stroke-linecap:butt;stroke-linejoin:miter;stroke-miterlimit:2.61299992;stroke-dasharray:none;stroke-opacity:1"
             id="path7631"
             inkscape:connector-curvature="0" /></g><g
           id="g7633"
           transform="translate(371.5377,675.7082)"><path
             d="M 0,0 282.809,0"
             style="fill:none;stroke:#bcbcbc;stroke-width:0.5;stroke-linecap:butt;stroke-linejoin:miter;stroke-miterlimit:2.61299992;stroke-dasharray:none;stroke-opacity:1"
             id="path7635"
             inkscape:connector-curvature="0" /></g><g
           id="g7637"
           transform="translate(371.5377,647.6075)"><path
             d="M 0,0 282.809,0"
             style="fill:none;stroke:#bcbcbc;stroke-width:0.5;stroke-linecap:butt;stroke-linejoin:miter;stroke-miterlimit:2.61299992;stroke-dasharray:none;stroke-opacity:1"
             id="path7639"
             inkscape:connector-curvature="0" /></g><g
           id="g7641"
           transform="translate(371.5377,622.539)"><path
             d="M 0,0 282.809,0"
             style="fill:none;stroke:#bcbcbc;stroke-width:0.5;stroke-linecap:butt;stroke-linejoin:miter;stroke-miterlimit:2.61299992;stroke-dasharray:none;stroke-opacity:1"
             id="path7643"
             inkscape:connector-curvature="0" /></g><g
           id="g7645"
           transform="translate(371.5377,510.6844)"><path
             d="M 0,0 282.809,0"
             style="fill:none;stroke:#bcbcbc;stroke-width:0.5;stroke-linecap:butt;stroke-linejoin:miter;stroke-miterlimit:2.61299992;stroke-dasharray:none;stroke-opacity:1"
             id="path7647"
             inkscape:connector-curvature="0" /></g><g
           id="g7649"
           transform="translate(371.5377,484.5837)"><path
             d="M 0,0 282.809,0"
             style="fill:none;stroke:#bcbcbc;stroke-width:0.5;stroke-linecap:butt;stroke-linejoin:miter;stroke-miterlimit:2.61299992;stroke-dasharray:none;stroke-opacity:1"
             id="path7651"
             inkscape:connector-curvature="0" /></g><g
           id="g7653"
           transform="translate(371.5377,457.5152)"><path
             d="M 0,0 282.809,0"
             style="fill:none;stroke:#bcbcbc;stroke-width:0.5;stroke-linecap:butt;stroke-linejoin:miter;stroke-miterlimit:2.61299992;stroke-dasharray:none;stroke-opacity:1"
             id="path7655"
             inkscape:connector-curvature="0" /></g><g
           id="g7657"
           transform="translate(371.5377,431.9306)"><path
             d="M 0,0 282.809,0"
             style="fill:none;stroke:#bcbcbc;stroke-width:0.5;stroke-linecap:butt;stroke-linejoin:miter;stroke-miterlimit:2.61299992;stroke-dasharray:none;stroke-opacity:1"
             id="path7659"
             inkscape:connector-curvature="0" /></g><g
           id="g7661"
           transform="translate(46.9,510.6844)"><path
             d="M 0,0 282.809,0"
             style="fill:none;stroke:#bcbcbc;stroke-width:0.5;stroke-linecap:butt;stroke-linejoin:miter;stroke-miterlimit:2.61299992;stroke-dasharray:none;stroke-opacity:1"
             id="path7663"
             inkscape:connector-curvature="0" /></g><g
           id="g7665"
           transform="translate(46.9,484.5837)"><path
             d="M 0,0 282.809,0"
             style="fill:none;stroke:#bcbcbc;stroke-width:0.5;stroke-linecap:butt;stroke-linejoin:miter;stroke-miterlimit:2.61299992;stroke-dasharray:none;stroke-opacity:1"
             id="path7667"
             inkscape:connector-curvature="0" /></g><g
           id="g7669"
           transform="translate(46.9,457.5152)"><path
             d="M 0,0 282.809,0"
             style="fill:none;stroke:#bcbcbc;stroke-width:0.5;stroke-linecap:butt;stroke-linejoin:miter;stroke-miterlimit:2.61299992;stroke-dasharray:none;stroke-opacity:1"
             id="path7671"
             inkscape:connector-curvature="0" /></g><g
           id="g7673"
           transform="translate(46.9,431.9306)"><path
             d="M 0,0 282.809,0"
             style="fill:none;stroke:#bcbcbc;stroke-width:0.5;stroke-linecap:butt;stroke-linejoin:miter;stroke-miterlimit:2.61299992;stroke-dasharray:none;stroke-opacity:1"
             id="path7675"
             inkscape:connector-curvature="0" /></g><g
           id="g7677"
           transform="translate(46.9,320.8411)"><path
             d="M 0,0 282.809,0"
             style="fill:none;stroke:#bcbcbc;stroke-width:0.5;stroke-linecap:butt;stroke-linejoin:miter;stroke-miterlimit:2.61299992;stroke-dasharray:none;stroke-opacity:1"
             id="path7679"
             inkscape:connector-curvature="0" /></g><g
           id="g7681"
           transform="translate(46.9,294.7404)"><path
             d="M 0,0 282.809,0"
             style="fill:none;stroke:#bcbcbc;stroke-width:0.5;stroke-linecap:butt;stroke-linejoin:miter;stroke-miterlimit:2.61299992;stroke-dasharray:none;stroke-opacity:1"
             id="path7683"
             inkscape:connector-curvature="0" /></g><g
           id="g7685"
           transform="translate(46.9,267.6719)"><path
             d="M 0,0 282.809,0"
             style="fill:none;stroke:#bcbcbc;stroke-width:0.5;stroke-linecap:butt;stroke-linejoin:miter;stroke-miterlimit:2.61299992;stroke-dasharray:none;stroke-opacity:1"
             id="path7687"
             inkscape:connector-curvature="0" /></g><g
           id="g7689"
           transform="translate(370.5377,320.8411)"><path
             d="M 0,0 282.809,0"
             style="fill:none;stroke:#bcbcbc;stroke-width:0.5;stroke-linecap:butt;stroke-linejoin:miter;stroke-miterlimit:2.61299992;stroke-dasharray:none;stroke-opacity:1"
             id="path7691"
             inkscape:connector-curvature="0" /></g><g
           id="g7693"
           transform="translate(370.5377,294.7404)"><path
             d="M 0,0 282.809,0"
             style="fill:none;stroke:#bcbcbc;stroke-width:0.5;stroke-linecap:butt;stroke-linejoin:miter;stroke-miterlimit:2.61299992;stroke-dasharray:none;stroke-opacity:1"
             id="path7695"
             inkscape:connector-curvature="0" /></g><g
           id="g7697"
           transform="translate(370.5377,267.6719)"><path
             d="M 0,0 282.809,0"
             style="fill:none;stroke:#bcbcbc;stroke-width:0.5;stroke-linecap:butt;stroke-linejoin:miter;stroke-miterlimit:2.61299992;stroke-dasharray:none;stroke-opacity:1"
             id="path7699"
             inkscape:connector-curvature="0" /></g></g></g></g></svg>