<svg xmlns="http://www.w3.org/2000/svg" viewBox="0 0 27.46 32.19"><defs><style>.cls-1,.cls-2{fill:#c32026;}.cls-1{fill-rule:evenodd;}</style></defs><title>Asset 8</title><g id="Layer_2" data-name="Layer 2"><g id="Layer_1-2" data-name="Layer 1"><path class="cls-1" d="M27.46,2.75A2.75,2.75,0,0,0,24.72,0h-22A2.75,2.75,0,0,0,0,2.75V29.44a2.75,2.75,0,0,0,2.75,2.75h22a2.75,2.75,0,0,0,2.75-2.75V2.75Zm-24-.46A1.78,1.78,0,1,1,1.68,4.07,1.78,1.78,0,0,1,3.46,2.29Zm0,28.31a1.78,1.78,0,1,1,1.78-1.78,1.78,1.78,0,0,1-1.78,1.78Zm12.15-9.3.39-3.4a.82.82,0,0,0-.18-.65.76.76,0,0,0-1-.11l-5.38,3a8.67,8.67,0,1,1,6.14,1.13Zm8.46,9.3a1.78,1.78,0,1,1,1.78-1.78,1.78,1.78,0,0,1-1.78,1.78Zm0-24.75a1.78,1.78,0,1,1,1.78-1.78A1.78,1.78,0,0,1,24.07,5.85Z"/><circle class="cls-2" cx="14.01" cy="12.77" r="3.13"/></g></g></svg>