<?xml version="1.0" encoding="UTF-8" standalone="no"?>
<!-- Generator: Adobe Illustrator 20.1.0, SVG Export Plug-In . SVG Version: 6.00 Build 0)  -->

<svg
   xmlns:dc="http://purl.org/dc/elements/1.1/"
   xmlns:cc="http://creativecommons.org/ns#"
   xmlns:rdf="http://www.w3.org/1999/02/22-rdf-syntax-ns#"
   xmlns:svg="http://www.w3.org/2000/svg"
   xmlns="http://www.w3.org/2000/svg"
   xmlns:sodipodi="http://sodipodi.sourceforge.net/DTD/sodipodi-0.dtd"
   xmlns:inkscape="http://www.inkscape.org/namespaces/inkscape"
   version="1.1"
   id="Layer_1"
   x="0px"
   y="0px"
   viewBox="0 0 701.99996 109.4979"
   xml:space="preserve"
   inkscape:version="0.91 r13725"
   sodipodi:docname="Header.svg"
   width="701.99994"
   height="109.49789"><sodipodi:namedview
     pagecolor="#ffffff"
     bordercolor="#000000"
     borderopacity="0"
     objecttolerance="10"
     gridtolerance="10"
     guidetolerance="10"
     inkscape:pageopacity="0"
     inkscape:pageshadow="2"
     inkscape:window-width="1873"
     inkscape:window-height="1176"
     id="namedview5145"
     showgrid="false"
     fit-margin-top="0"
     fit-margin-left="0"
     fit-margin-right="0"
     fit-margin-bottom="0"
     inkscape:zoom="1.9458691"
     inkscape:cx="350.99998"
     inkscape:cy="-44.126048"
     inkscape:window-x="1327"
     inkscape:window-y="24"
     inkscape:window-maximized="1"
     inkscape:current-layer="Layer_1" /><metadata
     id="metadata5149"><rdf:RDF><cc:Work
         rdf:about=""><dc:format>image/svg+xml</dc:format><dc:type
           rdf:resource="http://purl.org/dc/dcmitype/StillImage" /><dc:title></dc:title></cc:Work></rdf:RDF></metadata><defs
     id="defs5147" /><style
     id="style4137"
     type="text/css">
	.st0{fill-rule:evenodd;clip-rule:evenodd;fill:#333333;}
	.st1{fill-rule:evenodd;clip-rule:evenodd;fill:#292929;}
	.st2{fill-rule:evenodd;clip-rule:evenodd;}
	.st3{fill-rule:evenodd;clip-rule:evenodd;fill:#C32026;}
	.st4{fill-rule:evenodd;clip-rule:evenodd;fill:#FF0000;}
	.st5{fill:#FFFFFF;}
	.st6{font-family:'SupriaSans-CondBold';}
	.st7{font-size:8.674px;}
	.st8{letter-spacing:2;}
	.st9{fill:#C32026;}
	.st10{font-size:16.6317px;}
	.st11{font-size:11.6623px;}
	.st12{font-size:9px;}
	.st13{fill-rule:evenodd;clip-rule:evenodd;fill:#666666;}
	.st14{font-size:12.2579px;}
	.st15{font-size:4.928px;}
	.st16{fill-rule:evenodd;clip-rule:evenodd;fill:none;stroke:#FFFFFF;stroke-width:0.5;stroke-miterlimit:2.6131;}
	.st17{fill-rule:evenodd;clip-rule:evenodd;fill:#FFFFFF;}
	.st18{fill-rule:evenodd;clip-rule:evenodd;fill:none;stroke:#FFFFFF;stroke-width:0.9998;stroke-miterlimit:2.6131;}
	.st19{font-size:23.3966px;}
	.st20{font-size:18.7364px;}
	.st21{font-size:9.8164px;}
	.st22{font-size:6.9613px;}
	.st23{fill-rule:evenodd;clip-rule:evenodd;fill:#4D4D4D;}
	.st24{font-size:13.3826px;}
	.st25{font-size:7.0112px;}
</style><rect
     y="37.817551"
     x="-3.0517582e-05"
     height="53.19244"
     width="702"
     id="rect5151"
     style="fill:#c32026;fill-opacity:1" /><rect
     y="36.948654"
     x="-3.0517582e-05"
     height="52.561352"
     width="702"
     id="rect5153"
     style="fill:#ff0000;fill-opacity:1" /><rect
     y="0"
     x="-3.0517582e-05"
     height="86.199997"
     width="702"
     id="rect6100"
     style="fill:#000000;fill-opacity:1" /><g
     transform="translate(0.06747024,-0.50210256)"
     id="g4857"><path
       style="clip-rule:evenodd;fill:#ffffff;fill-rule:evenodd"
       inkscape:connector-curvature="0"
       id="path4859"
       d="m 42.2,22.5 0,0 2.5,0 -4.5,3.5 -2.1,0 -4.4,-3.5 2.5,0 2.7,2.1 0.7,0 2.6,-2.1 0,0 z m 0,7.6 2.5,0 -4.4,-3.5 -2.1,0 -4.4,3.5 2.4,0 2.7,-2.1 0.7,0 2.6,2.1 0,0 z m 29,-1.4 0,-2.1 -1.4,0 0,1.8 c 0,0.7 0.1,1.2 0.3,1.4 0.2,0.2 0.7,0.3 1.4,0.3 l 9.3,0 0,-1.4 -9.6,0 0,0 z m 0,-4.8 0,0 0,2.1 -1.4,0 0,-1.8 c 0,-0.7 0.1,-1.2 0.3,-1.4 0.2,-0.2 0.7,-0.3 1.4,-0.3 l 9.3,0 0,1.4 -9.6,0 0,0 z m -2.8,2.7 0,3.5 -1.4,0 0,-3.5 1.4,0 0,0 z m 0,-4.1 0,0 0,3.5 -1.4,0 0,-3.5 1.4,0 0,0 z m -8.6,1.4 -2.1,0 0,-1.4 3.5,0 0,7.7 -1.4,0 0,-6.3 0,0 z m 3.5,0 0,0 0,6.2 -1.4,0 0,-7.7 3.5,0 0,1.4 -2.1,0 0,0.1 z m -8.2,4.8 -8.1,0 0,-2.1 -1.4,0 0,1.8 c 0,0.7 0.1,1.2 0.3,1.4 0.2,0.2 0.7,0.3 1.4,0.3 l 7.6,0 c 0.7,0 1.2,-0.1 1.4,-0.3 0.2,-0.2 0.3,-0.7 0.3,-1.4 l 0,-1.8 -1.4,0 0,2.1 -0.1,0 z m 0,-4.8 0,0 -8.1,0 0,2.1 -1.4,0 0,-1.8 c 0,-0.7 0.1,-1.2 0.3,-1.4 0.2,-0.2 0.7,-0.3 1.4,-0.3 l 7.6,0 c 0.7,0 1.2,0.1 1.4,0.3 0.2,0.2 0.3,0.7 0.3,1.4 l 0,1.8 -1.4,0 0,-2.1 z"
       class="st17" /><path
       style="clip-rule:evenodd;fill:#c32026;fill-rule:evenodd"
       inkscape:connector-curvature="0"
       id="path4861"
       d="m 91.7,24.6 0,0 -8.1,0 0,-0.6 8.1,0 0,0.6 0,0 z m 1.5,1.4 0,0 0,-1.8 c 0,-0.7 -0.1,-1.2 -0.3,-1.4 -0.2,-0.2 -0.7,-0.3 -1.4,-0.3 l -9.3,0 0,3.5 11,0 0,0 z m -9.6,4.1 0,-2.1 7.9,0 c 0.8,0 1.2,-0.1 1.4,-0.2 0.2,-0.2 0.3,-0.6 0.3,-1.3 l -11,0 0,3.5 1.4,0 0,0.1 z m 12.3,-6.2 0,0 0,2.1 -1.4,0 0,-1.8 c 0,-0.7 0.1,-1.2 0.3,-1.4 0.2,-0.2 0.7,-0.3 1.4,-0.3 l 9.3,0 0,1.4 -9.6,0 0,0 z m 0,4.8 0,-2.1 -1.4,0 0,1.8 c 0,0.7 0.1,1.2 0.3,1.4 0.2,0.2 0.7,0.3 1.4,0.3 l 9.3,0 0,-1.4 -9.6,0 z"
       class="st3" /><path
       style="clip-rule:evenodd;fill:#c32026;fill-rule:evenodd"
       inkscape:connector-curvature="0"
       id="path4863"
       d="m 23.8,20.2 0,0 -3.2,2.2 3.2,2.7 3.2,-2.7 -3.2,-2.2 0,0 z m 3.4,-2.3 3.1,1.8 -2.5,2.1 -3.2,-2.1 2.6,-1.8 0,0 0,0 z m -6.8,0 2.6,1.8 -3.2,2.1 -2.5,-2.1 3.1,-1.8 0,0 0,0 z m 3.4,-2 0,0 -2.6,1.5 2.6,1.7 2.6,-1.7 -2.6,-1.5 0,0 z m 0,17.1 0,0 3.2,-2.2 -3.2,-2.7 -3.2,2.7 3.2,2.2 0,0 z m 3.4,2.3 -2.6,-1.8 3.2,-2.1 2.5,2.1 -3.1,1.8 0,0 0,0 z m -6.8,0 -3.1,-1.8 2.5,-2.1 3.2,2.1 -2.6,1.8 0,0 0,0 z m 3.4,1.9 0,0 2.6,-1.5 -2.6,-1.7 -2.6,1.7 2.6,1.5 0,0 z m -6.4,-10.6 2.2,-3.2 2.7,3.2 -2.7,3.2 -2.2,-3.2 0,0 0,0 z m -2.3,-3.4 0,0 1.8,2.6 2.1,-3.2 -2.1,-2.5 -1.8,3.1 0,0 z m 0,6.7 0,0 1.8,3.1 2.1,-2.5 -2.1,-3.2 -1.8,2.6 0,0 z m -1.9,-3.3 1.5,-2.6 1.7,2.6 -1.7,2.6 -1.5,-2.6 0,0 0,0 z m 17,0 -2.2,3.2 -2.7,-3.2 2.7,-3.2 2.2,3.2 0,0 0,0 z m 2.3,-3.4 0,0 -1.8,-3.1 -2.1,2.5 2.1,3.2 1.8,-2.6 0,0 z m 0,6.7 0,0 -1.8,-2.6 -2.1,3.2 2.1,2.5 1.8,-3.1 0,0 z M 34.4,26.6 33,29.2 31.3,26.6 33,24 l 1.4,2.6 z"
       class="st3" /></g><polygon
     transform="translate(0.06747024,-0.50210256)"
     style="clip-rule:evenodd;fill-rule:evenodd"
     id="polygon4865"
     points="318.6,26.6 351,8 383.5,26.6 402,59 383.5,91.5 351,110 318.6,91.5 300,59 "
     class="st2" /><path
     style="clip-rule:evenodd;fill:#c32026;fill-rule:evenodd"
     inkscape:connector-curvature="0"
     id="path4867"
     d="m 351.06747,34.097897 0,0 -12.2,8.4 12.2,10.2 12.2,-10.1 -12.2,-8.5 0,0 z m 12.9,-8.8 12,6.8 -9.7,8.1 -12.2,-8.1 9.9,-6.8 0,0 0,0 z m -25.7,0 9.9,6.8 -12.1,8.1 -9.7,-8.1 11.9,-6.8 0,0 0,0 z m 12.8,-7.4 0,0 -9.9,5.6 9.9,6.5 9.9,-6.5 -9.9,-5.6 0,0 z m 0,65 0,0 12.2,-8.4 -12.2,-10.2 -12.1,10.2 12.1,8.4 0,0 z m 12.9,8.9 -9.9,-6.8 12.1,-8.1 9.7,8.1 -11.9,6.8 0,0 0,0 z m -25.7,0 -12,-6.8 9.7,-8.1 12.1,8.1 -9.8,6.8 0,0 0,0 z m 12.8,7.3 0,0 9.9,-5.6 -9.9,-6.6 -9.9,6.6 9.9,5.6 0,0 z m -24.4,-40.6 8.4,-12.2 10.2,12.2 -10.1,12.2 -8.5,-12.2 0,0 0,0 z m -8.8,-12.8 0,0 6.8,9.9 8.1,-12.1 -8.1,-9.7 -6.8,11.9 0,0 z m 0,25.7 0,0 6.8,12 8.1,-9.7 -8.1,-12.2 -6.8,9.9 0,0 z m -7.4,-12.9 5.6,-9.9 6.6,9.9 -6.6,9.9 -5.6,-9.9 0,0 0,0 z m 65,0 -8.4,12.2 -10.2,-12.2 10.2,-12.1 8.4,12.1 0,0 0,0 z m 8.9,-12.8 0,0 -6.8,-12 -8.1,9.7 8.1,12.1 6.8,-9.8 0,0 z m 0,25.7 0,0 -6.8,-9.9 -8.1,12.1 8.1,9.7 6.8,-11.9 0,0 z m 7.4,-12.9 -5.6,9.9 -6.6,-9.9 6.6,-9.9 5.6,9.9 z"
     class="st3" /></svg>