<svg xmlns="http://www.w3.org/2000/svg" viewBox="0 0 18.7 18.7"><defs><style>.cls-1{fill:#fff;fill-rule:evenodd;}</style></defs><title>Asset 5</title><g id="Layer_2" data-name="Layer 2"><g id="Layer_1-2" data-name="Layer 1"><path class="cls-1" d="M4.53,9.35A4.82,4.82,0,1,0,9.35,4.53,4.82,4.82,0,0,0,4.53,9.35Zm8.65-5a1.14,1.14,0,1,1,1.14,1.14,1.14,1.14,0,0,1-1.14-1.14ZM0,14V4.72A4.72,4.72,0,0,1,4.72,0H14A4.72,4.72,0,0,1,18.7,4.72V14A4.72,4.72,0,0,1,14,18.7H4.72A4.72,4.72,0,0,1,0,14Zm14,2.68H4.72A2.69,2.69,0,0,1,2,14V4.72A2.69,2.69,0,0,1,4.72,2H14a2.69,2.69,0,0,1,2.68,2.68V14A2.69,2.69,0,0,1,14,16.66ZM12.13,9.35A2.78,2.78,0,1,1,9.35,6.57,2.78,2.78,0,0,1,12.13,9.35Z"/></g></g></svg>