<?xml version="1.0" encoding="UTF-8" standalone="no"?>
<!-- Created with Inkscape (http://www.inkscape.org/) -->

<svg
   xmlns:dc="http://purl.org/dc/elements/1.1/"
   xmlns:cc="http://creativecommons.org/ns#"
   xmlns:rdf="http://www.w3.org/1999/02/22-rdf-syntax-ns#"
   xmlns:svg="http://www.w3.org/2000/svg"
   xmlns="http://www.w3.org/2000/svg"
   xmlns:sodipodi="http://sodipodi.sourceforge.net/DTD/sodipodi-0.dtd"
   xmlns:inkscape="http://www.inkscape.org/namespaces/inkscape"
   width="28.786667mm"
   height="28.786667mm"
   viewBox="0 0 102 102"
   id="svg4192"
   version="1.1"
   inkscape:version="0.91 r13725"
   sodipodi:docname="Logo_with_black.svg">
  <defs
     id="defs4194" />
  <sodipodi:namedview
     id="base"
     pagecolor="#ffffff"
     bordercolor="#666666"
     borderopacity="1.0"
     inkscape:pageopacity="0.0"
     inkscape:pageshadow="2"
     inkscape:zoom="7.8333333"
     inkscape:cx="48.191489"
     inkscape:cy="52.276596"
     inkscape:document-units="px"
     inkscape:current-layer="layer1"
     showgrid="false"
     fit-margin-top="0"
     fit-margin-left="0"
     fit-margin-right="0"
     fit-margin-bottom="0"
     inkscape:window-width="1280"
     inkscape:window-height="1000"
     inkscape:window-x="0"
     inkscape:window-y="172"
     inkscape:window-maximized="1" />
  <metadata
     id="metadata4197">
    <rdf:RDF>
      <cc:Work
         rdf:about="">
        <dc:format>image/svg+xml</dc:format>
        <dc:type
           rdf:resource="http://purl.org/dc/dcmitype/StillImage" />
        <dc:title></dc:title>
      </cc:Work>
    </rdf:RDF>
  </metadata>
  <g
     inkscape:label="Layer 1"
     inkscape:groupmode="layer"
     id="layer1"
     transform="translate(-371.85714,-312.79078)">
    <polygon
       transform="translate(71.857143,304.79078)"
       class="st2"
       points="351,110 318.6,91.5 300,59 318.6,26.6 351,8 383.5,26.6 402,59 383.5,91.5 "
       id="polygon731" />
    <path
       class="st3"
       d="m 422.80714,339.39078 0,0 -12.2,8.4 12.2,10.2 12.2,-10.1 -12.2,-8.5 0,0 z m 12.9,-8.8 12,6.8 -9.7,8.1 -12.2,-8.1 9.9,-6.8 0,0 0,0 z m -25.7,0 9.9,6.8 -12.1,8.1 -9.7,-8.1 11.9,-6.8 0,0 0,0 z m 12.8,-7.4 0,0 -9.9,5.6 9.9,6.5 9.9,-6.5 -9.9,-5.6 0,0 z m 0,65 0,0 12.2,-8.4 -12.2,-10.2 -12.1,10.2 12.1,8.4 0,0 z m 12.9,8.9 -9.9,-6.8 12.1,-8.1 9.7,8.1 -11.9,6.8 0,0 0,0 z m -25.7,0 -12,-6.8 9.7,-8.1 12.1,8.1 -9.8,6.8 0,0 0,0 z m 12.8,7.3 0,0 9.9,-5.6 -9.9,-6.6 -9.9,6.6 9.9,5.6 0,0 z m -24.4,-40.6 8.4,-12.2 10.2,12.2 -10.1,12.2 -8.5,-12.2 0,0 0,0 z m -8.8,-12.8 0,0 6.8,9.9 8.1,-12.1 -8.1,-9.7 -6.8,11.9 0,0 z m 0,25.7 0,0 6.8,12 8.1,-9.7 -8.1,-12.2 -6.8,9.9 0,0 z m -7.4,-12.9 5.6,-9.9 6.6,9.9 -6.6,9.9 -5.6,-9.9 0,0 0,0 z m 65,0 -8.4,12.2 -10.2,-12.2 10.2,-12.1 8.4,12.1 0,0 0,0 z m 8.9,-12.8 0,0 -6.8,-12 -8.1,9.7 8.1,12.1 6.8,-9.8 0,0 z m 0,25.7 0,0 -6.8,-9.9 -8.1,12.1 8.1,9.7 6.8,-11.9 0,0 z m 7.4,-12.9 -5.6,9.9 -6.6,-9.9 6.6,-9.9 5.6,9.9 z"
       id="path733-5"
       inkscape:connector-curvature="0"
       style="clip-rule:evenodd;fill:#c32026;fill-rule:evenodd" />
  </g>
</svg>
