<?xml version="1.0" encoding="UTF-8"?>
<!DOCTYPE svg PUBLIC "-//W3C//DTD SVG 1.1//EN" "http://www.w3.org/Graphics/SVG/1.1/DTD/svg11.dtd">
<!-- Creator: CorelDRAW X7 -->
<svg xmlns="http://www.w3.org/2000/svg" xml:space="preserve" width="210mm" height="297mm" version="1.1" style="shape-rendering:geometricPrecision; text-rendering:geometricPrecision; image-rendering:optimizeQuality; fill-rule:evenodd; clip-rule:evenodd"
viewBox="0 0 21000 29700"
 xmlns:xlink="http://www.w3.org/1999/xlink">
 <defs>
  <style type="text/css">
   <![CDATA[
    .str0 {stroke:#2B2A29;stroke-width:20}
    .fil1 {fill:#FEFEFE}
    .fil0 {fill:#2B2A29}
    .fil2 {fill:#FEFEFE;fill-rule:nonzero}
    .fil3 {fill:#00A0E3;fill-rule:nonzero}
   ]]>
  </style>
 </defs>
 <g id="Layer_x0020_1">
  <metadata id="CorelCorpID_0Corel-Layer"/>
  <rect class="fil0 str0" x="4575" y="2674" width="7906" height="13757"/>
  <g id="_1016175063776">
   <g>
    <path class="fil1" d="M7510 4902c60,0 109,49 109,110 0,60 -49,109 -109,109 -61,0 -110,-49 -110,-109 0,-61 49,-110 110,-110z"/>
    <path class="fil1" d="M8793 3694c61,0 110,49 110,110 0,60 -49,109 -110,109 -60,0 -109,-49 -109,-109 0,-61 49,-110 109,-110z"/>
    <path class="fil1" d="M9238 5357c60,0 109,49 109,110 0,60 -49,110 -109,110 -61,0 -110,-50 -110,-110 0,-61 49,-110 110,-110z"/>
    <path class="fil1" d="M8807 4768c-234,24 -274,207 -274,207 279,49 274,-207 274,-207z"/>
    <path class="fil1" d="M8173 4768c233,24 274,207 274,207 -280,49 -274,-207 -274,-207z"/>
    <path class="fil1" d="M8530 4340c54,0 107,1 159,3 -65,-88 -130,-168 -194,-238 -64,71 -128,153 -191,242 73,-5 149,-7 226,-7zm246 8c114,7 223,19 324,36 90,-300 86,-531 -30,-598 -40,-24 -91,-25 -149,-8 -5,-29 -21,-55 -42,-73 122,-78 229,-102 303,-60 139,81 129,378 0,753 389,75 652,216 652,376 0,161 -263,301 -652,376 22,65 41,127 56,186l0 0c-20,0 -39,5 -55,12 -15,-59 -35,-122 -58,-187 -108,18 -225,32 -349,40 -79,119 -162,228 -243,322 238,276 470,420 598,346 69,-40 99,-137 92,-272 5,0 10,0 15,0 15,0 29,-2 43,-7 10,156 -21,268 -99,313 -139,80 -392,-77 -652,-377 -260,300 -512,457 -652,377 -139,-80 -129,-378 1,-753 -95,-18 -183,-40 -261,-66 11,-15 18,-33 21,-52 77,25 164,47 259,64 38,-103 85,-211 140,-322 -64,-129 -117,-254 -158,-372 -358,69 -599,198 -599,345 0,65 47,126 129,181 -13,15 -22,33 -27,52 -100,-61 -156,-131 -156,-206 0,-160 262,-301 652,-376 -130,-375 -140,-672 -1,-753 140,-80 392,77 652,377 50,-58 100,-110 148,-156 8,13 17,25 28,35 -50,40 -103,89 -156,144 76,90 152,192 226,303zm-729 409c33,-66 69,-133 107,-200 41,-70 83,-138 125,-202 -131,7 -256,21 -369,42 33,111 79,233 137,360zm-138 -364c115,-21 242,-37 375,-45 63,-95 128,-183 193,-262 -215,-228 -417,-341 -533,-274 -114,66 -120,290 -35,581zm245 598c-40,-70 -78,-140 -112,-209 -55,108 -102,214 -140,315 105,19 220,33 341,41 -30,-47 -60,-96 -89,-147zm633 -627c41,62 81,126 119,193 27,47 53,93 77,139 44,-100 81,-196 109,-287 -94,-19 -196,-35 -305,-45zm236 410c50,102 94,202 130,298 305,-72 503,-190 503,-325 0,-131 -190,-248 -484,-320 -40,110 -90,227 -149,347zm74 311c-31,-79 -67,-161 -108,-244 -26,50 -54,100 -83,150 -27,47 -54,92 -82,136 97,-10 188,-24 273,-42zm-147 -319c-21,-41 -44,-83 -68,-124 -59,-102 -120,-197 -183,-285 -75,-5 -151,-7 -230,-7 -58,0 -115,1 -170,4 -57,81 -114,168 -167,261 -29,50 -56,100 -82,150 42,90 90,182 143,275 20,34 41,68 61,101l1 1 0 1 2 3c4,7 9,14 13,21l1 0 0 1 1 1 0 0 0 0 1 2 0 0 1 1 0 1c4,6 8,12 11,17l1 1 0 0 1 1 0 1 2 3c67,104 137,199 207,283 71,-84 143,-179 212,-284l1 -1 2 -4c5,-7 10,-15 15,-22l1 -3 1 -1 1 -1c4,-7 9,-14 13,-20l1 -2 1 -1 3 -6 0 0 0 0c25,-39 50,-80 74,-121 48,-83 91,-166 129,-247zm-457 717c-70,-85 -141,-180 -209,-282 -143,-10 -279,-27 -401,-50 -120,344 -128,617 0,691 130,76 368,-75 610,-359z"/>
   </g>
   <polygon class="fil1" points="6494,6292 6565,6292 6565,6715 6494,6715 "/>
   <path class="fil1" d="M6706 6249l440 356 0 -313 71 0c0,155 0,310 0,466l-441 -353 0 310 -70 0 0 -466z"/>
   <polygon class="fil1" points="7315,6314 7379,6274 7589,6611 7800,6274 7863,6314 7589,6751 "/>
   <path class="fil1" d="M7996 6470l0 0 369 0 0 -108 -262 0c-59,0 -107,48 -107,108zm440 -178l0 423 -71 0 0 -175 -369 0 0 175 -71 0 0 -245c0,-99 80,-178 178,-178l333 0z"/>
   <path class="fil1" d="M8631 6468l0 0 184 0 256 0 0 70c0,98 -80,177 -178,177l-333 0 0 0 0 -71c111,0 221,1 333,1 59,0 107,-48 107,-107l0 0 -185 0 -255 0 0 -70c0,-97 80,-176 178,-176l333 0 0 0 0 71c-111,0 -221,-1 -333,-1 -59,0 -107,47 -107,106z"/>
   <polygon class="fil1" points="9208,6292 9279,6292 9279,6715 9208,6715 "/>
   <path class="fil1" d="M9917 6538c0,98 -80,177 -178,177l-332 0c0,-82 0,-165 0,-247 0,-97 79,-176 178,-176l332 0c0,82 0,164 0,246zm-70 -176c-87,0 -175,-1 -262,-1 -60,0 -108,48 -108,107 0,59 0,117 0,176 87,0 174,1 262,1 59,0 108,-48 108,-107 0,-58 0,-117 0,-176z"/>
   <path class="fil1" d="M10054 6249l441 356 0 -313 70 0c0,155 0,310 0,466l-440 -353 0 310 -71 0 0 -466z"/>
   <polygon class="fil2" points="10739,6135 10768,6135 10779,6185 10790,6135 10820,6135 10820,6218 10801,6218 10801,6155 10787,6218 10771,6218 10757,6155 10757,6218 10739,6218 "/>
   <polygon class="fil2" points="10661,6135 10729,6135 10729,6155 10706,6155 10706,6218 10684,6218 10684,6155 10661,6155 "/>
   <path class="fil3" d="M6672 6970l-123 0c-3,0 -7,0 -10,-1 -3,-1 -6,-2 -8,-3 -2,-2 -4,-3 -5,-5 -1,-2 -2,-4 -2,-6l0 -54c0,-5 -4,-9 -10,-9l-10 0c-5,0 -10,4 -10,9l0 72c0,7 4,13 11,19 8,5 17,7 27,7l140 0c5,0 10,-4 10,-9l0 -10c0,-5 -5,-10 -10,-10zm1642 14l65 -89c1,-3 4,-4 7,-4l21 0c3,0 5,1 7,4l65 89c2,3 2,6 1,10 -2,3 -5,5 -9,5l-11 0c-3,0 -6,-1 -8,-4l-47 -65c-2,-2 -5,-4 -8,-4 -3,0 -6,2 -8,4l-49 65c-2,3 -5,4 -8,4l-10 0c-4,0 -7,-2 -9,-5 -1,-3 -1,-7 1,-10zm-1426 11l47 -65c2,-2 5,-4 8,-4 3,0 6,2 8,4l49 65c2,3 5,4 8,4l10 0c4,0 7,-2 9,-5 1,-3 1,-7 -1,-10l-65 -89c-1,-3 -4,-4 -7,-4l-21 0c-3,0 -6,1 -7,4l-65 89c-2,3 -2,6 -1,10 2,3 5,5 9,5l11 0c3,0 6,-1 8,-4zm455 -32l0 3c0,3 -2,5 -5,5l-122 0 0 -13 122 0c3,0 5,2 5,5zm-5 -31l-142 0c-5,0 -10,5 -10,10l0 48c0,5 5,9 10,9l140 0c6,0 11,0 15,-1 5,-2 9,-3 12,-6 3,-2 6,-5 8,-9 2,-3 3,-7 3,-12l0 -12c-1,-7 -7,-12 -19,-13 12,-2 18,-6 19,-14l0 -12c0,-5 -1,-9 -3,-12 -2,-4 -5,-7 -8,-9 -3,-3 -7,-4 -12,-6 -4,-1 -9,-1 -15,-1l-140 0c-5,0 -10,4 -10,9l0 9c0,6 5,10 10,10l142 0c3,0 5,2 5,5l0 3c0,2 -2,4 -5,4zm231 60c8,5 17,7 27,7l112 0c11,0 20,-2 27,-7 18,-14 19,-79 0,-92 -7,-6 -16,-8 -27,-8l-112 0c-10,0 -19,2 -27,8 -18,13 -18,78 0,92zm147 -37c0,4 -2,8 -7,11 -5,3 -11,4 -18,4l-78 0c-3,0 -7,0 -10,-1 -3,-1 -5,-2 -8,-3 -2,-2 -4,-3 -5,-5 -1,-2 -2,-4 -2,-6l0 -20c1,-4 3,-8 8,-11 5,-2 11,-4 18,-4l77 0c7,0 13,2 17,4 5,3 8,7 8,10l0 21zm335 6l32 35c2,2 4,3 7,3l6 0c4,0 7,-2 9,-5 2,-4 1,-8 -2,-11l-23 -25c13,0 23,-2 29,-6 6,-4 9,-10 9,-20l0 -12c0,-5 -1,-9 -3,-12 -2,-4 -4,-7 -8,-9 -3,-3 -7,-4 -12,-6 -4,-1 -9,-1 -14,-1l-141 0c-5,0 -9,4 -9,9l0 9c0,6 4,10 9,10l142 0c3,0 5,2 5,5l0 3c0,2 -2,4 -5,4l-142 0c-5,0 -9,5 -9,10l0 48c0,5 4,9 9,9l11 0c5,0 9,-4 9,-9l0 -22c0,-6 5,-10 10,-10l73 0c3,0 6,1 8,3zm732 29l0 -70 70 0c5,0 9,-4 9,-10l0 -9c0,-5 -4,-9 -9,-9l-168 0c-6,0 -10,4 -10,9l0 9c0,6 4,10 10,10l68 0 0 70c0,5 4,9 10,9l10 0c5,0 10,-4 10,-9zm275 2c7,5 16,7 26,7l113 0c10,0 19,-2 26,-7 19,-14 19,-79 0,-92 -7,-6 -16,-8 -26,-8l-113 0c-10,0 -19,2 -26,8 -19,13 -18,78 0,92zm147 -37c0,4 -3,8 -8,11 -5,3 -11,4 -18,4l-77 0c-4,0 -7,0 -10,-1 -3,-1 -6,-2 -8,-3 -2,-2 -4,-3 -5,-5 -2,-2 -2,-4 -2,-6l0 -20c0,-4 3,-8 7,-11 5,-2 11,-4 18,-4l77 0c7,0 13,2 18,4 4,3 7,7 8,10l0 21zm334 6l32 35c2,2 4,3 7,3l6 0c4,0 8,-2 9,-5 2,-4 1,-8 -1,-11l-23 -25c13,0 22,-2 28,-6 6,-4 9,-10 9,-20l0 -12c0,-5 0,-9 -2,-12 -2,-4 -5,-7 -8,-9 -4,-3 -8,-4 -12,-6 -5,-1 -10,-1 -15,-1l-140 0c-6,0 -10,4 -10,9l0 9c0,6 4,10 10,10l142 0c2,0 4,2 4,5l0 3c0,2 -2,4 -4,4l-142 0c-6,0 -10,5 -10,10l0 48c0,5 4,9 10,9l10 0c5,0 10,-4 10,-9l0 -32 83 0c3,0 5,1 7,3zm282 29l0 -89c0,-5 -4,-9 -10,-9l-10 0c-6,0 -10,4 -10,9l0 89c0,5 4,9 10,9l10 0c6,0 10,-4 10,-9zm363 -20l-144 0c-2,0 -4,-2 -4,-5l0 -2c0,-3 2,-5 4,-5l144 0c5,0 9,-4 9,-10l0 -6c0,-5 -4,-10 -9,-10l-168 0c-6,0 -10,5 -10,10l0 31c0,7 3,13 11,19 7,5 16,7 26,7l141 0c5,0 9,-4 9,-9l0 -10c0,-5 -4,-10 -9,-10zm-165 -50l165 0c5,0 9,-4 9,-10l0 -9c0,-5 -4,-9 -9,-9l-141 0c-10,0 -19,2 -26,8 -2,1 -4,2 -5,4 -3,3 -4,7 -2,10 2,4 5,6 9,6zm359 6l0 -7c0,-8 4,-14 11,-19 7,-6 16,-8 26,-8l141 0c5,0 9,4 9,9l0 9c0,6 -4,10 -9,10l-143 0c-3,0 -5,2 -5,5l0 3c0,3 2,5 5,5l115 0c13,0 22,2 28,6 6,4 9,10 9,20l0 12c0,5 -1,9 -3,12 -1,4 -4,7 -7,9 -4,3 -8,4 -12,6 -5,1 -10,1 -15,1l-140 0c-6,0 -10,-4 -10,-9l0 -9c0,-6 4,-10 10,-10l141 0c3,0 5,-2 5,-5l0 -2c0,-3 -2,-5 -5,-5l-114 0c-11,-1 -20,-3 -27,-7 -6,-4 -10,-10 -10,-19l0 -7z"/>
  </g>
 </g>
</svg>
