<svg xmlns="http://www.w3.org/2000/svg" viewBox="0 0 32.19 32.19"><defs><style>.cls-1{fill:#c32026;fill-rule:evenodd;}</style></defs><title>Asset 7</title><g id="Layer_2" data-name="Layer 2"><g id="Layer_1-2" data-name="Layer 1"><path class="cls-1" d="M23.63.09.09,23.63a.32.32,0,0,0,0,.46l2.24,2.24a.32.32,0,0,0,.46,0l1-1a.71.71,0,1,1,1,1l-1,1a.32.32,0,0,0,0,.46l.87.87a.32.32,0,0,0,.46,0l1-1a.71.71,0,0,1,1,1l-1,1a.32.32,0,0,0,0,.46l1.1,1.1a.32.32,0,0,0,.46,0l1,1L19.89,21l-1-1L20,18.92l1,1L32.19,8.65l-1-1a.32.32,0,0,0,0-.46l-1.1-1.1a.32.32,0,0,0-.46,0l-1,1a.71.71,0,0,1-1-1l1-1a.32.32,0,0,0,0-.46l-.87-.87a.32.32,0,0,0-.46,0l-1,1a.71.71,0,1,1-1-1l1-1a.32.32,0,0,0,0-.46L24.08.09a.32.32,0,0,0-.46,0ZM9.7,30.4,9.14,31l-.82-.82.56-.56.82.82ZM29.57,8.87l.56-.56.82.82-.56.56-.82-.82ZM10.82,29.28l-.56.56L9.43,29l.56-.56.82.82Zm1.12-1.12-.56.56-.82-.82.56-.56.82.82ZM13.06,27l-.56.56-.82-.82.56-.56.82.82Zm1.12-1.12-.56.56-.82-.82.56-.56.82.82ZM15.3,24.8l-.56.56-.82-.82.56-.56.82.82Zm1.12-1.12-.56.56L15,23.41l.56-.56.82.82Zm1.12-1.12-.56.56-.82-.82.56-.56.82.82Zm1.12-1.12L18.1,22l-.82-.82.56-.56.82.82ZM8.84,26.07,4.91,22.15,22.15,4.91l3.92,3.92L8.84,26.07ZM22,18.1l-.56.56-.82-.82.56-.56.82.82ZM23.12,17l-.56.56-.82-.82.56-.56.82.82Zm1.12-1.12-.56.56-.82-.82.56-.56.82.82Zm1.12-1.12-.56.56L24,14.47l.56-.56.82.82Zm1.12-1.12-.56.56-.82-.82.56-.56.82.82ZM27.6,12.5l-.56.56-.82-.82.56-.56.82.82Zm1.12-1.12-.56.56-.82-.82.56-.56.82.82Zm1.12-1.12-.56.56L28.45,10,29,9.43l.82.82Zm-10.06,1,1-1,1.38,1.38-.43.43-.3-.3A1.45,1.45,0,0,1,21,12.85a1.67,1.67,0,0,1-.6.39,1.76,1.76,0,0,1-.69.11,2,2,0,0,1-.71-.16,2,2,0,0,1-.64-.44,1.92,1.92,0,0,1-.57-1.32,1.87,1.87,0,0,1,.12-.7,1.91,1.91,0,0,1,1.21-1.11,1.45,1.45,0,0,1,.83,0l-.1.68a1,1,0,0,0-.59,0,1.11,1.11,0,0,0-.5.29,1,1,0,0,0-.24.38,1,1,0,0,0,0,.44,1.31,1.31,0,0,0,.13.44,1.49,1.49,0,0,0,.29.4,1.44,1.44,0,0,0,.41.29,1.26,1.26,0,0,0,.45.12,1.11,1.11,0,0,0,.44-.06,1,1,0,0,0,.38-.24,1.29,1.29,0,0,0,.34-1.07l-.19-.19-.54.54-.38-.38Zm3.08-3.07a1,1,0,0,1,.61-.12,1,1,0,0,1,.57.31.86.86,0,0,1,.26.77,1.23,1.23,0,0,1-.14.41,1.71,1.71,0,0,1-.29.38l-1.29,1.29L19.89,8.54,21.32,7.1a.75.75,0,0,1,.31-.19.88.88,0,0,1,.35,0,1,1,0,0,1,.34.1,1,1,0,0,1,.29.2,1,1,0,0,1,.27.47.85.85,0,0,1,0,.54Zm-2,.28.72-.72a.39.39,0,0,1,.3-.12.49.49,0,0,1,.33.16.47.47,0,0,1,.16.34.44.44,0,0,1-.13.31l-.69.69-.67-.67ZM23.52,9a.49.49,0,0,1,0,.18.45.45,0,0,1,0,.18.48.48,0,0,1-.11.16l-.77.77-.71-.71.8-.8a.39.39,0,0,1,.15-.1.43.43,0,0,1,.17,0,.55.55,0,0,1,.18,0,.55.55,0,0,1,.16.11A.51.51,0,0,1,23.52,9Z"/></g></g></svg>