<svg xmlns="http://www.w3.org/2000/svg" viewBox="0 0 30.71 27.13"><defs><style>.cls-1,.cls-2{fill:#c32026;}.cls-2{fill-rule:evenodd;}</style></defs><title>Asset 6</title><g id="Layer_2" data-name="Layer 2"><g id="Layer_1-2" data-name="Layer 1"><rect class="cls-1" x="15.87" y="20.99" width="9.21" height="1.02"/><rect class="cls-1" x="7.17" y="20.99" width="2.05" height="2.56"/><rect class="cls-1" x="15.87" y="23.03" width="9.21" height="1.03"/><rect class="cls-1" x="14.33" y="20.99" width="0.51" height="1.02"/><rect class="cls-1" x="26.11" y="18.94" width="0.51" height="1.02"/><rect class="cls-1" x="26.11" y="20.99" width="0.51" height="1.02"/><path class="cls-2" d="M17.77,13.82h8.49a.37.37,0,0,0,.37-.37V5a.37.37,0,0,0-.37-.36H17.77A.36.36,0,0,0,17.4,5v8.49a.37.37,0,0,0,.36.37Zm.15-3.58h1V9.72h-1v-1h1V8.19h-1v-1h1v-1h1v-1h1v1h.51v-1h1v1H23v-1h1v1h1v1h1v1h-1V8.7h1v1h-1v.51h1v1h-1v1h-1v1H23v-1h-.51v1h-1v-1H21v1H20v-1h-1v-1h-1Z"/><rect class="cls-1" x="14.33" y="18.94" width="0.51" height="1.02"/><rect class="cls-1" x="4.61" y="14.33" width="1.54" height="1.54"/><rect class="cls-1" x="26.11" y="16.89" width="0.51" height="1.02"/><rect class="cls-1" x="14.33" y="16.89" width="0.51" height="1.02"/><path class="cls-2" d="M29.18,1.53V1a.51.51,0,0,0-1,0v.51h-.51V0H16.38V1.53h-.51V1a.51.51,0,0,0-1,0v.51h-.51V1a.51.51,0,1,0-1,0v.51H0V4.09H2a.51.51,0,1,1,0,1H0v.51H2a.51.51,0,1,1,0,1H0v.51H2a.51.51,0,0,1,0,1H0V18.43H2a.51.51,0,1,1,0,1H0V20H2a.51.51,0,0,1,0,1H0v.51H2a.51.51,0,1,1,0,1H0V23H2a.51.51,0,0,1,0,1H0v.51H2a.51.51,0,1,1,0,1H0v1.53H30.71V1.53ZM2,15.87a.51.51,0,1,1,.51-.51.51.51,0,0,1-.51.51Zm0-1.54a.51.51,0,1,1,.51-.51.51.51,0,0,1-.51.51ZM2,12.8a.51.51,0,1,1,.51-.51A.51.51,0,0,1,2,12.8Zm6.14,5.12a.51.51,0,1,1-.51.51.51.51,0,0,1,.51-.51ZM4.09,2.56H7.17v8.7h-1v.51a.51.51,0,0,1-1,0v-.51h-1V2.56ZM3.58,13.31H7.17v3.58H3.58V13.31Zm3.58,5.12a.51.51,0,1,1-.51-.51.51.51,0,0,1,.51.51Zm3.58,4.09a.51.51,0,0,1,0,1h-.51v1H6.14v-1H5.63a.51.51,0,0,1,0-1h.51V22H5.63a.51.51,0,1,1,0-1h.51V20h4.09v1h.51a.51.51,0,1,1,0,1h-.51v.51ZM9.21,18.43a.51.51,0,1,1,.51.51.51.51,0,0,1-.51-.51Zm2-4.1h-1v.51a.51.51,0,1,1-1,0v-.51h-1V2.56h3.07V14.33ZM25.59,1h1v.51h-1V1Zm-2,0h1v.51h-1V1Zm-2,0h1v.51h-1V1ZM19.45,1h1v.51h-1V1Zm-2,0h1v.51h-1V1ZM16.38,5a1.38,1.38,0,0,1,1.38-1.38h8.49A1.39,1.39,0,0,1,27.64,5v8.49a1.39,1.39,0,0,1-1.39,1.39H17.77a1.39,1.39,0,0,1-1.38-1.39V5ZM14.33,6.14a.51.51,0,1,1-.51.51.51.51,0,0,1,.51-.51Zm0,1.53a.51.51,0,1,1-.51.51.51.51,0,0,1,.51-.51Zm0,1.53a.51.51,0,1,1-.51.51.51.51,0,0,1,.51-.51Zm0,1.54a.51.51,0,1,1-.51.51.51.51,0,0,1,.51-.51Zm0,1.53a.51.51,0,1,1-.51.51.51.51,0,0,1,.51-.51Zm0,1.54a.51.51,0,1,1-.51.51.51.51,0,0,1,.51-.51ZM12.8,7.17a.51.51,0,1,1-.51.51.51.51,0,0,1,.51-.51Zm0,2a.51.51,0,1,1-.51.51.51.51,0,0,1,.51-.51Zm15.36,9.73a.51.51,0,1,1,0,1h-.51v1h.51a.51.51,0,1,1,0,1h-.51v1h.51a.51.51,0,0,1,0,1h-.51v1H13.31v-1H12.8a.51.51,0,0,1,0-1h.51V22H12.8a.51.51,0,1,1,0-1h.51V20H12.8a.51.51,0,1,1,0-1h.51v-1H12.8a.51.51,0,1,1,0-1h.51v-1H27.64v1h.51a.51.51,0,1,1,0,1h-.51v1Zm.51-7.17a.51.51,0,1,1,.51-.51.51.51,0,0,1-.51.51Zm0-3.58a.51.51,0,1,1,.51-.51A.51.51,0,0,1,28.67,8.19Z"/><rect class="cls-1" x="5.12" y="3.58" width="1.02" height="6.65"/><rect class="cls-1" x="9.21" y="3.58" width="1.02" height="9.72"/><rect class="cls-1" x="26.11" y="23.03" width="0.51" height="1.03"/><rect class="cls-1" x="15.87" y="18.94" width="9.21" height="1.02"/><rect class="cls-1" x="14.33" y="23.03" width="0.51" height="1.03"/><rect class="cls-1" x="15.87" y="16.89" width="9.21" height="1.02"/><rect class="cls-1" x="19.96" y="7.17" width="4.1" height="4.1"/></g></g></svg>