<svg xmlns="http://www.w3.org/2000/svg" viewBox="0 0 32.19 27.59"><defs><style>.cls-1{fill:#c32026;fill-rule:evenodd;}</style></defs><title>Asset 2</title><g id="Layer_2" data-name="Layer 2"><g id="Layer_1-2" data-name="Layer 1"><path class="cls-1" d="M29.89,0H2.3A2.3,2.3,0,0,0,0,2.3v23a2.3,2.3,0,0,0,2.3,2.3H29.89a2.3,2.3,0,0,0,2.3-2.3V2.3A2.3,2.3,0,0,0,29.89,0ZM11,1.73A1.15,1.15,0,1,1,9.84,2.88,1.14,1.14,0,0,1,11,1.73Zm-3.52,0A1.15,1.15,0,1,1,6.32,2.88,1.15,1.15,0,0,1,7.47,1.73ZM4,1.73A1.15,1.15,0,1,1,2.87,2.88,1.15,1.15,0,0,1,4,1.73ZM29.89,25.29H2.3V5.77H29.89V25.29Zm0-21.82H13.79V2.32h16.1Z"/></g></g></svg>