<svg xmlns="http://www.w3.org/2000/svg" viewBox="0 0 37.29 32.19"><defs><style>.cls-1{fill:#c32026;fill-rule:evenodd;}</style></defs><title>Asset 1</title><g id="Layer_2" data-name="Layer 2"><g id="Layer_1-2" data-name="Layer 1"><rect x="2.55" width="32.19" height="32.19"/><path class="cls-1" d="M37.24,24.73a.19.19,0,0,0-.14-.07H.19a.19.19,0,0,0-.14.07.19.19,0,0,0,0,.12H0v0s.56,3.45,4.88,3.45H32.4c4.32,0,4.88-3.42,4.88-3.45a.18.18,0,0,0,0-.15ZM21.42,27.14H15.87V25.86h5.55Z"/><path class="cls-1" d="M4,23.34H33.26a.77.77,0,0,0,.77-.77v-18a.77.77,0,0,0-.77-.77H4a.77.77,0,0,0-.77.77v18a.77.77,0,0,0,.77.77ZM5.94,6.53H31.35V20.66H5.94Z"/></g></g></svg>