<svg xmlns="http://www.w3.org/2000/svg" xmlns:xlink="http://www.w3.org/1999/xlink" viewBox="0 0 38.3 20.69"><defs><style>.cls-1{fill:none;clip-rule:evenodd;}.cls-2{clip-path:url(#clip-path);}.cls-3{fill:#363636;}.cls-4{fill:#353535;}.cls-5{fill:#343434;}.cls-6,.cls-68{fill:#333;}.cls-7{fill:#323232;}.cls-8{fill:#313131;}.cls-9{fill:#303030;}.cls-10{fill:#2f2f2f;}.cls-11{fill:#2e2e2e;}.cls-12{fill:#2d2d2d;}.cls-13{fill:#2c2c2c;}.cls-14{fill:#2b2b2b;}.cls-15{fill:#2a2a2a;}.cls-16{fill:#292929;}.cls-17{fill:#282828;}.cls-18{fill:#272727;}.cls-19{fill:#262626;}.cls-20{fill:#252525;}.cls-21{fill:#242424;}.cls-22{fill:#232323;}.cls-23{fill:#222;}.cls-24{fill:#212121;}.cls-25{fill:#202020;}.cls-26{fill:#1f1f1f;}.cls-27{fill:#1e1e1e;}.cls-28{fill:#1d1d1d;}.cls-29{fill:#1c1c1c;}.cls-30{fill:#1b1b1b;}.cls-31{fill:#1a1a1a;}.cls-32{fill:#191919;}.cls-33{fill:#181818;}.cls-34{fill:#171717;}.cls-35{fill:#161616;}.cls-36{fill:#151515;}.cls-37{fill:#141414;}.cls-38{fill:#131313;}.cls-39{fill:#121212;}.cls-40{fill:#111;}.cls-41{fill:#101010;}.cls-42{fill:#0f0f0f;}.cls-43{fill:#0e0e0e;}.cls-44{fill:#0d0d0d;}.cls-45{fill:#0c0c0c;}.cls-46{fill:#0b0b0b;}.cls-47{fill:#0a0a0a;}.cls-48{fill:#090909;}.cls-49{fill:#080808;}.cls-50{fill:#070707;}.cls-51{fill:#060606;}.cls-52{clip-path:url(#clip-path-2);}.cls-53{fill:#444;}.cls-54{fill:#434343;}.cls-55{fill:#424242;}.cls-56{fill:#414141;}.cls-57{fill:#404040;}.cls-58{fill:#3f3f3f;}.cls-59{fill:#3e3e3e;}.cls-60{fill:#3d3d3d;}.cls-61{fill:#3c3c3c;}.cls-62{fill:#3b3b3b;}.cls-63{fill:#3a3a3a;}.cls-64{fill:#393939;}.cls-65{fill:#383838;}.cls-66{fill:#373737;}.cls-67{fill:#4d4d4d;}.cls-67,.cls-68,.cls-69{fill-rule:evenodd;}.cls-69{fill:#fff;}.cls-70{font-size:5.01px;fill:#e6e6e6;font-family:SupriaSans-CondBold, Supria Sans;font-weight:700;}</style><clipPath id="clip-path"><path class="cls-1" d="M28.26,19.91H10A9.58,9.58,0,0,1,.49,10.35h0A9.58,9.58,0,0,1,10,.79H28.26a9.58,9.58,0,0,1,9.56,9.56h0A9.58,9.58,0,0,1,28.26,19.91Z"/></clipPath><clipPath id="clip-path-2"><path class="cls-1" d="M28,0H10.34A10.36,10.36,0,0,0,0,10.35H0A10.36,10.36,0,0,0,10.34,20.68H28A10.36,10.36,0,0,0,38.3,10.35h0A10.36,10.36,0,0,0,28,0Zm0,1.08a9.28,9.28,0,0,1,9.25,9.25h0A9.28,9.28,0,0,1,28,19.6H10.34a9.28,9.28,0,0,1-9.25-9.25h0a9.28,9.28,0,0,1,9.25-9.25Z"/></clipPath></defs><title>Asset 3</title><g id="Layer_2" data-name="Layer 2"><g id="Layer_1-2" data-name="Layer 1"><g class="cls-2"><rect class="cls-3" x="0.49" y="0.78" width="37.32" height="0.01"/><rect class="cls-3" x="0.49" y="0.73" width="37.32" height="0.16"/><rect class="cls-4" x="0.49" y="0.84" width="37.32" height="0.16"/><rect class="cls-4" x="0.49" y="0.94" width="37.32" height="0.16"/><rect class="cls-4" x="0.49" y="1.05" width="37.32" height="0.16"/><rect class="cls-4" x="0.49" y="1.16" width="37.32" height="0.16"/><rect class="cls-5" x="0.49" y="1.27" width="37.32" height="0.16"/><rect class="cls-5" x="0.49" y="1.37" width="37.32" height="0.16"/><rect class="cls-5" x="0.49" y="1.48" width="37.32" height="0.16"/><rect class="cls-6" x="0.49" y="1.59" width="37.32" height="0.16"/><rect class="cls-6" x="0.49" y="1.7" width="37.32" height="0.16"/><rect class="cls-6" x="0.49" y="1.8" width="37.32" height="0.16"/><rect class="cls-6" x="0.49" y="1.91" width="37.32" height="0.16"/><rect class="cls-7" x="0.49" y="2.02" width="37.32" height="0.16"/><rect class="cls-7" x="0.49" y="2.13" width="37.32" height="0.16"/><rect class="cls-7" x="0.49" y="2.23" width="37.32" height="0.16"/><rect class="cls-7" x="0.49" y="2.34" width="37.32" height="0.16"/><rect class="cls-8" x="0.49" y="2.45" width="37.32" height="0.16"/><rect class="cls-8" x="0.49" y="2.56" width="37.32" height="0.16"/><rect class="cls-8" x="0.49" y="2.66" width="37.32" height="0.16"/><rect class="cls-8" x="0.49" y="2.77" width="37.32" height="0.16"/><rect class="cls-9" x="0.49" y="2.88" width="37.32" height="0.16"/><rect class="cls-9" x="0.49" y="2.99" width="37.32" height="0.16"/><rect class="cls-9" x="0.49" y="3.09" width="37.32" height="0.16"/><rect class="cls-10" x="0.49" y="3.2" width="37.32" height="0.16"/><rect class="cls-10" x="0.49" y="3.31" width="37.32" height="0.16"/><rect class="cls-10" x="0.49" y="3.42" width="37.32" height="0.16"/><rect class="cls-10" x="0.49" y="3.52" width="37.32" height="0.16"/><rect class="cls-11" x="0.49" y="3.63" width="37.32" height="0.16"/><rect class="cls-11" x="0.49" y="3.74" width="37.32" height="0.16"/><rect class="cls-11" x="0.49" y="3.85" width="37.32" height="0.16"/><rect class="cls-11" x="0.49" y="3.95" width="37.32" height="0.16"/><rect class="cls-12" x="0.49" y="4.06" width="37.32" height="0.16"/><rect class="cls-12" x="0.49" y="4.17" width="37.32" height="0.16"/><rect class="cls-12" x="0.49" y="4.28" width="37.32" height="0.16"/><rect class="cls-12" x="0.49" y="4.38" width="37.32" height="0.16"/><rect class="cls-13" x="0.49" y="4.49" width="37.32" height="0.16"/><rect class="cls-13" x="0.49" y="4.6" width="37.32" height="0.16"/><rect class="cls-13" x="0.49" y="4.71" width="37.32" height="0.16"/><rect class="cls-14" x="0.49" y="4.81" width="37.32" height="0.16"/><rect class="cls-14" x="0.49" y="4.92" width="37.32" height="0.16"/><rect class="cls-14" x="0.49" y="5.03" width="37.32" height="0.16"/><rect class="cls-14" x="0.49" y="5.14" width="37.32" height="0.16"/><rect class="cls-15" x="0.49" y="5.24" width="37.32" height="0.16"/><rect class="cls-15" x="0.49" y="5.35" width="37.32" height="0.16"/><rect class="cls-15" x="0.49" y="5.46" width="37.32" height="0.16"/><rect class="cls-15" x="0.49" y="5.57" width="37.32" height="0.16"/><rect class="cls-16" x="0.49" y="5.67" width="37.32" height="0.16"/><rect class="cls-16" x="0.49" y="5.78" width="37.32" height="0.16"/><rect class="cls-16" x="0.49" y="5.89" width="37.32" height="0.16"/><rect class="cls-16" x="0.49" y="6" width="37.32" height="0.16"/><rect class="cls-17" x="0.49" y="6.1" width="37.32" height="0.16"/><rect class="cls-17" x="0.49" y="6.21" width="37.32" height="0.16"/><rect class="cls-17" x="0.49" y="6.32" width="37.32" height="0.16"/><rect class="cls-18" x="0.49" y="6.43" width="37.32" height="0.16"/><rect class="cls-18" x="0.49" y="6.53" width="37.32" height="0.16"/><rect class="cls-18" x="0.49" y="6.64" width="37.32" height="0.16"/><rect class="cls-18" x="0.49" y="6.75" width="37.32" height="0.16"/><rect class="cls-19" x="0.49" y="6.86" width="37.32" height="0.16"/><rect class="cls-19" x="0.49" y="6.96" width="37.32" height="0.16"/><rect class="cls-19" x="0.49" y="7.07" width="37.32" height="0.16"/><rect class="cls-19" x="0.49" y="7.18" width="37.32" height="0.16"/><rect class="cls-20" x="0.49" y="7.29" width="37.32" height="0.16"/><rect class="cls-20" x="0.49" y="7.39" width="37.32" height="0.16"/><rect class="cls-20" x="0.49" y="7.5" width="37.32" height="0.16"/><rect class="cls-20" x="0.49" y="7.61" width="37.32" height="0.16"/><rect class="cls-21" x="0.49" y="7.72" width="37.32" height="0.16"/><rect class="cls-21" x="0.49" y="7.82" width="37.32" height="0.16"/><rect class="cls-21" x="0.49" y="7.93" width="37.32" height="0.16"/><rect class="cls-22" x="0.49" y="8.04" width="37.32" height="0.16"/><rect class="cls-22" x="0.49" y="8.15" width="37.32" height="0.16"/><rect class="cls-22" x="0.49" y="8.25" width="37.32" height="0.16"/><rect class="cls-22" x="0.49" y="8.36" width="37.32" height="0.16"/><rect class="cls-23" x="0.49" y="8.47" width="37.32" height="0.16"/><rect class="cls-23" x="0.49" y="8.58" width="37.32" height="0.16"/><rect class="cls-23" x="0.49" y="8.68" width="37.32" height="0.16"/><rect class="cls-23" x="0.49" y="8.79" width="37.32" height="0.16"/><rect class="cls-24" x="0.49" y="8.9" width="37.32" height="0.16"/><rect class="cls-24" x="0.49" y="9.01" width="37.32" height="0.16"/><rect class="cls-24" x="0.49" y="9.11" width="37.32" height="0.16"/><rect class="cls-24" x="0.49" y="9.22" width="37.32" height="0.16"/><rect class="cls-25" x="0.49" y="9.33" width="37.32" height="0.16"/><rect class="cls-25" x="0.49" y="9.44" width="37.32" height="0.16"/><rect class="cls-25" x="0.49" y="9.54" width="37.32" height="0.16"/><rect class="cls-26" x="0.49" y="9.65" width="37.32" height="0.16"/><rect class="cls-26" x="0.49" y="9.76" width="37.32" height="0.16"/><rect class="cls-26" x="0.49" y="9.87" width="37.32" height="0.16"/><rect class="cls-26" x="0.49" y="9.97" width="37.32" height="0.16"/><rect class="cls-27" x="0.49" y="10.08" width="37.32" height="0.16"/><rect class="cls-27" x="0.49" y="10.19" width="37.32" height="0.16"/><rect class="cls-27" x="0.49" y="10.3" width="37.32" height="0.16"/><rect class="cls-27" x="0.49" y="10.4" width="37.32" height="0.16"/><rect class="cls-28" x="0.49" y="10.51" width="37.32" height="0.16"/><rect class="cls-28" x="0.49" y="10.62" width="37.32" height="0.16"/><rect class="cls-28" x="0.49" y="10.73" width="37.32" height="0.16"/><rect class="cls-28" x="0.49" y="10.83" width="37.32" height="0.16"/><rect class="cls-29" x="0.49" y="10.94" width="37.32" height="0.16"/><rect class="cls-29" x="0.49" y="11.05" width="37.32" height="0.16"/><rect class="cls-29" x="0.49" y="11.16" width="37.32" height="0.16"/><rect class="cls-30" x="0.49" y="11.26" width="37.32" height="0.16"/><rect class="cls-30" x="0.49" y="11.37" width="37.32" height="0.16"/><rect class="cls-30" x="0.49" y="11.48" width="37.32" height="0.16"/><rect class="cls-30" x="0.49" y="11.59" width="37.32" height="0.16"/><rect class="cls-31" x="0.49" y="11.69" width="37.32" height="0.16"/><rect class="cls-31" x="0.49" y="11.8" width="37.32" height="0.16"/><rect class="cls-31" x="0.49" y="11.91" width="37.32" height="0.16"/><rect class="cls-31" x="0.49" y="12.02" width="37.32" height="0.16"/><rect class="cls-32" x="0.49" y="12.12" width="37.32" height="0.16"/><rect class="cls-32" x="0.49" y="12.23" width="37.32" height="0.16"/><rect class="cls-32" x="0.49" y="12.34" width="37.32" height="0.16"/><rect class="cls-32" x="0.49" y="12.45" width="37.32" height="0.16"/><rect class="cls-33" x="0.49" y="12.55" width="37.32" height="0.16"/><rect class="cls-33" x="0.49" y="12.66" width="37.32" height="0.16"/><rect class="cls-33" x="0.49" y="12.77" width="37.32" height="0.16"/><rect class="cls-34" x="0.49" y="12.88" width="37.32" height="0.16"/><rect class="cls-34" x="0.49" y="12.98" width="37.32" height="0.16"/><rect class="cls-34" x="0.49" y="13.09" width="37.32" height="0.16"/><rect class="cls-34" x="0.49" y="13.2" width="37.32" height="0.16"/><rect class="cls-35" x="0.49" y="13.31" width="37.32" height="0.16"/><rect class="cls-35" x="0.49" y="13.41" width="37.32" height="0.16"/><rect class="cls-35" x="0.49" y="13.52" width="37.32" height="0.16"/><rect class="cls-35" x="0.49" y="13.63" width="37.32" height="0.16"/><rect class="cls-36" x="0.49" y="13.74" width="37.32" height="0.16"/><rect class="cls-36" x="0.49" y="13.84" width="37.32" height="0.16"/><rect class="cls-36" x="0.49" y="13.95" width="37.32" height="0.16"/><rect class="cls-36" x="0.49" y="14.06" width="37.32" height="0.16"/><rect class="cls-37" x="0.49" y="14.17" width="37.32" height="0.16"/><rect class="cls-37" x="0.49" y="14.27" width="37.32" height="0.16"/><rect class="cls-37" x="0.49" y="14.38" width="37.32" height="0.16"/><rect class="cls-38" x="0.49" y="14.49" width="37.32" height="0.16"/><rect class="cls-38" x="0.49" y="14.6" width="37.32" height="0.16"/><rect class="cls-38" x="0.49" y="14.7" width="37.32" height="0.16"/><rect class="cls-38" x="0.49" y="14.81" width="37.32" height="0.16"/><rect class="cls-39" x="0.49" y="14.92" width="37.32" height="0.16"/><rect class="cls-39" x="0.49" y="15.03" width="37.32" height="0.16"/><rect class="cls-39" x="0.49" y="15.13" width="37.32" height="0.16"/><rect class="cls-39" x="0.49" y="15.24" width="37.32" height="0.16"/><rect class="cls-40" x="0.49" y="15.35" width="37.32" height="0.16"/><rect class="cls-40" x="0.49" y="15.46" width="37.32" height="0.16"/><rect class="cls-40" x="0.49" y="15.56" width="37.32" height="0.16"/><rect class="cls-40" x="0.49" y="15.67" width="37.32" height="0.16"/><rect class="cls-41" x="0.49" y="15.78" width="37.32" height="0.16"/><rect class="cls-41" x="0.49" y="15.89" width="37.32" height="0.16"/><rect class="cls-41" x="0.49" y="15.99" width="37.32" height="0.16"/><rect class="cls-42" x="0.49" y="16.1" width="37.32" height="0.16"/><rect class="cls-42" x="0.49" y="16.21" width="37.32" height="0.16"/><rect class="cls-42" x="0.49" y="16.32" width="37.32" height="0.16"/><rect class="cls-42" x="0.49" y="16.42" width="37.32" height="0.16"/><rect class="cls-43" x="0.49" y="16.53" width="37.32" height="0.16"/><rect class="cls-43" x="0.49" y="16.64" width="37.32" height="0.16"/><rect class="cls-43" x="0.49" y="16.75" width="37.32" height="0.16"/><rect class="cls-43" x="0.49" y="16.85" width="37.32" height="0.16"/><rect class="cls-44" x="0.49" y="16.96" width="37.32" height="0.16"/><rect class="cls-44" x="0.49" y="17.07" width="37.32" height="0.16"/><rect class="cls-44" x="0.49" y="17.18" width="37.32" height="0.16"/><rect class="cls-44" x="0.49" y="17.28" width="37.32" height="0.16"/><rect class="cls-45" x="0.49" y="17.39" width="37.32" height="0.16"/><rect class="cls-45" x="0.49" y="17.5" width="37.32" height="0.16"/><rect class="cls-45" x="0.49" y="17.61" width="37.32" height="0.16"/><rect class="cls-46" x="0.49" y="17.71" width="37.32" height="0.16"/><rect class="cls-46" x="0.49" y="17.82" width="37.32" height="0.16"/><rect class="cls-46" x="0.49" y="17.93" width="37.32" height="0.16"/><rect class="cls-46" x="0.49" y="18.04" width="37.32" height="0.16"/><rect class="cls-47" x="0.49" y="18.14" width="37.32" height="0.16"/><rect class="cls-47" x="0.49" y="18.25" width="37.32" height="0.16"/><rect class="cls-47" x="0.49" y="18.36" width="37.32" height="0.16" transform="translate(-0.03 0.04) rotate(-0.11)"/><rect class="cls-47" x="0.49" y="18.47" width="37.32" height="0.16"/><rect class="cls-48" x="0.49" y="18.57" width="37.32" height="0.16"/><rect class="cls-48" x="0.49" y="18.68" width="37.32" height="0.16"/><rect class="cls-48" x="0.49" y="18.79" width="37.32" height="0.16"/><rect class="cls-48" x="0.49" y="18.9" width="37.32" height="0.16"/><rect class="cls-49" x="0.49" y="19" width="37.32" height="0.16"/><rect class="cls-49" x="0.49" y="19.11" width="37.32" height="0.16"/><rect class="cls-49" x="0.49" y="19.22" width="37.32" height="0.16"/><rect class="cls-50" x="0.49" y="19.33" width="37.32" height="0.16"/><rect class="cls-50" x="0.49" y="19.43" width="37.32" height="0.16"/><rect class="cls-50" x="0.49" y="19.54" width="37.32" height="0.16"/><rect class="cls-50" x="0.49" y="19.65" width="37.32" height="0.16"/><rect class="cls-51" x="0.49" y="19.76" width="37.32" height="0.16"/><rect class="cls-51" x="0.49" y="19.86" width="37.32" height="0.04"/></g><g class="cls-52"><rect class="cls-53" y="18.86" width="38.3" height="1.82"/><rect class="cls-53" y="18.78" width="38.3" height="0.13"/><rect class="cls-54" y="18.69" width="38.3" height="0.13" transform="translate(-0.04 0.05) rotate(-0.13)"/><rect class="cls-54" y="18.61" width="38.3" height="0.13"/><rect class="cls-54" y="18.52" width="38.3" height="0.13"/><rect class="cls-54" y="18.44" width="38.3" height="0.13"/><rect class="cls-55" y="18.35" width="38.3" height="0.13"/><rect class="cls-55" y="18.27" width="38.3" height="0.13"/><rect class="cls-55" y="18.18" width="38.3" height="0.13"/><rect class="cls-55" y="18.1" width="38.3" height="0.13"/><rect class="cls-56" y="18.01" width="38.3" height="0.13"/><rect class="cls-56" y="17.93" width="38.3" height="0.13"/><rect class="cls-56" y="17.84" width="38.3" height="0.13"/><rect class="cls-56" y="17.76" width="38.3" height="0.13"/><rect class="cls-57" y="17.67" width="38.3" height="0.13"/><rect class="cls-57" y="17.59" width="38.3" height="0.13"/><rect class="cls-57" y="17.5" width="38.3" height="0.13"/><rect class="cls-58" y="17.42" width="38.3" height="0.13"/><rect class="cls-58" y="17.33" width="38.3" height="0.13"/><rect class="cls-58" y="17.25" width="38.3" height="0.13"/><rect class="cls-58" y="17.16" width="38.3" height="0.13"/><rect class="cls-59" y="17.08" width="38.3" height="0.13"/><rect class="cls-59" y="16.99" width="38.3" height="0.13"/><rect class="cls-59" y="16.91" width="38.3" height="0.13"/><rect class="cls-59" y="16.82" width="38.3" height="0.13"/><rect class="cls-60" y="16.74" width="38.3" height="0.13"/><rect class="cls-60" y="16.65" width="38.3" height="0.13"/><rect class="cls-60" y="16.57" width="38.3" height="0.13"/><rect class="cls-60" y="16.48" width="38.3" height="0.13"/><rect class="cls-61" y="16.4" width="38.3" height="0.13"/><rect class="cls-61" y="16.31" width="38.3" height="0.13"/><rect class="cls-61" y="16.23" width="38.3" height="0.13"/><rect class="cls-62" y="16.14" width="38.3" height="0.13"/><rect class="cls-62" y="16.06" width="38.3" height="0.13"/><rect class="cls-62" y="15.97" width="38.3" height="0.13"/><rect class="cls-62" y="15.89" width="38.3" height="0.13"/><rect class="cls-63" y="15.8" width="38.3" height="0.13"/><rect class="cls-63" y="15.72" width="38.3" height="0.13"/><rect class="cls-63" y="15.63" width="38.3" height="0.13"/><rect class="cls-63" y="15.55" width="38.3" height="0.13"/><rect class="cls-64" y="15.46" width="38.3" height="0.13"/><rect class="cls-64" y="15.38" width="38.3" height="0.13"/><rect class="cls-64" y="15.29" width="38.3" height="0.13"/><rect class="cls-64" y="15.21" width="38.3" height="0.13"/><rect class="cls-65" y="15.12" width="38.3" height="0.13"/><rect class="cls-65" y="15.04" width="38.3" height="0.13"/><rect class="cls-65" y="14.95" width="38.3" height="0.13"/><rect class="cls-66" y="14.87" width="38.3" height="0.13"/><rect class="cls-66" y="14.78" width="38.3" height="0.13"/><rect class="cls-66" y="14.7" width="38.3" height="0.13"/><rect class="cls-66" y="14.61" width="38.3" height="0.13"/><rect class="cls-3" y="14.53" width="38.3" height="0.13"/><rect class="cls-3" y="14.44" width="38.3" height="0.13"/><rect class="cls-3" y="14.36" width="38.3" height="0.13"/><rect class="cls-3" y="14.27" width="38.3" height="0.13"/><rect class="cls-4" y="14.19" width="38.3" height="0.13"/><rect class="cls-4" y="14.1" width="38.3" height="0.13"/><rect class="cls-4" y="14.02" width="38.3" height="0.13"/><rect class="cls-4" y="13.93" width="38.3" height="0.13"/><rect class="cls-5" y="13.85" width="38.3" height="0.13"/><rect class="cls-5" y="13.76" width="38.3" height="0.13"/><rect class="cls-5" y="13.68" width="38.3" height="0.13"/><rect class="cls-6" y="13.6" width="38.3" height="0.13"/><rect class="cls-6" y="13.51" width="38.3" height="0.13"/><rect class="cls-6" y="13.42" width="38.3" height="0.13"/><rect class="cls-6" y="13.34" width="38.3" height="0.13"/><rect class="cls-7" y="13.26" width="38.3" height="0.13" transform="translate(-0.03 0.05) rotate(-0.14)"/><rect class="cls-7" y="13.17" width="38.3" height="0.13"/><rect class="cls-7" y="13.09" width="38.3" height="0.13"/><rect class="cls-7" y="13" width="38.3" height="0.13"/><rect class="cls-8" y="12.92" width="38.3" height="0.13"/><rect class="cls-8" y="12.83" width="38.3" height="0.13"/><rect class="cls-8" y="12.75" width="38.3" height="0.13"/><rect class="cls-8" y="12.66" width="38.3" height="0.13"/><rect class="cls-9" y="12.58" width="38.3" height="0.13"/><rect class="cls-9" y="12.49" width="38.3" height="0.13"/><rect class="cls-9" y="12.41" width="38.3" height="0.13"/><rect class="cls-10" y="12.32" width="38.3" height="0.13"/><rect class="cls-10" y="12.24" width="38.3" height="0.13"/><rect class="cls-10" y="12.15" width="38.3" height="0.13"/><rect class="cls-10" y="12.07" width="38.3" height="0.13"/><rect class="cls-11" y="11.98" width="38.3" height="0.13"/><rect class="cls-11" y="11.9" width="38.3" height="0.13"/><rect class="cls-11" y="11.81" width="38.3" height="0.13"/><rect class="cls-11" y="11.73" width="38.3" height="0.13"/><rect class="cls-12" y="11.64" width="38.3" height="0.13"/><rect class="cls-12" y="11.56" width="38.3" height="0.13"/><rect class="cls-12" y="11.47" width="38.3" height="0.13"/><rect class="cls-12" y="11.39" width="38.3" height="0.13"/><rect class="cls-13" y="11.3" width="38.3" height="0.13"/><rect class="cls-13" y="11.22" width="38.3" height="0.13"/><rect class="cls-13" y="11.13" width="38.3" height="0.13"/><rect class="cls-14" y="11.05" width="38.3" height="0.13"/><rect class="cls-14" y="10.96" width="38.3" height="0.13"/><rect class="cls-14" y="10.88" width="38.3" height="0.13"/><rect class="cls-14" y="10.79" width="38.3" height="0.13"/><rect class="cls-15" y="10.71" width="38.3" height="0.13"/><rect class="cls-15" y="10.62" width="38.3" height="0.13"/><rect class="cls-15" y="10.54" width="38.3" height="0.13"/><rect class="cls-15" y="10.45" width="38.3" height="0.13"/><rect class="cls-16" y="10.37" width="38.3" height="0.13"/><rect class="cls-16" y="10.28" width="38.3" height="0.13"/><rect class="cls-16" y="10.2" width="38.3" height="0.13"/><rect class="cls-16" y="10.11" width="38.3" height="0.13"/><rect class="cls-17" y="10.03" width="38.3" height="0.13"/><rect class="cls-17" y="9.94" width="38.3" height="0.13"/><rect class="cls-17" y="9.86" width="38.3" height="0.13"/><rect class="cls-18" y="9.77" width="38.3" height="0.13"/><rect class="cls-18" y="9.69" width="38.3" height="0.13"/><rect class="cls-18" y="9.6" width="38.3" height="0.13"/><rect class="cls-18" y="9.52" width="38.3" height="0.13"/><rect class="cls-19" y="9.43" width="38.3" height="0.13"/><rect class="cls-19" y="9.35" width="38.3" height="0.13"/><rect class="cls-19" y="9.26" width="38.3" height="0.13"/><rect class="cls-19" y="9.18" width="38.3" height="0.13"/><rect class="cls-20" y="9.09" width="38.3" height="0.13"/><rect class="cls-20" y="9.01" width="38.3" height="0.13"/><rect class="cls-20" y="8.92" width="38.3" height="0.13"/><rect class="cls-20" y="8.84" width="38.3" height="0.13"/><rect class="cls-21" y="8.75" width="38.3" height="0.13"/><rect class="cls-21" y="8.67" width="38.3" height="0.13"/><rect class="cls-21" y="8.58" width="38.3" height="0.13"/><rect class="cls-22" y="8.5" width="38.3" height="0.13"/><rect class="cls-22" y="8.41" width="38.3" height="0.13"/><rect class="cls-22" y="8.33" width="38.3" height="0.13"/><rect class="cls-22" y="8.24" width="38.3" height="0.13"/><rect class="cls-23" y="8.16" width="38.3" height="0.13"/><rect class="cls-23" y="8.07" width="38.3" height="0.13"/><rect class="cls-23" y="7.99" width="38.3" height="0.13"/><rect class="cls-23" y="7.9" width="38.3" height="0.13"/><rect class="cls-24" y="7.82" width="38.3" height="0.13" transform="translate(-0.02 0.05) rotate(-0.13)"/><rect class="cls-24" y="7.73" width="38.3" height="0.13"/><rect class="cls-24" y="7.65" width="38.3" height="0.13"/><rect class="cls-24" y="7.56" width="38.3" height="0.13"/><rect class="cls-25" y="7.48" width="38.3" height="0.13"/><rect class="cls-25" y="7.39" width="38.3" height="0.13"/><rect class="cls-25" y="7.31" width="38.3" height="0.13"/><rect class="cls-26" y="7.22" width="38.3" height="0.13"/><rect class="cls-26" y="7.14" width="38.3" height="0.13"/><rect class="cls-26" y="7.05" width="38.3" height="0.13"/><rect class="cls-26" y="6.97" width="38.3" height="0.13"/><rect class="cls-27" y="6.88" width="38.3" height="0.13"/><rect class="cls-27" y="6.8" width="38.3" height="0.13"/><rect class="cls-27" y="6.71" width="38.3" height="0.13"/><rect class="cls-27" y="6.63" width="38.3" height="0.13"/><rect class="cls-28" y="6.54" width="38.3" height="0.13"/><rect class="cls-28" y="6.46" width="38.3" height="0.13"/><rect class="cls-28" y="6.37" width="38.3" height="0.13"/><rect class="cls-28" y="6.29" width="38.3" height="0.13"/><rect class="cls-29" y="6.2" width="38.3" height="0.13"/><rect class="cls-29" y="6.12" width="38.3" height="0.13"/><rect class="cls-29" y="6.03" width="38.3" height="0.13"/><rect class="cls-30" y="5.95" width="38.3" height="0.13"/><rect class="cls-30" y="5.86" width="38.3" height="0.13"/><rect class="cls-30" y="5.78" width="38.3" height="0.13"/><rect class="cls-30" y="5.69" width="38.3" height="0.13"/><rect class="cls-31" y="5.61" width="38.3" height="0.13"/><rect class="cls-31" y="5.52" width="38.3" height="0.13"/><rect class="cls-31" y="5.44" width="38.3" height="0.13"/><rect class="cls-31" y="5.35" width="38.3" height="0.13"/><rect class="cls-32" y="5.27" width="38.3" height="0.13"/><rect class="cls-32" y="5.18" width="38.3" height="0.13"/><rect class="cls-32" y="5.1" width="38.3" height="0.13"/><rect class="cls-32" y="5.01" width="38.3" height="0.13"/><rect class="cls-33" y="4.93" width="38.3" height="0.13"/><rect class="cls-33" y="4.84" width="38.3" height="0.13"/><rect class="cls-33" y="4.76" width="38.3" height="0.13"/><rect class="cls-34" y="4.67" width="38.3" height="0.13"/><rect class="cls-34" y="4.59" width="38.3" height="0.13"/><rect class="cls-34" y="4.5" width="38.3" height="0.13"/><rect class="cls-34" y="4.42" width="38.3" height="0.13"/><rect class="cls-35" y="4.33" width="38.3" height="0.13"/><rect class="cls-35" y="4.25" width="38.3" height="0.13"/><rect class="cls-35" y="4.16" width="38.3" height="0.13"/><rect class="cls-35" y="4.08" width="38.3" height="0.13"/><rect class="cls-36" y="3.99" width="38.3" height="0.13"/><rect class="cls-36" y="3.91" width="38.3" height="0.13"/><rect class="cls-36" y="3.82" width="38.3" height="0.13"/><rect class="cls-36" y="3.74" width="38.3" height="0.13"/><rect class="cls-37" y="3.65" width="38.3" height="0.13"/><rect class="cls-37" y="3.57" width="38.3" height="0.13"/><rect class="cls-37" y="3.48" width="38.3" height="0.13"/><rect class="cls-38" y="3.4" width="38.3" height="0.13"/><rect class="cls-38" y="3.31" width="38.3" height="0.13"/><rect class="cls-38" y="3.23" width="38.3" height="0.13"/><rect class="cls-38" y="3.14" width="38.3" height="0.13"/><rect class="cls-39" y="3.06" width="38.3" height="0.13"/><rect class="cls-39" y="2.97" width="38.3" height="0.13"/><rect class="cls-39" y="2.89" width="38.3" height="0.13"/><rect class="cls-39" y="2.8" width="38.3" height="0.13"/><rect class="cls-40" y="2.72" width="38.3" height="0.13"/><rect class="cls-40" y="2.63" width="38.3" height="0.13"/><rect class="cls-40" y="2.55" width="38.3" height="0.13"/><rect class="cls-40" y="2.46" width="38.3" height="0.13"/><rect class="cls-41" y="2.38" width="38.3" height="0.13" transform="translate(0 0.03) rotate(-0.09)"/><rect class="cls-41" y="2.3" width="38.3" height="0.13"/><rect class="cls-41" y="2.21" width="38.3" height="0.13"/><rect class="cls-42" y="2.13" width="38.3" height="0.13"/><rect class="cls-42" y="2.04" width="38.3" height="0.13"/><rect class="cls-42" y="1.96" width="38.3" height="0.13"/><rect class="cls-42" y="1.87" width="38.3" height="0.13"/><rect class="cls-43" y="1.79" width="38.3" height="0.13"/><rect class="cls-43" y="1.7" width="38.3" height="0.13"/><rect class="cls-43" y="1.62" width="38.3" height="0.13"/><rect class="cls-43" y="1.53" width="38.3" height="0.13"/><rect class="cls-44" y="1.45" width="38.3" height="0.13"/><rect class="cls-44" y="1.36" width="38.3" height="0.13"/><rect class="cls-44" y="1.28" width="38.3" height="0.13"/><rect class="cls-44" y="1.19" width="38.3" height="0.13"/><rect class="cls-45" y="1.11" width="38.3" height="0.13"/><rect class="cls-45" y="1.02" width="38.3" height="0.13"/><rect class="cls-45" y="0.94" width="38.3" height="0.13"/><rect class="cls-46" y="0.85" width="38.3" height="0.13"/><rect class="cls-46" y="0.77" width="38.3" height="0.13"/><rect class="cls-46" y="0.68" width="38.3" height="0.13"/><rect class="cls-46" y="0.6" width="38.3" height="0.13"/><rect class="cls-47" y="0.51" width="38.3" height="0.13"/><rect class="cls-47" y="0.43" width="38.3" height="0.13"/><rect class="cls-47" y="0.34" width="38.3" height="0.13"/><rect class="cls-47" y="0.26" width="38.3" height="0.13"/><rect class="cls-48" y="0.17" width="38.3" height="0.13"/><rect class="cls-48" y="0.09" width="38.3" height="0.13"/><rect class="cls-48" width="38.3" height="0.13"/><rect class="cls-48" y="0.01" width="38.3" height="0.03"/></g><path class="cls-67" d="M10.69,18.69a8.34,8.34,0,1,0-8.34-8.34A8.36,8.36,0,0,0,10.69,18.69Z"/><path class="cls-68" d="M10.69,17.61a7.26,7.26,0,1,0-7.26-7.26A7.28,7.28,0,0,0,10.69,17.61Z"/><path class="cls-69" d="M10.69,17.25a6.9,6.9,0,1,0-6.9-6.9A6.92,6.92,0,0,0,10.69,17.25Z"/><text class="cls-70" transform="translate(22.99 12.08)">OFF</text></g></g></svg>