<svg xmlns="http://www.w3.org/2000/svg" viewBox="0 0 31.13 32.19"><defs><style>.cls-1,.cls-2{fill:#c32026;}.cls-2{fill-rule:evenodd;}</style></defs><title>Asset 3</title><g id="Layer_2" data-name="Layer 2"><g id="Layer_1-2" data-name="Layer 1"><rect class="cls-1" x="7.46" y="7.56" width="16.21" height="17.06" rx="2.94" ry="2.94"/><path class="cls-2" d="M29.9,17.33a1.24,1.24,0,1,0,0-2.47H27.08V12.07H29.9a1.24,1.24,0,1,0,0-2.47H27.05a6,6,0,0,0-5-5.39v-3a1.24,1.24,0,0,0-2.47,0V4.13H16.8V1.24a1.24,1.24,0,0,0-2.47,0V4.13H11.54V1.24a1.24,1.24,0,0,0-2.47,0v3a6,6,0,0,0-5,5.39H1.24a1.24,1.24,0,1,0,0,2.47H4.06v2.79H1.24a1.24,1.24,0,1,0,0,2.47H4.06v2.79H1.24a1.24,1.24,0,1,0,0,2.47H4.08a6,6,0,0,0,5,5.39v3a1.24,1.24,0,0,0,2.47,0V28.06h2.79v2.89a1.24,1.24,0,0,0,2.47,0V28.06h2.79v2.89a1.24,1.24,0,0,0,2.47,0V28a6,6,0,0,0,5-5.39H29.9a1.24,1.24,0,1,0,0-2.47H27.08V17.33ZM25.1,22.06a4,4,0,0,1-4,4h-11a4,4,0,0,1-4-4V10.13a4,4,0,0,1,4-4h11a4,4,0,0,1,4,4Z"/></g></g></svg>