<svg xmlns="http://www.w3.org/2000/svg" viewBox="0 0 22.48 18.7"><defs><style>.cls-1{fill:#fff;fill-rule:evenodd;}</style></defs><title>Asset 7</title><g id="Layer_2" data-name="Layer 2"><g id="Layer_1-2" data-name="Layer 1"><path class="cls-1" d="M22.12,2.17a8.86,8.86,0,0,1-1.55.52,4.83,4.83,0,0,0,1.28-2,.25.25,0,0,0-.37-.3,8.93,8.93,0,0,1-2.37,1l-.15,0a.63.63,0,0,1-.41-.16A4.85,4.85,0,0,0,15.34,0,5.18,5.18,0,0,0,13.8.24a4.7,4.7,0,0,0-3.16,3.38,5.18,5.18,0,0,0-.11,1.78.18.18,0,0,1,0,.14.18.18,0,0,1-.13.06h0A12.71,12.71,0,0,1,1.59.93a.25.25,0,0,0-.42,0A4.85,4.85,0,0,0,2,6.86,4.34,4.34,0,0,1,.86,6.43a.25.25,0,0,0-.38.22,4.85,4.85,0,0,0,2.83,4.47h-.1A4.33,4.33,0,0,1,2.4,11a.25.25,0,0,0-.29.33,4.86,4.86,0,0,0,3.84,3.3,8.94,8.94,0,0,1-5,1.52H.37a.37.37,0,0,0-.36.28.38.38,0,0,0,.18.42,13.3,13.3,0,0,0,6.68,1.8,13.49,13.49,0,0,0,5.71-1.21,12.62,12.62,0,0,0,4.18-3.13,13.74,13.74,0,0,0,2.56-4.29,13.54,13.54,0,0,0,.87-4.69V5.3a.82.82,0,0,1,.31-.64,9.59,9.59,0,0,0,1.93-2.12A.25.25,0,0,0,22.12,2.17Z"/></g></g></svg>