<svg xmlns="http://www.w3.org/2000/svg" viewBox="0 0 32.19 23.6"><defs><style>.cls-1{fill:#c32026;fill-rule:evenodd;}</style></defs><title>Asset 4</title><g id="Layer_2" data-name="Layer 2"><g id="Layer_1-2" data-name="Layer 1"><path class="cls-1" d="M13.2,17.7c-.19-.21-.37-.43-.55-.67a8.53,8.53,0,0,1-1.87-4.76c0-.4-.05-.71-.05-1s0-.6,0-1a8.66,8.66,0,0,1,1.9-4.83c.16-.22.34-.43.52-.64H9.12c-2.37,0-4.29,2.89-4.29,6.44S6.75,17.7,9.12,17.7Z"/><path class="cls-1" d="M22.39,10.74a1.11,1.11,0,0,0-.16-.22l-.14-.11a1,1,0,0,0-.27-.15l0,0-.18,0-.13,0a1.07,1.07,0,0,0-.23,2.12h0l.21,0a1.13,1.13,0,0,0,.31,0l0,0a1.08,1.08,0,0,0,.66-.66v0l0-.19a1.1,1.1,0,0,0-.11-.64Z"/><path class="cls-1" d="M24.12,4.83H18.8a7,7,0,0,0,0,12.87h5.32a7,7,0,0,0,0-12.87Zm2,10L26,15l-.29,0a7.15,7.15,0,0,1-2.23-.74,3.19,3.19,0,0,0,.69.85.89.89,0,0,1,.3.85.86.86,0,0,1-.58.67,9.06,9.06,0,0,1-2.56.54,2.75,2.75,0,0,1-.39,0l-.28,0-.12-.26a7.34,7.34,0,0,1-.57-2.39,3.32,3.32,0,0,0-.42,1.12.89.89,0,0,1-.88.75.87.87,0,0,1-.57-.21,7.4,7.4,0,0,1-2-2.27L16,13.59l.16-.24a7.84,7.84,0,0,1,2.06-1.92,3.53,3.53,0,0,0-.55,0,3.1,3.1,0,0,0-.95.14.85.85,0,0,1-.28,0,.88.88,0,0,1-.7-.34.87.87,0,0,1-.16-.74A7.46,7.46,0,0,1,16.72,7.7l.19-.22.28,0a7.07,7.07,0,0,1,2.23.74,3.29,3.29,0,0,0-.69-.85.9.9,0,0,1-.31-.85A.87.87,0,0,1,19,5.88a7.57,7.57,0,0,1,3-.51l.28,0,.12.26a7.24,7.24,0,0,1,.56,2.39A3.23,3.23,0,0,0,23.35,7a.89.89,0,0,1,.88-.76.87.87,0,0,1,.57.21,7.44,7.44,0,0,1,2,2.27l.11.26-.16.24a7.89,7.89,0,0,1-2.06,1.93,3.5,3.5,0,0,0,.55,0,3.15,3.15,0,0,0,.95-.14.9.9,0,0,1,1,.29.87.87,0,0,1,.16.75A7.46,7.46,0,0,1,26.16,14.83Z"/><path class="cls-1" d="M2.68,2.14V.54A.54.54,0,0,0,2.14,0H.54a.54.54,0,1,0,0,1.07H1.61V3.76H0V7H1.61V8.58H1.07a.54.54,0,1,0,0,1.07h.53v.54H0v8H1.61v.54H1.07a.54.54,0,0,0,0,1.07h.53v3.22a.54.54,0,0,0,1.07,0V20.38H5.9v2.15H19.85V20.38H32.19V2.14Zm-1.07,15H1.07v-5.9h.53v5.9Zm0-11.27H1.07V4.83h.53V5.9ZM3.76,3.76a.54.54,0,1,1-.54.53.53.53,0,0,1,.54-.53Zm0,15a.54.54,0,1,1,.53-.54.54.54,0,0,1-.53.54Zm0-7.51c0-4.14,2.4-7.51,5.36-7.51H16l-1.12.95a8.74,8.74,0,0,0-1.35,1.44,7.51,7.51,0,0,0-1.66,4.22c0,.37,0,.64,0,.9s0,.53,0,.86a7.54,7.54,0,0,0,1.64,4.23,8.79,8.79,0,0,0,1.37,1.47l1.12.95H9.12c-3,0-5.36-3.37-5.36-7.51Zm15,10.19h-.54v-.54H17.17v.54h-.54v-.54H15.56v.54H15v-.54H13.95v.54h-.54v-.54H12.34v.54H11.8v-.54H10.73v.54h-.54v-.54H9.12v.54H8.58v-.54H7.51v.54H7V20.38h11.8v1.07Zm5.64-2.72-.09,0H18.59l-.09,0a8,8,0,0,1,0-14.95l.09,0h5.74l.09,0a8,8,0,0,1,0,14.95Zm5.62,0a.54.54,0,1,1,.54-.54.54.54,0,0,1-.54.54ZM30,4.83a.54.54,0,1,1,.54-.54A.54.54,0,0,1,30,4.83Z"/></g></g></svg>