<svg xmlns="http://www.w3.org/2000/svg" viewBox="0 0 177.48 40.92"><defs><style>.cls-1{fill:#fff;}.cls-1,.cls-2{fill-rule:evenodd;}.cls-2{fill:#c32026;}</style></defs><title>Asset 6</title><g id="Layer_2" data-name="Layer 2"><g id="Layer_1-2" data-name="Layer 1"><path class="cls-1" d="M55.83,12.58h4.71L52,19.32H48l-8.54-6.74h4.72l5.16,4h1.39l5.14-4Zm0,14.73h4.72L52,20.56H48l-8.52,6.75h4.71l5.16-4h1.39l5.14,4Zm55.83-2.76v-4H108.9V24a4,4,0,0,0,.62,2.69,4,4,0,0,0,2.69.62h17.87V24.55Zm0-9.21h0v4H108.9V15.9a4,4,0,0,1,.62-2.69,4,4,0,0,1,2.69-.62h17.87v2.76Zm-5.47,5.22v6.75h-2.76V20.56Zm0-8h0v6.75h-2.76V12.58ZM89.71,15.35h-4V12.58h6.75V27.31H89.71v-12Zm6.75,0h0v12H93.69V12.58h6.75v2.76ZM80.71,24.55H65.06v-4H62.3V24a4.06,4.06,0,0,0,.61,2.7,4.06,4.06,0,0,0,2.7.61H80.16a4.06,4.06,0,0,0,2.69-.61,4,4,0,0,0,.62-2.7V20.56H80.71v4Zm0-9.21H65.06v4H62.3V15.9a4.06,4.06,0,0,1,.61-2.69,4,4,0,0,1,2.7-.62H80.16a4,4,0,0,1,2.69.62,4,4,0,0,1,.62,2.69v3.44H80.71Z"/><path class="cls-2" d="M151.06,16.57H135.41V15.35h15.65v1.23Zm2.76,2.76h0V15.9a4,4,0,0,0-.62-2.69,4,4,0,0,0-2.69-.62H132.65v6.75Zm-18.41,8v-4h15.1a6,6,0,0,0,2.7-.35c.41-.3.61-1.1.61-2.41H132.65v6.75Zm23.66-12h0v4H156.3V15.9a4,4,0,0,1,.62-2.69,4,4,0,0,1,2.69-.62h17.87v2.76Zm0,9.21v-4H156.3V24a4,4,0,0,0,.62,2.69,4,4,0,0,0,2.69.62h17.87V24.55Z"/><path class="cls-2" d="M20.46,8.18h0l-6.13,4.25,6.13,5.11,6.13-5.11L20.46,8.18ZM26.92,3.7l6,3.44-4.87,4.06L22,7.14l5-3.44ZM14,3.7l5,3.44-6.12,4.06L8,7.14,14,3.7ZM20.46,0h0l-5,2.84,5,3.3,5-3.3L20.46,0Zm0,32.74h0l6.13-4.25-6.13-5.11-6.13,5.11,6.13,4.25Zm6.46,4.48-5-3.44,6.12-4.06,4.87,4.06-6,3.44ZM14,37.23,8,33.78l4.87-4.06L19,33.78l-5,3.44Zm6.46,3.69h0l5-2.84-5-3.3-5,3.3,5,2.84ZM8.18,20.46l4.25-6.13,5.11,6.13-5.11,6.13L8.18,20.46ZM3.7,14h0l3.44,5,4.06-6.12L7.14,8,3.7,14Zm0,12.93h0l3.44,6,4.06-4.87L7.14,22l-3.44,5ZM0,20.46l2.84-5,3.3,5-3.3,5L0,20.46Zm32.74,0-4.25,6.13-5.11-6.13,5.11-6.13,4.25,6.13ZM37.23,14h0L33.78,8l-4.06,4.87L33.78,19l3.44-5Zm0,12.93h0l-3.44-5-4.06,6.12,4.06,4.87,3.44-6Zm3.7-6.46-2.84,5-3.3-5,3.3-5Z"/></g></g></svg>