<svg xmlns="http://www.w3.org/2000/svg" viewBox="0 0 81.24 81.23"><defs><style>.cls-1{fill:#fff;fill-rule:evenodd;}</style></defs><title>Asset 9</title><g id="Layer_2" data-name="Layer 2"><g id="Layer_1-2" data-name="Layer 1"><path class="cls-1" d="M40.62,16.23h0L28.44,24.67,40.62,34.81,52.79,24.67,40.62,16.23Zm12.83-8.9,12,6.83-9.67,8.05L43.59,14.17l9.86-6.83Zm-25.66,0,9.86,6.83L25.5,22.22l-9.67-8.05,12-6.83ZM40.62,0h0L30.74,5.65l9.88,6.55L50.5,5.65,40.62,0Zm0,65h0l12.18-8.44L40.62,46.42,28.44,56.56,40.62,65Zm12.83,8.9-9.86-6.83L55.74,59l9.67,8.05-12,6.83Zm-25.66,0-12-6.83L25.5,59l12.14,8.05L27.79,73.9Zm12.83,7.33h0l9.88-5.65L40.62,69l-9.88,6.55,9.88,5.65ZM16.23,40.62l8.44-12.18L34.82,40.62,24.67,52.79,16.23,40.62ZM7.34,27.79h0l6.83,9.86L22.22,25.5l-8.05-9.67-6.83,12Zm0,25.66h0l6.83,12,8.05-9.67L14.17,43.59,7.34,53.45ZM0,40.62l5.65-9.88,6.55,9.88L5.65,50.5,0,40.62Zm65,0L56.56,52.79,46.42,40.62,56.56,28.44,65,40.62Zm8.9-12.83h0l-6.83-12L59,25.5l8.05,12.14,6.83-9.86Zm0,25.66h0l-6.83-9.86L59,55.74l8.05,9.67,6.83-12Zm7.34-12.83L75.59,50.5,69,40.62l6.55-9.88Z"/></g></g></svg>