<svg xmlns="http://www.w3.org/2000/svg" viewBox="0 0 101.97 101.97"><defs><style>.cls-1,.cls-2{fill-rule:evenodd;}.cls-2{fill:#c32026;}</style></defs><title>Asset 9</title><g id="Layer_2" data-name="Layer 2"><g id="Layer_1-2" data-name="Layer 1"><polygon class="cls-1" points="83.43 83.43 50.98 101.97 18.54 83.43 0 50.98 18.54 18.54 50.98 0 83.43 18.54 101.97 50.98 83.43 83.43"/><path class="cls-2" d="M51,26.6h0L38.81,35,51,45.18,63.16,35,51,26.6Zm12.83-8.9,12,6.83-9.67,8.05L54,24.54l9.86-6.83Zm-25.66,0L48,24.54,35.86,32.59l-9.67-8.05,12-6.83ZM51,10.37h0L41.11,16,51,22.56,60.86,16,51,10.37Zm0,65h0l12.18-8.44L51,56.79,38.81,66.93,51,75.37Zm12.83,8.9L54,77.43l12.14-8.05,9.67,8.05-12,6.83Zm-25.66,0-12-6.83,9.67-8.05L48,77.43l-9.86,6.83ZM51,91.6h0L60.86,86,51,79.41,41.11,86,51,91.6ZM26.6,51,35,38.81,45.18,51,35,63.16,26.6,51ZM17.7,38.15h0L24.54,48l8.05-12.14-8.05-9.67-6.83,12Zm0,25.66h0l6.83,12,8.05-9.67L24.54,54,17.7,63.82ZM10.37,51,16,41.11,22.56,51,16,60.86,10.37,51Zm65,0L66.93,63.16,56.79,51,66.93,38.81,75.37,51Zm8.9-12.83h0l-6.83-12-8.05,9.67L77.43,48l6.83-9.86Zm0,25.66h0L77.43,54,69.38,66.1l8.05,9.67,6.83-12ZM91.6,51,86,60.86,79.4,51,86,41.11Z"/></g></g></svg>