<?xml version="1.0" encoding="utf-8"?>
<!-- Generator: Adobe Illustrator 21.0.0, SVG Export Plug-In . SVG Version: 6.00 Build 0)  -->
<svg version="1.1" xmlns="http://www.w3.org/2000/svg" xmlns:xlink="http://www.w3.org/1999/xlink" x="0px" y="0px"
	 viewBox="0 0 1920 3840" style="enable-background:new 0 0 1920 3840;" xml:space="preserve">
<style type="text/css">
	.st0{fill:#0A090A;}
	.st1{fill:#C61212;stroke:#FFFFFF;stroke-width:2;stroke-miterlimit:10;}
	.st2{fill:#FFFFFF;}
	.st3{font-family:'Exo2.0-Regular';}
	.st4{font-size:40px;}
	.st5{letter-spacing:-1;}
	.st6{fill:#FFFFFF;stroke:#FFFFFF;stroke-width:2;stroke-miterlimit:10;}
	.st7{fill:#FF0000;}
	.st8{font-size:66px;}
	.st9{fill:#171515;stroke:#FFFFFF;stroke-width:2;stroke-miterlimit:10;}
	.st10{fill:#9F1F1F;stroke:#FFFFFF;stroke-width:2;stroke-miterlimit:10;}
	.st11{fill:#630C0C;stroke:#FFFFFF;stroke-width:2;stroke-miterlimit:10;}
	.st12{fill:#C6C6C6;stroke:#FFFFFF;stroke-width:2;stroke-miterlimit:10;}
	.st13{fill:#E0E0E0;}
	.st14{fill:#E0E0E0;stroke:#FFFFFF;stroke-width:2;stroke-miterlimit:10;}
	.st15{fill:#FEFEFE;}
	.st16{fill:#FDFDFD;}
	.st17{fill:#FDFEFD;}
	.st18{fill:#FEFEFD;}
	.st19{fill:#FEFDFC;}
	.st20{fill:#FCFEFB;}
	.st21{fill:#FDFEFC;}
	.st22{fill:#FCFDFE;}
	.st23{fill:#FCFCFD;}
	.st24{fill:#FEFEFC;}
	.st25{fill:#2F3653;}
	.st26{fill:#1B2437;}
	.st27{fill:#6F7076;}
	.st28{fill:#FCFDFD;}
	.st29{fill:#FDFDFE;}
	.st30{fill:#0D3168;}
	.st31{fill:#3A649B;}
	.st32{fill:#4062D0;}
	.st33{fill:#182E9C;}
	.st34{fill:#17009D;}
	.st35{fill:#2300D1;}
	.st36{fill:#0C0069;}
	.st37{fill:#116566;}
	.st38{fill:#1B649B;}
	.st39{fill:#2897CF;}
	.st40{fill:#2562D0;}
	.st41{fill:#2428D1;}
	.st42{fill:#2F00FF;}
	.st43{fill:#392E9C;}
	.st44{fill:#451FFF;}
	.st45{fill:#1F9899;}
	.st46{fill:#44CBCD;}
	.st47{fill:#465FFF;}
	.st48{fill:#3F29D1;}
	.st49{fill:#68659B;}
	.st50{fill:#699899;}
	.st51{fill:#36C9FF;}
	.st52{fill:#3395FF;}
	.st53{fill:#305FFF;}
	.st54{fill:#389963;}
	.st55{fill:#24CB96;}
	.st56{fill:#31FECA;}
	.st57{fill:#3AFDFF;}
	.st58{fill:#4AC9FF;}
	.st59{fill:#4895FF;}
	.st60{fill:#6F95FF;}
	.st61{fill:#6E5FFF;}
	.st62{fill:#6E00FF;}
	.st63{fill:#6A00D1;}
	.st64{fill:#369926;}
	.st65{fill:#1DCC5D;}
	.st66{fill:#2AFF92;}
	.st67{fill:#6FFEC9;}
	.st68{fill:#72FEFF;}
	.st69{fill:#71CAFF;}
	.st70{fill:#9ECAFF;}
	.st71{fill:#9D96FF;}
	.st72{fill:#9D60FF;}
	.st73{fill:#9C24FF;}
	.st74{fill:#9C00FF;}
	.st75{fill:#17CC00;}
	.st76{fill:#20FF00;}
	.st77{fill:#6CFF92;}
	.st78{fill:#9DFFC9;}
	.st79{fill:#CEFEFF;}
	.st80{fill:#CECBFF;}
	.st81{fill:#CD97FF;}
	.st82{fill:#CD62FF;}
	.st83{fill:#CC29FF;}
	.st84{fill:#CC00FF;}
	.st85{fill:#9A00D1;}
	.st86{fill:#013300;}
	.st87{fill:#39CC0F;}
	.st88{fill:#6AFF55;}
	.st89{fill:#9BFF91;}
	.st90{fill:#CDFFC9;}
	.st91{fill:#FECCFF;}
	.st92{fill:#FE98FF;}
	.st93{fill:#FE64FF;}
	.st94{fill:#FD00FF;}
	.st95{fill:#CB00D0;}
	.st96{fill:#650068;}
	.st97{fill:#109926;}
	.st98{fill:#336600;}
	.st99{fill:#0E9900;}
	.st100{fill:#69FF00;}
	.st101{fill:#9AFF54;}
	.st102{fill:#CCFF91;}
	.st103{fill:#FEFFC9;}
	.st104{fill:#FDCDCC;}
	.st105{fill:#FD9ACE;}
	.st106{fill:#FC67CF;}
	.st107{fill:#FC35D0;}
	.st108{fill:#C9089C;}
	.st109{fill:#98329C;}
	.st110{fill:#323300;}
	.st111{fill:#669A00;}
	.st112{fill:#99FF00;}
	.st113{fill:#CBFF53;}
	.st114{fill:#FDFF90;}
	.st115{fill:#FCCE95;}
	.st116{fill:#FC9B98;}
	.st117{fill:#FB699A;}
	.st118{fill:#FB3A9B;}
	.st119{fill:#C9359C;}
	.st120{fill:#98009C;}
	.st121{fill:#98CD00;}
	.st122{fill:#CAFF00;}
	.st123{fill:#FCFF52;}
	.st124{fill:#FB6A64;}
	.st125{fill:#FB1D66;}
	.st126{fill:#CA679B;}
	.st127{fill:#65672E;}
	.st128{fill:#FCCE5B;}
	.st129{fill:#FB9C60;}
	.st130{fill:#973567;}
	.st131{fill:#FCFF00;}
	.st132{fill:#FBCF00;}
	.st133{fill:#FA6B00;}
	.st134{fill:#989A62;}
	.st135{fill:#C9CE00;}
	.st136{fill:#FB9C1E;}
	.st137{fill:#FB564D;}
	.st138{fill:#C91267;}
	.st139{fill:#640434;}
	.st140{fill:#97682D;}
	.st141{fill:#C99B00;}
	.st142{fill:#FB9D00;}
	.st143{fill:#C86900;}
	.st144{fill:#FA3E00;}
	.st145{fill:#FA2000;}
	.st146{fill:#C81700;}
	.st147{fill:#960D33;}
	.st148{fill:#643500;}
	.st149{fill:#966800;}
	.st150{fill:#C83A00;}
	.st151{fill:#963700;}
	.st152{fill:#960F00;}
	.st153{fill:#7D0A00;}
	.st154{fill:#963631;}
	.st155{fill:#066600;}
	.st156{fill:none;}
	.st157{fill:#C6C6C6;}
	.st158{fill:#630C0C;}
	.st159{fill:#111111;}
	.st160{fill:url(#SVGID_1_);}
	.st161{display:none;}
	.st162{display:inline;fill:#E0E0E0;}
	.st163{display:inline;fill:url(#SVGID_2_);}
	.st164{display:inline;fill:#111111;}
	.st165{fill:#910C0C;}
	.st166{display:none;fill:#111111;}
	.st167{display:inline;fill:#919191;}
	.st168{fill:#8E8E8E;}
	.st169{font-family:'Exo2.0-Thin';}
	.st170{font-size:48px;}
	.st171{display:none;fill:#FFFFFF;}
	.st172{fill:#3B92F7;}
	.st173{font-family:'Exo2.0-Medium';}
	.st174{font-size:41.3211px;}
	.st175{fill:#777777;}
	.st176{fill:url(#SVGID_3_);}
	.st177{fill:url(#SVGID_4_);}
	.st178{fill:url(#SVGID_5_);}
	.st179{fill:#0FEF5A;}
	.st180{fill:#F4F4F4;}
	.st181{fill:url(#SVGID_6_);}
	.st182{font-size:60px;}
	.st183{font-family:'Exo2.0-Bold';}
	.st184{font-size:92.7429px;}
	.st185{letter-spacing:-2;}
	.st186{fill:#C61212;}
	.st187{font-size:100px;}
	.st188{letter-spacing:-3;}
	.st189{font-family:'Exo2.0-Light';}
	.st190{font-size:81.7676px;}
	.st191{font-size:44px;}
	.st192{font-size:27.8111px;}
	.st193{letter-spacing:-1.9;}
	.st194{font-size:59.9836px;}
	.st195{fill:#FFFFFF;stroke:#000000;stroke-miterlimit:10;}
	.st196{fill:#C90202;}
</style>
<g id="BKG">
	<rect x="-52.8" y="-2" class="st0" width="1981.8" height="3842"/>
	<rect x="-52.8" y="-2" class="st0" width="1981.8" height="3842"/>
	<polygon class="st0" points="613.3,2573.5 600,2550 626.5,2550 	"/>
	<rect x="-52.8" y="58" class="st0" width="1981.8" height="4627"/>
</g>
<g id="Color_Panels">
	<g id="DS_Red">
		<rect x="202.7" y="1286" class="st1" width="220.3" height="220.3"/>
		<text transform="matrix(1 0 0 1 198 1264)" class="st2 st3 st4 st5">DS Red</text>
		<text transform="matrix(1 0 0 1 192.7056 1561)" class="st2 st3 st4 st5">#C61212</text>
	</g>
	<g id="DS_White">
		<rect x="522.7" y="1286" class="st6" width="220.3" height="220.3"/>
		<text transform="matrix(1 0 0 1 518 1264)" class="st2 st3 st4 st5">DS White</text>
		<text transform="matrix(1 0 0 1 512.7056 1561)" class="st2 st3 st4 st5">#FFFFFF</text>
	</g>
	<text transform="matrix(1 0 0 1 187 1149)" class="st7 st3 st8 st5">Color Panels</text>
	<g id="Dark_Grey">
		<rect x="842.7" y="1286" class="st9" width="220.3" height="220.3"/>
		<text transform="matrix(1 0 0 1 838 1264)" class="st2 st3 st4 st5">Dark Grey  </text>
		<text transform="matrix(1 0 0 1 832.7056 1561)" class="st2 st3 st4 st5">#171515</text>
	</g>
	<g id="Medium_Red">
		<rect x="1162.7" y="1286" class="st10" width="220.3" height="220.3"/>
		<text transform="matrix(1 0 0 1 1158 1264)" class="st2 st3 st4 st5">Medium Red</text>
		<text transform="matrix(1 0 0 1 1152.7056 1561)" class="st2 st3 st4 st5">#9f1f1f</text>
	</g>
	<g id="Dark_Red">
		<rect x="1482.7" y="1286" class="st11" width="220.3" height="220.3"/>
		<text transform="matrix(1 0 0 1 1478 1264)" class="st2 st3 st4 st5">Dark Red</text>
		<text transform="matrix(1 0 0 1 1472.7056 1561)" class="st2 st3 st4 st5">#630c0c</text>
	</g>
	<g id="Mid_White">
		<rect x="202.7" y="1656" class="st12" width="220.3" height="220.3"/>
		<text transform="matrix(1 0 0 1 198 1634)" class="st2 st3 st4 st5">Mid White</text>
		<text transform="matrix(1 0 0 1 192.7056 1931)" class="st13 st3 st4 st5">#c6c6c6</text>
	</g>
	<g id="Ligt_White">
		<rect x="522.7" y="1656" class="st14" width="220.3" height="220.3"/>
		<text transform="matrix(1 0 0 1 518 1634)" class="st2 st3 st4 st5">Light White</text>
		<text transform="matrix(1 0 0 1 512.7056 1931)" class="st2 st3 st4 st5">#e0e0e0</text>
	</g>
</g>
<g id="Icons">
	<g>
		<path class="st15" d="M1031.3,3319.7c0.1-2,2.1-3.6,4-3.4c33.7,0,67.4,0,101.1,0c1.7,0.2,3.2,1.7,3.2,3.4c0,46,0,92,0,138
			c-0.2,1.8-2,3.3-3.8,3.2c-33.8,0-67.6,0-101.3,0c-1.6-0.2-2.8-1.4-3.2-2.9C1031.3,3411.9,1031.3,3365.8,1031.3,3319.7z"/>
		<path d="M1035.6,3322.3c0.7-0.9,1.9-1.5,3.1-1.6c1.6-0.2,3.3,0.7,4.1,2.1c0.6,1.1,0.9,2.5,0.4,3.8c-0.2,0.9-1,1.5-1.7,2.1
			c-1.2,0.8-2.7,0.9-4,0.5c-1.3-0.5-2.2-1.5-2.6-2.8C1034.3,3325,1034.7,3323.4,1035.6,3322.3z"/>
		<path d="M1131.9,3320.6c0.9,0.1,1.8,0.2,2.5,0.7c1.1,0.6,1.7,1.8,2,3c0.3,2-1,4.1-2.8,4.8c-1.5,0.5-3.3,0.2-4.5-0.9
			c-1.6-1.3-1.9-3.8-0.8-5.5c0.5-0.6,0.9-1.2,1.6-1.5C1130.5,3320.8,1131.2,3320.8,1131.9,3320.6z"/>
		<path d="M1083,3323.3c9.8,0,19.7,0,29.5,0c0.6,0,1.3,0,1.9,0.1c1.1,0.3,2.1,0.8,2.9,1.6c4.7,4.7,9.5,9.5,14.2,14.2
			c1.2,1.2,1.7,2.9,1.8,4.5c0,9.5,0,19,0,28.6c-0.2,1.9-0.2,3.9-0.5,5.8c-0.2,1.8-0.6,3.6-1.1,5.4c-0.2,0.9-0.5,1.7-0.7,2.5
			c-1.3,3.8-3,7.5-5.2,10.9c-1,1.5-2.3,3-2.5,4.9c0,2.9,0,5.9,0,8.8c0.4,2,2.2,3.7,4.2,4.1c1,0.1,2.1,0,3,0.5
			c1.8,0.7,2.9,2.6,2.9,4.5c0,4.7,0,9.4,0,14.1c0.1,0.9-0.2,1.8-0.5,2.7c-0.4,1.1-1.2,2-2,2.8c-5,5-10,10-15,15
			c-1,1.1-2.3,1.9-3.8,2.2c-0.5,0.1-1,0.1-1.5,0.1c-19.5,0-39,0-58.5,0c-2.1-0.4-3.8-2.2-4.1-4.3c-0.2-1.2,0-2.5-0.1-3.7
			c0.1-1.6-0.8-3.1-1.9-4.1c-0.8-0.4-1.5-1-2.4-1c-0.7-0.2-1.5,0-2.3-0.3c-1.6-0.5-3-1.9-3.3-3.6c-0.2-0.8-0.2-1.7-0.2-2.5
			c0-5.7,0-11.5,0-17.2c0-1.6,0.7-3.3,2.1-4.2c0.8-0.5,1.7-0.9,2.7-0.9c2.6,0.2,5-2,5.3-4.5c0-2.8,0-5.7,0-8.5
			c-0.1-1.1-0.6-2.1-1.2-3c-5-7-8-15.3-8.7-23.9c-0.1-2-0.4-4-0.1-6c0.1-2.6,0.4-5.2,1-7.8c0.2-1,0.5-2.1,0.7-3.1
			c0.5-1.1,0.7-2.4,1.2-3.5c1.9-5.2,4.8-10,8.3-14.2c1-1.2,2.2-2.3,3.3-3.5c2.2-2.2,4.7-4.1,7.3-5.8c2.1-1.3,4.3-2.6,6.6-3.6
			c0.8-0.4,1.7-0.8,2.5-1.1c0.5-0.2,0.9-0.4,1.4-0.5c1.5-0.5,3-1,4.6-1.3c1-0.3,2-0.5,3-0.7
			C1079.5,3323.7,1081.3,3323.4,1083,3323.3z"/>
		<path class="st15" d="M1080.7,3328.4c2.2-0.2,4.5-0.5,6.7-0.2c1-0.1,1.9,0.1,2.9,0.2c1.3,0.2,2.6,0.4,3.8,0.6
			c0.3,0.1,0.6,0.1,1,0.2c1.3,0.4,2.6,0.7,3.9,1.1c5.4,1.8,10.5,4.7,14.8,8.5c3.3,2.8,6,6.2,8.3,9.9c1.8,2.9,3.2,6,4.2,9.3
			c0.3,0.7,0.5,1.5,0.7,2.3c0.5,2.1,0.9,4.1,1.1,6.3c0.2,0.8,0,1.7,0.2,2.5c0.1,1,0,2.1,0,3.1c0,0.8-0.2,1.7-0.2,2.5
			c-0.2,2.5-0.6,5.1-1.3,7.5c-0.1,0.6-0.3,1.2-0.5,1.8c-1.7,5.4-4.5,10.5-8.2,14.9c-0.5,0.7-1.1,1.2-1.6,1.8c-0.9,1.1-2.1,2-3.2,3
			c-4,3.5-8.6,6.1-13.5,7.9c-2.3,0.8-4.7,1.4-7.2,1.9c-0.2,0-0.6,0.1-0.8,0.1c2.2-2.5,4.3-5.1,6.5-7.7c0.6-0.7,1.2-1.5,1.9-2.1
			l0-0.2c2.9-3.3,5.7-6.7,8.6-10.1c0.6-0.9,1.5-1.5,1.9-2.6c0.3-0.6,0.2-1.3,0.7-1.8c0.9-1.1,1.8-2.2,2.7-3.3
			c-1.5-1.5-2.9-2.9-4.4-4.4c-0.2-0.1-0.4-0.5-0.6-0.2c-1.1,0.9-2.2,2-3.4,2.8c-0.8,0.2-1.8,0.4-2.4,1c-10.5,9-21.1,17.9-31.6,26.9
			c-0.3-0.1-0.6-0.2-0.9-0.3c-7.1-2.6-13.5-6.9-18.3-12.7c-2.5-2.9-4.6-6.2-6.2-9.7c-0.8-1.7-1.4-3.4-2-5.1
			c-0.2-0.6-0.4-1.2-0.5-1.8c-0.6-2.2-1-4.4-1.2-6.6c-0.2-0.8,0-1.6-0.2-2.3c0-1.4,0-2.8,0-4.2c0.3-0.7,0-1.6,0.2-2.3
			c0.1-1,0.2-2.1,0.4-3.1c0.2-0.9,0.3-1.8,0.6-2.7c0.2-1,0.5-1.9,0.8-2.9c1.9-6.1,5.3-11.7,9.6-16.4c1-1.1,2.2-2.1,3.3-3.1
			c5.2-4.5,11.6-7.7,18.3-9.3c0.3-0.1,0.6-0.1,0.9-0.2c0.8-0.1,1.5-0.3,2.3-0.4C1079.7,3328.5,1080.2,3328.5,1080.7,3328.4z"/>
		<path d="M1082.7,3356.8c3.2-0.6,6.6-0.2,9.5,1.3c3.5,1.8,6.3,5.1,7.3,8.9c0.2,0.8,0.5,1.7,0.5,2.5c0.1,0.8,0.3,1.7,0,2.5
			c-0.2,6-4.8,11.5-10.6,12.9c-0.8,0.2-1.6,0.4-2.5,0.5c-1.4,0-2.9,0.1-4.3-0.3c-5.1-1-9.4-5-10.9-9.9c-0.2-0.6-0.3-1.2-0.4-1.8
			c-0.1-1.1-0.3-2.3-0.2-3.4c0.2-1,0.2-2.1,0.6-3.1C1073,3361.9,1077.5,3357.8,1082.7,3356.8z"/>
		<path class="st15" d="M1079.2,3369.3c1.5-1.5,3-3,4.6-4.5c1.5,0.3,2.9,0.8,4.4,1.1c0.6,0.2,1.3,0.4,1.9,0.5
			c0.6,2.1,1.2,4.2,1.7,6.4c-1.6,1.5-3,3.1-4.6,4.6c-0.9-0.2-1.7-0.5-2.6-0.7c-0.7-0.2-1.4-0.4-2.1-0.6c-0.5-0.1-1-0.3-1.5-0.4
			c-0.1-0.3-0.2-0.6-0.3-0.9c-0.1-0.7-0.4-1.4-0.6-2.1C1079.8,3371.5,1079.5,3370.4,1079.2,3369.3z"/>
		<path class="st15" d="M1106.5,3386.7c1-0.8,2-1.6,3-2.5c0.5,0.5,1.1,1.1,1.6,1.6c-0.8,1-1.7,2-2.5,3c0.1,0.3,0.2,0.5,0.3,0.8
			c-0.3,0.8-0.9,1.3-1.4,1.9c-8,9.3-15.9,18.7-23.8,28.1c-2.3,2.8-4.7,5.5-7,8.2c-0.6,0.6-1,1.3-1.6,1.8l0,0.2
			c-1.1,1.1-2.1,2.4-3.1,3.6c0-0.3,0-0.6-0.1-0.9c-0.1-0.4-0.1-0.8-0.2-1.1c-1-4.4-5.1-7.8-9.7-7.8c0.4-0.4,0.8-0.7,1.2-1.1
			c14.1-11.9,28.1-23.9,42.2-35.8C1105.7,3386.4,1106.1,3386.6,1106.5,3386.7z"/>
		<path d="M1101.7,3392.4c0.4-0.3,0.8-0.9,1.4-0.6c0.3,0.1,0.4,0.5,0.6,0.7c-0.4,0.8-1,1.4-1.6,2.1c-6.5,7.7-13,15.3-19.5,23
			c-1.2,1.4-2.4,2.9-3.7,4.3c-0.7,0.9-1.4,1.7-2.1,2.6c-0.6,0.7-1.4,1-2.2,1.3c-0.8,0-1.7,0.1-2.5-0.3c-1.2-0.5-2-1.6-2.4-2.8
			c-0.3-1.4,0.1-3,1.2-4c1-0.9,2.1-1.8,3.1-2.7l0.1,0C1083.2,3408,1092.5,3400.2,1101.7,3392.4z"/>
		<path d="M1036.7,3403.7c0.7-0.5,1.5-0.6,2.3-0.6c1.4,0.1,2.8,0.8,3.6,2c0.8,1,0.8,2.3,0.7,3.5c-0.3,1.1-1,2.2-2.1,2.8
			c-1.4,0.9-3.4,0.8-4.7-0.1c-0.6-0.5-1.3-1.1-1.6-2C1034.1,3407.3,1034.8,3404.7,1036.7,3403.7z"/>
		<path d="M1130.8,3403.2c1.2-0.3,2.5-0.2,3.5,0.5c2.1,1.1,2.8,3.9,1.6,5.9c-0.7,1.4-2.3,2.4-3.9,2.3c-1.8,0.1-3.4-1.2-4.1-2.8
			c-0.4-0.8-0.3-1.7-0.2-2.6C1128.1,3405,1129.3,3403.7,1130.8,3403.2z"/>
		<path class="st15" d="M1045.1,3416.8c2.3,0,4.7,0,7.1,0c0.4,0,0.7,0.1,1,0.2c0,0.1,0,0.3,0,0.4c0.1-0.1,0.3-0.1,0.4-0.2
			c0.3,0.4,0.6,0.9,0.8,1.4c0,1.8,0,3.6,0,5.4c0.2,1.6,1.5,2.5,2.5,3.6c1.5-1,3.1-1.8,5-1.7c3.4-0.2,6.5,2.4,7.4,5.6
			c0.2,1.2,0.3,2.5,0,3.8c-0.3,1.1-0.8,2.2-1.6,3c0.6,0.6,1.1,1.2,1.7,1.7c0.8,0.6,1.7,0.9,2.7,0.9c1.6,0,3.2,0,4.8,0
			c0.9,0.4,1.7,1.2,1.7,2.2c0,2.2,0,4.4,0,6.6c0,1.1-0.9,1.9-1.9,2.2c-2.8,0-5.7,0-8.5,0c-0.3,0-0.7,0-1-0.1c-1.4,0-2.7-0.3-4.1-0.6
			c-4.4-1-8.5-3.2-11.8-6.3c-0.8-0.6-1.4-1.5-2.1-2.2c-1.2-1.6-2.4-3.3-3.3-5.1c-1.5-3.1-2.4-6.6-2.6-10.1c0-3,0-5.9,0-8.9
			C1043.5,3417.8,1044.2,3417.1,1045.1,3416.8z"/>
		<path class="st16" d="M1093.2,3418.3c0.5,0,1,0,1.6,0c0,0.2,0,0.4,0,0.6c-0.5,0-1.1,0-1.6,0
			C1093.1,3418.7,1093.1,3418.5,1093.2,3418.3z"/>
		<path class="st17" d="M1097.1,3418.3c0.5,0,1,0,1.5,0c0,0.2,0,0.4,0,0.6c-0.5,0-1,0-1.5,0
			C1097.1,3418.7,1097.1,3418.4,1097.1,3418.3z"/>
		<path class="st18" d="M1104.8,3418.3c0.5,0,1.1,0,1.6,0c0,0.2,0,0.4,0,0.6c-0.5,0-1.1,0-1.6,0
			C1104.8,3418.7,1104.8,3418.4,1104.8,3418.3z"/>
		<path class="st19" d="M1108.8,3418.3c0.5,0,1,0,1.5,0c0,0.2,0,0.4,0,0.6c-0.5,0-1,0-1.5,0
			C1108.8,3418.7,1108.8,3418.5,1108.8,3418.3z"/>
		<path class="st20" d="M1112.7,3418.3c0.5,0,1,0,1.5,0c0,0.2,0,0.4,0,0.6c-0.5,0-1,0-1.5,0
			C1112.7,3418.7,1112.7,3418.5,1112.7,3418.3z"/>
		<path class="st16" d="M1100.9,3418.3c0.5,0,1,0,1.5,0c0,0.1,0,0.4,0,0.6c-0.5,0-1,0-1.5,0
			C1100.9,3418.7,1100.9,3418.4,1100.9,3418.3z"/>
		<path class="st15" d="M1092.9,3419.5c0.7,0,1.4,0,2.1,0c0,0.6,0,1.3,0,1.9c-0.7,0-1.4,0-2.1,0
			C1092.9,3420.7,1092.9,3420.1,1092.9,3419.5z"/>
		<path class="st15" d="M1096.8,3419.5c0.7,0,1.4,0,2.1,0c0,0.6,0,1.3,0,1.9c-0.7,0-1.4,0-2.1,0
			C1096.8,3420.7,1096.8,3420.1,1096.8,3419.5z"/>
		<path class="st15" d="M1100.7,3419.5c0.7,0,1.4,0,2.1,0c0,0.6,0,1.3,0,1.9c-0.7,0-1.4,0-2.1,0
			C1100.7,3420.7,1100.7,3420.1,1100.7,3419.5z"/>
		<path class="st15" d="M1104.7,3419.5c0.7,0,1.4,0,2,0c0,0.7,0,1.3,0,2c-0.7,0-1.4,0-2,0
			C1104.7,3420.7,1104.7,3420.1,1104.7,3419.5z"/>
		<path class="st15" d="M1108.6,3419.5c0.7,0,1.4,0,2,0c0,0.7,0,1.3,0,2c-0.7,0-1.4,0-2,0
			C1108.5,3420.8,1108.5,3420.1,1108.6,3419.5z"/>
		<path class="st15" d="M1112.4,3419.4c0.7,0,1.4,0,2,0.1c0,0.6,0,1.3,0,1.9c-0.7,0-1.4-0.1-2,0
			C1112.4,3420.7,1112.4,3420.1,1112.4,3419.4z"/>
		<path class="st15" d="M1091,3423.9c-0.1-0.7,0.5-1.5,1.2-1.4c7.6,0,15.2,0,22.8,0c0.5,0,1,0.3,1.2,0.8c0.1,0.5,0,1.1,0.1,1.7
			c0,7.4,0,14.8,0,22.1c-0.3,0.3-0.5,0.7-1,0.7c-7.7,0-15.3,0-23,0c-0.4,0.1-0.7-0.2-1.1-0.4c-0.1-0.4-0.2-0.8-0.2-1.1
			C1091,3438.7,1091,3431.3,1091,3423.9z"/>
		<path class="st16" d="M1088.1,3424.2c0.6,0,1.3,0,1.9,0c0,0.7,0,1.4,0,2.1c-0.6,0-1.3,0-1.9,0
			C1088.1,3425.6,1088.1,3424.9,1088.1,3424.2z"/>
		<path class="st15" d="M1117.3,3424.2c0.7,0,1.4,0,2.1,0c0,0.7,0,1.4,0,2.1c-0.7,0-1.4,0-2.1,0
			C1117.3,3425.6,1117.3,3424.9,1117.3,3424.2z"/>
		<path class="st18" d="M1120,3424.5c0.2,0,0.4,0,0.6,0c0,0.5,0,1.1,0,1.6c-0.2,0-0.4,0-0.6,0C1120,3425.6,1120,3425.1,1120,3424.5z
			"/>
		<path class="st21" d="M1086.8,3424.5c0.2,0,0.5,0,0.6,0c0,0.5,0,1.1-0.1,1.6c-0.1,0-0.4,0-0.6,0
			C1086.8,3425.6,1086.8,3425.1,1086.8,3424.5z"/>
		<path d="M1097.7,3427.8c3.5-0.1,7,0,10.6,0c0.6,0,1.3-0.1,1.9,0.2c0.4,0.2,0.8,0.6,0.7,1.1c0,3.9,0,7.9,0,11.8
			c0.1,0.8-0.7,1.5-1.5,1.4c-3.9,0-7.7,0-11.6,0c-0.8,0.1-1.5-0.8-1.5-1.6c0-3.7,0-7.5,0-11.2
			C1096.4,3428.7,1096.9,3427.9,1097.7,3427.8z"/>
		<path class="st15" d="M1088.1,3428.2c0.7,0,1.3,0,2,0c0,0.7,0,1.4,0,2.1c-0.7,0-1.3,0-2,0
			C1088.1,3429.6,1088.1,3428.9,1088.1,3428.2z"/>
		<path class="st15" d="M1117.3,3428.2c0.7,0,1.4,0,2.1,0c0,0.7,0,1.4,0,2.1c-0.7,0-1.4,0-2.1,0
			C1117.3,3429.6,1117.3,3428.9,1117.3,3428.2z"/>
		<path class="st15" d="M1086.8,3428.4c0.1,0,0.4,0,0.6,0c0,0.5,0,1,0.1,1.5c-0.2,0-0.5,0-0.6,0
			C1086.8,3429.5,1086.8,3429,1086.8,3428.4z"/>
		<path class="st22" d="M1120,3428.5c0.1,0,0.4-0.1,0.6-0.1c0,0.5,0,1.1,0,1.6c-0.1,0-0.4,0-0.6,0
			C1120,3429.5,1120,3429,1120,3428.5z"/>
		<path d="M1056.9,3434.1c-0.3-2.4,1.5-5,3.9-5.4c0.6-0.1,1.1-0.1,1.7-0.1c2,0.4,3.8,2,4,4.1c0.5,2.7-1.8,5.6-4.6,5.5
			c-1.4,0.1-2.8-0.4-3.7-1.5C1057.5,3436.2,1057.2,3435.1,1056.9,3434.1z"/>
		<path class="st15" d="M1088.1,3432.1c0.6,0,1.3,0,1.9,0c0,0.7,0,1.4,0,2.1c-0.6,0-1.3,0-1.9,0
			C1088.1,3433.5,1088.1,3432.8,1088.1,3432.1z"/>
		<path class="st15" d="M1117.3,3432.1c0.7,0,1.4,0,2.1,0c0,0.7,0,1.4,0,2.1c-0.7,0-1.4,0-2.1,0
			C1117.3,3433.5,1117.3,3432.8,1117.3,3432.1z"/>
		<path class="st15" d="M1086.8,3432.4c0.1,0,0.4,0,0.6,0c0,0.5,0,1,0.1,1.5c-0.2,0-0.5,0-0.6,0
			C1086.8,3433.4,1086.8,3432.9,1086.8,3432.4z"/>
		<path class="st23" d="M1120,3432.4c0.1,0,0.4,0,0.6,0c0,0.5,0,1,0,1.5c-0.1,0-0.4,0-0.6,0C1120,3433.4,1120,3432.9,1120,3432.4z"
			/>
		<path class="st15" d="M1088.1,3436c0.7,0,1.3,0,2,0c0,0.7,0,1.4,0,2.1c-0.7,0-1.3,0-1.9,0
			C1088.1,3437.4,1088.1,3436.7,1088.1,3436z"/>
		<path class="st18" d="M1117.3,3436c0.7,0,1.4,0,2.1,0c0,0.7,0,1.4,0,2.1c-0.7,0-1.4,0-2.1,0
			C1117.3,3437.3,1117.3,3436.6,1117.3,3436z"/>
		<path class="st21" d="M1120,3436.2c0.2,0,0.4,0,0.6,0c0,0.5,0,1,0,1.5c-0.2,0-0.4,0-0.6,0C1120,3437.2,1120,3436.7,1120,3436.2z"
			/>
		<path class="st18" d="M1086.8,3436.2c0.1,0,0.4,0,0.6,0c0,0.6,0,1.2-0.1,1.7C1086.5,3437.8,1086.9,3436.8,1086.8,3436.2z"/>
		<path class="st15" d="M1088.1,3440c0.7,0,1.3,0,2,0c0,0.7,0,1.4,0,2.1c-0.7,0-1.3,0-2,0C1088.1,3441.3,1088.1,3440.6,1088.1,3440z
			"/>
		<path class="st15" d="M1117.3,3440c0.7,0,1.4,0,2.1,0c0,0.7,0,1.4,0,2.1c-0.7,0-1.4,0-2.1,0
			C1117.3,3441.3,1117.3,3440.6,1117.3,3440z"/>
		<path class="st15" d="M1086.8,3440.2c0.2,0,0.5,0,0.6,0c0,0.5,0,1,0,1.5c-0.2,0-0.5,0-0.6,0
			C1086.8,3441.2,1086.8,3440.7,1086.8,3440.2z"/>
		<path class="st24" d="M1120,3440.2c0.1,0,0.4,0,0.6,0c0,0.5,0,1,0,1.5c-0.1,0-0.4,0-0.6,0C1120,3441.2,1120,3440.7,1120,3440.2z"
			/>
		<path class="st25" d="M1140.4,3443.4"/>
		<path class="st26" d="M1085.8,3443.8"/>
		<path class="st15" d="M1088.1,3443.8c0.6,0,1.3,0,1.9,0c0,0.7,0,1.4,0,2.1c-0.7,0-1.3,0-1.9,0
			C1088.1,3445.2,1088.1,3444.5,1088.1,3443.8z"/>
		<path class="st15" d="M1117.3,3443.8c0.7,0,1.4,0,2.1,0c0,0.7,0,1.4,0,2.1c-0.7,0-1.4,0-2.1,0
			C1117.3,3445.2,1117.3,3444.5,1117.3,3443.8z"/>
		<path class="st24" d="M1086.8,3444.1c0.1,0,0.4,0,0.6,0c0,0.5,0,1,0.1,1.5c-0.2,0-0.5,0-0.6,0
			C1086.8,3445.1,1086.8,3444.6,1086.8,3444.1z"/>
		<path class="st15" d="M1120,3444.1c0.1,0,0.4,0,0.6,0c0,0.5,0,1,0,1.5c-0.1,0-0.4,0-0.6,0C1120,3445.1,1120,3444.6,1120,3444.1z"
			/>
		<path d="M1127.9,3450.5c0.8-2.2,3.5-3.4,5.7-2.5c1.5,0.6,2.6,1.9,2.8,3.5c0,0.7,0.1,1.4-0.2,2.1c-0.5,1.5-1.8,2.6-3.3,2.9
			c-1.4,0.3-3-0.2-4-1.2c-0.6-0.7-1.1-1.4-1.2-2.3C1127.7,3452.2,1127.6,3451.3,1127.9,3450.5z"/>
		<path d="M1037.6,3448c2.3-0.9,5.1,0.7,5.7,3c0.1,0.7,0.1,1.5,0,2.2c-0.4,1.5-1.6,2.9-3.2,3.2c-0.6,0.2-1.2,0.2-1.9,0.1
			c-1.6-0.3-3-1.5-3.5-3c-0.3-0.7-0.2-1.4-0.2-2.1C1034.8,3449.9,1036,3448.4,1037.6,3448z"/>
		<path class="st15" d="M1108.5,3448.7c0.7,0,1.4,0,2.1,0c0,0.7,0,1.4,0,2.1c-0.7,0-1.4,0-2.1,0
			C1108.5,3450.1,1108.5,3449.4,1108.5,3448.7z"/>
		<path class="st15" d="M1092.9,3448.7c0.7,0,1.4,0,2.1,0c0,0.7,0,1.4,0,2.1c-0.7,0-1.4,0-2.1,0
			C1092.9,3450.1,1092.9,3449.4,1092.9,3448.7z"/>
		<path class="st15" d="M1096.8,3448.7c0.7,0,1.4,0,2.1,0c0,0.7,0,1.4,0,2.1c-0.7,0-1.4,0-2.1,0
			C1096.8,3450.1,1096.8,3449.4,1096.8,3448.7z"/>
		<path class="st15" d="M1100.7,3448.7c0.7,0,1.4,0,2.1,0c0,0.7,0,1.4,0,2.1c-0.7,0-1.4,0-2.1,0
			C1100.7,3450.1,1100.7,3449.4,1100.7,3448.7z"/>
		<path class="st15" d="M1104.7,3448.7c0.7,0,1.4,0,2,0c0.1,0.7,0,1.4-0.1,2.1c-0.7,0-1.3,0-2,0
			C1104.7,3450.1,1104.7,3449.4,1104.7,3448.7z"/>
		<path class="st15" d="M1112.4,3448.7c0.7,0,1.4,0,2.1,0c0,0.7,0,1.4,0,2.1c-0.7,0-1.4,0-2,0
			C1112.4,3450.1,1112.4,3449.4,1112.4,3448.7z"/>
		<path class="st27" d="M1093.2,3451.2c0.5,0,1.1,0,1.6,0.1c0,0.2,0,0.5-0.1,0.7c-0.6,0-1.1,0-1.7,0
			C1093,3451.7,1093.1,3451.5,1093.2,3451.2z"/>
		<path class="st18" d="M1097.1,3451.4c0.5,0,1,0,1.5,0c0,0.2,0,0.4,0,0.6c-0.5,0-1,0-1.5,0
			C1097.1,3451.8,1097.1,3451.6,1097.1,3451.4z"/>
		<path class="st15" d="M1101,3451.4c0.5,0,1,0,1.5,0c0,0.2,0,0.4,0,0.6c-0.5,0-1,0-1.5,0C1101,3451.8,1101,3451.6,1101,3451.4z"/>
		<path class="st22" d="M1104.8,3451.4c0.5,0,1.1,0,1.6,0c0,0.2,0,0.4,0,0.6c-0.5,0-1.1,0-1.6,0
			C1104.8,3451.8,1104.8,3451.6,1104.8,3451.4z"/>
		<path class="st17" d="M1112.7,3451.4c0.5,0,1,0,1.5,0c0,0.2,0,0.4,0,0.6c-0.5,0-1,0-1.5,0
			C1112.7,3451.8,1112.7,3451.6,1112.7,3451.4z"/>
		<path class="st28" d="M1093.3,3451.8c-0.4-0.4,0.2-0.5,0.5-0.5c0.3,0,1-0.1,0.7,0.5C1094.2,3452,1093.7,3452,1093.3,3451.8z"/>
		<path class="st29" d="M1108.8,3451.4c0.5,0,1,0,1.5,0c0,0.2,0,0.4,0,0.6c-0.5,0-1,0-1.5,0
			C1108.8,3451.8,1108.8,3451.5,1108.8,3451.4z"/>
	</g>
	<g>
		<path class="st15" d="M880.1,3577.4c1.6,0,2.9,1.6,2.7,3.2c0,26.6,0,53.2,0,79.8c-0.2,1.3-1.3,2.5-2.7,2.6c-36.3,0-72.6,0-109,0
			c-1.4-0.2-2.6-1.6-2.5-3c0-26.7,0-53.3,0-80c0.1-1.2,1.1-2.2,2.3-2.6C807.3,3577.4,843.7,3577.4,880.1,3577.4z"/>
		<path d="M878.1,3580.7c0.7,0.6,1.2,1.5,1.3,2.4c0.1,1.3-0.5,2.6-1.6,3.2c-0.9,0.5-2,0.7-3,0.3c-0.7-0.2-1.2-0.8-1.7-1.3
			c-0.6-0.9-0.7-2.1-0.4-3.1c0.4-1,1.2-1.8,2.2-2.1C876,3579.7,877.2,3580.1,878.1,3580.7z"/>
		<path d="M879.4,3656.8c-0.1,0.7-0.2,1.4-0.6,2c-0.5,0.9-1.4,1.3-2.4,1.6c-1.6,0.2-3.2-0.8-3.8-2.2c-0.4-1.2-0.2-2.6,0.7-3.5
			c1.1-1.2,3-1.5,4.4-0.6c0.4,0.4,0.9,0.7,1.2,1.2C879.2,3655.7,879.2,3656.3,879.4,3656.8z"/>
		<path d="M877.3,3618.2c0,7.8,0,15.5,0,23.3c0,0.5,0,1,0,1.5c-0.3,0.8-0.6,1.7-1.2,2.3c-3.7,3.7-7.5,7.5-11.2,11.2
			c-0.9,0.9-2.3,1.4-3.6,1.4c-7.5,0-15,0-22.6,0c-1.5-0.2-3.1-0.2-4.6-0.4c-1.4-0.2-2.9-0.5-4.3-0.9c-0.7-0.1-1.3-0.4-2-0.6
			c-3-1-5.9-2.4-8.6-4.1c-1.2-0.8-2.4-1.8-3.9-2c-2.3,0-4.7,0-7,0c-1.6,0.3-2.9,1.7-3.3,3.3c-0.1,0.8,0,1.6-0.4,2.3
			c-0.6,1.4-2.1,2.3-3.5,2.3c-3.7,0-7.4,0-11.1,0c-0.7,0-1.5-0.2-2.2-0.4c-0.9-0.3-1.6-1-2.2-1.6c-4-4-7.9-7.9-11.9-11.9
			c-0.9-0.8-1.5-1.8-1.7-3c-0.1-0.4-0.1-0.8-0.1-1.2c0-15.4,0-30.8,0-46.2c0.3-1.7,1.7-3,3.4-3.2c1-0.2,1.9,0,2.9-0.1
			c1.3,0.1,2.4-0.6,3.2-1.5c0.3-0.6,0.8-1.2,0.8-1.9c0.1-0.6,0-1.2,0.2-1.8c0.4-1.3,1.5-2.4,2.8-2.6c0.7-0.2,1.3-0.1,2-0.1
			c4.5,0,9,0,13.6,0c1.3,0,2.6,0.6,3.3,1.7c0.4,0.6,0.7,1.3,0.7,2.1c-0.1,2,1.5,4,3.6,4.2c2.2,0,4.5,0,6.7,0
			c0.8-0.1,1.6-0.5,2.3-0.9c5.5-3.9,12.1-6.3,18.8-6.9c1.6,0,3.1-0.3,4.7-0.1c2.1,0.1,4.1,0.3,6.1,0.8c0.8,0.2,1.6,0.4,2.4,0.6
			c0.9,0.4,1.9,0.5,2.7,0.9c4.1,1.5,7.9,3.8,11.2,6.6c1,0.8,1.8,1.7,2.7,2.6c1.8,1.7,3.2,3.7,4.6,5.7c1,1.7,2,3.4,2.8,5.2
			c0.3,0.6,0.6,1.3,0.8,2c0.2,0.4,0.3,0.7,0.4,1.1c0.4,1.2,0.8,2.4,1.1,3.6c0.2,0.8,0.4,1.6,0.5,2.4
			C877,3615.5,877.2,3616.8,877.3,3618.2z"/>
		<path class="st15" d="M873.3,3616.4c0.2,1.8,0.4,3.6,0.2,5.3c0,0.8-0.1,1.5-0.2,2.3c-0.1,1-0.3,2-0.5,3c-0.1,0.3-0.1,0.5-0.1,0.8
			c-0.3,1-0.5,2.1-0.9,3.1c-1.4,4.3-3.7,8.3-6.7,11.7c-2.2,2.6-4.9,4.7-7.8,6.6c-2.3,1.4-4.7,2.5-7.3,3.3c-0.6,0.2-1.2,0.4-1.8,0.5
			c-1.6,0.4-3.3,0.7-4.9,0.9c-0.6,0.2-1.3,0-1.9,0.2c-0.8,0.1-1.6,0-2.5,0c-0.7,0-1.3-0.2-2-0.1c-2-0.2-4-0.5-5.9-1
			c-0.5-0.1-1-0.2-1.4-0.4c-4.3-1.3-8.3-3.5-11.7-6.5c-0.5-0.4-0.9-0.8-1.4-1.3c-0.9-0.7-1.6-1.7-2.4-2.5c-2.7-3.1-4.8-6.8-6.3-10.7
			c-0.7-1.8-1.1-3.7-1.5-5.7c0-0.2,0-0.5-0.1-0.6c2,1.7,4.1,3.4,6.1,5.2c0.6,0.5,1.2,0.9,1.7,1.5l0.1,0c2.6,2.3,5.3,4.5,8,6.8
			c0.7,0.5,1.2,1.2,2,1.5c0.5,0.2,1,0.2,1.4,0.5c0.8,0.7,1.7,1.4,2.6,2.1c1.2-1.1,2.3-2.3,3.5-3.5c0.1-0.1,0.4-0.3,0.2-0.5
			c-0.7-0.9-1.5-1.7-2.2-2.7c-0.2-0.7-0.3-1.4-0.8-1.9c-7.1-8.3-14.1-16.7-21.2-25c0.1-0.2,0.1-0.5,0.2-0.7c2-5.6,5.5-10.6,10-14.4
			c2.3-2,4.9-3.6,7.7-4.9c1.3-0.6,2.7-1.1,4.1-1.6c0.5-0.2,1-0.3,1.4-0.4c1.7-0.5,3.4-0.8,5.2-1c0.6-0.1,1.2,0,1.8-0.2
			c1.1,0,2.2,0,3.3,0c0.6,0.2,1.2,0,1.8,0.2c0.8,0.1,1.6,0.2,2.4,0.3c0.7,0.1,1.4,0.3,2.1,0.5c0.8,0.2,1.5,0.4,2.3,0.6
			c4.8,1.5,9.2,4.2,12.9,7.6c0.9,0.8,1.6,1.7,2.4,2.6c3.6,4.1,6.1,9.2,7.4,14.5c0.1,0.2,0.1,0.5,0.1,0.7c0.1,0.6,0.2,1.2,0.3,1.8
			C873.2,3615.6,873.2,3616,873.3,3616.4z"/>
		<path d="M850.8,3617.9c0.5,2.5,0.1,5.2-1,7.5c-1.4,2.8-4,5-7,5.8c-0.6,0.2-1.3,0.4-2,0.4c-0.7,0.1-1.3,0.2-2,0
			c-4.7-0.2-9.1-3.8-10.2-8.4c-0.2-0.7-0.3-1.3-0.4-2c0-1.1-0.1-2.3,0.2-3.4c0.8-4,3.9-7.4,7.8-8.6c0.5-0.1,0.9-0.2,1.4-0.4
			c0.9-0.1,1.8-0.3,2.7-0.2c0.8,0.1,1.7,0.2,2.5,0.5C846.8,3610.3,850,3613.8,850.8,3617.9z"/>
		<path class="st15" d="M841,3615.2c1.2,1.2,2.4,2.4,3.6,3.6c-0.2,1.1-0.6,2.3-0.9,3.5c-0.1,0.5-0.3,1-0.4,1.5
			c-1.7,0.5-3.3,0.9-5,1.3c-1.2-1.2-2.4-2.4-3.6-3.6c0.2-0.7,0.4-1.4,0.5-2.1c0.2-0.6,0.3-1.1,0.5-1.7c0.1-0.4,0.2-0.8,0.3-1.2
			c0.2-0.1,0.5-0.2,0.7-0.2c0.6-0.1,1.1-0.3,1.7-0.5C839.2,3615.7,840.1,3615.4,841,3615.2z"/>
		<path class="st15" d="M827.2,3636.7c0.6,0.8,1.3,1.6,1.9,2.4c-0.4,0.4-0.9,0.9-1.3,1.3c-0.8-0.6-1.6-1.3-2.3-2
			c-0.2,0.1-0.4,0.2-0.6,0.2c-0.6-0.2-1-0.7-1.5-1.1c-7.4-6.3-14.8-12.5-22.1-18.8c-2.2-1.8-4.3-3.7-6.5-5.5c-0.5-0.4-1-0.8-1.5-1.3
			l-0.1,0c-0.9-0.9-1.9-1.6-2.8-2.4c0.2,0,0.5,0,0.7-0.1c0.3-0.1,0.6-0.1,0.9-0.2c3.4-0.8,6.2-4,6.2-7.6c0.3,0.3,0.6,0.6,0.8,0.9
			c9.4,11.1,18.9,22.2,28.2,33.3C827.4,3636.1,827.3,3636.4,827.2,3636.7z"/>
		<path d="M822.7,3632.9c0.2,0.3,0.7,0.6,0.5,1.1c-0.1,0.3-0.4,0.4-0.6,0.5c-0.6-0.3-1.1-0.8-1.6-1.3c-6-5.1-12.1-10.3-18.1-15.4
			c-1.1-1-2.3-1.9-3.4-2.9c-0.7-0.5-1.3-1.1-2-1.7c-0.5-0.4-0.8-1.1-1-1.7c0-0.7-0.1-1.4,0.2-2c0.4-1,1.3-1.6,2.2-1.9
			c1.1-0.3,2.4,0.1,3.2,0.9c0.7,0.8,1.4,1.7,2.1,2.4l0,0.1C810.4,3618.4,816.5,3625.7,822.7,3632.9z"/>
		<path d="M813.8,3581.7c0.4,0.5,0.4,1.2,0.5,1.8c0,1.1-0.6,2.2-1.5,2.9c-0.8,0.6-1.8,0.6-2.8,0.5c-0.9-0.3-1.8-0.8-2.2-1.6
			c-0.7-1.1-0.6-2.6,0.1-3.7c0.4-0.5,0.9-1,1.5-1.3C811,3579.5,813,3580.2,813.8,3581.7z"/>
		<path d="M814.2,3655.9c0.2,0.9,0.2,2-0.4,2.8c-0.8,1.6-3.1,2.2-4.7,1.3c-1.1-0.6-1.9-1.8-1.8-3.1c-0.1-1.4,0.9-2.7,2.2-3.2
			c0.6-0.3,1.4-0.2,2-0.2C812.7,3653.8,813.8,3654.7,814.2,3655.9z"/>
		<path class="st15" d="M803.4,3588.3c0,1.9,0,3.7,0,5.6c0,0.3-0.1,0.5-0.2,0.8c-0.1,0-0.2,0-0.3,0c0.1,0.1,0.1,0.2,0.2,0.3
			c-0.3,0.3-0.7,0.4-1.1,0.6c-1.4,0-2.9,0-4.3,0c-1.2,0.1-2,1.2-2.8,2c0.8,1.1,1.5,2.5,1.3,3.9c0.1,2.7-1.9,5.1-4.4,5.8
			c-1,0.2-2,0.2-3,0c-0.9-0.3-1.7-0.7-2.4-1.2c-0.4,0.5-0.9,0.9-1.3,1.4c-0.4,0.6-0.7,1.4-0.7,2.1c0,1.3,0,2.5,0,3.8
			c-0.3,0.7-0.9,1.3-1.7,1.3c-1.7,0-3.5,0-5.2,0c-0.8,0-1.5-0.7-1.7-1.5c0-2.2,0-4.5,0-6.7c0-0.3,0-0.5,0.1-0.8
			c0-1.1,0.2-2.1,0.4-3.2c0.8-3.5,2.5-6.7,5-9.3c0.5-0.6,1.2-1.1,1.7-1.7c1.3-1,2.6-1.9,4-2.6c2.5-1.2,5.2-1.9,7.9-2
			c2.3,0,4.7,0,7,0C802.7,3587,803.2,3587.6,803.4,3588.3z"/>
		<path class="st16" d="M802.3,3626.2c0,0.4,0,0.8,0,1.2c-0.2,0-0.3,0-0.5,0c0-0.4,0-0.9,0-1.3
			C802,3626.2,802.1,3626.2,802.3,3626.2z"/>
		<path class="st17" d="M802.3,3629.3c0,0.4,0,0.8,0,1.2c-0.2,0-0.3,0-0.5,0c0-0.4,0-0.8,0-1.2
			C801.9,3629.3,802.2,3629.3,802.3,3629.3z"/>
		<path class="st18" d="M802.3,3635.4c0,0.4,0,0.8,0,1.3c-0.2,0-0.3,0-0.5,0c0-0.4,0-0.9,0-1.3
			C801.9,3635.4,802.2,3635.4,802.3,3635.4z"/>
		<path class="st19" d="M802.3,3638.6c0,0.4,0,0.8,0,1.2c-0.2,0-0.3,0-0.5,0c0-0.4,0-0.8,0-1.2
			C802,3638.6,802.1,3638.6,802.3,3638.6z"/>
		<path class="st20" d="M802.3,3641.6c0,0.4,0,0.8,0,1.2c-0.2,0-0.3,0-0.5,0c0-0.4,0-0.8,0-1.2
			C802,3641.6,802.1,3641.6,802.3,3641.6z"/>
		<path class="st16" d="M802.3,3632.4c0,0.4,0,0.8,0,1.2c-0.1,0-0.4,0-0.5,0c0-0.4,0-0.8,0-1.2
			C801.9,3632.4,802.2,3632.4,802.3,3632.4z"/>
		<path class="st15" d="M801.3,3626c0,0.5,0,1.1,0,1.6c-0.5,0-1,0-1.5,0c0-0.6,0-1.1,0-1.7C800.3,3626,800.8,3626,801.3,3626z"/>
		<path class="st15" d="M801.3,3629.1c0,0.5,0,1.1,0,1.6c-0.5,0-1,0-1.5,0c0-0.5,0-1.1,0-1.6
			C800.3,3629.1,800.8,3629.1,801.3,3629.1z"/>
		<path class="st15" d="M801.3,3632.1c0,0.5,0,1.1,0,1.6c-0.5,0-1,0-1.5,0c0-0.5,0-1.1,0-1.6
			C800.3,3632.1,800.8,3632.1,801.3,3632.1z"/>
		<path class="st15" d="M801.3,3635.3c0,0.5,0,1.1,0,1.6c-0.5,0-1,0-1.6,0c0-0.5,0-1.1,0-1.6
			C800.3,3635.3,800.8,3635.3,801.3,3635.3z"/>
		<path class="st15" d="M801.3,3638.4c0,0.5,0,1.1,0,1.6c-0.5,0-1,0-1.6,0c0-0.5,0-1.1,0-1.6
			C800.3,3638.4,800.8,3638.3,801.3,3638.4z"/>
		<path class="st15" d="M801.4,3641.4c0,0.5,0,1.1,0,1.6c-0.5,0-1,0-1.5,0c0-0.5,0-1.1,0-1.6
			C800.3,3641.4,800.8,3641.4,801.4,3641.4z"/>
		<path class="st15" d="M797.8,3624.5c0.6,0,1.2,0.4,1.1,1c0,6,0,12,0,18c0,0.4-0.2,0.8-0.6,0.9c-0.4,0.1-0.9,0-1.3,0
			c-5.8,0-11.7,0-17.5,0c-0.2-0.2-0.6-0.4-0.5-0.8c0-6.1,0-12.1,0-18.2c0-0.3,0.2-0.6,0.3-0.8c0.3-0.1,0.6-0.2,0.9-0.1
			C786.1,3624.5,792,3624.5,797.8,3624.5z"/>
		<path class="st16" d="M797.6,3622.2c0,0.5,0,1,0,1.5c-0.6,0-1.1,0-1.7,0c0-0.5,0-1,0-1.5C796.5,3622.2,797,3622.2,797.6,3622.2z"
			/>
		<path class="st15" d="M797.6,3645.3c0,0.5,0,1.1,0,1.6c-0.6,0-1.1,0-1.7,0c0-0.5,0-1.1,0-1.6
			C796.5,3645.3,797,3645.3,797.6,3645.3z"/>
		<path class="st18" d="M797.3,3647.4c0,0.2,0,0.3,0,0.5c-0.4,0-0.8,0-1.3,0c0-0.2,0-0.3,0-0.5
			C796.5,3647.4,796.9,3647.4,797.3,3647.4z"/>
		<path class="st21" d="M797.3,3621.2c0,0.1,0,0.4,0,0.5c-0.4,0-0.8,0-1.3-0.1c0-0.1,0-0.3,0-0.5
			C796.5,3621.2,796.9,3621.2,797.3,3621.2z"/>
		<path d="M794.7,3629.8c0.1,2.8,0,5.6,0,8.3c0,0.5,0.1,1-0.2,1.5c-0.1,0.3-0.5,0.6-0.9,0.6c-3.1,0-6.2,0-9.3,0
			c-0.6,0.1-1.2-0.5-1.1-1.1c0-3.1,0-6.1,0-9.2c0-0.7,0.7-1.2,1.3-1.2c2.9,0,5.9,0,8.9,0C794,3628.7,794.7,3629.2,794.7,3629.8z"/>
		<path class="st15" d="M794.4,3622.2c0,0.5,0,1,0,1.5c-0.5,0-1.1,0-1.6,0c0-0.5,0-1,0-1.6C793.3,3622.2,793.9,3622.2,794.4,3622.2z
			"/>
		<path class="st15" d="M794.4,3645.3c0,0.5,0,1.1,0,1.6c-0.5,0-1.1,0-1.6,0c0-0.5,0-1.1,0-1.6
			C793.3,3645.3,793.9,3645.3,794.4,3645.3z"/>
		<path class="st15" d="M794.3,3621.2c0,0.1,0,0.3,0,0.5c-0.4,0-0.8,0-1.2,0c0-0.1,0-0.4,0-0.5
			C793.4,3621.2,793.8,3621.2,794.3,3621.2z"/>
		<path class="st22" d="M794.2,3647.4c0,0.1,0,0.3,0.1,0.4c-0.4,0-0.8,0-1.3,0c0-0.1,0-0.4,0-0.5
			C793.4,3647.4,793.8,3647.4,794.2,3647.4z"/>
		<path d="M789.8,3597.6c1.9-0.2,3.9,1.1,4.3,3.1c0.1,0.4,0.1,0.9,0.1,1.3c-0.3,1.6-1.6,3-3.2,3.2c-2.1,0.4-4.4-1.4-4.4-3.6
			c-0.1-1.1,0.3-2.2,1.2-2.9C788.2,3598.1,789,3597.8,789.8,3597.6z"/>
		<path class="st15" d="M791.4,3622.2c0,0.5,0,1,0,1.5c-0.5,0-1.1,0-1.6,0c0-0.5,0-1,0-1.5C790.3,3622.2,790.8,3622.2,791.4,3622.2z
			"/>
		<path class="st15" d="M791.4,3645.3c0,0.5,0,1.1,0,1.6c-0.5,0-1.1,0-1.6,0c0-0.5,0-1.1,0-1.6
			C790.3,3645.3,790.8,3645.3,791.4,3645.3z"/>
		<path class="st15" d="M791.1,3621.2c0,0.1,0,0.3,0,0.5c-0.4,0-0.8,0-1.2,0c0-0.1,0-0.4,0-0.5
			C790.4,3621.2,790.8,3621.2,791.1,3621.2z"/>
		<path class="st23" d="M791.1,3647.4c0,0.1,0,0.3,0,0.5c-0.4,0-0.8,0-1.2,0c0-0.1,0-0.4,0-0.5
			C790.4,3647.4,790.8,3647.4,791.1,3647.4z"/>
		<path class="st15" d="M788.3,3622.2c0,0.5,0,1,0,1.5c-0.5,0-1.1,0-1.6,0c0-0.5,0-1,0-1.5C787.2,3622.2,787.8,3622.2,788.3,3622.2z
			"/>
		<path class="st18" d="M788.3,3645.3c0,0.5,0,1.1,0,1.6c-0.5,0-1.1,0-1.6,0c0-0.5,0-1.1,0-1.6
			C787.2,3645.3,787.8,3645.3,788.3,3645.3z"/>
		<path class="st21" d="M788.1,3647.4c0,0.2,0,0.3,0,0.5c-0.4,0-0.8,0-1.2,0c0-0.2,0-0.3,0-0.5
			C787.3,3647.4,787.7,3647.4,788.1,3647.4z"/>
		<path class="st18" d="M788.1,3621.2c0,0.1,0,0.4,0,0.5c-0.5,0-0.9,0-1.4-0.1C786.9,3621,787.6,3621.3,788.1,3621.2z"/>
		<path class="st15" d="M785.2,3622.2c0,0.5,0,1,0,1.5c-0.5,0-1.1,0-1.6,0c0-0.5,0-1,0-1.5C784.1,3622.2,784.6,3622.2,785.2,3622.2z
			"/>
		<path class="st15" d="M785.2,3645.3c0,0.5,0,1.1,0,1.6c-0.5,0-1.1,0-1.6,0c0-0.5,0-1.1,0-1.6
			C784.1,3645.3,784.6,3645.3,785.2,3645.3z"/>
		<path class="st15" d="M785,3621.2c0,0.1,0,0.4,0,0.5c-0.4,0-0.8,0-1.2,0c0-0.1,0-0.4,0-0.5C784.2,3621.2,784.6,3621.2,785,3621.2z
			"/>
		<path class="st24" d="M785,3647.4c0,0.1,0,0.3,0,0.5c-0.4,0-0.8,0-1.2,0c0-0.1,0-0.4,0-0.5C784.2,3647.4,784.6,3647.4,785,3647.4z
			"/>
		<path class="st25" d="M782.4,3663.5"/>
		<path class="st26" d="M782.1,3620.4"/>
		<path class="st15" d="M782.1,3622.2c0,0.5,0,1,0,1.5c-0.5,0-1.1,0-1.6,0c0-0.5,0-1,0-1.5C781,3622.2,781.6,3622.2,782.1,3622.2z"
			/>
		<path class="st15" d="M782.1,3645.3c0,0.5,0,1.1,0,1.6c-0.5,0-1.1,0-1.6,0c0-0.5,0-1.1,0-1.6
			C781,3645.3,781.6,3645.3,782.1,3645.3z"/>
		<path class="st24" d="M781.9,3621.2c0,0.1,0,0.3,0,0.5c-0.4,0-0.8,0-1.2,0c0-0.1,0-0.4,0-0.5
			C781.1,3621.2,781.5,3621.2,781.9,3621.2z"/>
		<path class="st15" d="M781.9,3647.4c0,0.1,0,0.4,0,0.5c-0.4,0-0.8,0-1.2,0c0-0.1,0-0.3,0-0.5
			C781.1,3647.4,781.5,3647.4,781.9,3647.4z"/>
		<path d="M776.8,3653.7c1.7,0.7,2.7,2.8,2,4.5c-0.4,1.2-1.5,2.1-2.8,2.2c-0.5,0-1.1,0.1-1.6-0.1c-1.2-0.4-2.1-1.4-2.3-2.6
			c-0.2-1.1,0.1-2.3,0.9-3.2c0.5-0.4,1.1-0.9,1.8-1C775.5,3653.5,776.2,3653.4,776.8,3653.7z"/>
		<path d="M778.8,3582.3c0.7,1.8-0.5,4-2.4,4.5c-0.6,0.1-1.2,0.1-1.8,0c-1.2-0.3-2.3-1.3-2.5-2.5c-0.2-0.5-0.1-1-0.1-1.5
			c0.3-1.2,1.2-2.4,2.4-2.7c0.5-0.2,1.1-0.1,1.6-0.1C777.3,3580.2,778.5,3581.1,778.8,3582.3z"/>
		<path class="st15" d="M778.2,3638.4c0,0.5,0,1.1,0,1.6c-0.5,0-1.1,0-1.6,0c0-0.6,0-1.1,0-1.7
			C777.1,3638.4,777.7,3638.4,778.2,3638.4z"/>
		<path class="st15" d="M778.2,3626c0,0.5,0,1.1,0,1.6c-0.5,0-1.1,0-1.6,0c0-0.5,0-1.1,0-1.6C777.1,3626,777.7,3626,778.2,3626z"/>
		<path class="st15" d="M778.2,3629.1c0,0.5,0,1.1,0,1.6c-0.5,0-1.1,0-1.6,0c0-0.5,0-1.1,0-1.6
			C777.1,3629.1,777.7,3629.1,778.2,3629.1z"/>
		<path class="st15" d="M778.2,3632.1c0,0.5,0,1.1,0,1.6c-0.5,0-1.1,0-1.6,0c0-0.5,0-1.1,0-1.6
			C777.1,3632.1,777.7,3632.1,778.2,3632.1z"/>
		<path class="st15" d="M778.2,3635.3c0,0.5,0,1.1,0,1.6c-0.5,0-1.1,0-1.6,0c0-0.5,0-1.1,0-1.6
			C777.1,3635.3,777.7,3635.3,778.2,3635.3z"/>
		<path class="st15" d="M778.2,3641.4c0,0.6,0,1.1,0,1.7c-0.5,0-1.1,0-1.6,0c0-0.5,0-1.1,0-1.6
			C777.1,3641.4,777.7,3641.4,778.2,3641.4z"/>
		<path class="st27" d="M776.3,3626.2c0,0.4,0,0.8-0.1,1.3c-0.2,0-0.4,0-0.6,0c0-0.4,0-0.9,0-1.3
			C775.8,3626.1,776.1,3626.2,776.3,3626.2z"/>
		<path class="st18" d="M776.1,3629.3c0,0.4,0,0.8,0,1.2c-0.2,0-0.3,0-0.5,0c0-0.4,0-0.8,0-1.2
			C775.8,3629.3,776,3629.3,776.1,3629.3z"/>
		<path class="st15" d="M776.1,3632.4c0,0.4,0,0.8,0,1.2c-0.2,0-0.3,0-0.5,0c0-0.4,0-0.8,0-1.2
			C775.8,3632.4,776,3632.4,776.1,3632.4z"/>
		<path class="st22" d="M776.1,3635.4c0,0.4,0,0.9,0,1.3c-0.2,0-0.3,0-0.5,0c0-0.4,0-0.8,0-1.3
			C775.8,3635.4,776,3635.4,776.1,3635.4z"/>
		<path class="st17" d="M776.1,3641.6c0,0.4,0,0.8,0,1.2c-0.2,0-0.3,0-0.5,0c0-0.4,0-0.8,0-1.2
			C775.8,3641.6,776,3641.6,776.1,3641.6z"/>
		<path class="st28" d="M775.8,3626.3c0.3-0.3,0.4,0.2,0.4,0.4c0,0.3,0.1,0.8-0.4,0.6C775.6,3627,775.6,3626.6,775.8,3626.3z"/>
		<path class="st29" d="M776.1,3638.6c0,0.4,0,0.8,0,1.2c-0.1,0-0.4,0-0.5,0c0-0.4,0-0.8,0-1.2
			C775.8,3638.6,776,3638.6,776.1,3638.6z"/>
	</g>
	<g id="Color_Picker_Vector">
		<path class="st30" d="M1391.2,3211.9l0.2,16.9l-15.2,7.7l-14.3-7.5l-0.1-16.8l0,0l13.8-6.9"/>
		<path class="st31" d="M1421.5,3212.2l0.2,16.7l-15.1,7.5l-15.2-7.6l-0.2-16.9l7.3-3.1l7.4-3.3l0,0"/>
		<path class="st32" d="M1451.6,3212.2l0,16.6l-15.1,7.5l-15-7.4l-0.2-16.7l0,0l14.7-6.9"/>
		<path class="st33" d="M1481.8,3212v17l-14.8,7.4l-15.2-7.7l0-16.6l4.1-1.9l8.2-4l2.2-1.2"/>
		<path class="st34" d="M1511.9,3211.9l0.3,17l-15.4,7.7l-15-7.5v-17l2.9-1.4l11.8-5.4l0,0"/>
		<path class="st35" d="M1527.3,3235.9l-15.1-7.1l-0.3-17l3-1.4l11.8-5.1l0,0l2.3,1.1l3.7,1.4l9.3,4.1l0.1,16.4"/>
		<path class="st36" d="M1542,3228.2l-0.1-16.4l1.8-0.8l2.9-1.1l2.3-1.1l7.3-3.8l12.7,5.8l3.5,1.7l-0.1,17l-14.6,7.1"/>
		<path class="st37" d="M1346.7,3237.3l15.2-8.3l14.3,7.5v17.6l-15.2,7.5l-14.1-7.2L1346.7,3237.3L1346.7,3237.3z"/>
		<path class="st38" d="M1376.2,3236.5l15.2-7.7l15.2,7.6l0,17.7l-15.1,7.6l-15.3-7.6V3236.5L1376.2,3236.5z"/>
		<path class="st39" d="M1406.6,3236.4l15.1-7.5l15,7.4l0,17.3l4,2l-5.1-0.4l-13.9,6.5l-15-7.6L1406.6,3236.4L1406.6,3236.4z"/>
		<path class="st40" d="M1451.2,3261.1l-9.9-4.5l-4.7-3.1l0-17.3l0,0l15.1-7.5l15.2,7.7l-0.2,16.9"/>
		<path class="st41" d="M1481.8,3229l15,7.5l0.1,17.7l-14.9,7.3l-12.2-6.6l-3-1.6l0.2-16.9L1481.8,3229L1481.8,3229z"/>
		<path class="st42" d="M1496.8,3236.6l15.4-7.7l15.1,7.1l-0.1,18.6l-14.7,7.3l-15.6-7.6L1496.8,3236.6L1496.8,3236.6z"/>
		<path class="st43" d="M1572.3,3229.5l14.5,7.5l0,17.8l-14.1,6.9l-15.1-7.6l0.1-17.5"/>
		<path class="st44" d="M1542,3228.2l15.6,8.4l-0.1,17.5l-15.1,7.6l-15.3-7.1l0.1-18.6"/>
		<path class="st45" d="M1361,3261.6l15.2-7.5l15.3,7.6l0.1,17.5l-15.7,8.5l-14.9-8.5L1361,3261.6L1361,3261.6z"/>
		<path class="st46" d="M1406.6,3254.1l15,7.6l0,17.6l-14.9,7.5l-15.1-7.6l-0.1-17.5L1406.6,3254.1L1406.6,3254.1z"/>
		<path class="st47" d="M1527.2,3254.6l15.3,7.1l0,17.5l-15.5,7.4l-15-7.3l0.4-17.5L1527.2,3254.6L1527.2,3254.6z"/>
		<path class="st48" d="M1542.5,3261.7l15.1-7.6l15.1,7.6l-0.1,17l2.1,1l-17.4,7l-14.7-7.5L1542.5,3261.7L1542.5,3261.7z"/>
		<path class="st49" d="M1572.6,3278.7l0.1-17l14.1-6.9l0,0l0,0l15.1,7.7l-0.3,17.5l-14.4,6.2"/>
		<path class="st50" d="M1331.7,3263l15.2-8.6l14.1,7.2l-0.1,17.6l-14.9,7.5l-13.8-7.1L1331.7,3263L1331.7,3263z"/>
		<path class="st51" d="M1436.6,3253.5l14.6,7.6l0.5,18.2l-15.6,7l-14.6-7l0-17.6l0,0"/>
		<path class="st52" d="M1451.2,3261.1l15.5-7.8l15.2,8.2l-0.1,17.8l-15.6,6.9l-14.5-6.9L1451.2,3261.1L1451.2,3261.1z"/>
		<path class="st53" d="M1482,3261.5l14.9-7.3l15.6,7.6l-0.4,17.5l-12.3,6.9l-17.9-6.9L1482,3261.5L1482,3261.5z"/>
		<path class="st54" d="M1316.5,3287.6l15.7-8.1l13.8,7.1l0,17.7l-15.1,7.6l-14.2-7.4L1316.5,3287.6L1316.5,3287.6z"/>
		<path class="st55" d="M1375.9,3287.6l0.2,16.7l-15.1,7.6l-15.1-7.6l0-17.7l0,0l14.9-7.5"/>
		<path class="st56" d="M1378.9,3286l12.7-6.9l15.1,7.6l0,17.8l-15.1,7.6l-15.5-7.8l-0.2-16.7L1378.9,3286L1378.9,3286z"/>
		<path class="st57" d="M1406.7,3286.7l14.9-7.5l14.6,7l0.6,18.2l-15.1,7.6l-15-7.5L1406.7,3286.7L1406.7,3286.7z"/>
		<path class="st58" d="M1436.2,3286.2l15.6-7l14.5,6.9l0.5,18.2l-15,7.6l-15-7.5L1436.2,3286.2L1436.2,3286.2z"/>
		<path class="st59" d="M1466.3,3286.2l15.6-6.9l17.9,6.9l-2.9,1.6l0.1,16.7l-12.3,6.8l-17.9-6.9L1466.3,3286.2L1466.3,3286.2z"/>
		<path class="st60" d="M1499.8,3286.2l12.3-6.9l15,7.3l0.2,17.7l-15.2,7.5l-14.9-7.3l-0.1-16.7L1499.8,3286.2L1499.8,3286.2z"/>
		<path class="st61" d="M1527,3286.6l15.5-7.4l14.7,7.5l0,17.7l-14.8,7.5l-15.2-7.6L1527,3286.6L1527,3286.6z"/>
		<path class="st62" d="M1557.2,3286.7l15.4-8l14.6,7.5l0.4,18.5l-14.9,7.4l-15.5-7.7L1557.2,3286.7L1557.2,3286.7z"/>
		<path class="st63" d="M1617,3287l0.1,17.8l-15.1,6.9l-14.4-7.1l-0.4-18.5l14.4-6.2l0,0"/>
		<path class="st64" d="M1316.7,3304.5l14.2,7.4l0,17.3l-15.4,7.2l-13.9-6.9l-0.2-16.7"/>
		<path class="st65" d="M1330.9,3329.2l0-17.3l0,0l15.1-7.6l15.1,7.6l0,17.6l-15.2,8.2"/>
		<path class="st66" d="M1361.1,3311.9l15.1-7.6l15.5,7.8l0,17.5l-15,7.5l-15.5-7.6L1361.1,3311.9L1361.1,3311.9z"/>
		<path class="st67" d="M1391.6,3312.1l15.1-7.6l15,7.5l0,17.4l-15.1,7.6l-15-7.6L1391.6,3312.1L1391.6,3312.1z"/>
		<path class="st68" d="M1421.7,3312.1l15.1-7.6l15,7.5l0,17.5l-15.1,7.5l-15.1-7.5L1421.7,3312.1L1421.7,3312.1z"/>
		<path class="st69" d="M1451.8,3312l15-7.6l17.9,6.9l-2.9,1.5v16.9l-15,7.4l-15.1-7.5L1451.8,3312L1451.8,3312z"/>
		<path class="st70" d="M1484.7,3311.2l12.3-6.8l14.9,7.3l0.2,17.8l-15.1,7.5l-15.2-7.4v-16.9L1484.7,3311.2L1484.7,3311.2z"/>
		<path class="st71" d="M1511.9,3311.8l15.2-7.5l15.2,7.6l0.1,17.6l-15.3,7.5l-15.1-7.5L1511.9,3311.8L1511.9,3311.8z"/>
		<path class="st72" d="M1542.4,3311.9l14.8-7.5l15.5,7.7l0,17.5l-15.1,7.5l-15.1-7.5L1542.4,3311.9L1542.4,3311.9z"/>
		<path class="st73" d="M1572.7,3312.1l14.9-7.4l14.4,7.1v18l-14.7,7.2l-14.6-7.4L1572.7,3312.1L1572.7,3312.1z"/>
		<path class="st74" d="M1602,3311.8l15.1-6.9l9.7,4.5l5.2,2.8l0.1,17.8l-14.3,7.2l-15.9-7.4V3311.8L1602,3311.8z"/>
		<path class="st75" d="M1345.8,3337.7l0.2,17.2l-15.1,7.7l-15.6-7.1l0.1-19l0,0l15.4-7.2"/>
		<path class="st76" d="M1348.9,3336l12.2-6.5l15.5,7.6l0,17.7l-15.5,7.8l-15-7.7l-0.2-17.2L1348.9,3336L1348.9,3336z"/>
		<path class="st77" d="M1376.6,3337.1l15-7.5l15,7.6l0,17.5l-15.1,7.6l-14.9-7.5L1376.6,3337.1L1376.6,3337.1z"/>
		<path class="st78" d="M1406.6,3337.1l15.1-7.6l15.1,7.5l0,17.6l-15,7.6l-15.1-7.6L1406.6,3337.1L1406.6,3337.1z"/>
		<path class="st79" d="M1436.7,3337l15.1-7.5l15.1,7.5l0,17.6l-15.1,7.5l-15.1-7.6L1436.7,3337L1436.7,3337z"/>
		<path class="st80" d="M1466.8,3337l15-7.4l15.2,7.4l0,17.6l-15.1,7.6l-15.2-7.6L1466.8,3337L1466.8,3337z"/>
		<path class="st81" d="M1497,3337l15.1-7.5l15.1,7.5l0,17.6l-15.1,7.6l-15-7.6L1497,3337L1497,3337z"/>
		<path class="st82" d="M1527.2,3337l15.3-7.5l15.1,7.5l0,17.6l-15.1,7.6l-15.3-7.7L1527.2,3337L1527.2,3337z"/>
		<path class="st83" d="M1557.6,3337.1l15.1-7.5l14.6,7.4l0.1,17.7l-14.8,7.5l-14.9-7.5L1557.6,3337.1L1557.6,3337.1z"/>
		<path class="st84" d="M1602,3329.8l15.9,7.4l0,17.5l-15.1,7.6l-15.4-7.6l-0.1-17.7L1602,3329.8L1602,3329.8z"/>
		<path class="st85" d="M1617.9,3337.2l14.3-7.2l6.2,3.2l9,4.8v17.2l-14.4,7l-15-7.5L1617.9,3337.2L1617.9,3337.2z"/>
		<path class="st86" d="M1300.9,3362.7l0,16.8l-14.5,7.8l-6.8-3.8l-8.2-4.6v-15.9l0,0l15.1-8.4"/>
		<path class="st87" d="M1330.9,3362.5l15.1-7.7l15,7.7l0,17.1l-15.1,7.7l-15.1-7.9L1330.9,3362.5L1330.9,3362.5z"/>
		<path class="st88" d="M1361.1,3362.5l15.5-7.8l14.9,7.5l-0.1,17.5l-15.2,7.6l-15.2-7.7L1361.1,3362.5L1361.1,3362.5z"/>
		<path class="st89" d="M1391.5,3362.2l15.1-7.6l15.1,7.6v17.5l-15.1,7.6l-15.2-7.6L1391.5,3362.2L1391.5,3362.2z"/>
		<path class="st90" d="M1421.7,3362.2l15-7.6l15.1,7.6l0,17.6l-15.1,7.5l-15.1-7.6V3362.2L1421.7,3362.2z"/>
		<path class="st2" d="M1451.8,3362.2l15.1-7.5l15.2,7.6l0,17.5l-15,7.5l-15.1-7.5L1451.8,3362.2L1451.8,3362.2z"/>
		<path class="st91" d="M1482,3362.3l15.1-7.6l15,7.6l0,17.6l-15,7.6l-15.1-7.6L1482,3362.3L1482,3362.3z"/>
		<path class="st92" d="M1512.1,3362.2l15.1-7.6l15.3,7.7v17.5l-15.4,7.6l-15.1-7.6L1512.1,3362.2L1512.1,3362.2z"/>
		<path class="st93" d="M1542.5,3362.3l15.1-7.6l14.9,7.5l0,17.7l-15,7.5l-15-7.6V3362.3L1542.5,3362.3z"/>
		<path class="st94" d="M1572.5,3362.1l14.8-7.5l15.4,7.6l0,17.6l-15.1,7.6l-15.1-7.6L1572.5,3362.1L1572.5,3362.1z"/>
		<path class="st95" d="M1602.8,3362.3l15.1-7.6l15,7.5v17.7l-15,7.6l-15.2-7.5L1602.8,3362.3L1602.8,3362.3z"/>
		<path class="st96" d="M1662.1,3364v14.1l-4.1,2.7l-8.3,4.6l-2.5,1.4l-14.4-6.9v-17.7l0,0l14.4-7"/>
		<path class="st97" d="M1315.4,3355.5l15.6,7.1l-0.1,17l-15.2,7.4l-14.8-7.4l0-16.8L1315.4,3355.5L1315.4,3355.5z"/>
		<path class="st98" d="M1300.9,3379.5l14.8,7.4l0.1,18.1l-14.3,7.4l-7.9-4.2l-7.3-3.9l0.1-17l0,0"/>
		<path class="st99" d="M1315.7,3386.9l15.2-7.4l15.1,7.9l0,17.7l-15.1,7.6l-15.1-7.6L1315.7,3386.9L1315.7,3386.9z"/>
		<path class="st100" d="M1346,3387.3l15.1-7.7l15.2,7.7l0.1,17.4l-15.3,7.7l-15-7.5L1346,3387.3L1346,3387.3z"/>
		<path class="st101" d="M1376.2,3387.4l15.2-7.6l15.2,7.6l0,17.6l-15.1,7.6l-15.2-7.8L1376.2,3387.4L1376.2,3387.4z"/>
		<path class="st102" d="M1406.6,3387.4l15.1-7.6l15.1,7.6l0,17.6l-15.1,7.6l-15.1-7.6L1406.6,3387.4L1406.6,3387.4z"/>
		<path class="st103" d="M1436.7,3387.3l15.1-7.5l15.1,7.5l0,17.6l-15.2,7.6l-15-7.6L1436.7,3387.3L1436.7,3387.3z"/>
		<path class="st104" d="M1466.9,3387.3l15-7.5l15.1,7.6l0,17.6l-15,7.5l-15.1-7.6L1466.9,3387.3L1466.9,3387.3z"/>
		<path class="st105" d="M1497,3387.4l15-7.6l15.1,7.6l0,17.5l-15.1,7.5l-15.1-7.5L1497,3387.4L1497,3387.4z"/>
		<path class="st106" d="M1527.2,3387.4l15.4-7.6l15,7.6l0,17.5l-15.3,7.5l-15.1-7.5L1527.2,3387.4L1527.2,3387.4z"/>
		<path class="st107" d="M1557.6,3387.4l15-7.5l15.1,7.6v17.5l-15,7.5l-15.1-7.6L1557.6,3387.4L1557.6,3387.4z"/>
		<path class="st108" d="M1587.7,3387.4l15.1-7.6l15.2,7.5l0,17.4l-15.2,7.7l-15-7.5V3387.4L1587.7,3387.4z"/>
		<path class="st109" d="M1618,3387.4l15-7.6l14.4,6.9l-0.1,17.6l-15,7.6l-14.2-7.1L1618,3387.4L1618,3387.4z"/>
		<path class="st110" d="M1301.5,3412.4l14.3-7.4l15.1,7.6l0,17.7l-14.2,7.3l-15.3-8.3L1301.5,3412.4L1301.5,3412.4z"/>
		<path class="st111" d="M1330.9,3412.6l15.1-7.6l15,7.5l0,17.6l-15.1,7.8l-15-7.6L1330.9,3412.6L1330.9,3412.6z"/>
		<path class="st112" d="M1361.1,3412.5l15.3-7.7l15.2,7.8l0,17.4l-15.4,7.7l-15.1-7.6L1361.1,3412.5L1361.1,3412.5z"/>
		<path class="st113" d="M1391.5,3412.5l15.1-7.6l15.1,7.6l0,17.6l-15,7.6l-15.1-7.7L1391.5,3412.5L1391.5,3412.5z"/>
		<path class="st114" d="M1421.6,3412.5l15.1-7.6l15,7.6l-0.4,17.8l-14.7,7.4l-15.1-7.6L1421.6,3412.5L1421.6,3412.5z"/>
		<path class="st115" d="M1451.8,3412.5l15.2-7.6l15.1,7.6l0,17.6l-15.2,7.6l-15.4-7.4L1451.8,3412.5L1451.8,3412.5z"/>
		<path class="st116" d="M1482,3412.5l15-7.5l15.1,7.5l0,17.6l-15.3,8.5l-14.9-8.5L1482,3412.5L1482,3412.5z"/>
		<path class="st117" d="M1512.1,3412.5l15.1-7.5l15.1,7.5l0.1,18.9l-15.3,6.2l-14.9-7.5L1512.1,3412.5L1512.1,3412.5z"/>
		<path class="st118" d="M1542.3,3412.5l15.3-7.5l15.1,7.6l0,17.7l-15,7.5l-15.2-6.3L1542.3,3412.5L1542.3,3412.5z"/>
		<path class="st119" d="M1572.7,3412.5l15-7.5l15,7.5l0,17.6l-15.9,7.9l-14.2-7.9L1572.7,3412.5L1572.7,3412.5z"/>
		<path class="st120" d="M1602.7,3412.5l15.2-7.7l14.2,7.1l-0.1,17.9l-5.2,2.8l-9.7,4.4l-14.3-7L1602.7,3412.5L1602.7,3412.5z"/>
		<path class="st121" d="M1361,3430.1l15.1,7.6v17.6l-15.2,7.6l-15-7.5l0-17.5L1361,3430.1L1361,3430.1z"/>
		<path class="st122" d="M1376.1,3437.7l15.4-7.7l15.1,7.7l0.1,17.2l-15.5,8l-15-7.6V3437.7L1376.1,3437.7z"/>
		<path class="st123" d="M1406.6,3437.6l15-7.6l15.1,7.6l0,17.3l-15.6,7.5l-14.5-7.6L1406.6,3437.6L1406.6,3437.6z"/>
		<path class="st124" d="M1498.6,3437.6l13.5-7.5l14.9,7.5l-0.1,17.6l-15,7.2l-15-7.3l-0.3-16.5L1498.6,3437.6L1498.6,3437.6z"/>
		<path class="st125" d="M1557.6,3437.7v17.5l-15.5,7.7l-15.1-7.6l0.1-17.6l15.3-6.2"/>
		<path class="st126" d="M1572.6,3430.1l14.2,7.9v18.2l-14.2,6.3l-15-7.5v-17.5L1572.6,3430.1L1572.6,3430.1z"/>
		<path class="st127" d="M1316.7,3437.6l14.2-7.3l15,7.6l0,17.5l-13.5,7.2l-15.9-8.3L1316.7,3437.6L1316.7,3437.6z"/>
		<path class="st128" d="M1451.4,3430.3l15.4,7.4l-0.3,17.7l-14.5,7.2l-15.2-7.6l0-17.3L1451.4,3430.3L1451.4,3430.3z"/>
		<path class="st129" d="M1466.8,3437.6l15.2-7.6l14.9,8.5l0,0l0.3,16.5l-15.4,8.2l-15.2-7.9L1466.8,3437.6L1466.8,3437.6z"/>
		<path class="st130" d="M1586.9,3438l7.9-4.1l8-3.8l14.3,7l-0.1,17.6l-15,7.5l-15.1-5.9"/>
		<path class="st131" d="M1406.7,3454.9l14.5,7.6v18.2l-14.5,7.3l-15.1-7.5l-0.4-17.5L1406.7,3454.9L1406.7,3454.9z"/>
		<path class="st132" d="M1421.1,3462.4l15.6-7.5l15.2,7.6l0.1,17.7l-15.4,8.2l-15.5-7.9"/>
		<path class="st133" d="M1481.6,3480.1l0-16.8l1.4-0.7l0,0l14.1-7.5l15,7.3l0.4,17.8l-15.4,6.8"/>
		<path class="st134" d="M1332.4,3462.6l13.5-7.2l15,7.5l0,17.4l-14,7.2l-15.2-8.3L1332.4,3462.6L1332.4,3462.6z"/>
		<path class="st135" d="M1360.9,3462.9l15.2-7.6l15,7.6l0.4,17.5l-13.8,7.3l-3.6-1.2l-13.3-6.2L1360.9,3462.9L1360.9,3462.9z"/>
		<path class="st136" d="M1481.7,3463.3l0,16.8l-4.4,2.9l-10.3,4.9l-14.8-7.5l-0.1-17.7l0,0l14.5-7.2"/>
		<path class="st137" d="M1512.1,3462.4l15-7.2l15.1,7.6l0,17.5l-14.9,7.5l-14.8-7.6L1512.1,3462.4L1512.1,3462.4z"/>
		<path class="st138" d="M1542.1,3462.9l15.5-7.7l15,7.5l0,17.8l-15,7.5l-15.5-7.6L1542.1,3462.9L1542.1,3462.9z"/>
		<path class="st139" d="M1586.8,3487.5l-14.2-7.1l0-17.8l0,0l14.2-6.3l0,0l15.1,5.9l-0.1,17.9"/>
		<path class="st140" d="M1377.8,3505.9l-15.8,7.1l-15.2-8.5l0.2-17l0,0l14-7.2l16.8,7.4"/>
		<path class="st141" d="M1377.8,3487.7l13.8-7.3l15.1,7.5l0.1,17.6l-15.1,7.6l-13.8-7.2"/>
		<path class="st142" d="M1436.6,3488.5l0.1,17.1l-15.1,7.5l-14.9-7.5l-0.1-17.6l14.5-7.3l0,0"/>
		<path class="st143" d="M1452,3480.3l14.8,7.5l0,17.6l-15.1,7.6l-15.1-7.5l-0.1-17.1"/>
		<path class="st144" d="M1481.6,3480.1l15.4,6.9l-0.1,3.3l0,15.2l-15.1,7.5l-15.1-7.6l0-17.6"/>
		<path class="st145" d="M1512.4,3480.2l14.8,7.6l-0.3,18l-14.8,7.3l-15.1-7.5l0-18.5"/>
		<path class="st146" d="M1527.2,3487.8l14.9-7.5l15.5,7.6l0,17.8l-15,7.6l-15.7-7.4L1527.2,3487.8L1527.2,3487.8z"/>
		<path class="st147" d="M1571.8,3512.4l-14.2-6.8l0-17.8l0,0l15-7.5l14.2,7.1l0,17.8"/>
		<path class="st148" d="M1376.7,3536.7l-14.9-7l0.1-16.7l0,0l15.8-7.1l13.8,7.2l-0.3,17.3"/>
		<path class="st149" d="M1405.8,3536.7l-5.7-2.6l-6.1-2.7l-2.6-1.1l0.3-17.3l0,0l15.1-7.6l14.9,7.5l-0.4,17.2"/>
		<path class="st150" d="M1436.3,3536.9l-4.1-1.8l-4.9-2.3l-6.2-2.6l0.4-17.2l0,0l15.1-7.5l15.1,7.5l-0.4,17"/>
		<path class="st151" d="M1466.3,3536.9l-3-1.4l-5.8-2.6l-6.1-2.9l0.4-17l0,0l15.1-7.6l15.1,7.6l-0.7,17.2"/>
		<path class="st152" d="M1496.6,3536.8l-8.2-3.5l-7.1-3l0.7-17.2l0,0l15.1-7.5l15.1,7.5l-0.2,17.1"/>
		<path class="st153" d="M1526.7,3536.7l-7.6-3.3l-7.1-3.3l0.2-17.1l0,0l14.8-7.3l15.7,7.4l-0.1,16.6"/>
		<path class="st154" d="M1557.5,3536.7l-14.9-6.9l0.1-16.6l0,0l15-7.6l14.2,6.8l-0.2,17.7"/>
		<path class="st155" d="M1301.6,3329.5l13.9,6.9l0.1,19.3l-14.6,7l-14.5-8.1l-0.6-16.1"/>
	</g>
</g>
<g id="Menu_Items_1_">
	
		<image style="display:none;overflow:visible;" width="1152" height="779" xlink:href="../DS-UI-RE-think-1.jpg"  transform="matrix(2.2246 0 0 2.2246 14.0914 1911)">
	</image>
	<line class="st156" x1="198" y1="2145" x2="1703" y2="2145"/>
	
		<image style="display:none;overflow:visible;" width="8000" height="2160" xlink:href="1C988E63.jpg"  transform="matrix(-1 0 0 -1 708 -4112)">
	</image>
	<g id="Drop_Down_Bar">
		<path id="END_CAP_RIGHT" class="st157" d="M597.4,2409.9h24.9c8.1,0,15.7,4.6,20,12.2l0,0c4.8,8.5,4.8,19.2,0,27.7l0,0
			c-4.3,7.6-11.9,12.2-20,12.2h-24.9"/>
		<path id="END_CAP_RIGHT_1_" class="st157" d="M225.9,2462H201c-8.1,0-15.7-4.6-20-12.2h0c-4.8-8.5-4.8-19.2,0-27.7h0
			c4.3-7.6,11.9-12.2,20-12.2h24.9"/>
		<rect x="225.9" y="2409.9" class="st158" width="371.5" height="52.1"/>
		<polygon class="st159" points="604,2423.2 635.5,2423.2 619.8,2451.7 		"/>
	</g>
	
		<radialGradient id="SVGID_1_" cx="955.5" cy="2268.4067" r="709.5254" gradientTransform="matrix(0.9977 0 0 0.2917 4.0609 1527.875)" gradientUnits="userSpaceOnUse">
		<stop  offset="0" style="stop-color:#FFFFFF"/>
		<stop  offset="0" style="stop-color:#4D4D4D"/>
		<stop  offset="0.2378" style="stop-color:#494949"/>
		<stop  offset="0.4841" style="stop-color:#3D3C3D"/>
		<stop  offset="0.7343" style="stop-color:#282828"/>
		<stop  offset="0.9859" style="stop-color:#0C0B0C"/>
		<stop  offset="1" style="stop-color:#0A090A"/>
	</radialGradient>
	<rect x="201.6" y="2186.6" class="st160" width="1551.4" height="3.5"/>
	<g id="Drop_Down_Bar_1_" class="st161">
		<path id="END_CAP_RIGHT_3_" class="st162" d="M1157.4,2318.9h24.9c8.1,0,15.7,4.6,20,12.2l0,0c4.8,8.5,4.8,19.2,0,27.7l0,0
			c-4.3,7.6-11.9,12.2-20,12.2h-24.9"/>
		<path id="END_CAP_RIGHT_2_" class="st162" d="M785.9,2371H761c-8.1,0-15.7-4.6-20-12.2l0,0c-4.8-8.5-4.8-19.2,0-27.7l0,0
			c4.3-7.6,11.9-12.2,20-12.2h24.9"/>
		
			<radialGradient id="SVGID_2_" cx="971.6022" cy="2340.4167" r="232.25" gradientTransform="matrix(1 0 0 1.2112 0 -489.8487)" gradientUnits="userSpaceOnUse">
			<stop  offset="0" style="stop-color:#DA0000"/>
			<stop  offset="0" style="stop-color:#D30000"/>
			<stop  offset="0" style="stop-color:#C10000"/>
			<stop  offset="0" style="stop-color:#A30000"/>
			<stop  offset="0" style="stop-color:#790000"/>
			<stop  offset="0" style="stop-color:#760000"/>
			<stop  offset="0.1993" style="stop-color:#6F0000"/>
			<stop  offset="0.4888" style="stop-color:#5C0000"/>
			<stop  offset="0.8317" style="stop-color:#3C0001"/>
			<stop  offset="1" style="stop-color:#2A0001"/>
		</radialGradient>
		<rect x="785.9" y="2318.9" class="st163" width="371.5" height="52.1"/>
		<polygon class="st164" points="1164,2332.2 1195.5,2332.2 1179.8,2360.7 		"/>
	</g>
	<g id="Drop_Down_Bar_2_">
		<path id="END_CAP_RIGHT_5_" class="st13" d="M1197.4,2409.9h24.9c8.1,0,15.7,4.6,20,12.2l0,0c4.8,8.5,4.8,19.2,0,27.7l0,0
			c-4.3,7.6-11.9,12.2-20,12.2h-24.9"/>
		<path id="END_CAP_RIGHT_4_" class="st13" d="M825.9,2462H801c-8.1,0-15.7-4.6-20-12.2l0,0c-4.8-8.5-4.8-19.2,0-27.7l0,0
			c4.3-7.6,11.9-12.2,20-12.2h24.9"/>
		<rect x="825.9" y="2409.9" class="st165" width="371.5" height="52.1"/>
		<polygon class="st159" points="1204,2423.2 1235.5,2423.2 1219.8,2451.7 		"/>
	</g>
	<g id="Drop_Down_Bar_3_">
		<path id="END_CAP_RIGHT_7_" class="st13" d="M1197.4,2643.9h24.9c8.1,0,15.7,4.6,20,12.2l0,0c4.8,8.5,4.8,19.2,0,27.7l0,0
			c-4.3,7.6-11.9,12.2-20,12.2h-24.9"/>
		<path id="END_CAP_RIGHT_6_" class="st13" d="M825.9,2696H801c-8.1,0-15.7-4.6-20-12.2l0,0c-4.8-8.5-4.8-19.2,0-27.7l0,0
			c4.3-7.6,11.9-12.2,20-12.2h24.9"/>
		<rect x="825.9" y="2643.9" class="st2" width="371.5" height="52.1"/>
		<polygon class="st166" points="1204,2657.2 1235.5,2657.2 1219.8,2685.7 		"/>
		<g class="st161">
			<rect x="1208" y="2653.2" class="st167" width="21.3" height="5.7"/>
			<rect x="1208" y="2666.2" class="st167" width="21.3" height="5.7"/>
			<rect x="1208" y="2679.3" class="st167" width="21.3" height="5.7"/>
		</g>
	</g>
	<g id="Drop_Down_Bar_4_">
		<path id="END_CAP_RIGHT_9_" class="st157" d="M597.4,2643.9h24.9c8.1,0,15.7,4.6,20,12.2l0,0c4.8,8.5,4.8,19.2,0,27.7l0,0
			c-4.3,7.6-11.9,12.2-20,12.2h-24.9"/>
		<path id="END_CAP_RIGHT_8_" class="st157" d="M225.9,2696H201c-8.1,0-15.7-4.6-20-12.2h0c-4.8-8.5-4.8-19.2,0-27.7h0
			c4.3-7.6,11.9-12.2,20-12.2h24.9"/>
		<rect x="225.9" y="2643.9" class="st168" width="371.5" height="52.1"/>
		<g class="st161">
			<rect x="608" y="2653.2" class="st167" width="21.3" height="5.7"/>
			<rect x="608" y="2666.2" class="st167" width="21.3" height="5.7"/>
			<rect x="608" y="2679.3" class="st167" width="21.3" height="5.7"/>
		</g>
	</g>
	<text transform="matrix(1 0 0 1 177.3522 2346)" class="st2 st169 st170">DROPDOWN</text>
	<text transform="matrix(1 0 0 1 177.3522 2588)" class="st2 st169 st170">INPUT</text>
	<g id="ON">
		<path class="st171" d="M1497.1,2415.6h-115.1c-14.7,0-26.6,11.9-26.6,26.6l0,0c0,14.7,11.9,26.6,26.6,26.6h115.1
			c14.7,0,26.6-11.9,26.6-26.6l0,0C1523.7,2427.5,1511.8,2415.6,1497.1,2415.6z"/>
		<path class="st172" d="M1497.1,2415.6h-41.3c-14.7,0-26.6,11.9-26.6,26.6l0,0c0,14.7,11.9,26.6,26.6,26.6h41.3
			c14.7,0,26.6-11.9,26.6-26.6l0,0C1523.7,2427.5,1511.8,2415.6,1497.1,2415.6z"/>
		<circle class="st2" cx="1498.1" cy="2441.5" r="22"/>
		<text transform="matrix(1 0 0 1 1540.3965 2455.2202)" class="st2 st173 st174">ON</text>
	</g>
	<g id="OFF">
		<path class="st171" d="M1497.1,2492.6h-115.1c-14.7,0-26.6,11.9-26.6,26.6l0,0c0,14.7,11.9,26.6,26.6,26.6h115.1
			c14.7,0,26.6-11.9,26.6-26.6l0,0C1523.7,2504.5,1511.8,2492.6,1497.1,2492.6z"/>
		<path class="st175" d="M1497.1,2492.6h-41.3c-14.7,0-26.6,11.9-26.6,26.6l0,0c0,14.7,11.9,26.6,26.6,26.6h41.3
			c14.7,0,26.6-11.9,26.6-26.6l0,0C1523.7,2504.5,1511.8,2492.6,1497.1,2492.6z"/>
		<circle class="st2" cx="1456.1" cy="2518.4" r="22"/>
		<text transform="matrix(1 0 0 1 1540.3965 2532.1587)" class="st2 st173 st174">OFF</text>
	</g>
	<text transform="matrix(1 0 0 1 1382.3522 2345)" class="st2 st169 st170">SWITCHES</text>
	
		<radialGradient id="SVGID_3_" cx="955.5" cy="5216.978" r="709.5254" gradientTransform="matrix(0.9977 0 0 0.2917 4.0609 1527.875)" gradientUnits="userSpaceOnUse">
		<stop  offset="0" style="stop-color:#FFFFFF"/>
		<stop  offset="0" style="stop-color:#4D4D4D"/>
		<stop  offset="0.2378" style="stop-color:#494949"/>
		<stop  offset="0.4841" style="stop-color:#3D3C3D"/>
		<stop  offset="0.7343" style="stop-color:#282828"/>
		<stop  offset="0.9859" style="stop-color:#0C0B0C"/>
		<stop  offset="1" style="stop-color:#0A090A"/>
	</radialGradient>
	<rect x="201.6" y="3046.6" class="st176" width="1551.4" height="3.5"/>
	
		<radialGradient id="SVGID_4_" cx="955.5" cy="-2085.8792" r="709.5254" gradientTransform="matrix(0.9977 0 0 0.2917 4.0609 1527.875)" gradientUnits="userSpaceOnUse">
		<stop  offset="0" style="stop-color:#FFFFFF"/>
		<stop  offset="0" style="stop-color:#4D4D4D"/>
		<stop  offset="0.2378" style="stop-color:#494949"/>
		<stop  offset="0.4841" style="stop-color:#3D3C3D"/>
		<stop  offset="0.7343" style="stop-color:#282828"/>
		<stop  offset="0.9859" style="stop-color:#0C0B0C"/>
		<stop  offset="1" style="stop-color:#0A090A"/>
	</radialGradient>
	<rect x="201.6" y="916.6" class="st177" width="1551.4" height="3.5"/>
	<g id="Slider">
		<linearGradient id="SVGID_5_" gradientUnits="userSpaceOnUse" x1="411.6083" y1="2878.8538" x2="411.5722" y2="2955.501">
			<stop  offset="0" style="stop-color:#FFFFFF"/>
			<stop  offset="0" style="stop-color:#FFFFFF"/>
			<stop  offset="0.1204" style="stop-color:#D2D2D2"/>
			<stop  offset="0.2985" style="stop-color:#969696"/>
			<stop  offset="0.47" style="stop-color:#646364"/>
			<stop  offset="0.6302" style="stop-color:#3D3C3D"/>
			<stop  offset="0.7767" style="stop-color:#212021"/>
			<stop  offset="0.9046" style="stop-color:#100F10"/>
			<stop  offset="1" style="stop-color:#0A090A"/>
		</linearGradient>
		<path class="st178" d="M636.6,2901h-450c-5.1,0-9.2-4.1-9.2-9.3l0,0c0-5.1,4.1-9.3,9.2-9.3h450c5.1,0,9.2,4.1,9.2,9.3l0,0
			C645.9,2896.9,641.7,2901,636.6,2901z"/>
		<path class="st179" d="M441.6,2901h-255c-5.1,0-9.2-4.1-9.2-9.3l0,0c0-5.1,4.1-9.3,9.2-9.3h255c5.1,0,9.3,4.1,9.3,9.3l0,0
			C450.9,2896.9,446.7,2901,441.6,2901z"/>
		<circle class="st180" cx="443.3" cy="2891.8" r="16.4"/>
		<linearGradient id="SVGID_6_" gradientUnits="userSpaceOnUse" x1="443.3321" y1="2900.0015" x2="443.1799" y2="2881.4998">
			<stop  offset="0" style="stop-color:#FFFFFF"/>
			<stop  offset="0" style="stop-color:#FFFFFF"/>
			<stop  offset="0.2868" style="stop-color:#FDFDFD"/>
			<stop  offset="0.451" style="stop-color:#F4F5F5"/>
			<stop  offset="0.5842" style="stop-color:#E6E8E8"/>
			<stop  offset="0.7008" style="stop-color:#D3D6D6"/>
			<stop  offset="0.8066" style="stop-color:#B9BEBE"/>
			<stop  offset="0.9033" style="stop-color:#9AA1A1"/>
			<stop  offset="0.9935" style="stop-color:#757F7F"/>
			<stop  offset="1" style="stop-color:#727C7C"/>
		</linearGradient>
		<circle class="st181" cx="443.3" cy="2891.8" r="7.7"/>
	</g>
	<text transform="matrix(1 0 0 1 177.3522 2825)" class="st2 st169 st170">SLIDER</text>
	<text transform="matrix(1 0 0 1 177.3522 3188)" class="st171 st169 st170">ICONS</text>
</g>
<g id="Logo_and_Text">
	<text transform="matrix(1 0 0 1 470 291.0843)" class="st2 st3 st182 st5">UI KIT</text>
	<g id="DS_LOGO">
		<text transform="matrix(1 0 0 1 253.1167 211.9282)"><tspan x="0" y="0" class="st2 st183 st184 st185">DIGITAL</tspan><tspan x="322.9" y="0" class="st2 st3 st184 st185">STORM</tspan></text>
		<g>
			<polygon class="st186" points="204.5,193.9 194.4,203.9 166.9,176.4 214.8,128.5 246.3,115 186.5,176 			"/>
			<polygon class="st186" points="194.8,176.3 204.9,166.2 232.4,193.7 184.5,241.6 153,255.1 212.8,194.2 			"/>
		</g>
	</g>
	
		<image style="display:none;overflow:visible;" width="2550" height="758" xlink:href="../../Videography/LCS Draining Guide/Title Assets/DS LOGO BLACK.png"  transform="matrix(0.4416 0 0 0.4416 499 1130.1509)">
	</image>
	<text transform="matrix(1 0 0 1 192.7056 615.6304)"><tspan x="0" y="0" class="st2 st169 st187 st188">HEADER </tspan><tspan x="364.8" y="0" class="st2 st189 st187 st188">1</tspan><tspan x="400.9" y="0" class="st2 st173 st190 st185">     </tspan></text>
	<g>
		<text transform="matrix(1 0 0 1 919 589)" class="st2 st173 st191 st5">Main Labels</text>
		<text transform="matrix(1 0 0 1 922.001 624.5005)" class="st2 st173 st192">(Font: Exo 2.0 Thin)</text>
	</g>
	<g>
		<text transform="matrix(1 0 0 1 1335.001 624.5005)" class="st2 st173 st192">(Font: Exo 2.0 Light)</text>
		<text transform="matrix(1 0 0 1 1263.001 589)" class="st2 st173 st191 st5">Main Labels Numbers</text>
	</g>
	<text transform="matrix(1.0467 0 0 1 201.5869 742.6689)"><tspan x="0" y="0" class="st2 st3 st8 st193">HEADER 1</tspan><tspan x="268.8" y="0" class="st2 st173 st194 st5"> </tspan></text>
	<g id="Menu_Items">
		<text transform="matrix(1 0 0 1 922 711)" class="st2 st173 st191 st5">Menu Items</text>
		<text transform="matrix(1 0 0 1 925.001 746.5005)" class="st2 st173 st192">(Font: Exo 2.0 Regular)</text>
	</g>
	<g>
		<polygon class="st186" points="1802.9,203.7 1788.3,218.2 1748.6,178.5 1817.7,109.4 1863.2,89.9 1776.8,177.9 		"/>
		<polygon class="st186" points="1788.9,178.3 1803.4,163.8 1843.1,203.5 1774.1,272.6 1728.5,292.1 1814.9,204.1 		"/>
	</g>
</g>
<g id="Vector_Logos">
	<g id="Cycle">
		<path class="st2" d="M238.7,3117.9c14-3,28.8-1.2,41.9,4.5c-4.6,0.9-9.3,1.6-13.9,2.2c-3.7-0.4-7.4-1.3-11.1-1.3
			c-13.9-0.5-27.8,3.9-38.8,12.4c-6.7,5-12.1,11.6-16.2,18.8c8.2-12.3,21.1-21.4,35.4-25c9.3-2.3,19.1-3.1,28.6-1.2
			c0.6,4.6,1.4,9.1,2,13.7c-10.4-3.4-22-2.8-32.1,1.5c-10.2,4.3-18.6,12.4-23.4,22.4c-5.2,10.6-5.9,23.3-2,34.5
			c1.6,5.2,4.5,9.8,7.6,14.2c4.5-5.5,8.3-11.6,12.9-17c2,14.7,4.3,29.5,6.5,44.2c-14.8,2.1-29.5,4.5-44.3,6.5
			c3.7-4.9,7.2-9.8,10.9-14.7c-11.1-11.4-17.9-26.7-19.2-42.5c-1.3-16.1,3.3-32.7,12.9-45.8C206.4,3131.2,221.9,3121.2,238.7,3117.9
			z"/>
		<path class="st2" d="M270.2,3129.5c14.8-2.2,29.5-4.4,44.3-6.6c-3.8,5.2-7.7,10.4-11.5,15.5c10.2,10.9,16.8,25.1,18.3,40
			c1.8,16.4-2.6,33.4-12.2,46.9c-9.6,13.9-24.5,24-41,27.7c-14.4,3.4-30,1.9-43.5-4.1c5.5-0.8,11-1.8,16.5-2.4c10,1.8,20.4,1.2,30-2
			c9.9-3.2,18.9-9.1,25.8-16.8c-8.4,7.3-18.8,12.1-29.8,13.9c-8.3,2.2-16.9,2.5-25.4,1c-0.8-4.3-1.3-8.6-2.1-12.9
			c10.5,3.2,22.1,2.2,32.1-2.4c10.1-4.6,18.3-13.1,22.8-23.3c6.7-15,4.4-33.5-5.7-46.5c-4,5.4-8,10.9-12.1,16.3
			C274.6,3159.1,272.3,3144.3,270.2,3129.5z"/>
	</g>
	<circle class="st195" cx="987.3" cy="39.3" r="11.3"/>
	<g id="RAM_Vector">
		<path class="st2" d="M1011.1,3588.8c0.5-2,2.9-1.9,4.6-2c47.5,0,95.1,0,142.6,0c0.5,0,0.9,0,1.4,0c2,0.1,3.4,1.7,3.5,3.6
			c0.1,2.7,0,5.6,0,8.3c-1.3,0-2.1,0.5-2.6,1.3c-0.8,1.6-0.9,2.9-0.4,4.8c0.4,1.1,1.5,2,3,2c0,4.4,0,8.9,0,13.3
			c-1.4,0-3.4,1.5-3.4,4.3c0,2.9,1.9,4.3,3.5,4.3c0,4.6,0.1,6.8,0,11.4c0,1.2-1.5,1.9-2.8,2.5l-1.7,0.7c0,2.5,0,4.1,0,6.5
			c-17.6,0.1-35.1,0-52.8,0c0-4.9,0-10.3,0-15.2c0-1.8-0.9-1.8-2.2-1.8s-2.5-0.1-2.5,1.7c0,5.1-0.1,10.1-0.1,15.2
			c-28.9,0.1-57.8,0-86.7,0c0-2,0-4.1,0-6.1c-1.2-1-3.5-1.5-3.2-3.4c-0.2-3.9,0-7.8-0.1-11.7c1.6,0,3.6-1,3.6-4.7
			c0-2.8-2.1-3.9-3.7-3.9c0.1-4.5,0.1-8.9,0.1-13.4c1.7-0.1,2.4-0.6,2.9-2.1c0.3-1.4,0.5-2.7-0.2-4.5c-0.5-0.7-1.3-1.3-2.7-1.4
			C1011,3595.5,1010.8,3592.2,1011.1,3588.8z"/>
		<path d="M1026.8,3597.7c6,0,11.9,0,17.9,0c0,9.5,0,18.9,0,28.4c-6,0-11.9,0-17.9,0C1026.8,3616.7,1026.8,3607.2,1026.8,3597.7z"/>
		<path class="st2" d="M1029.8,3600.3h12l0.1,23.2h-12.3"/>
		<path d="M1032.1,3602.8h3.8c-0.9,2.1-1.8,4.5-2.5,6.6c-0.3,0.1-1,0.4-1.3,0.5V3602.8z"/>
		<path d="M1052.7,3597.7c6,0,11.9,0,17.9,0c0,9.5,0,18.9,0,28.4c-6,0-11.9,0-17.9,0C1052.7,3616.7,1052.8,3607.2,1052.7,3597.7z"/>
		<path class="st2" d="M1055.6,3600.3h12l0.1,23.2h-12.3"/>
		<path d="M1058,3602.8h3.8c-0.9,2.1-1.8,4.5-2.5,6.6c-0.3,0.1-1,0.4-1.3,0.5V3602.8z"/>
		<path d="M1052.7,3597.7c6,0,11.9,0,17.9,0c0,9.5,0,18.9,0,28.4c-6,0-11.9,0-17.9,0C1052.7,3616.7,1052.8,3607.2,1052.7,3597.7z"/>
		<path class="st2" d="M1055.6,3600.3h12l0.1,23.2h-12.3"/>
		<path d="M1058,3602.8h3.8c-0.9,2.1-1.8,4.5-2.5,6.6c-0.3,0.1-1,0.4-1.3,0.5V3602.8z"/>
		<path d="M1079,3597.6c6,0,11.9,0,17.9,0c0,9.5,0,18.9,0,28.4c-6,0-11.9,0-17.9,0C1079.1,3616.6,1079.1,3607.1,1079,3597.6z"/>
		<path class="st2" d="M1082,3600.1h12l0.1,23.2h-12.3"/>
		<path d="M1084.2,3602.7h3.8c-0.9,2.1-1.8,4.5-2.5,6.6c-0.3,0.1-0.9,0.4-1.3,0.5V3602.7z"/>
		<path d="M1110.3,3597.7c6,0,11.9,0,17.9,0c-0.1,9.5,0,18.9,0,28.4c-6,0-11.9,0-17.9,0C1110.3,3616.7,1110.4,3607.2,1110.3,3597.7z
			"/>
		<path class="st2" d="M1113.2,3600.3h12l0.1,23.2H1113"/>
		<path d="M1115.6,3602.8h3.8c-0.9,2.1-1.8,4.5-2.5,6.6c-0.3,0.1-1,0.4-1.3,0.5V3602.8z"/>
		<path d="M1133.2,3597.7c6,0,11.9,0,17.9,0c0,9.5,0,18.9,0,28.4c-6,0-11.9,0-17.9,0C1133.2,3616.7,1133.2,3607.2,1133.2,3597.7z"/>
		<path class="st2" d="M1136.2,3600.3h12l0.1,23.2H1136"/>
		<path d="M1138.5,3602.8h3.8c-0.9,2.1-1.8,4.5-2.5,6.6c-0.3,0.1-0.9,0.4-1.3,0.5V3602.8z"/>
		<rect x="1030.7" y="3641.1" width="3.4" height="4.8"/>
		<rect x="1024.3" y="3641.1" width="3.4" height="4.8"/>
		<rect x="1037" y="3641.1" width="3.4" height="4.8"/>
		<rect x="1043.3" y="3641.1" width="3.4" height="4.8"/>
		<rect x="1049.7" y="3641.1" width="3.4" height="4.8"/>
		<rect x="1056" y="3641.1" width="3.4" height="4.8"/>
		<rect x="1062.4" y="3641.1" width="3.4" height="4.8"/>
		<rect x="1068.7" y="3641.1" width="3.4" height="4.8"/>
		<rect x="1075.1" y="3641.1" width="3.4" height="4.8"/>
		<rect x="1081.4" y="3641.1" width="3.4" height="4.8"/>
		<rect x="1087.7" y="3641.1" width="3.4" height="4.8"/>
		<rect x="1094" y="3641.1" width="3.4" height="4.8"/>
		<rect x="1018.4" y="3641.1" width="3.4" height="4.8"/>
		<rect x="1109.2" y="3641.1" width="3.4" height="4.8"/>
		<rect x="1115.6" y="3641.1" width="3.4" height="4.8"/>
		<rect x="1121.9" y="3641.1" width="3.4" height="4.8"/>
		<rect x="1128.2" y="3641.1" width="3.4" height="4.8"/>
		<rect x="1134.6" y="3641.1" width="3.4" height="4.8"/>
		<rect x="1140.9" y="3641.1" width="3.4" height="4.8"/>
		<rect x="1147.2" y="3641.1" width="3.4" height="4.8"/>
		<rect x="1147.2" y="3641.1" width="3.4" height="4.8"/>
	</g>
	<g id="CPU_Vector">
		<path class="st2" d="M205,3575.7c35.9,0,71.8,0,107.8,0c0,5.8,0,11.5,0,17.3c-1.8,0.8-2.5,1.8-2.5,3.8c0,2.2,1.6,3.5,2.5,3.7
			c-0.1,27.7,0,55.2,0,82.9c-35.9,0-71.8,0-107.8,0c0-27.7,0.1-55.4,0-83.1c1.9-0.5,2.8-2.1,2.8-4c0-1.8-0.6-3-2.7-3.8
			C204.9,3586.7,205,3581.5,205,3575.7z"/>
		<path d="M217.9,3591.7c0-2,0.5-3.3,2.5-3.3c25.6,0.1,51.7,0.1,77.3,0c1.6,0,3,1.4,3,3c-0.1,5.8-0.1,11.7-0.1,17.5
			c1.1,0.9,2.1,1.8,3.2,2.7c0,12.1,0,24.3,0,36.4c-1.1,0.9-2.2,1.8-3.3,2.7c0.1,5.8-0.1,10.4,0.1,16.3c0,3.2-1,4.2-4.2,4.2
			c-7.1,0.1-14.2,0-21.3,0c-0.9-1.2-1.8-2.4-2.8-3.6c-8.7,0-17.5,0-26.2,0c-0.9,1.2-1.9,2.4-2.8,3.6c-7.1,0-14.1,0.1-21.2,0
			c-2.2,0.1-4.4-2-4.3-4.2c-0.1-5.4,0-10.8,0-16.2c-1.1-0.9-2.1-1.8-3.2-2.7c0-12.2,0-24.4,0-36.6c1-0.9,2.1-1.7,3.1-2.6
			C217.9,3603.5,217.8,3597.1,217.9,3591.7z"/>
		<path class="st2" d="M247.3,3608.5c9.8-3.2,20.3-5.7,30.7-4c5.1,0.9,10.4,3.5,12.7,8.4c2.7,5.2,0.3,13.6-5.9,14.2
			c0.2-3.1,3.6-3.2,4-8.2c0.7-4-2.5-7.7-5.9-9.3c-5.8-2.8-12.4-2.2-18.5-1.1c-5.9,1.2-11.7,3.1-17.1,5.8
			C247.3,3612.3,247.2,3610.4,247.3,3608.5z"/>
		<path class="st2" d="M234.7,3626.4c-0.2-2.6,1.7-5,4.1-5.8c4-1.2,8.4-0.2,10.7,3.5c-1.2,0.5-2.4,1-3.6,1.4
			c-0.4-0.8-0.7-1.3-1.8-1.7c-1.4-0.3-2.8-0.4-4.3,0.1c-0.6,0.4-1.1,0.4-1.4,1.5c0,3.7-0.1,7.5,0.1,11.2c0.4,0.8,1.5,1.3,2.2,1.4
			c1,0.2,2.4,0.2,3.4-0.3c0.5-0.2,1.3-0.6,1.8-1.8c0.8,0.1,2.4,0.4,3.3,0.6c-1.3,6.5-12.5,6.3-14.2,0.2
			C234.6,3633.3,234.7,3629.9,234.7,3626.4z"/>
		<path class="st2" d="M251.1,3620.4c5.2,0,13.9-0.8,14,3.3c0,1.6,0.3,3.8,0,5.6c-0.2,1.6-1.5,2.9-3.2,3.3c-2.3,0.5-5.1,0.2-7.5,0.3
			c0,2.7,0,5.3,0,8c-0.9,0-2.6,0-3.5,0C251.1,3634.1,251.1,3620.6,251.1,3620.4z"/>
		<path class="st2" d="M267.6,3620.3h3.8c0.1,5.5,0,10.1,0.1,15.5c0,2,2.6,2.2,3.8,2.2c1.2,0,3.4-0.4,3.4-2.4c0-5,0-10.4,0-15.2h3.6
			c0,5.6,0.1,11-0.1,16.6c-1.2,6.1-12.6,5.9-14.5-0.2C267.8,3632.5,267.8,3625.5,267.6,3620.3z"/>
		<path d="M254.5,3624c2,0,3.8,0,5.6,0.1c0.9,0,1.6,0.7,1.8,1.5s0.2,1.5,0,2.2c-0.2,0.9-1,1.5-1.8,1.6c-1.8,0.1-3.7,0.1-5.6,0.1
			C254.5,3627.6,254.5,3625.8,254.5,3624z"/>
		<path class="st2" d="M226.1,3641.6c-0.1-4.2,3-7.6,6.7-9.2c0.8,3.6-3.8,4.8-3.7,8.1c-0.8,5.7,5,9.5,9.9,10.5
			c10.8,1.7,21.8-1.4,31.5-6.1c0,1.9,0,3.9-0.1,5.8c-10.4,3.3-21.6,6.2-32.5,3.6C232,3652.9,225.8,3648.2,226.1,3641.6z"/>
		<path d="M208.5,3670.2c3.2,3.3,6.4,6.5,9.7,9.7c-3.2,0-6.5,0-9.7,0C208.5,3676.7,208.5,3673.5,208.5,3670.2z"/>
		<rect x="216.9" y="3579" width="2.3" height="2.3"/>
		<rect x="223.9" y="3579" width="2.3" height="2.3"/>
		<rect x="230.9" y="3579" width="2.3" height="2.3"/>
		<rect x="237.9" y="3579" width="2.3" height="2.3"/>
		<rect x="244.9" y="3579" width="2.3" height="2.3"/>
		<rect x="251.9" y="3579" width="2.3" height="2.3"/>
		<rect x="258.9" y="3579" width="2.3" height="2.3"/>
		<rect x="265.9" y="3579" width="2.3" height="2.3"/>
		<rect x="220.4" y="3583.2" width="2.3" height="2.3"/>
		<rect x="227.4" y="3583.2" width="2.3" height="2.3"/>
		<rect x="234.4" y="3583.2" width="2.3" height="2.3"/>
		<rect x="241.4" y="3583.2" width="2.3" height="2.3"/>
		<rect x="248.4" y="3583.2" width="2.3" height="2.3"/>
		<rect x="255.4" y="3583.2" width="2.3" height="2.3"/>
		<rect x="262.4" y="3583.2" width="2.3" height="2.3"/>
		<rect x="269.4" y="3583.2" width="2.3" height="2.3"/>
	</g>
	<g id="GPU_Vector">
		<path class="st2" d="M469.5,3580.6c4,0,11.1-0.9,11.1,3.9c0.2,27.7,0,55.4,0.1,83.1c-1.5,0-3,0-4.5,0c0.1-27.5,0.1-55,0-82.5
			c-2.2,0-4.5,0-6.7,0C469.5,3583.8,469.5,3582,469.5,3580.6z"/>
		<path class="st2" d="M482.6,3590.2c34.3,0,68.5,0,102.8,0c6.4-0.3,12.6,5.2,12.8,11.7c0.1,16.2,0.1,32.5,0.2,48.7
			c-7.3,0-14.9-0.1-22.1-0.1c-2,0-2,2.9,0,2.9c1.4,0,3.6,0,3.6,0c0,1.8,0,4.3,0,6.2c-4.5,0-9.1,0-13.6-0.1c0-3.1,0-6.1,0-9.2
			c-2.8,0-5.5,0-8.3,0c0,3.1,0,6.2,0,9.3c-3.1,0-6.2,0-9.3,0c0-3.1,0-6.2,0-9.3c-3,0-6.1,0-9.1,0c0,3.1,0,6.2,0,9.2
			c-11.1,0-22.2,0-33.2,0c0-3.1,0-6.1,0-9.2c-4.7,0-10.7,0-14.7,0c0,1.9,0,3.8,0,5.6c-3.1,0-6.1,0-9.2,0
			C482.6,3634.1,482.7,3612.1,482.6,3590.2z"/>
		<path d="M502.2,3600.5c7.9-6.2,19.5-6.8,28-1.7c7.1,4.1,15.4,4.7,23.4,4.3c1.5,8.3,8.9,14.8,17.3,15.4c0,8.9,0,17.8,0,26.7
			c-17.8,0-35.6,0-53.4,0c-9.6,0.1-18.9-5.9-22.7-14.6C489.9,3620.5,493.1,3607.2,502.2,3600.5z"/>
		<path class="st2" d="M511.7,3602c5.8-1.9,12.6-0.7,17.4,3.1c6.5,4.9,9.4,14.1,6.3,21.7c-2.8,8.1-11.4,13.6-20,12.5
			c-10.3-0.7-18.6-11.2-17-21.5C499.3,3610.6,504.7,3604.1,511.7,3602z"/>
		<path d="M510.3,3604.7c2.1-1.1,4-1.4,6-1.4c2.5,2.5,4.1,5.7,3.8,9.3c-1.9-0.1-3.4-0.7-4-2.6C515,3607.6,512.5,3606.1,510.3,3604.7
			z"/>
		<path d="M521.1,3603.7c2.9,0.6,4.1,1.1,5.6,2.7c0.8,3.2-0.8,6.5-2.4,9.2c-0.8-0.7-2-1.6-2.1-3.6
			C522.6,3608.2,522.6,3606.7,521.1,3603.7z"/>
		<path d="M502.7,3611.5c1.2-2.1,2.2-3.2,3.8-4.3c3.5,0.4,6.4,2.4,8.5,5.2c-1.3,0.5-3,0.8-5,0.2
			C507.5,3611.1,505.6,3611.3,502.7,3611.5z"/>
		<path d="M530,3608.9c1.6,1.6,2.6,3.3,3.2,5.1c-1.4,3.1-4.1,5.3-7.2,6.6c-0.3-0.7-0.5-2.7,0.1-3.5
			C528.4,3614.1,529.6,3613.1,530,3608.9z"/>
		<path d="M500.9,3616.2c3-1.9,6.7-2.3,10-0.8c-0.4,0.7-0.8,1.5-2.8,2.3c-4,1.1-5.1,2.3-7.7,4.4C500,3620,500.4,3618.1,500.9,3616.2
			z"/>
		<path d="M527,3622.4c4,0,4.8-1.7,7.2-4c0.3,1.8,0.1,4.1-0.3,5.8c-3.1,1.9-6.7,2.3-10.1,0.9C524.3,3624.5,525.5,3622.7,527,3622.4z
			"/>
		<path d="M519.7,3628.2c1.3-0.6,2.9-1.2,4.7-0.4c2.5,1.4,4.7,1.4,7.6,1.2c-1,1.8-2.2,3.4-3.8,4.3
			C524.7,3632.9,521.8,3630.9,519.7,3628.2z"/>
		<path d="M576.5,3628c4.9,0,9.8,0,14.8,0c0,1.2,0,2.3,0,3.5c-4.9,0-9.9,0-14.8,0C576.5,3630.3,576.5,3629.1,576.5,3628z"/>
		<path d="M514.7,3628c1.9,0,3.5,0.7,4.1,2.6c1.1,2.4,3.3,3.7,5.5,5.1c-1.8,1.2-3.4,1.5-5.7,1.3C515.7,3635,514.7,3631.3,514.7,3628
			z"/>
		<path d="M576.6,3633.6c4.9,0,9.7,0,14.6,0c0,1.2,0.1,2.5,0.1,3.7c-4.9,0-9.9,0-14.8,0C576.5,3636.1,576.6,3634.9,576.6,3633.6z"/>
		<rect x="470.9" y="3597.3" class="st2" width="3.8" height="14.7"/>
		<rect x="472.2" y="3593.8" class="st2" width="2.6" height="2.6"/>
		<rect x="472.2" y="3613.2" class="st2" width="2.6" height="2.6"/>
		<rect x="470.8" y="3629.5" class="st2" width="3.8" height="14.7"/>
		<rect x="472.2" y="3625.9" class="st2" width="2.6" height="2.6"/>
		<rect x="472.2" y="3645.4" class="st2" width="2.6" height="2.6"/>
		<circle cx="583.1" cy="3605" r="4.4"/>
		<circle cx="583.1" cy="3616.4" r="4.4"/>
		<path d="M510.7,3624.9c1.6,1.1,2.4,2.6,1.8,4.5c-0.5,2.6,0.4,5.1,1.3,7.5c-1.9-0.5-3.9-1.1-5.2-2.6
			C507.4,3631,508.8,3627.6,510.7,3624.9z"/>
		<path d="M508.9,3620c0.6,1.8,0.4,3.5-1.2,4.7c-2,1.8-2.7,4.4-3.4,6.8c-1.2-1.5-2.5-3.2-2.7-5.2
			C502.7,3623,505.8,3621.1,508.9,3620z"/>
	</g>
	<g id="FAN_Icon">
		<path class="st196" d="M834.6,3304c17.5-2.4,35.7,1.1,50.9,9.9c12.9,7.4,23.6,18.4,30.6,31.4c8.1,14.8,11.3,32.2,9.1,48.9
			c-2.5,20.3-13.2,39.3-29.1,52.1c-10.9,8.9-24.1,14.8-38,17c-18.6,3-38.3-0.8-54.4-10.7c-16.1-9.8-28.7-25.4-34.6-43.3
			c-6.3-18.6-5.4-39.5,2.4-57.6C782.4,3326.4,807.1,3307.4,834.6,3304z"/>
		<path d="M835.7,3306c17.3-2.3,35.3,1.5,50.2,10.6c14.9,8.9,26.6,23,32.8,39.2c5.6,14.4,6.5,30.5,3.2,45.5
			c-4.2,18.4-15.3,35.1-30.6,46.1c-24.3,18-59.3,19.7-85.2,4c-15.2-8.9-27.3-23.1-33.6-39.5c-6-15.5-6.8-32.8-2.5-48.8
			C777.8,3333.3,804.9,3309.5,835.7,3306z"/>
		<path class="st2" d="M826.3,3338.6c8.8-4.5,19-4.9,28.7-3.8c4.2,0.7,8,2.5,12,3.7c5.3,0.2,10.7-0.1,16,0.1
			c3.8,0.2,6.9,3.9,6.6,7.6c0.3,5.4-0.5,10.8,0.3,16.1c5.1,11.2,5.8,24.5,1.2,36c-2.8,5.6-1.1,12-1.5,18c0.6,4-2.2,8.7-6.5,8.7
			c-5.4,0.2-10.8,0-16.2,0.1c-9.5,4.6-20.5,5.1-30.8,3.5c-4.8-0.7-9-3.9-14-3.5c-4.8-0.2-9.7,0.5-14.4-0.3
			c-6.5-2.8-4.5-11.1-4.4-16.6c1-6.3-3.3-11.6-3.8-17.7c-0.5-5.4-0.5-10.9-0.1-16.3c0.4-4.7,2.6-9,3.8-13.5c0.1-5.2-0.7-10.5,0-15.7
			c0.4-3.4,3.4-6.5,6.9-6.4C815.5,3338.6,820.9,3338.7,826.3,3338.6z"/>
		<path d="M840,3338.2c9.6-1.3,19.7,0.4,28.1,5.3c11.1,6.2,19.2,17.4,21.6,29.8c2.5,12-0.4,25-7.7,34.8
			c-8.2,11.1-21.8,18.3-35.7,17.9c-10.1,0.2-20-3.6-27.8-9.9c-10.8-8.8-17-22.9-16-36.7C803.2,3359,819.8,3340.9,840,3338.2z"/>
		<path class="st2" d="M827.5,3346.7c7.4-3.9,15.9-5.3,24.2-4.5c-2.8,5.9-4.7,12.2-6,18.5c-2.2,0.6-4.2,1.6-6,2.8
			c3.8-1.1,7.8-1.2,11.6-0.6c4.4-5.9,9.8-11,15.7-15.3c7.1,4.6,12.8,11.2,16.2,19c-6.5,0.7-12.8,2-19,4.2c-1.6-1.5-3.3-2.8-5.1-4
			c2.4,3,4.8,6.1,5.9,9.8c7.3,1.3,14.8,2.9,21.4,6.3c-0.6,2.3-0.8,4.7-1.1,7.1c-1.2,5.9-4,11.3-7.3,16.3
			c-3.9-5.3-8.5-10.2-13.3-14.7c0.9-1.8,1-3.7,0.8-5.6c-1.3,3.4-2.7,6.8-5.3,9.3c2.6,6.9,4.5,14.1,5.5,21.4
			c-7.4,4.2-16.2,5.7-24.7,4.8c2.6-5.9,4.8-12.1,5.9-18.5c1.8-0.7,3.7-1.4,5.4-2.4c-2.1,0.1-4.2,0.4-6.2,0.7c-1.5-0.3-3-0.5-4.5-0.8
			c-4.5,5.9-9.9,10.8-15.6,15.4c-7.7-4-13.2-11.2-16.7-19c6.4-0.4,12.8-1.9,18.8-4.1c1.6,1.3,3.2,2.7,5,3.8
			c-2.2-3.1-4.5-6.1-5.8-9.7c-7.2-0.8-14.1-3-20.8-5.7c0-8.6,3.1-17,8.3-23.8c3.5,5.5,8.3,9.9,12.9,14.5c-0.1,0.6-0.4,1.8-0.5,2.4
			c-0.3,1.1-0.3,2.3-0.2,3.4c1.5-3.4,3-6.9,5.5-9.7C829.9,3361.3,827.2,3354.1,827.5,3346.7z"/>
		<path d="M842.4,3368.4c7.9-2.6,16.8,3.5,17.9,11.6c1.3,7.8-5.2,15.6-13.1,15.9c-7.5,0.7-15-5.9-14.8-13.5
			C832,3376.1,836.5,3370.1,842.4,3368.4z"/>
		<path class="st2" d="M841.6,3373c6.5-4,15.5,1.9,15,9.4c0,7.5-9.5,12.5-15.7,8.2C834.5,3386.8,834.9,3376.2,841.6,3373z"/>
		<path d="M843.6,3377.6c3.3-2.6,8.5,0.8,8,4.8c-0.3,3.8-5.2,6-8.3,3.8C840.4,3384.3,840.6,3379.3,843.6,3377.6z"/>
		<path d="M885.9,3408.7c0,3.2,0.1,6.4,0,9.6c0.1,1.6-0.9,3.1-2.5,3.4c-3.4,0-7,0-10.6-0.1C878,3418.1,882.4,3413.8,885.9,3408.7z"
			/>
		<path d="M819.6,3421.7c-3.2,0-6.4,0.1-9.6,0c-1.6,0.1-3.1-1-3.4-2.5c0-3.4,0.1-7,0.2-10.6C810.2,3413.7,814.5,3418.2,819.6,3421.7
			z"/>
		<path d="M806.6,3355c0-3.2-0.1-6.4,0-9.6c-0.1-1.6,0.9-3.1,2.5-3.4c3.4,0,7,0.1,10.6,0.1C814.6,3345.5,810.1,3349.9,806.6,3355z"
			/>
		<path d="M872.9,3341.5c3.2,0,6.4,0,9.6,0.1c1.6-0.1,3.1,1,3.4,2.5c-0.1,3.4-0.2,7-0.3,10.6C882.3,3349.6,878,3345,872.9,3341.5z"
			/>
		<circle class="st2" cx="810.8" cy="3345.4" r="2"/>
		<circle class="st2" cx="881.9" cy="3345.4" r="2"/>
		<circle class="st2" cx="881.9" cy="3418.3" r="2"/>
		<circle class="st2" cx="810.8" cy="3418.3" r="2"/>
	</g>
	<g id="PC_Health_Icon">
		<path class="st196" d="M530.4,3309.8c17.5-2.4,35.7,1.1,50.9,9.9c12.9,7.4,23.6,18.4,30.6,31.4c8.1,14.8,11.4,32.2,9.1,49
			c-2.5,20.3-13.2,39.4-29.1,52.2c-10.9,8.9-24.1,14.8-38,17c-18.4,3-37.8-0.7-53.8-10.3c-16.4-9.8-29.2-25.5-35.2-43.7
			c-6.4-19.1-5.4-40.6,3-58.9C479.1,3331.5,503.4,3313.2,530.4,3309.8z"/>
		<path d="M531.4,3311.9c17.3-2.3,35.3,1.5,50.2,10.6c14.8,8.8,26.3,22.7,32.6,38.6c5.9,14.9,6.8,31.5,3.2,47
			c-4.3,17.8-15,34-29.8,44.8c-10.7,7.9-23.5,13.1-36.7,14.6c-17.2,2.2-35-1.5-49.8-10.5c-14.7-8.8-26.4-22.5-32.7-38.4
			c-8-20-7.2-43.3,2.2-62.7C481.8,3332.2,505.4,3314.9,531.4,3311.9z"/>
		<path class="st2" d="M557.2,3345.8h17.4l0,1.5l3.1,0l0,4.8l2.7,0l0-4.2l5.2,0c0,1.3,0,2.8,0,4.1l4,0c0,24.6,0.3,51.1,0,75.7
			c-3.3,0.1-7.9,0-11.7,0c-24.7,0-48.8,0-73.5,0c-2.9,0-5.9,0-9.5-0.1c0-3.2,0-6.6,0-9.9c0.1-21.8-0.1-43.8,0.2-65.5l32.1-0.1l0-4.1
			l5.2,0l0,4.1h2.8c0-1.4,0-2.9,0-4.2c2.7,0,5.3,0,8,0.1c0,1.4,0,4.2,0,4.2c0.1,0,2.4,0,2.4,0s0.1-4.1,0.1-4.1c1.9,0,5.7,0,5.7,0
			l0,4.2l2.2,0l0-4.9h3.6L557.2,3345.8z"/>
		<path d="M500.7,3362.5c1.5,0,3,0,4.5,0.1c0,11.6,0,23.3,0,34.9c-1.5,0-3,0-4.5,0.1C500.7,3385.9,500.7,3374.2,500.7,3362.5z"/>
		<path d="M509.7,3362.6c1.5,0,3,0,4.6,0c0,11.7,0,23.3,0,35c-1.5,0-3,0-4.6,0C509.8,3385.9,509.8,3374.2,509.7,3362.6z"/>
		<path d="M518.8,3362.6c1.9,0,3.8-0.1,5.8-0.1c0,13.1,0,26.1,0,39.2c-1.8,0-4,0-5.8,0"/>
		<path d="M537.6,3363.1c7.6,0.1,14.9,0,22.4,0c8.2,0,11.1,0,16.9,0c2.1,0,4.2,0,6.3,0c0,13.1,0,26.5,0,39.6
			c-15.2,0.1-30.4,0-45.6,0C537.7,3389.7,537.6,3376.3,537.6,3363.1z"/>
		<path class="st2" d="M553.4,3365.8c8.3-3.5,18.7,0,23,7.9c4,6.8,3.1,16.4-2.6,22.1c-5.1,5.5-13.7,7.2-20.5,4.3
			c-8.1-3.2-13.1-12.8-10.9-21.2C543.6,3373.1,547.9,3368.1,553.4,3365.8z"/>
		<path d="M552.1,3369.8c3-1.6,6.2-2.4,9.6-2.5c-1.1,2.4-2,4.8-2.7,7.4c3.9,0.3,5.6-4,8.9-5.5c2.6,2,4.9,4.4,6.8,7.1
			c-2.7,0.2-5.4,0.6-7.9,1.5c2,3.1,6.2,2.8,9,4.6c0.2,3-0.9,6.8-2.4,9.3c-1.6-1.6-3.1-4.1-4.9-5.6c-2.7,3,0.4,6.7,0.2,10.2
			c-3,1.4-6.3,2.4-9.6,2.4c1.1-2.4,2.1-4.8,2.6-7.4c-3.8,0-5.7,3.9-8.8,5.6c-2.7-1.9-5-4.4-6.9-7.1c2.6-0.2,5.4-0.7,7.9-1.5
			c-0.1-0.7-0.6-1.3-1.3-1.9c-0.3-0.3-0.8-0.5-1.2-0.6c-2.4-0.5-4.8-1.4-6.9-2.5c0.5-3.2,1.3-6.3,2.9-9.2c1.5,2,3.1,4,4.8,5.9
			C555,3377,551.8,3373.3,552.1,3369.8z"/>
		<path d="M498.7,3407.7l15.8,0c0,0.1,0,15.9,0,15.9l-15.9,0L498.7,3407.7z"/>
		<path d="M522.1,3408.4c20.4-0.1,41-0.1,61.1,0.1c0,1.8,0,3.6,0,5.5c-20.4,0.1-40.8,0-61.1,0L522.1,3408.4z"/>
		<path class="st2" d="M501.4,3410.4c3.5,0,6.9,0,10.4,0c0,3.5,0,6.9,0,10.4c-3.5,0-6.9,0-10.4,0
			C501.4,3417.4,501.4,3413.9,501.4,3410.4z"/>
		<path d="M522.1,3417.6c20.4,0,40.7-0.1,61.1,0c0,1.9,0,3.8,0,5.8c-20.4,0-40.7,0-61.1,0C522.1,3421.5,522.1,3419.5,522.1,3417.6z"
			/>
		<circle class="st2" cx="560.7" cy="3383" r="5.7"/>
		<rect x="523.7" y="3409.9" class="st2" width="57.8" height="2.3"/>
		<rect x="523.8" y="3419.4" class="st2" width="57.8" height="2.3"/>
	</g>
	<g id="Light_Bulb_Icon">
		<path class="st196" d="M246.9,3308c17.4-2.4,35.6,1.1,50.9,9.9c13.3,7.6,24.3,19.1,31.3,32.7c7.6,14.5,10.6,31.4,8.4,47.7
			c-2.2,17.6-10.6,34.4-23.2,46.9c-11.8,11.7-27.4,19.7-43.9,22.2c-18.6,3-38.2-0.8-54.3-10.7c-15.7-9.5-28-24.6-34.1-41.9
			c-6.3-17.5-6.2-37.2,0.2-54.7C192,3332.6,217.9,3311.6,246.9,3308z"/>
		<path d="M247.8,3309.8c17.3-2.3,35.3,1.5,50.2,10.6c15.2,9,27,23.5,33.1,40c5,13.4,6,28.1,3.4,42.2c-2.9,15.2-10.6,29.4-21.4,40.4
			c-12,12.1-28.1,20.3-45.1,22.4c-15,2-30.5-0.4-44.2-6.9c-17-8.1-30.8-22.6-38.3-39.8c-7.8-17.9-8.4-38.6-1.9-57
			C193.2,3334.2,218.9,3313.1,247.8,3309.8z"/>
		<path class="st2" d="M234.6,3388.1c-3.5-14.4,8.8-29.7,23.8-29.6c14.4,0,27.2,13.5,24.9,27.7c-0.9,7.6-5.9,13.8-9.7,20.2
			c-1.7,2.8-1.6,5.5-2.7,8.3c-0.5,1.3-1.5,2.8-2.8,3.2c-2.3,0.7-5.8,0.6-8.2,0.6c0-6.9,0.1-13.8,0-20.7c3.8-0.8,8.3-2,10.1-5.7
			c1.2-2.9-1.6-6-4.6-5.5c-3.3,0.4-5.1,3.8-6.7,6.3c-1.6-3.1-4.1-7-8.2-6.3c-2.1,0.7-4.5,3.4-2.9,5.5c1.9,3.8,6.3,4.9,10.1,5.8
			c-0.1,6.8,0,20.3,0,20.6c-3.8,0.1-9.9,0.4-11.1-4.6C245.6,3404.7,236.4,3398.1,234.6,3388.1z"/>
		<path class="st2" d="M290.8,3380.7c3.7-0.1,7.4-0.1,11.1,0.1c1.3,0.1,2.3,1.2,2.3,2.5c0,0,0,0,0,0c0,1.3-1,2.6-2.4,2.6
			c-3.5,0.2-7.4,0-11.1,0c-0.9,0-1.7-0.5-2.1-1.2c0,0,0,0,0-0.1c-0.5-0.8-0.5-1.8,0-2.6c0,0,0-0.1,0.1-0.1
			C289.1,3381.2,289.9,3380.7,290.8,3380.7z"/>
		<path class="st2" d="M285.2,3406.2c2.7,2.5,5.4,5.1,7.9,7.8c0.9,1,0.8,2.5-0.1,3.4c0,0,0,0,0,0c-0.9,0.9-2.6,1.1-3.5,0.2
			c-2.6-2.3-5.3-5.2-7.9-7.8c-0.6-0.6-0.9-1.5-0.7-2.4c0,0,0,0,0-0.1c0.2-0.9,0.9-1.6,1.8-1.8c0,0,0.1,0,0.1,0
			C283.7,3405.4,284.6,3405.6,285.2,3406.2z"/>
		<path class="st2" d="M250,3392c-0.4-0.5-0.6-1.2-0.4-1.8c0.3-1.2,1.2-1.8,2.8-1.4c2.6,1.3,3.8,4,5,6.5
			C254.6,3395.1,251.7,3394.2,250,3392z"/>
		<path class="st2" d="M260.3,3395.4c0.8-2.6,2.2-5.2,4.7-6.6c0.2-0.1,0.5-0.2,0.8-0.2c1.3,0.1,2.1,0.7,2.3,1.8c0.1,0.5,0,1-0.4,1.4
			C265.9,3394,263,3394.8,260.3,3395.4z"/>
		<path class="st2" d="M250.5,3420.7c5.6,0,11.1,0,16.8,0c0.8,0,1.5,0.7,1.5,1.5c0,0.1,0,0.2,0,0.3c0,0.8-0.7,1.5-1.5,1.5
			c-5.1,0-11.6,0-16.8,0c-0.8,0-1.5-0.7-1.5-1.5c0-0.1,0-0.2,0-0.3C249,3421.3,249.7,3420.7,250.5,3420.7z"/>
		<path class="st2" d="M252.5,3436.8c4.1,0,8.2,0,12.1,0c-1.5,2.6-2.3,3-6.2,3C255,3439.8,254.7,3439.4,252.5,3436.8z"/>
		<path class="st2" d="M224.8,3414c2.5-2.7,5.1-5.4,7.8-7.9c1-0.9,2.5-0.8,3.4,0.1c0,0,0,0,0,0c0.9,0.9,1.1,2.6,0.2,3.5
			c-2.3,2.6-5.2,5.3-7.8,7.9c-0.6,0.6-1.5,0.9-2.4,0.7c0,0,0,0-0.1,0c-0.9-0.2-1.6-0.9-1.8-1.8c0,0,0-0.1,0-0.1
			C224,3415.5,224.2,3414.6,224.8,3414z"/>
		<path class="st2" d="M216.3,3380.7c3.7-0.1,7.4-0.2,11.1,0c1.3,0,2.3,1.2,2.4,2.5c0,0,0,0,0,0c0,1.3-1,2.6-2.3,2.7
			c-3.5,0.2-7.4,0.1-11.1,0.1c-0.9,0-1.7-0.5-2.1-1.2c0,0,0,0,0-0.1c-0.5-0.8-0.5-1.8,0-2.6c0,0,0-0.1,0.1-0.1
			C214.6,3381.3,215.4,3380.8,216.3,3380.7z"/>
		<path class="st2" d="M228.4,3348c2.7,2.5,5.4,5.1,7.9,7.8c0.9,1,0.8,2.5-0.1,3.4c0,0,0,0,0,0c-0.9,0.9-2.6,1.1-3.5,0.2
			c-2.6-2.3-5.3-5.2-7.9-7.8c-0.6-0.6-0.9-1.5-0.7-2.4c0,0,0,0,0-0.1c0.2-0.9,0.9-1.6,1.8-1.8c0,0,0.1,0,0.1,0
			C226.9,3347.1,227.8,3347.3,228.4,3348z"/>
		<path class="st2" d="M261.3,3339.5c0.1,3.7,0.2,7.4,0,11.1c0,1.3-1.2,2.3-2.5,2.4c0,0,0,0,0,0c-1.3,0-2.6-1-2.7-2.3
			c-0.2-3.5-0.1-7.4-0.1-11.1c0-0.9,0.5-1.7,1.2-2.1c0,0,0,0,0.1,0c0.8-0.5,1.8-0.5,2.6,0c0,0,0.1,0,0.1,0.1
			C260.8,3337.8,261.3,3338.6,261.3,3339.5z"/>
		<path class="st2" d="M293.9,3354.5c-2.5,2.7-5.1,5.4-7.8,7.9c-1,0.9-2.5,0.8-3.4-0.1c0,0,0,0,0,0c-0.9-0.9-1.1-2.6-0.2-3.5
			c2.3-2.6,5.2-5.3,7.8-7.9c0.6-0.6,1.5-0.9,2.4-0.7c0,0,0,0,0.1,0c0.9,0.2,1.6,0.9,1.8,1.8c0,0,0,0.1,0,0.1
			C294.8,3353,294.5,3353.9,293.9,3354.5z"/>
		<path class="st2" d="M250.5,3426.1c5.6,0,11.1,0,16.8,0c0.8,0,1.5,0.7,1.5,1.5c0,0.1,0,0.2,0,0.3c0,0.8-0.7,1.5-1.5,1.5
			c-5.1,0-11.6,0-16.8,0c-0.8,0-1.5-0.7-1.5-1.5c0-0.1,0-0.2,0-0.3C249,3426.8,249.7,3426.1,250.5,3426.1z"/>
		<path class="st2" d="M250.4,3431.4c5.6,0,11.1,0,16.8,0c0.8,0,1.5,0.7,1.5,1.5c0,0.1,0,0.2,0,0.3c0,0.8-0.7,1.5-1.5,1.5
			c-5.1,0-11.6,0-16.8,0c-0.8,0-1.5-0.7-1.5-1.5c0-0.1,0-0.2,0-0.3C248.9,3432.1,249.5,3431.4,250.4,3431.4z"/>
	</g>
</g>
</svg>
